<svg width="352" height="90" viewBox="0 0 352 90" fill="none" xmlns="http://www.w3.org/2000/svg">
<path d="M17.1021 11.816H21.0061V13H15.6461V1.848H17.1021V11.816ZM26.3763 13.144C25.555 13.144 24.8083 12.9573 24.1363 12.584C23.475 12.2107 22.9523 11.6827 22.5683 11C22.195 10.3067 22.0083 9.50667 22.0083 8.6C22.0083 7.704 22.2003 6.91467 22.5843 6.232C22.979 5.53867 23.5123 5.01067 24.1843 4.648C24.8563 4.27467 25.6083 4.088 26.4403 4.088C27.2723 4.088 28.0243 4.27467 28.6963 4.648C29.3683 5.01067 29.8963 5.53333 30.2803 6.216C30.675 6.89867 30.8723 7.69333 30.8723 8.6C30.8723 9.50667 30.6696 10.3067 30.2643 11C29.8696 11.6827 29.331 12.2107 28.6483 12.584C27.9656 12.9573 27.2083 13.144 26.3763 13.144ZM26.3763 11.864C26.899 11.864 27.3896 11.7413 27.8483 11.496C28.307 11.2507 28.675 10.8827 28.9523 10.392C29.2403 9.90133 29.3843 9.304 29.3843 8.6C29.3843 7.896 29.2456 7.29867 28.9683 6.808C28.691 6.31733 28.3283 5.95467 27.8803 5.72C27.4323 5.47467 26.947 5.352 26.4243 5.352C25.891 5.352 25.4003 5.47467 24.9523 5.72C24.515 5.95467 24.163 6.31733 23.8963 6.808C23.6296 7.29867 23.4963 7.896 23.4963 8.6C23.4963 9.31467 23.6243 9.91733 23.8803 10.408C24.147 10.8987 24.499 11.2667 24.9363 11.512C25.3736 11.7467 25.8536 11.864 26.3763 11.864ZM34.2427 5.656C34.4987 5.15467 34.8614 4.76533 35.3307 4.488C35.8107 4.21067 36.392 4.072 37.0747 4.072V5.576H36.6907C35.0587 5.576 34.2427 6.46133 34.2427 8.232V13H32.7867V4.232H34.2427V5.656ZM46.7554 8.28C46.7554 8.55733 46.7394 8.85067 46.7074 9.16H39.6994C39.7528 10.024 40.0461 10.7013 40.5794 11.192C41.1234 11.672 41.7794 11.912 42.5474 11.912C43.1768 11.912 43.6994 11.768 44.1154 11.48C44.5421 11.1813 44.8408 10.7867 45.0114 10.296H46.5794C46.3448 11.1387 45.8754 11.8267 45.1714 12.36C44.4674 12.8827 43.5928 13.144 42.5474 13.144C41.7154 13.144 40.9688 12.9573 40.3074 12.584C39.6568 12.2107 39.1448 11.6827 38.7714 11C38.3981 10.3067 38.2114 9.50667 38.2114 8.6C38.2114 7.69333 38.3928 6.89867 38.7554 6.216C39.1181 5.53333 39.6248 5.01067 40.2754 4.648C40.9368 4.27467 41.6941 4.088 42.5474 4.088C43.3794 4.088 44.1154 4.26933 44.7554 4.632C45.3954 4.99467 45.8861 5.496 46.2274 6.136C46.5794 6.76533 46.7554 7.48 46.7554 8.28ZM45.2514 7.976C45.2514 7.42133 45.1288 6.94667 44.8834 6.552C44.6381 6.14667 44.3021 5.84267 43.8754 5.64C43.4594 5.42667 42.9954 5.32 42.4834 5.32C41.7474 5.32 41.1181 5.55467 40.5954 6.024C40.0834 6.49333 39.7901 7.144 39.7154 7.976H45.2514ZM59.2213 4.072C59.904 4.072 60.512 4.216 61.0453 4.504C61.5786 4.78133 62 5.20267 62.3093 5.768C62.6186 6.33333 62.7733 7.02133 62.7733 7.832V13H61.3333V8.04C61.3333 7.16533 61.1146 6.49867 60.6773 6.04C60.2506 5.57067 59.6693 5.336 58.9333 5.336C58.176 5.336 57.5733 5.58133 57.1253 6.072C56.6773 6.552 56.4533 7.25067 56.4533 8.168V13H55.0133V8.04C55.0133 7.16533 54.7946 6.49867 54.3573 6.04C53.9306 5.57067 53.3493 5.336 52.6133 5.336C51.856 5.336 51.2533 5.58133 50.8053 6.072C50.3573 6.552 50.1333 7.25067 50.1333 8.168V13H48.6773V4.232H50.1333V5.496C50.4213 5.03733 50.8053 4.68533 51.2853 4.44C51.776 4.19467 52.3146 4.072 52.9013 4.072C53.6373 4.072 54.288 4.23733 54.8533 4.568C55.4186 4.89867 55.84 5.384 56.1173 6.024C56.3626 5.40533 56.768 4.92533 57.3333 4.584C57.8986 4.24267 58.528 4.072 59.2213 4.072ZM70.1793 2.808C69.902 2.808 69.6673 2.712 69.4753 2.52C69.2833 2.328 69.1873 2.09333 69.1873 1.816C69.1873 1.53867 69.2833 1.304 69.4753 1.112C69.6673 0.919999 69.902 0.823999 70.1793 0.823999C70.446 0.823999 70.67 0.919999 70.8513 1.112C71.0433 1.304 71.1393 1.53867 71.1393 1.816C71.1393 2.09333 71.0433 2.328 70.8513 2.52C70.67 2.712 70.446 2.808 70.1793 2.808ZM70.8833 4.232V13H69.4273V4.232H70.8833ZM74.8208 5.848C75.1088 5.34667 75.5355 4.93067 76.1008 4.6C76.6768 4.25867 77.3435 4.088 78.1008 4.088C78.8795 4.088 79.5835 4.27467 80.2128 4.648C80.8528 5.02133 81.3541 5.54933 81.7168 6.232C82.0795 6.904 82.2608 7.688 82.2608 8.584C82.2608 9.46933 82.0795 10.2587 81.7168 10.952C81.3541 11.6453 80.8528 12.184 80.2128 12.568C79.5835 12.952 78.8795 13.144 78.1008 13.144C77.3541 13.144 76.6928 12.9787 76.1168 12.648C75.5515 12.3067 75.1195 11.8853 74.8208 11.384V17.16H73.3648V4.232H74.8208V5.848ZM80.7728 8.584C80.7728 7.92267 80.6395 7.34667 80.3728 6.856C80.1061 6.36533 79.7435 5.992 79.2848 5.736C78.8368 5.48 78.3408 5.352 77.7968 5.352C77.2635 5.352 76.7675 5.48533 76.3088 5.752C75.8608 6.008 75.4981 6.38667 75.2208 6.888C74.9541 7.37867 74.8208 7.94933 74.8208 8.6C74.8208 9.26133 74.9541 9.84267 75.2208 10.344C75.4981 10.8347 75.8608 11.2133 76.3088 11.48C76.7675 11.736 77.2635 11.864 77.7968 11.864C78.3408 11.864 78.8368 11.736 79.2848 11.48C79.7435 11.2133 80.1061 10.8347 80.3728 10.344C80.6395 9.84267 80.7728 9.256 80.7728 8.584ZM87.2813 13.144C86.6093 13.144 86.0066 13.032 85.4733 12.808C84.94 12.5733 84.5186 12.2533 84.2093 11.848C83.9 11.432 83.7293 10.9573 83.6973 10.424H85.2013C85.244 10.8613 85.4466 11.2187 85.8093 11.496C86.1826 11.7733 86.668 11.912 87.2653 11.912C87.82 11.912 88.2573 11.7893 88.5773 11.544C88.8973 11.2987 89.0573 10.9893 89.0573 10.616C89.0573 10.232 88.8866 9.94933 88.5453 9.768C88.204 9.576 87.676 9.38933 86.9613 9.208C86.3106 9.03733 85.7773 8.86667 85.3613 8.696C84.956 8.51467 84.604 8.25333 84.3053 7.912C84.0173 7.56 83.8733 7.10133 83.8733 6.536C83.8733 6.088 84.0066 5.67733 84.2733 5.304C84.54 4.93067 84.9186 4.63733 85.4093 4.424C85.9 4.2 86.46 4.088 87.0893 4.088C88.06 4.088 88.844 4.33333 89.4413 4.824C90.0386 5.31467 90.3586 5.98667 90.4013 6.84H88.9453C88.9133 6.38133 88.7266 6.01333 88.3853 5.736C88.0546 5.45867 87.6066 5.32 87.0413 5.32C86.5186 5.32 86.1026 5.432 85.7933 5.656C85.484 5.88 85.3293 6.17333 85.3293 6.536C85.3293 6.824 85.42 7.064 85.6013 7.256C85.7933 7.43733 86.028 7.58667 86.3053 7.704C86.5933 7.81067 86.988 7.93333 87.4893 8.072C88.1186 8.24267 88.6306 8.41333 89.0253 8.584C89.42 8.744 89.756 8.98933 90.0333 9.32C90.3213 9.65067 90.4706 10.0827 90.4813 10.616C90.4813 11.096 90.348 11.528 90.0813 11.912C89.8146 12.296 89.436 12.6 88.9453 12.824C88.4653 13.0373 87.9106 13.144 87.2813 13.144ZM100.313 4.232V13H98.8567V11.704C98.5794 12.152 98.19 12.504 97.6887 12.76C97.198 13.0053 96.654 13.128 96.0567 13.128C95.374 13.128 94.7607 12.9893 94.2167 12.712C93.6727 12.424 93.2407 11.9973 92.9207 11.432C92.6114 10.8667 92.4567 10.1787 92.4567 9.368V4.232H93.8967V9.176C93.8967 10.04 94.1154 10.7067 94.5527 11.176C94.99 11.6347 95.5874 11.864 96.3447 11.864C97.1234 11.864 97.7367 11.624 98.1847 11.144C98.6327 10.664 98.8567 9.96533 98.8567 9.048V4.232H100.313ZM113.315 4.072C113.998 4.072 114.606 4.216 115.139 4.504C115.672 4.78133 116.094 5.20267 116.403 5.768C116.712 6.33333 116.867 7.02133 116.867 7.832V13H115.427V8.04C115.427 7.16533 115.208 6.49867 114.771 6.04C114.344 5.57067 113.763 5.336 113.027 5.336C112.27 5.336 111.667 5.58133 111.219 6.072C110.771 6.552 110.547 7.25067 110.547 8.168V13H109.107V8.04C109.107 7.16533 108.888 6.49867 108.451 6.04C108.024 5.57067 107.443 5.336 106.707 5.336C105.95 5.336 105.347 5.58133 104.899 6.072C104.451 6.552 104.227 7.25067 104.227 8.168V13H102.771V4.232H104.227V5.496C104.515 5.03733 104.899 4.68533 105.379 4.44C105.87 4.19467 106.408 4.072 106.995 4.072C107.731 4.072 108.382 4.23733 108.947 4.568C109.512 4.89867 109.934 5.384 110.211 6.024C110.456 5.40533 110.862 4.92533 111.427 4.584C111.992 4.24267 112.622 4.072 113.315 4.072ZM122.977 8.584C122.977 7.688 123.158 6.904 123.521 6.232C123.884 5.54933 124.38 5.02133 125.009 4.648C125.649 4.27467 126.364 4.088 127.153 4.088C127.836 4.088 128.47 4.248 129.057 4.568C129.644 4.87733 130.092 5.288 130.401 5.8V1.16H131.873V13H130.401V11.352C130.113 11.8747 129.686 12.3067 129.121 12.648C128.556 12.9787 127.894 13.144 127.137 13.144C126.358 13.144 125.649 12.952 125.009 12.568C124.38 12.184 123.884 11.6453 123.521 10.952C123.158 10.2587 122.977 9.46933 122.977 8.584ZM130.401 8.6C130.401 7.93867 130.268 7.36267 130.001 6.872C129.734 6.38133 129.372 6.008 128.913 5.752C128.465 5.48533 127.969 5.352 127.425 5.352C126.881 5.352 126.385 5.48 125.937 5.736C125.489 5.992 125.132 6.36533 124.865 6.856C124.598 7.34667 124.465 7.92267 124.465 8.584C124.465 9.256 124.598 9.84267 124.865 10.344C125.132 10.8347 125.489 11.2133 125.937 11.48C126.385 11.736 126.881 11.864 127.425 11.864C127.969 11.864 128.465 11.736 128.913 11.48C129.372 11.2133 129.734 10.8347 130.001 10.344C130.268 9.84267 130.401 9.26133 130.401 8.6ZM138.158 13.144C137.336 13.144 136.59 12.9573 135.918 12.584C135.256 12.2107 134.734 11.6827 134.35 11C133.976 10.3067 133.79 9.50667 133.79 8.6C133.79 7.704 133.982 6.91467 134.366 6.232C134.76 5.53867 135.294 5.01067 135.966 4.648C136.638 4.27467 137.39 4.088 138.222 4.088C139.054 4.088 139.806 4.27467 140.478 4.648C141.15 5.01067 141.678 5.53333 142.062 6.216C142.456 6.89867 142.654 7.69333 142.654 8.6C142.654 9.50667 142.451 10.3067 142.046 11C141.651 11.6827 141.112 12.2107 140.43 12.584C139.747 12.9573 138.99 13.144 138.158 13.144ZM138.158 11.864C138.68 11.864 139.171 11.7413 139.63 11.496C140.088 11.2507 140.456 10.8827 140.734 10.392C141.022 9.90133 141.166 9.304 141.166 8.6C141.166 7.896 141.027 7.29867 140.75 6.808C140.472 6.31733 140.11 5.95467 139.662 5.72C139.214 5.47467 138.728 5.352 138.206 5.352C137.672 5.352 137.182 5.47467 136.734 5.72C136.296 5.95467 135.944 6.31733 135.678 6.808C135.411 7.29867 135.278 7.896 135.278 8.6C135.278 9.31467 135.406 9.91733 135.662 10.408C135.928 10.8987 136.28 11.2667 136.718 11.512C137.155 11.7467 137.635 11.864 138.158 11.864ZM146.024 1.16V13H144.568V1.16H146.024ZM152.329 13.144C151.508 13.144 150.761 12.9573 150.089 12.584C149.428 12.2107 148.905 11.6827 148.521 11C148.148 10.3067 147.961 9.50667 147.961 8.6C147.961 7.704 148.153 6.91467 148.537 6.232C148.932 5.53867 149.465 5.01067 150.137 4.648C150.809 4.27467 151.561 4.088 152.393 4.088C153.225 4.088 153.977 4.27467 154.649 4.648C155.321 5.01067 155.849 5.53333 156.233 6.216C156.628 6.89867 156.825 7.69333 156.825 8.6C156.825 9.50667 156.623 10.3067 156.217 11C155.823 11.6827 155.284 12.2107 154.601 12.584C153.919 12.9573 153.161 13.144 152.329 13.144ZM152.329 11.864C152.852 11.864 153.343 11.7413 153.801 11.496C154.26 11.2507 154.628 10.8827 154.905 10.392C155.193 9.90133 155.337 9.304 155.337 8.6C155.337 7.896 155.199 7.29867 154.921 6.808C154.644 6.31733 154.281 5.95467 153.833 5.72C153.385 5.47467 152.9 5.352 152.377 5.352C151.844 5.352 151.353 5.47467 150.905 5.72C150.468 5.95467 150.116 6.31733 149.849 6.808C149.583 7.29867 149.449 7.896 149.449 8.6C149.449 9.31467 149.577 9.91733 149.833 10.408C150.1 10.8987 150.452 11.2667 150.889 11.512C151.327 11.7467 151.807 11.864 152.329 11.864ZM160.196 5.656C160.452 5.15467 160.814 4.76533 161.284 4.488C161.764 4.21067 162.345 4.072 163.028 4.072V5.576H162.644C161.012 5.576 160.196 6.46133 160.196 8.232V13H158.74V4.232H160.196V5.656ZM172.078 13.144C171.406 13.144 170.804 13.032 170.27 12.808C169.737 12.5733 169.316 12.2533 169.006 11.848C168.697 11.432 168.526 10.9573 168.494 10.424H169.998C170.041 10.8613 170.244 11.2187 170.606 11.496C170.98 11.7733 171.465 11.912 172.062 11.912C172.617 11.912 173.054 11.7893 173.374 11.544C173.694 11.2987 173.854 10.9893 173.854 10.616C173.854 10.232 173.684 9.94933 173.342 9.768C173.001 9.576 172.473 9.38933 171.758 9.208C171.108 9.03733 170.574 8.86667 170.158 8.696C169.753 8.51467 169.401 8.25333 169.102 7.912C168.814 7.56 168.67 7.10133 168.67 6.536C168.67 6.088 168.804 5.67733 169.07 5.304C169.337 4.93067 169.716 4.63733 170.206 4.424C170.697 4.2 171.257 4.088 171.886 4.088C172.857 4.088 173.641 4.33333 174.238 4.824C174.836 5.31467 175.156 5.98667 175.198 6.84H173.742C173.71 6.38133 173.524 6.01333 173.182 5.736C172.852 5.45867 172.404 5.32 171.838 5.32C171.316 5.32 170.9 5.432 170.59 5.656C170.281 5.88 170.126 6.17333 170.126 6.536C170.126 6.824 170.217 7.064 170.398 7.256C170.59 7.43733 170.825 7.58667 171.102 7.704C171.39 7.81067 171.785 7.93333 172.286 8.072C172.916 8.24267 173.428 8.41333 173.822 8.584C174.217 8.744 174.553 8.98933 174.83 9.32C175.118 9.65067 175.268 10.0827 175.278 10.616C175.278 11.096 175.145 11.528 174.878 11.912C174.612 12.296 174.233 12.6 173.742 12.824C173.262 13.0373 172.708 13.144 172.078 13.144ZM178.086 2.808C177.808 2.808 177.574 2.712 177.382 2.52C177.19 2.328 177.094 2.09333 177.094 1.816C177.094 1.53867 177.19 1.304 177.382 1.112C177.574 0.919999 177.808 0.823999 178.086 0.823999C178.352 0.823999 178.576 0.919999 178.758 1.112C178.95 1.304 179.046 1.53867 179.046 1.816C179.046 2.09333 178.95 2.328 178.758 2.52C178.576 2.712 178.352 2.808 178.086 2.808ZM178.79 4.232V13H177.334V4.232H178.79ZM183.047 5.432V10.6C183.047 11.0267 183.138 11.3307 183.319 11.512C183.5 11.6827 183.815 11.768 184.263 11.768H185.335V13H184.023C183.212 13 182.604 12.8133 182.199 12.44C181.794 12.0667 181.591 11.4533 181.591 10.6V5.432H180.455V4.232H181.591V2.024H183.047V4.232H185.335V5.432H183.047ZM190.821 8.584C190.821 7.688 191.002 6.904 191.365 6.232C191.727 5.54933 192.223 5.02133 192.853 4.648C193.493 4.27467 194.202 4.088 194.981 4.088C195.749 4.088 196.415 4.25333 196.981 4.584C197.546 4.91467 197.967 5.33067 198.245 5.832V4.232H199.717V13H198.245V11.368C197.957 11.88 197.525 12.3067 196.949 12.648C196.383 12.9787 195.722 13.144 194.965 13.144C194.186 13.144 193.482 12.952 192.853 12.568C192.223 12.184 191.727 11.6453 191.365 10.952C191.002 10.2587 190.821 9.46933 190.821 8.584ZM198.245 8.6C198.245 7.93867 198.111 7.36267 197.845 6.872C197.578 6.38133 197.215 6.008 196.757 5.752C196.309 5.48533 195.813 5.352 195.269 5.352C194.725 5.352 194.229 5.48 193.781 5.736C193.333 5.992 192.975 6.36533 192.709 6.856C192.442 7.34667 192.309 7.92267 192.309 8.584C192.309 9.256 192.442 9.84267 192.709 10.344C192.975 10.8347 193.333 11.2133 193.781 11.48C194.229 11.736 194.725 11.864 195.269 11.864C195.813 11.864 196.309 11.736 196.757 11.48C197.215 11.2133 197.578 10.8347 197.845 10.344C198.111 9.84267 198.245 9.26133 198.245 8.6ZM212.721 4.072C213.404 4.072 214.012 4.216 214.545 4.504C215.079 4.78133 215.5 5.20267 215.809 5.768C216.119 6.33333 216.273 7.02133 216.273 7.832V13H214.833V8.04C214.833 7.16533 214.615 6.49867 214.177 6.04C213.751 5.57067 213.169 5.336 212.433 5.336C211.676 5.336 211.073 5.58133 210.625 6.072C210.177 6.552 209.953 7.25067 209.953 8.168V13H208.513V8.04C208.513 7.16533 208.295 6.49867 207.857 6.04C207.431 5.57067 206.849 5.336 206.113 5.336C205.356 5.336 204.753 5.58133 204.305 6.072C203.857 6.552 203.633 7.25067 203.633 8.168V13H202.177V4.232H203.633V5.496C203.921 5.03733 204.305 4.68533 204.785 4.44C205.276 4.19467 205.815 4.072 206.401 4.072C207.137 4.072 207.788 4.23733 208.353 4.568C208.919 4.89867 209.34 5.384 209.617 6.024C209.863 5.40533 210.268 4.92533 210.833 4.584C211.399 4.24267 212.028 4.072 212.721 4.072ZM226.662 8.28C226.662 8.55733 226.646 8.85067 226.614 9.16H219.606C219.659 10.024 219.952 10.7013 220.486 11.192C221.03 11.672 221.686 11.912 222.454 11.912C223.083 11.912 223.606 11.768 224.022 11.48C224.448 11.1813 224.747 10.7867 224.918 10.296H226.486C226.251 11.1387 225.782 11.8267 225.078 12.36C224.374 12.8827 223.499 13.144 222.454 13.144C221.622 13.144 220.875 12.9573 220.214 12.584C219.563 12.2107 219.051 11.6827 218.678 11C218.304 10.3067 218.118 9.50667 218.118 8.6C218.118 7.69333 218.299 6.89867 218.662 6.216C219.024 5.53333 219.531 5.01067 220.182 4.648C220.843 4.27467 221.6 4.088 222.454 4.088C223.286 4.088 224.022 4.26933 224.662 4.632C225.302 4.99467 225.792 5.496 226.134 6.136C226.486 6.76533 226.662 7.48 226.662 8.28ZM225.158 7.976C225.158 7.42133 225.035 6.94667 224.79 6.552C224.544 6.14667 224.208 5.84267 223.782 5.64C223.366 5.42667 222.902 5.32 222.39 5.32C221.654 5.32 221.024 5.55467 220.502 6.024C219.99 6.49333 219.696 7.144 219.622 7.976H225.158ZM230.36 5.432V10.6C230.36 11.0267 230.45 11.3307 230.632 11.512C230.813 11.6827 231.128 11.768 231.576 11.768H232.648V13H231.336C230.525 13 229.917 12.8133 229.512 12.44C229.106 12.0667 228.904 11.4533 228.904 10.6V5.432H227.768V4.232H228.904V2.024H230.36V4.232H232.648V5.432H230.36ZM235.916 10.984L234.124 15.288H233.148L234.316 10.984H235.916ZM241.305 8.6C241.305 7.69333 241.487 6.904 241.849 6.232C242.212 5.54933 242.713 5.02133 243.353 4.648C244.004 4.27467 244.745 4.088 245.577 4.088C246.655 4.088 247.54 4.34933 248.233 4.872C248.937 5.39467 249.401 6.12 249.625 7.048H248.057C247.908 6.51467 247.615 6.09333 247.177 5.784C246.751 5.47467 246.217 5.32 245.577 5.32C244.745 5.32 244.073 5.608 243.561 6.184C243.049 6.74933 242.793 7.55467 242.793 8.6C242.793 9.656 243.049 10.472 243.561 11.048C244.073 11.624 244.745 11.912 245.577 11.912C246.217 11.912 246.751 11.7627 247.177 11.464C247.604 11.1653 247.897 10.7387 248.057 10.184H249.625C249.391 11.08 248.921 11.8 248.217 12.344C247.513 12.8773 246.633 13.144 245.577 13.144C244.745 13.144 244.004 12.9573 243.353 12.584C242.713 12.2107 242.212 11.6827 241.849 11C241.487 10.3173 241.305 9.51733 241.305 8.6ZM255.392 13.144C254.571 13.144 253.824 12.9573 253.152 12.584C252.491 12.2107 251.968 11.6827 251.584 11C251.211 10.3067 251.024 9.50667 251.024 8.6C251.024 7.704 251.216 6.91467 251.6 6.232C251.995 5.53867 252.528 5.01067 253.2 4.648C253.872 4.27467 254.624 4.088 255.456 4.088C256.288 4.088 257.04 4.27467 257.712 4.648C258.384 5.01067 258.912 5.53333 259.296 6.216C259.691 6.89867 259.888 7.69333 259.888 8.6C259.888 9.50667 259.685 10.3067 259.28 11C258.885 11.6827 258.347 12.2107 257.664 12.584C256.981 12.9573 256.224 13.144 255.392 13.144ZM255.392 11.864C255.915 11.864 256.405 11.7413 256.864 11.496C257.323 11.2507 257.691 10.8827 257.968 10.392C258.256 9.90133 258.4 9.304 258.4 8.6C258.4 7.896 258.261 7.29867 257.984 6.808C257.707 6.31733 257.344 5.95467 256.896 5.72C256.448 5.47467 255.963 5.352 255.44 5.352C254.907 5.352 254.416 5.47467 253.968 5.72C253.531 5.95467 253.179 6.31733 252.912 6.808C252.645 7.29867 252.512 7.896 252.512 8.6C252.512 9.31467 252.64 9.91733 252.896 10.408C253.163 10.8987 253.515 11.2667 253.952 11.512C254.389 11.7467 254.869 11.864 255.392 11.864ZM266.074 4.072C267.141 4.072 268.005 4.39733 268.666 5.048C269.328 5.688 269.658 6.616 269.658 7.832V13H268.218V8.04C268.218 7.16533 268 6.49867 267.562 6.04C267.125 5.57067 266.528 5.336 265.77 5.336C265.002 5.336 264.389 5.576 263.93 6.056C263.482 6.536 263.258 7.23467 263.258 8.152V13H261.802V4.232H263.258V5.48C263.546 5.032 263.936 4.68533 264.426 4.44C264.928 4.19467 265.477 4.072 266.074 4.072ZM275.141 13.144C274.469 13.144 273.866 13.032 273.333 12.808C272.799 12.5733 272.378 12.2533 272.069 11.848C271.759 11.432 271.589 10.9573 271.557 10.424H273.061C273.103 10.8613 273.306 11.2187 273.669 11.496C274.042 11.7733 274.527 11.912 275.125 11.912C275.679 11.912 276.117 11.7893 276.437 11.544C276.757 11.2987 276.917 10.9893 276.917 10.616C276.917 10.232 276.746 9.94933 276.405 9.768C276.063 9.576 275.535 9.38933 274.821 9.208C274.17 9.03733 273.637 8.86667 273.221 8.696C272.815 8.51467 272.463 8.25333 272.165 7.912C271.877 7.56 271.733 7.10133 271.733 6.536C271.733 6.088 271.866 5.67733 272.133 5.304C272.399 4.93067 272.778 4.63733 273.269 4.424C273.759 4.2 274.319 4.088 274.949 4.088C275.919 4.088 276.703 4.33333 277.301 4.824C277.898 5.31467 278.218 5.98667 278.261 6.84H276.805C276.773 6.38133 276.586 6.01333 276.245 5.736C275.914 5.45867 275.466 5.32 274.901 5.32C274.378 5.32 273.962 5.432 273.653 5.656C273.343 5.88 273.189 6.17333 273.189 6.536C273.189 6.824 273.279 7.064 273.461 7.256C273.653 7.43733 273.887 7.58667 274.165 7.704C274.453 7.81067 274.847 7.93333 275.349 8.072C275.978 8.24267 276.49 8.41333 276.885 8.584C277.279 8.744 277.615 8.98933 277.893 9.32C278.181 9.65067 278.33 10.0827 278.341 10.616C278.341 11.096 278.207 11.528 277.941 11.912C277.674 12.296 277.295 12.6 276.805 12.824C276.325 13.0373 275.77 13.144 275.141 13.144ZM288.396 8.28C288.396 8.55733 288.38 8.85067 288.348 9.16H281.34C281.393 10.024 281.687 10.7013 282.22 11.192C282.764 11.672 283.42 11.912 284.188 11.912C284.817 11.912 285.34 11.768 285.756 11.48C286.183 11.1813 286.481 10.7867 286.652 10.296H288.22C287.985 11.1387 287.516 11.8267 286.812 12.36C286.108 12.8827 285.233 13.144 284.188 13.144C283.356 13.144 282.609 12.9573 281.948 12.584C281.297 12.2107 280.785 11.6827 280.412 11C280.039 10.3067 279.852 9.50667 279.852 8.6C279.852 7.69333 280.033 6.89867 280.396 6.216C280.759 5.53333 281.265 5.01067 281.916 4.648C282.577 4.27467 283.335 4.088 284.188 4.088C285.02 4.088 285.756 4.26933 286.396 4.632C287.036 4.99467 287.527 5.496 287.868 6.136C288.22 6.76533 288.396 7.48 288.396 8.28ZM286.892 7.976C286.892 7.42133 286.769 6.94667 286.524 6.552C286.279 6.14667 285.943 5.84267 285.516 5.64C285.1 5.42667 284.636 5.32 284.124 5.32C283.388 5.32 282.759 5.55467 282.236 6.024C281.724 6.49333 281.431 7.144 281.356 7.976H286.892ZM289.774 8.6C289.774 7.69333 289.955 6.904 290.318 6.232C290.681 5.54933 291.182 5.02133 291.822 4.648C292.473 4.27467 293.214 4.088 294.046 4.088C295.123 4.088 296.009 4.34933 296.702 4.872C297.406 5.39467 297.87 6.12 298.094 7.048H296.526C296.377 6.51467 296.083 6.09333 295.646 5.784C295.219 5.47467 294.686 5.32 294.046 5.32C293.214 5.32 292.542 5.608 292.03 6.184C291.518 6.74933 291.262 7.55467 291.262 8.6C291.262 9.656 291.518 10.472 292.03 11.048C292.542 11.624 293.214 11.912 294.046 11.912C294.686 11.912 295.219 11.7627 295.646 11.464C296.073 11.1653 296.366 10.7387 296.526 10.184H298.094C297.859 11.08 297.39 11.8 296.686 12.344C295.982 12.8773 295.102 13.144 294.046 13.144C293.214 13.144 292.473 12.9573 291.822 12.584C291.182 12.2107 290.681 11.6827 290.318 11C289.955 10.3173 289.774 9.51733 289.774 8.6ZM301.813 5.432V10.6C301.813 11.0267 301.903 11.3307 302.085 11.512C302.266 11.6827 302.581 11.768 303.029 11.768H304.101V13H302.789C301.978 13 301.37 12.8133 300.965 12.44C300.559 12.0667 300.357 11.4533 300.357 10.6V5.432H299.221V4.232H300.357V2.024H301.813V4.232H304.101V5.432H301.813ZM313.865 8.28C313.865 8.55733 313.849 8.85067 313.817 9.16H306.809C306.862 10.024 307.155 10.7013 307.689 11.192C308.233 11.672 308.889 11.912 309.657 11.912C310.286 11.912 310.809 11.768 311.225 11.48C311.651 11.1813 311.95 10.7867 312.121 10.296H313.689C313.454 11.1387 312.985 11.8267 312.281 12.36C311.577 12.8827 310.702 13.144 309.657 13.144C308.825 13.144 308.078 12.9573 307.417 12.584C306.766 12.2107 306.254 11.6827 305.881 11C305.507 10.3067 305.321 9.50667 305.321 8.6C305.321 7.69333 305.502 6.89867 305.865 6.216C306.227 5.53333 306.734 5.01067 307.385 4.648C308.046 4.27467 308.803 4.088 309.657 4.088C310.489 4.088 311.225 4.26933 311.865 4.632C312.505 4.99467 312.995 5.496 313.337 6.136C313.689 6.76533 313.865 7.48 313.865 8.28ZM312.361 7.976C312.361 7.42133 312.238 6.94667 311.993 6.552C311.747 6.14667 311.411 5.84267 310.985 5.64C310.569 5.42667 310.105 5.32 309.593 5.32C308.857 5.32 308.227 5.55467 307.705 6.024C307.193 6.49333 306.899 7.144 306.825 7.976H312.361ZM317.563 5.432V10.6C317.563 11.0267 317.653 11.3307 317.835 11.512C318.016 11.6827 318.331 11.768 318.779 11.768H319.851V13H318.539C317.728 13 317.12 12.8133 316.715 12.44C316.309 12.0667 316.107 11.4533 316.107 10.6V5.432H314.971V4.232H316.107V2.024H317.563V4.232H319.851V5.432H317.563ZM329.391 4.232V13H327.935V11.704C327.657 12.152 327.268 12.504 326.767 12.76C326.276 13.0053 325.732 13.128 325.135 13.128C324.452 13.128 323.839 12.9893 323.295 12.712C322.751 12.424 322.319 11.9973 321.999 11.432C321.689 10.8667 321.535 10.1787 321.535 9.368V4.232H322.975V9.176C322.975 10.04 323.193 10.7067 323.631 11.176C324.068 11.6347 324.665 11.864 325.423 11.864C326.201 11.864 326.815 11.624 327.263 11.144C327.711 10.664 327.935 9.96533 327.935 9.048V4.232H329.391ZM333.305 5.656C333.561 5.15467 333.924 4.76533 334.393 4.488C334.873 4.21067 335.455 4.072 336.137 4.072V5.576H335.753C334.121 5.576 333.305 6.46133 333.305 8.232V13H331.849V4.232H333.305V5.656ZM20.7505 32.584C20.7505 31.688 20.9318 30.904 21.2945 30.232C21.6572 29.5493 22.1532 29.0213 22.7825 28.648C23.4225 28.2747 24.1318 28.088 24.9105 28.088C25.6785 28.088 26.3452 28.2533 26.9105 28.584C27.4758 28.9147 27.8972 29.3307 28.1745 29.832V28.232H29.6465V37H28.1745V35.368C27.8865 35.88 27.4545 36.3067 26.8785 36.648C26.3132 36.9787 25.6518 37.144 24.8945 37.144C24.1158 37.144 23.4118 36.952 22.7825 36.568C22.1532 36.184 21.6572 35.6453 21.2945 34.952C20.9318 34.2587 20.7505 33.4693 20.7505 32.584ZM28.1745 32.6C28.1745 31.9387 28.0412 31.3627 27.7745 30.872C27.5078 30.3813 27.1452 30.008 26.6865 29.752C26.2385 29.4853 25.7425 29.352 25.1985 29.352C24.6545 29.352 24.1585 29.48 23.7105 29.736C23.2625 29.992 22.9052 30.3653 22.6385 30.856C22.3718 31.3467 22.2385 31.9227 22.2385 32.584C22.2385 33.256 22.3718 33.8427 22.6385 34.344C22.9052 34.8347 23.2625 35.2133 23.7105 35.48C24.1585 35.736 24.6545 35.864 25.1985 35.864C25.7425 35.864 26.2385 35.736 26.6865 35.48C27.1452 35.2133 27.5078 34.8347 27.7745 34.344C28.0412 33.8427 28.1745 33.2613 28.1745 32.6ZM31.563 32.584C31.563 31.688 31.7443 30.904 32.107 30.232C32.4697 29.5493 32.9657 29.0213 33.595 28.648C34.235 28.2747 34.9497 28.088 35.739 28.088C36.4217 28.088 37.0563 28.248 37.643 28.568C38.2297 28.8773 38.6777 29.288 38.987 29.8V25.16H40.459V37H38.987V35.352C38.699 35.8747 38.2723 36.3067 37.707 36.648C37.1417 36.9787 36.4803 37.144 35.723 37.144C34.9443 37.144 34.235 36.952 33.595 36.568C32.9657 36.184 32.4697 35.6453 32.107 34.952C31.7443 34.2587 31.563 33.4693 31.563 32.584ZM38.987 32.6C38.987 31.9387 38.8537 31.3627 38.587 30.872C38.3203 30.3813 37.9577 30.008 37.499 29.752C37.051 29.4853 36.555 29.352 36.011 29.352C35.467 29.352 34.971 29.48 34.523 29.736C34.075 29.992 33.7177 30.3653 33.451 30.856C33.1843 31.3467 33.051 31.9227 33.051 32.584C33.051 33.256 33.1843 33.8427 33.451 34.344C33.7177 34.8347 34.075 35.2133 34.523 35.48C34.971 35.736 35.467 35.864 36.011 35.864C36.555 35.864 37.051 35.736 37.499 35.48C37.9577 35.2133 38.3203 34.8347 38.587 34.344C38.8537 33.8427 38.987 33.2613 38.987 32.6ZM43.6715 26.808C43.3942 26.808 43.1595 26.712 42.9675 26.52C42.7755 26.328 42.6795 26.0933 42.6795 25.816C42.6795 25.5387 42.7755 25.304 42.9675 25.112C43.1595 24.92 43.3942 24.824 43.6715 24.824C43.9382 24.824 44.1622 24.92 44.3435 25.112C44.5355 25.304 44.6315 25.5387 44.6315 25.816C44.6315 26.0933 44.5355 26.328 44.3435 26.52C44.1622 26.712 43.9382 26.808 43.6715 26.808ZM44.3755 28.232V37H42.9195V28.232H44.3755ZM48.313 29.848C48.601 29.3467 49.0277 28.9307 49.593 28.6C50.169 28.2587 50.8357 28.088 51.593 28.088C52.3717 28.088 53.0757 28.2747 53.705 28.648C54.345 29.0213 54.8463 29.5493 55.209 30.232C55.5717 30.904 55.753 31.688 55.753 32.584C55.753 33.4693 55.5717 34.2587 55.209 34.952C54.8463 35.6453 54.345 36.184 53.705 36.568C53.0757 36.952 52.3717 37.144 51.593 37.144C50.8463 37.144 50.185 36.9787 49.609 36.648C49.0437 36.3067 48.6117 35.8853 48.313 35.384V41.16H46.857V28.232H48.313V29.848ZM54.265 32.584C54.265 31.9227 54.1317 31.3467 53.865 30.856C53.5983 30.3653 53.2357 29.992 52.777 29.736C52.329 29.48 51.833 29.352 51.289 29.352C50.7557 29.352 50.2597 29.4853 49.801 29.752C49.353 30.008 48.9903 30.3867 48.713 30.888C48.4463 31.3787 48.313 31.9493 48.313 32.6C48.313 33.2613 48.4463 33.8427 48.713 34.344C48.9903 34.8347 49.353 35.2133 49.801 35.48C50.2597 35.736 50.7557 35.864 51.289 35.864C51.833 35.864 52.329 35.736 52.777 35.48C53.2357 35.2133 53.5983 34.8347 53.865 34.344C54.1317 33.8427 54.265 33.256 54.265 32.584ZM58.4215 26.808C58.1442 26.808 57.9095 26.712 57.7175 26.52C57.5255 26.328 57.4295 26.0933 57.4295 25.816C57.4295 25.5387 57.5255 25.304 57.7175 25.112C57.9095 24.92 58.1442 24.824 58.4215 24.824C58.6882 24.824 58.9122 24.92 59.0935 25.112C59.2855 25.304 59.3815 25.5387 59.3815 25.816C59.3815 26.0933 59.2855 26.328 59.0935 26.52C58.9122 26.712 58.6882 26.808 58.4215 26.808ZM59.1255 28.232V37H57.6695V28.232H59.1255ZM64.711 37.144C64.039 37.144 63.4363 37.032 62.903 36.808C62.3697 36.5733 61.9483 36.2533 61.639 35.848C61.3297 35.432 61.159 34.9573 61.127 34.424H62.631C62.6737 34.8613 62.8763 35.2187 63.239 35.496C63.6123 35.7733 64.0977 35.912 64.695 35.912C65.2497 35.912 65.687 35.7893 66.007 35.544C66.327 35.2987 66.487 34.9893 66.487 34.616C66.487 34.232 66.3163 33.9493 65.975 33.768C65.6337 33.576 65.1057 33.3893 64.391 33.208C63.7403 33.0373 63.207 32.8667 62.791 32.696C62.3857 32.5147 62.0337 32.2533 61.735 31.912C61.447 31.56 61.303 31.1013 61.303 30.536C61.303 30.088 61.4363 29.6773 61.703 29.304C61.9697 28.9307 62.3483 28.6373 62.839 28.424C63.3297 28.2 63.8897 28.088 64.519 28.088C65.4897 28.088 66.2737 28.3333 66.871 28.824C67.4683 29.3147 67.7883 29.9867 67.831 30.84H66.375C66.343 30.3813 66.1563 30.0133 65.815 29.736C65.4843 29.4587 65.0363 29.32 64.471 29.32C63.9483 29.32 63.5323 29.432 63.223 29.656C62.9137 29.88 62.759 30.1733 62.759 30.536C62.759 30.824 62.8497 31.064 63.031 31.256C63.223 31.4373 63.4577 31.5867 63.735 31.704C64.023 31.8107 64.4177 31.9333 64.919 32.072C65.5483 32.2427 66.0603 32.4133 66.455 32.584C66.8497 32.744 67.1857 32.9893 67.463 33.32C67.751 33.6507 67.9003 34.0827 67.911 34.616C67.911 35.096 67.7777 35.528 67.511 35.912C67.2443 36.296 66.8657 36.6 66.375 36.824C65.895 37.0373 65.3403 37.144 64.711 37.144ZM69.4224 32.6C69.4224 31.6933 69.6037 30.904 69.9664 30.232C70.329 29.5493 70.8304 29.0213 71.4704 28.648C72.121 28.2747 72.8624 28.088 73.6944 28.088C74.7717 28.088 75.657 28.3493 76.3504 28.872C77.0544 29.3947 77.5184 30.12 77.7424 31.048H76.1744C76.025 30.5147 75.7317 30.0933 75.2944 29.784C74.8677 29.4747 74.3344 29.32 73.6944 29.32C72.8624 29.32 72.1904 29.608 71.6784 30.184C71.1664 30.7493 70.9104 31.5547 70.9104 32.6C70.9104 33.656 71.1664 34.472 71.6784 35.048C72.1904 35.624 72.8624 35.912 73.6944 35.912C74.3344 35.912 74.8677 35.7627 75.2944 35.464C75.721 35.1653 76.0144 34.7387 76.1744 34.184H77.7424C77.5077 35.08 77.0384 35.8 76.3344 36.344C75.6304 36.8773 74.7504 37.144 73.6944 37.144C72.8624 37.144 72.121 36.9573 71.4704 36.584C70.8304 36.2107 70.329 35.6827 69.9664 35C69.6037 34.3173 69.4224 33.5173 69.4224 32.6ZM80.4371 26.808C80.1598 26.808 79.9251 26.712 79.7331 26.52C79.5411 26.328 79.4451 26.0933 79.4451 25.816C79.4451 25.5387 79.5411 25.304 79.7331 25.112C79.9251 24.92 80.1598 24.824 80.4371 24.824C80.7038 24.824 80.9278 24.92 81.1091 25.112C81.3011 25.304 81.3971 25.5387 81.3971 25.816C81.3971 26.0933 81.3011 26.328 81.1091 26.52C80.9278 26.712 80.7038 26.808 80.4371 26.808ZM81.1411 28.232V37H79.6851V28.232H81.1411ZM87.8946 28.072C88.9613 28.072 89.8253 28.3973 90.4866 29.048C91.148 29.688 91.4786 30.616 91.4786 31.832V37H90.0386V32.04C90.0386 31.1653 89.82 30.4987 89.3826 30.04C88.9453 29.5707 88.348 29.336 87.5906 29.336C86.8226 29.336 86.2093 29.576 85.7506 30.056C85.3026 30.536 85.0786 31.2347 85.0786 32.152V37H83.6226V28.232H85.0786V29.48C85.3666 29.032 85.756 28.6853 86.2466 28.44C86.748 28.1947 87.2973 28.072 87.8946 28.072ZM97.473 28.088C98.2303 28.088 98.8917 28.2533 99.457 28.584C100.033 28.9147 100.46 29.3307 100.737 29.832V28.232H102.209V37.192C102.209 37.992 102.038 38.7013 101.697 39.32C101.356 39.9493 100.865 40.44 100.225 40.792C99.5957 41.144 98.8597 41.32 98.017 41.32C96.865 41.32 95.905 41.048 95.137 40.504C94.369 39.96 93.9157 39.2187 93.777 38.28H95.217C95.377 38.8133 95.7077 39.24 96.209 39.56C96.7103 39.8907 97.313 40.056 98.017 40.056C98.817 40.056 99.4677 39.8053 99.969 39.304C100.481 38.8027 100.737 38.0987 100.737 37.192V35.352C100.449 35.864 100.022 36.2907 99.457 36.632C98.8917 36.9733 98.2303 37.144 97.473 37.144C96.6943 37.144 95.985 36.952 95.345 36.568C94.7157 36.184 94.2197 35.6453 93.857 34.952C93.4943 34.2587 93.313 33.4693 93.313 32.584C93.313 31.688 93.4943 30.904 93.857 30.232C94.2197 29.5493 94.7157 29.0213 95.345 28.648C95.985 28.2747 96.6943 28.088 97.473 28.088ZM100.737 32.6C100.737 31.9387 100.604 31.3627 100.337 30.872C100.07 30.3813 99.7077 30.008 99.249 29.752C98.801 29.4853 98.305 29.352 97.761 29.352C97.217 29.352 96.721 29.48 96.273 29.736C95.825 29.992 95.4677 30.3653 95.201 30.856C94.9343 31.3467 94.801 31.9227 94.801 32.584C94.801 33.256 94.9343 33.8427 95.201 34.344C95.4677 34.8347 95.825 35.2133 96.273 35.48C96.721 35.736 97.217 35.864 97.761 35.864C98.305 35.864 98.801 35.736 99.249 35.48C99.7077 35.2133 100.07 34.8347 100.337 34.344C100.604 33.8427 100.737 33.2613 100.737 32.6ZM116.935 32.28C116.935 32.5573 116.919 32.8507 116.887 33.16H109.879C109.932 34.024 110.226 34.7013 110.759 35.192C111.303 35.672 111.959 35.912 112.727 35.912C113.356 35.912 113.879 35.768 114.295 35.48C114.722 35.1813 115.02 34.7867 115.191 34.296H116.759C116.524 35.1387 116.055 35.8267 115.351 36.36C114.647 36.8827 113.772 37.144 112.727 37.144C111.895 37.144 111.148 36.9573 110.487 36.584C109.836 36.2107 109.324 35.6827 108.951 35C108.578 34.3067 108.391 33.5067 108.391 32.6C108.391 31.6933 108.572 30.8987 108.935 30.216C109.298 29.5333 109.804 29.0107 110.455 28.648C111.116 28.2747 111.874 28.088 112.727 28.088C113.559 28.088 114.295 28.2693 114.935 28.632C115.575 28.9947 116.066 29.496 116.407 30.136C116.759 30.7653 116.935 31.48 116.935 32.28ZM115.431 31.976C115.431 31.4213 115.308 30.9467 115.063 30.552C114.818 30.1467 114.482 29.8427 114.055 29.64C113.639 29.4267 113.175 29.32 112.663 29.32C111.927 29.32 111.298 29.5547 110.775 30.024C110.263 30.4933 109.97 31.144 109.895 31.976H115.431ZM120.313 25.16V37H118.857V25.16H120.313ZM123.547 26.808C123.269 26.808 123.035 26.712 122.843 26.52C122.651 26.328 122.555 26.0933 122.555 25.816C122.555 25.5387 122.651 25.304 122.843 25.112C123.035 24.92 123.269 24.824 123.547 24.824C123.813 24.824 124.037 24.92 124.219 25.112C124.411 25.304 124.507 25.5387 124.507 25.816C124.507 26.0933 124.411 26.328 124.219 26.52C124.037 26.712 123.813 26.808 123.547 26.808ZM124.251 28.232V37H122.795V28.232H124.251ZM128.508 29.432V34.6C128.508 35.0267 128.599 35.3307 128.78 35.512C128.961 35.6827 129.276 35.768 129.724 35.768H130.796V37H129.484C128.673 37 128.065 36.8133 127.66 36.44C127.255 36.0667 127.052 35.4533 127.052 34.6V29.432H125.916V28.232H127.052V26.024H128.508V28.232H130.796V29.432H128.508ZM134.064 34.984L132.272 39.288H131.296L132.464 34.984H134.064ZM143.102 37.144C142.43 37.144 141.827 37.032 141.294 36.808C140.76 36.5733 140.339 36.2533 140.03 35.848C139.72 35.432 139.55 34.9573 139.518 34.424H141.022C141.064 34.8613 141.267 35.2187 141.63 35.496C142.003 35.7733 142.488 35.912 143.086 35.912C143.64 35.912 144.078 35.7893 144.398 35.544C144.718 35.2987 144.878 34.9893 144.878 34.616C144.878 34.232 144.707 33.9493 144.366 33.768C144.024 33.576 143.496 33.3893 142.782 33.208C142.131 33.0373 141.598 32.8667 141.182 32.696C140.776 32.5147 140.424 32.2533 140.126 31.912C139.838 31.56 139.694 31.1013 139.694 30.536C139.694 30.088 139.827 29.6773 140.094 29.304C140.36 28.9307 140.739 28.6373 141.23 28.424C141.72 28.2 142.28 28.088 142.91 28.088C143.88 28.088 144.664 28.3333 145.262 28.824C145.859 29.3147 146.179 29.9867 146.222 30.84H144.766C144.734 30.3813 144.547 30.0133 144.206 29.736C143.875 29.4587 143.427 29.32 142.862 29.32C142.339 29.32 141.923 29.432 141.614 29.656C141.304 29.88 141.15 30.1733 141.15 30.536C141.15 30.824 141.24 31.064 141.422 31.256C141.614 31.4373 141.848 31.5867 142.126 31.704C142.414 31.8107 142.808 31.9333 143.31 32.072C143.939 32.2427 144.451 32.4133 144.846 32.584C145.24 32.744 145.576 32.9893 145.854 33.32C146.142 33.6507 146.291 34.0827 146.302 34.616C146.302 35.096 146.168 35.528 145.902 35.912C145.635 36.296 145.256 36.6 144.766 36.824C144.286 37.0373 143.731 37.144 143.102 37.144ZM156.357 32.28C156.357 32.5573 156.341 32.8507 156.309 33.16H149.301C149.354 34.024 149.648 34.7013 150.181 35.192C150.725 35.672 151.381 35.912 152.149 35.912C152.778 35.912 153.301 35.768 153.717 35.48C154.144 35.1813 154.442 34.7867 154.613 34.296H156.181C155.946 35.1387 155.477 35.8267 154.773 36.36C154.069 36.8827 153.194 37.144 152.149 37.144C151.317 37.144 150.57 36.9573 149.909 36.584C149.258 36.2107 148.746 35.6827 148.373 35C148 34.3067 147.813 33.5067 147.813 32.6C147.813 31.6933 147.994 30.8987 148.357 30.216C148.72 29.5333 149.226 29.0107 149.877 28.648C150.538 28.2747 151.296 28.088 152.149 28.088C152.981 28.088 153.717 28.2693 154.357 28.632C154.997 28.9947 155.488 29.496 155.829 30.136C156.181 30.7653 156.357 31.48 156.357 32.28ZM154.853 31.976C154.853 31.4213 154.73 30.9467 154.485 30.552C154.24 30.1467 153.904 29.8427 153.477 29.64C153.061 29.4267 152.597 29.32 152.085 29.32C151.349 29.32 150.72 29.5547 150.197 30.024C149.685 30.4933 149.392 31.144 149.317 31.976H154.853ZM157.735 32.584C157.735 31.688 157.916 30.904 158.279 30.232C158.642 29.5493 159.138 29.0213 159.767 28.648C160.407 28.2747 161.122 28.088 161.911 28.088C162.594 28.088 163.228 28.248 163.815 28.568C164.402 28.8773 164.85 29.288 165.159 29.8V25.16H166.631V37H165.159V35.352C164.871 35.8747 164.444 36.3067 163.879 36.648C163.314 36.9787 162.652 37.144 161.895 37.144C161.116 37.144 160.407 36.952 159.767 36.568C159.138 36.184 158.642 35.6453 158.279 34.952C157.916 34.2587 157.735 33.4693 157.735 32.584ZM165.159 32.6C165.159 31.9387 165.026 31.3627 164.759 30.872C164.492 30.3813 164.13 30.008 163.671 29.752C163.223 29.4853 162.727 29.352 162.183 29.352C161.639 29.352 161.143 29.48 160.695 29.736C160.247 29.992 159.89 30.3653 159.623 30.856C159.356 31.3467 159.223 31.9227 159.223 32.584C159.223 33.256 159.356 33.8427 159.623 34.344C159.89 34.8347 160.247 35.2133 160.695 35.48C161.143 35.736 161.639 35.864 162.183 35.864C162.727 35.864 163.223 35.736 163.671 35.48C164.13 35.2133 164.492 34.8347 164.759 34.344C165.026 33.8427 165.159 33.2613 165.159 32.6ZM172.813 32.584C172.813 31.688 172.994 30.904 173.357 30.232C173.72 29.5493 174.216 29.0213 174.845 28.648C175.485 28.2747 176.2 28.088 176.989 28.088C177.672 28.088 178.306 28.248 178.893 28.568C179.48 28.8773 179.928 29.288 180.237 29.8V25.16H181.709V37H180.237V35.352C179.949 35.8747 179.522 36.3067 178.957 36.648C178.392 36.9787 177.73 37.144 176.973 37.144C176.194 37.144 175.485 36.952 174.845 36.568C174.216 36.184 173.72 35.6453 173.357 34.952C172.994 34.2587 172.813 33.4693 172.813 32.584ZM180.237 32.6C180.237 31.9387 180.104 31.3627 179.837 30.872C179.57 30.3813 179.208 30.008 178.749 29.752C178.301 29.4853 177.805 29.352 177.261 29.352C176.717 29.352 176.221 29.48 175.773 29.736C175.325 29.992 174.968 30.3653 174.701 30.856C174.434 31.3467 174.301 31.9227 174.301 32.584C174.301 33.256 174.434 33.8427 174.701 34.344C174.968 34.8347 175.325 35.2133 175.773 35.48C176.221 35.736 176.717 35.864 177.261 35.864C177.805 35.864 178.301 35.736 178.749 35.48C179.208 35.2133 179.57 34.8347 179.837 34.344C180.104 33.8427 180.237 33.2613 180.237 32.6ZM187.994 37.144C187.172 37.144 186.426 36.9573 185.754 36.584C185.092 36.2107 184.57 35.6827 184.186 35C183.812 34.3067 183.626 33.5067 183.626 32.6C183.626 31.704 183.818 30.9147 184.202 30.232C184.596 29.5387 185.13 29.0107 185.802 28.648C186.474 28.2747 187.226 28.088 188.058 28.088C188.89 28.088 189.642 28.2747 190.314 28.648C190.986 29.0107 191.514 29.5333 191.898 30.216C192.292 30.8987 192.49 31.6933 192.49 32.6C192.49 33.5067 192.287 34.3067 191.882 35C191.487 35.6827 190.948 36.2107 190.266 36.584C189.583 36.9573 188.826 37.144 187.994 37.144ZM187.994 35.864C188.516 35.864 189.007 35.7413 189.466 35.496C189.924 35.2507 190.292 34.8827 190.57 34.392C190.858 33.9013 191.002 33.304 191.002 32.6C191.002 31.896 190.863 31.2987 190.586 30.808C190.308 30.3173 189.946 29.9547 189.498 29.72C189.05 29.4747 188.564 29.352 188.042 29.352C187.508 29.352 187.018 29.4747 186.57 29.72C186.132 29.9547 185.78 30.3173 185.514 30.808C185.247 31.2987 185.114 31.896 185.114 32.6C185.114 33.3147 185.242 33.9173 185.498 34.408C185.764 34.8987 186.116 35.2667 186.554 35.512C186.991 35.7467 187.471 35.864 187.994 35.864ZM206.67 32.28C206.67 32.5573 206.654 32.8507 206.622 33.16H199.614C199.667 34.024 199.96 34.7013 200.494 35.192C201.038 35.672 201.694 35.912 202.462 35.912C203.091 35.912 203.614 35.768 204.03 35.48C204.456 35.1813 204.755 34.7867 204.926 34.296H206.494C206.259 35.1387 205.79 35.8267 205.086 36.36C204.382 36.8827 203.507 37.144 202.462 37.144C201.63 37.144 200.883 36.9573 200.222 36.584C199.571 36.2107 199.059 35.6827 198.686 35C198.312 34.3067 198.126 33.5067 198.126 32.6C198.126 31.6933 198.307 30.8987 198.67 30.216C199.032 29.5333 199.539 29.0107 200.19 28.648C200.851 28.2747 201.608 28.088 202.462 28.088C203.294 28.088 204.03 28.2693 204.67 28.632C205.31 28.9947 205.8 29.496 206.142 30.136C206.494 30.7653 206.67 31.48 206.67 32.28ZM205.166 31.976C205.166 31.4213 205.043 30.9467 204.798 30.552C204.552 30.1467 204.216 29.8427 203.79 29.64C203.374 29.4267 202.91 29.32 202.398 29.32C201.662 29.32 201.032 29.5547 200.51 30.024C199.998 30.4933 199.704 31.144 199.63 31.976H205.166ZM209.343 26.808C209.066 26.808 208.831 26.712 208.639 26.52C208.447 26.328 208.351 26.0933 208.351 25.816C208.351 25.5387 208.447 25.304 208.639 25.112C208.831 24.92 209.066 24.824 209.343 24.824C209.61 24.824 209.834 24.92 210.015 25.112C210.207 25.304 210.303 25.5387 210.303 25.816C210.303 26.0933 210.207 26.328 210.015 26.52C209.834 26.712 209.61 26.808 209.343 26.808ZM210.047 28.232V37H208.591V28.232H210.047ZM220.305 28.232V37H218.849V35.704C218.572 36.152 218.182 36.504 217.681 36.76C217.19 37.0053 216.646 37.128 216.049 37.128C215.366 37.128 214.753 36.9893 214.209 36.712C213.665 36.424 213.233 35.9973 212.913 35.432C212.604 34.8667 212.449 34.1787 212.449 33.368V28.232H213.889V33.176C213.889 34.04 214.108 34.7067 214.545 35.176C214.982 35.6347 215.58 35.864 216.337 35.864C217.116 35.864 217.729 35.624 218.177 35.144C218.625 34.664 218.849 33.9653 218.849 33.048V28.232H220.305ZM225.867 37.144C225.195 37.144 224.593 37.032 224.059 36.808C223.526 36.5733 223.105 36.2533 222.795 35.848C222.486 35.432 222.315 34.9573 222.283 34.424H223.787C223.83 34.8613 224.033 35.2187 224.395 35.496C224.769 35.7733 225.254 35.912 225.851 35.912C226.406 35.912 226.843 35.7893 227.163 35.544C227.483 35.2987 227.643 34.9893 227.643 34.616C227.643 34.232 227.473 33.9493 227.131 33.768C226.79 33.576 226.262 33.3893 225.547 33.208C224.897 33.0373 224.363 32.8667 223.947 32.696C223.542 32.5147 223.19 32.2533 222.891 31.912C222.603 31.56 222.459 31.1013 222.459 30.536C222.459 30.088 222.593 29.6773 222.859 29.304C223.126 28.9307 223.505 28.6373 223.995 28.424C224.486 28.2 225.046 28.088 225.675 28.088C226.646 28.088 227.43 28.3333 228.027 28.824C228.625 29.3147 228.945 29.9867 228.987 30.84H227.531C227.499 30.3813 227.313 30.0133 226.971 29.736C226.641 29.4587 226.193 29.32 225.627 29.32C225.105 29.32 224.689 29.432 224.379 29.656C224.07 29.88 223.915 30.1733 223.915 30.536C223.915 30.824 224.006 31.064 224.187 31.256C224.379 31.4373 224.614 31.5867 224.891 31.704C225.179 31.8107 225.574 31.9333 226.075 32.072C226.705 32.2427 227.217 32.4133 227.611 32.584C228.006 32.744 228.342 32.9893 228.619 33.32C228.907 33.6507 229.057 34.0827 229.067 34.616C229.067 35.096 228.934 35.528 228.667 35.912C228.401 36.296 228.022 36.6 227.531 36.824C227.051 37.0373 226.497 37.144 225.867 37.144ZM241.667 28.072C242.349 28.072 242.957 28.216 243.491 28.504C244.024 28.7813 244.445 29.2027 244.755 29.768C245.064 30.3333 245.219 31.0213 245.219 31.832V37H243.779V32.04C243.779 31.1653 243.56 30.4987 243.123 30.04C242.696 29.5707 242.115 29.336 241.379 29.336C240.621 29.336 240.019 29.5813 239.571 30.072C239.123 30.552 238.899 31.2507 238.899 32.168V37H237.459V32.04C237.459 31.1653 237.24 30.4987 236.803 30.04C236.376 29.5707 235.795 29.336 235.059 29.336C234.301 29.336 233.699 29.5813 233.251 30.072C232.803 30.552 232.579 31.2507 232.579 32.168V37H231.123V28.232H232.579V29.496C232.867 29.0373 233.251 28.6853 233.731 28.44C234.221 28.1947 234.76 28.072 235.347 28.072C236.083 28.072 236.733 28.2373 237.299 28.568C237.864 28.8987 238.285 29.384 238.563 30.024C238.808 29.4053 239.213 28.9253 239.779 28.584C240.344 28.2427 240.973 28.072 241.667 28.072ZM251.431 37.144C250.61 37.144 249.863 36.9573 249.191 36.584C248.53 36.2107 248.007 35.6827 247.623 35C247.25 34.3067 247.063 33.5067 247.063 32.6C247.063 31.704 247.255 30.9147 247.639 30.232C248.034 29.5387 248.567 29.0107 249.239 28.648C249.911 28.2747 250.663 28.088 251.495 28.088C252.327 28.088 253.079 28.2747 253.751 28.648C254.423 29.0107 254.951 29.5333 255.335 30.216C255.73 30.8987 255.927 31.6933 255.927 32.6C255.927 33.5067 255.724 34.3067 255.319 35C254.924 35.6827 254.386 36.2107 253.703 36.584C253.02 36.9573 252.263 37.144 251.431 37.144ZM251.431 35.864C251.954 35.864 252.444 35.7413 252.903 35.496C253.362 35.2507 253.73 34.8827 254.007 34.392C254.295 33.9013 254.439 33.304 254.439 32.6C254.439 31.896 254.3 31.2987 254.023 30.808C253.746 30.3173 253.383 29.9547 252.935 29.72C252.487 29.4747 252.002 29.352 251.479 29.352C250.946 29.352 250.455 29.4747 250.007 29.72C249.57 29.9547 249.218 30.3173 248.951 30.808C248.684 31.2987 248.551 31.896 248.551 32.6C248.551 33.3147 248.679 33.9173 248.935 34.408C249.202 34.8987 249.554 35.2667 249.991 35.512C250.428 35.7467 250.908 35.864 251.431 35.864ZM257.297 32.584C257.297 31.688 257.479 30.904 257.841 30.232C258.204 29.5493 258.7 29.0213 259.329 28.648C259.969 28.2747 260.684 28.088 261.473 28.088C262.156 28.088 262.791 28.248 263.377 28.568C263.964 28.8773 264.412 29.288 264.721 29.8V25.16H266.193V37H264.721V35.352C264.433 35.8747 264.007 36.3067 263.441 36.648C262.876 36.9787 262.215 37.144 261.457 37.144C260.679 37.144 259.969 36.952 259.329 36.568C258.7 36.184 258.204 35.6453 257.841 34.952C257.479 34.2587 257.297 33.4693 257.297 32.584ZM264.721 32.6C264.721 31.9387 264.588 31.3627 264.321 30.872C264.055 30.3813 263.692 30.008 263.233 29.752C262.785 29.4853 262.289 29.352 261.745 29.352C261.201 29.352 260.705 29.48 260.257 29.736C259.809 29.992 259.452 30.3653 259.185 30.856C258.919 31.3467 258.785 31.9227 258.785 32.584C258.785 33.256 258.919 33.8427 259.185 34.344C259.452 34.8347 259.809 35.2133 260.257 35.48C260.705 35.736 261.201 35.864 261.745 35.864C262.289 35.864 262.785 35.736 263.233 35.48C263.692 35.2133 264.055 34.8347 264.321 34.344C264.588 33.8427 264.721 33.2613 264.721 32.6ZM274.696 29.432V34.6C274.696 35.0267 274.786 35.3307 274.968 35.512C275.149 35.6827 275.464 35.768 275.911 35.768H276.984V37H275.672C274.861 37 274.253 36.8133 273.848 36.44C273.442 36.0667 273.24 35.4533 273.24 34.6V29.432H272.104V28.232H273.24V26.024H274.696V28.232H276.984V29.432H274.696ZM286.748 32.28C286.748 32.5573 286.732 32.8507 286.7 33.16H279.692C279.745 34.024 280.038 34.7013 280.572 35.192C281.116 35.672 281.772 35.912 282.54 35.912C283.169 35.912 283.692 35.768 284.108 35.48C284.534 35.1813 284.833 34.7867 285.004 34.296H286.572C286.337 35.1387 285.868 35.8267 285.164 36.36C284.46 36.8827 283.585 37.144 282.54 37.144C281.708 37.144 280.961 36.9573 280.3 36.584C279.649 36.2107 279.137 35.6827 278.764 35C278.39 34.3067 278.204 33.5067 278.204 32.6C278.204 31.6933 278.385 30.8987 278.748 30.216C279.11 29.5333 279.617 29.0107 280.268 28.648C280.929 28.2747 281.686 28.088 282.54 28.088C283.372 28.088 284.108 28.2693 284.748 28.632C285.388 28.9947 285.878 29.496 286.22 30.136C286.572 30.7653 286.748 31.48 286.748 32.28ZM285.244 31.976C285.244 31.4213 285.121 30.9467 284.876 30.552C284.63 30.1467 284.294 29.8427 283.868 29.64C283.452 29.4267 282.988 29.32 282.476 29.32C281.74 29.32 281.11 29.5547 280.588 30.024C280.076 30.4933 279.782 31.144 279.708 31.976H285.244ZM299.214 28.072C299.896 28.072 300.504 28.216 301.038 28.504C301.571 28.7813 301.992 29.2027 302.302 29.768C302.611 30.3333 302.766 31.0213 302.766 31.832V37H301.326V32.04C301.326 31.1653 301.107 30.4987 300.67 30.04C300.243 29.5707 299.662 29.336 298.926 29.336C298.168 29.336 297.566 29.5813 297.118 30.072C296.67 30.552 296.446 31.2507 296.446 32.168V37H295.006V32.04C295.006 31.1653 294.787 30.4987 294.35 30.04C293.923 29.5707 293.342 29.336 292.606 29.336C291.848 29.336 291.246 29.5813 290.798 30.072C290.35 30.552 290.126 31.2507 290.126 32.168V37H288.67V28.232H290.126V29.496C290.414 29.0373 290.798 28.6853 291.278 28.44C291.768 28.1947 292.307 28.072 292.894 28.072C293.63 28.072 294.28 28.2373 294.846 28.568C295.411 28.8987 295.832 29.384 296.11 30.024C296.355 29.4053 296.76 28.9253 297.326 28.584C297.891 28.2427 298.52 28.072 299.214 28.072ZM306.61 29.848C306.898 29.3467 307.325 28.9307 307.89 28.6C308.466 28.2587 309.133 28.088 309.89 28.088C310.669 28.088 311.373 28.2747 312.002 28.648C312.642 29.0213 313.143 29.5493 313.506 30.232C313.869 30.904 314.05 31.688 314.05 32.584C314.05 33.4693 313.869 34.2587 313.506 34.952C313.143 35.6453 312.642 36.184 312.002 36.568C311.373 36.952 310.669 37.144 309.89 37.144C309.143 37.144 308.482 36.9787 307.906 36.648C307.341 36.3067 306.909 35.8853 306.61 35.384V41.16H305.154V28.232H306.61V29.848ZM312.562 32.584C312.562 31.9227 312.429 31.3467 312.162 30.856C311.895 30.3653 311.533 29.992 311.074 29.736C310.626 29.48 310.13 29.352 309.586 29.352C309.053 29.352 308.557 29.4853 308.098 29.752C307.65 30.008 307.287 30.3867 307.01 30.888C306.743 31.3787 306.61 31.9493 306.61 32.6C306.61 33.2613 306.743 33.8427 307.01 34.344C307.287 34.8347 307.65 35.2133 308.098 35.48C308.557 35.736 309.053 35.864 309.586 35.864C310.13 35.864 310.626 35.736 311.074 35.48C311.533 35.2133 311.895 34.8347 312.162 34.344C312.429 33.8427 312.562 33.256 312.562 32.584ZM319.79 37.144C318.969 37.144 318.222 36.9573 317.55 36.584C316.889 36.2107 316.366 35.6827 315.982 35C315.609 34.3067 315.422 33.5067 315.422 32.6C315.422 31.704 315.614 30.9147 315.998 30.232C316.393 29.5387 316.926 29.0107 317.598 28.648C318.27 28.2747 319.022 28.088 319.854 28.088C320.686 28.088 321.438 28.2747 322.11 28.648C322.782 29.0107 323.31 29.5333 323.694 30.216C324.089 30.8987 324.286 31.6933 324.286 32.6C324.286 33.5067 324.084 34.3067 323.678 35C323.284 35.6827 322.745 36.2107 322.062 36.584C321.38 36.9573 320.622 37.144 319.79 37.144ZM319.79 35.864C320.313 35.864 320.804 35.7413 321.262 35.496C321.721 35.2507 322.089 34.8827 322.366 34.392C322.654 33.9013 322.798 33.304 322.798 32.6C322.798 31.896 322.66 31.2987 322.382 30.808C322.105 30.3173 321.742 29.9547 321.294 29.72C320.846 29.4747 320.361 29.352 319.838 29.352C319.305 29.352 318.814 29.4747 318.366 29.72C317.929 29.9547 317.577 30.3173 317.31 30.808C317.044 31.2987 316.91 31.896 316.91 32.6C316.91 33.3147 317.038 33.9173 317.294 34.408C317.561 34.8987 317.913 35.2667 318.35 35.512C318.788 35.7467 319.268 35.864 319.79 35.864ZM327.657 29.656C327.913 29.1547 328.275 28.7653 328.745 28.488C329.225 28.2107 329.806 28.072 330.489 28.072V29.576H330.105C328.473 29.576 327.657 30.4613 327.657 32.232V37H326.201V28.232H327.657V29.656ZM1.00744 50.808C0.730104 50.808 0.495438 50.712 0.303438 50.52C0.111438 50.328 0.0154375 50.0933 0.0154375 49.816C0.0154375 49.5387 0.111438 49.304 0.303438 49.112C0.495438 48.92 0.730104 48.824 1.00744 48.824C1.2741 48.824 1.4981 48.92 1.67944 49.112C1.87144 49.304 1.96744 49.5387 1.96744 49.816C1.96744 50.0933 1.87144 50.328 1.67944 50.52C1.4981 50.712 1.2741 50.808 1.00744 50.808ZM1.71144 52.232V61H0.255438V52.232H1.71144ZM8.46494 52.072C9.5316 52.072 10.3956 52.3973 11.0569 53.048C11.7183 53.688 12.0489 54.616 12.0489 55.832V61H10.6089V56.04C10.6089 55.1653 10.3903 54.4987 9.95294 54.04C9.5156 53.5707 8.91827 53.336 8.16094 53.336C7.39294 53.336 6.7796 53.576 6.32094 54.056C5.87294 54.536 5.64894 55.2347 5.64894 56.152V61H4.19294V52.232H5.64894V53.48C5.93694 53.032 6.32627 52.6853 6.81694 52.44C7.31827 52.1947 7.8676 52.072 8.46494 52.072ZM13.8833 56.6C13.8833 55.6933 14.0646 54.904 14.4273 54.232C14.79 53.5493 15.2913 53.0213 15.9313 52.648C16.582 52.2747 17.3233 52.088 18.1553 52.088C19.2326 52.088 20.118 52.3493 20.8113 52.872C21.5153 53.3947 21.9793 54.12 22.2033 55.048H20.6353C20.486 54.5147 20.1926 54.0933 19.7553 53.784C19.3286 53.4747 18.7953 53.32 18.1553 53.32C17.3233 53.32 16.6513 53.608 16.1393 54.184C15.6273 54.7493 15.3713 55.5547 15.3713 56.6C15.3713 57.656 15.6273 58.472 16.1393 59.048C16.6513 59.624 17.3233 59.912 18.1553 59.912C18.7953 59.912 19.3286 59.7627 19.7553 59.464C20.182 59.1653 20.4753 58.7387 20.6353 58.184H22.2033C21.9686 59.08 21.4993 59.8 20.7953 60.344C20.0913 60.8773 19.2113 61.144 18.1553 61.144C17.3233 61.144 16.582 60.9573 15.9313 60.584C15.2913 60.2107 14.79 59.6827 14.4273 59C14.0646 58.3173 13.8833 57.5173 13.8833 56.6ZM24.8981 50.808C24.6207 50.808 24.3861 50.712 24.1941 50.52C24.0021 50.328 23.9061 50.0933 23.9061 49.816C23.9061 49.5387 24.0021 49.304 24.1941 49.112C24.3861 48.92 24.6207 48.824 24.8981 48.824C25.1647 48.824 25.3887 48.92 25.5701 49.112C25.7621 49.304 25.8581 49.5387 25.8581 49.816C25.8581 50.0933 25.7621 50.328 25.5701 50.52C25.3887 50.712 25.1647 50.808 24.8981 50.808ZM25.6021 52.232V61H24.1461V52.232H25.6021ZM27.5396 56.584C27.5396 55.688 27.7209 54.904 28.0836 54.232C28.4462 53.5493 28.9422 53.0213 29.5716 52.648C30.2116 52.2747 30.9262 52.088 31.7156 52.088C32.3982 52.088 33.0329 52.248 33.6196 52.568C34.2062 52.8773 34.6542 53.288 34.9636 53.8V49.16H36.4356V61H34.9636V59.352C34.6756 59.8747 34.2489 60.3067 33.6836 60.648C33.1182 60.9787 32.4569 61.144 31.6996 61.144C30.9209 61.144 30.2116 60.952 29.5716 60.568C28.9422 60.184 28.4462 59.6453 28.0836 58.952C27.7209 58.2587 27.5396 57.4693 27.5396 56.584ZM34.9636 56.6C34.9636 55.9387 34.8302 55.3627 34.5636 54.872C34.2969 54.3813 33.9342 54.008 33.4756 53.752C33.0276 53.4853 32.5316 53.352 31.9876 53.352C31.4436 53.352 30.9476 53.48 30.4996 53.736C30.0516 53.992 29.6942 54.3653 29.4276 54.856C29.1609 55.3467 29.0276 55.9227 29.0276 56.584C29.0276 57.256 29.1609 57.8427 29.4276 58.344C29.6942 58.8347 30.0516 59.2133 30.4996 59.48C30.9476 59.736 31.4436 59.864 31.9876 59.864C32.5316 59.864 33.0276 59.736 33.4756 59.48C33.9342 59.2133 34.2969 58.8347 34.5636 58.344C34.8302 57.8427 34.9636 57.2613 34.9636 56.6ZM39.6481 50.808C39.3707 50.808 39.1361 50.712 38.9441 50.52C38.7521 50.328 38.6561 50.0933 38.6561 49.816C38.6561 49.5387 38.7521 49.304 38.9441 49.112C39.1361 48.92 39.3707 48.824 39.6481 48.824C39.9147 48.824 40.1387 48.92 40.3201 49.112C40.5121 49.304 40.6081 49.5387 40.6081 49.816C40.6081 50.0933 40.5121 50.328 40.3201 50.52C40.1387 50.712 39.9147 50.808 39.6481 50.808ZM40.3521 52.232V61H38.8961V52.232H40.3521ZM42.2896 56.584C42.2896 55.688 42.4709 54.904 42.8336 54.232C43.1962 53.5493 43.6922 53.0213 44.3216 52.648C44.9616 52.2747 45.6762 52.088 46.4656 52.088C47.1482 52.088 47.7829 52.248 48.3696 52.568C48.9562 52.8773 49.4042 53.288 49.7136 53.8V49.16H51.1856V61H49.7136V59.352C49.4256 59.8747 48.9989 60.3067 48.4336 60.648C47.8682 60.9787 47.2069 61.144 46.4496 61.144C45.6709 61.144 44.9616 60.952 44.3216 60.568C43.6922 60.184 43.1962 59.6453 42.8336 58.952C42.4709 58.2587 42.2896 57.4693 42.2896 56.584ZM49.7136 56.6C49.7136 55.9387 49.5802 55.3627 49.3136 54.872C49.0469 54.3813 48.6842 54.008 48.2256 53.752C47.7776 53.4853 47.2816 53.352 46.7376 53.352C46.1936 53.352 45.6976 53.48 45.2496 53.736C44.8016 53.992 44.4442 54.3653 44.1776 54.856C43.9109 55.3467 43.7776 55.9227 43.7776 56.584C43.7776 57.256 43.9109 57.8427 44.1776 58.344C44.4442 58.8347 44.8016 59.2133 45.2496 59.48C45.6976 59.736 46.1936 59.864 46.7376 59.864C47.2816 59.864 47.7776 59.736 48.2256 59.48C48.6842 59.2133 49.0469 58.8347 49.3136 58.344C49.5802 57.8427 49.7136 57.2613 49.7136 56.6ZM61.4221 52.232V61H59.9661V59.704C59.6887 60.152 59.2994 60.504 58.7981 60.76C58.3074 61.0053 57.7634 61.128 57.1661 61.128C56.4834 61.128 55.8701 60.9893 55.3261 60.712C54.7821 60.424 54.3501 59.9973 54.0301 59.432C53.7207 58.8667 53.5661 58.1787 53.5661 57.368V52.232H55.0061V57.176C55.0061 58.04 55.2247 58.7067 55.6621 59.176C56.0994 59.6347 56.6967 59.864 57.4541 59.864C58.2327 59.864 58.8461 59.624 59.2941 59.144C59.7421 58.664 59.9661 57.9653 59.9661 57.048V52.232H61.4221ZM68.1524 52.072C69.2191 52.072 70.0831 52.3973 70.7444 53.048C71.4058 53.688 71.7364 54.616 71.7364 55.832V61H70.2964V56.04C70.2964 55.1653 70.0778 54.4987 69.6404 54.04C69.2031 53.5707 68.6058 53.336 67.8484 53.336C67.0804 53.336 66.4671 53.576 66.0084 54.056C65.5604 54.536 65.3364 55.2347 65.3364 56.152V61H63.8804V52.232H65.3364V53.48C65.6244 53.032 66.0138 52.6853 66.5044 52.44C67.0058 52.1947 67.5551 52.072 68.1524 52.072ZM75.8908 53.432V58.6C75.8908 59.0267 75.9815 59.3307 76.1628 59.512C76.3441 59.6827 76.6588 59.768 77.1068 59.768H78.1788V61H76.8668C76.0561 61 75.4481 60.8133 75.0428 60.44C74.6375 60.0667 74.4348 59.4533 74.4348 58.6V53.432H73.2988V52.232H74.4348V50.024H75.8908V52.232H78.1788V53.432H75.8908ZM91.9846 52.232V61H90.5286V59.704C90.2512 60.152 89.8619 60.504 89.3606 60.76C88.8699 61.0053 88.3259 61.128 87.7286 61.128C87.0459 61.128 86.4326 60.9893 85.8886 60.712C85.3446 60.424 84.9126 59.9973 84.5926 59.432C84.2832 58.8667 84.1286 58.1787 84.1286 57.368V52.232H85.5686V57.176C85.5686 58.04 85.7872 58.7067 86.2246 59.176C86.6619 59.6347 87.2592 59.864 88.0166 59.864C88.7952 59.864 89.4086 59.624 89.8566 59.144C90.3046 58.664 90.5286 57.9653 90.5286 57.048V52.232H91.9846ZM96.2189 53.432V58.6C96.2189 59.0267 96.3096 59.3307 96.4909 59.512C96.6723 59.6827 96.9869 59.768 97.4349 59.768H98.5069V61H97.1949C96.3843 61 95.7763 60.8133 95.3709 60.44C94.9656 60.0667 94.7629 59.4533 94.7629 58.6V53.432H93.6269V52.232H94.7629V50.024H96.2189V52.232H98.5069V53.432H96.2189ZM105.993 49.16V61H104.537V49.16H105.993ZM107.93 56.584C107.93 55.688 108.112 54.904 108.474 54.232C108.837 53.5493 109.333 53.0213 109.962 52.648C110.602 52.2747 111.312 52.088 112.09 52.088C112.858 52.088 113.525 52.2533 114.09 52.584C114.656 52.9147 115.077 53.3307 115.354 53.832V52.232H116.826V61H115.354V59.368C115.066 59.88 114.634 60.3067 114.058 60.648C113.493 60.9787 112.832 61.144 112.074 61.144C111.296 61.144 110.592 60.952 109.962 60.568C109.333 60.184 108.837 59.6453 108.474 58.952C108.112 58.2587 107.93 57.4693 107.93 56.584ZM115.354 56.6C115.354 55.9387 115.221 55.3627 114.954 54.872C114.688 54.3813 114.325 54.008 113.866 53.752C113.418 53.4853 112.922 53.352 112.378 53.352C111.834 53.352 111.338 53.48 110.89 53.736C110.442 53.992 110.085 54.3653 109.818 54.856C109.552 55.3467 109.418 55.9227 109.418 56.584C109.418 57.256 109.552 57.8427 109.818 58.344C110.085 58.8347 110.442 59.2133 110.89 59.48C111.338 59.736 111.834 59.864 112.378 59.864C112.922 59.864 113.418 59.736 113.866 59.48C114.325 59.2133 114.688 58.8347 114.954 58.344C115.221 57.8427 115.354 57.2613 115.354 56.6ZM120.743 53.864C121.041 53.3413 121.479 52.9147 122.055 52.584C122.631 52.2533 123.287 52.088 124.023 52.088C124.812 52.088 125.521 52.2747 126.151 52.648C126.78 53.0213 127.276 53.5493 127.639 54.232C128.001 54.904 128.183 55.688 128.183 56.584C128.183 57.4693 128.001 58.2587 127.639 58.952C127.276 59.6453 126.775 60.184 126.135 60.568C125.505 60.952 124.801 61.144 124.023 61.144C123.265 61.144 122.599 60.9787 122.023 60.648C121.457 60.3173 121.031 59.896 120.743 59.384V61H119.287V49.16H120.743V53.864ZM126.695 56.584C126.695 55.9227 126.561 55.3467 126.295 54.856C126.028 54.3653 125.665 53.992 125.207 53.736C124.759 53.48 124.263 53.352 123.719 53.352C123.185 53.352 122.689 53.4853 122.231 53.752C121.783 54.008 121.42 54.3867 121.143 54.888C120.876 55.3787 120.743 55.9493 120.743 56.6C120.743 57.2613 120.876 57.8427 121.143 58.344C121.42 58.8347 121.783 59.2133 122.231 59.48C122.689 59.736 123.185 59.864 123.719 59.864C124.263 59.864 124.759 59.736 125.207 59.48C125.665 59.2133 126.028 58.8347 126.295 58.344C126.561 57.8427 126.695 57.256 126.695 56.584ZM133.923 61.144C133.102 61.144 132.355 60.9573 131.683 60.584C131.022 60.2107 130.499 59.6827 130.115 59C129.742 58.3067 129.555 57.5067 129.555 56.6C129.555 55.704 129.747 54.9147 130.131 54.232C130.526 53.5387 131.059 53.0107 131.731 52.648C132.403 52.2747 133.155 52.088 133.987 52.088C134.819 52.088 135.571 52.2747 136.243 52.648C136.915 53.0107 137.443 53.5333 137.827 54.216C138.222 54.8987 138.419 55.6933 138.419 56.6C138.419 57.5067 138.217 58.3067 137.811 59C137.417 59.6827 136.878 60.2107 136.195 60.584C135.513 60.9573 134.755 61.144 133.923 61.144ZM133.923 59.864C134.446 59.864 134.937 59.7413 135.395 59.496C135.854 59.2507 136.222 58.8827 136.499 58.392C136.787 57.9013 136.931 57.304 136.931 56.6C136.931 55.896 136.793 55.2987 136.515 54.808C136.238 54.3173 135.875 53.9547 135.427 53.72C134.979 53.4747 134.494 53.352 133.971 53.352C133.438 53.352 132.947 53.4747 132.499 53.72C132.062 53.9547 131.71 54.3173 131.443 54.808C131.177 55.2987 131.043 55.896 131.043 56.6C131.043 57.3147 131.171 57.9173 131.427 58.408C131.694 58.8987 132.046 59.2667 132.483 59.512C132.921 59.7467 133.401 59.864 133.923 59.864ZM141.79 53.656C142.046 53.1547 142.408 52.7653 142.878 52.488C143.358 52.2107 143.939 52.072 144.622 52.072V53.576H144.238C142.606 53.576 141.79 54.4613 141.79 56.232V61H140.334V52.232H141.79V53.656ZM154.302 56.28C154.302 56.5573 154.286 56.8507 154.254 57.16H147.246C147.3 58.024 147.593 58.7013 148.126 59.192C148.67 59.672 149.326 59.912 150.094 59.912C150.724 59.912 151.246 59.768 151.662 59.48C152.089 59.1813 152.388 58.7867 152.558 58.296H154.126C153.892 59.1387 153.422 59.8267 152.718 60.36C152.014 60.8827 151.14 61.144 150.094 61.144C149.262 61.144 148.516 60.9573 147.854 60.584C147.204 60.2107 146.692 59.6827 146.318 59C145.945 58.3067 145.758 57.5067 145.758 56.6C145.758 55.6933 145.94 54.8987 146.302 54.216C146.665 53.5333 147.172 53.0107 147.822 52.648C148.484 52.2747 149.241 52.088 150.094 52.088C150.926 52.088 151.662 52.2693 152.302 52.632C152.942 52.9947 153.433 53.496 153.774 54.136C154.126 54.7653 154.302 55.48 154.302 56.28ZM152.798 55.976C152.798 55.4213 152.676 54.9467 152.43 54.552C152.185 54.1467 151.849 53.8427 151.422 53.64C151.006 53.4267 150.542 53.32 150.03 53.32C149.294 53.32 148.665 53.5547 148.142 54.024C147.63 54.4933 147.337 55.144 147.262 55.976H152.798ZM168.49 56.28C168.49 56.5573 168.474 56.8507 168.442 57.16H161.434C161.487 58.024 161.78 58.7013 162.314 59.192C162.858 59.672 163.514 59.912 164.282 59.912C164.911 59.912 165.434 59.768 165.85 59.48C166.276 59.1813 166.575 58.7867 166.746 58.296H168.314C168.079 59.1387 167.61 59.8267 166.906 60.36C166.202 60.8827 165.327 61.144 164.282 61.144C163.45 61.144 162.703 60.9573 162.042 60.584C161.391 60.2107 160.879 59.6827 160.506 59C160.132 58.3067 159.946 57.5067 159.946 56.6C159.946 55.6933 160.127 54.8987 160.49 54.216C160.852 53.5333 161.359 53.0107 162.01 52.648C162.671 52.2747 163.428 52.088 164.282 52.088C165.114 52.088 165.85 52.2693 166.49 52.632C167.13 52.9947 167.62 53.496 167.962 54.136C168.314 54.7653 168.49 55.48 168.49 56.28ZM166.986 55.976C166.986 55.4213 166.863 54.9467 166.618 54.552C166.372 54.1467 166.036 53.8427 165.61 53.64C165.194 53.4267 164.73 53.32 164.218 53.32C163.482 53.32 162.852 53.5547 162.33 54.024C161.818 54.4933 161.524 55.144 161.45 55.976H166.986ZM172.188 53.432V58.6C172.188 59.0267 172.278 59.3307 172.46 59.512C172.641 59.6827 172.956 59.768 173.404 59.768H174.476V61H173.164C172.353 61 171.745 60.8133 171.34 60.44C170.934 60.0667 170.732 59.4533 170.732 58.6V53.432H169.596V52.232H170.732V50.024H172.188V52.232H174.476V53.432H172.188ZM179.961 56.584C179.961 55.688 180.143 54.904 180.505 54.232C180.868 53.5493 181.364 53.0213 181.993 52.648C182.633 52.2747 183.348 52.088 184.137 52.088C184.82 52.088 185.455 52.248 186.041 52.568C186.628 52.8773 187.076 53.288 187.385 53.8V49.16H188.857V61H187.385V59.352C187.097 59.8747 186.671 60.3067 186.105 60.648C185.54 60.9787 184.879 61.144 184.121 61.144C183.343 61.144 182.633 60.952 181.993 60.568C181.364 60.184 180.868 59.6453 180.505 58.952C180.143 58.2587 179.961 57.4693 179.961 56.584ZM187.385 56.6C187.385 55.9387 187.252 55.3627 186.985 54.872C186.719 54.3813 186.356 54.008 185.897 53.752C185.449 53.4853 184.953 53.352 184.409 53.352C183.865 53.352 183.369 53.48 182.921 53.736C182.473 53.992 182.116 54.3653 181.849 54.856C181.583 55.3467 181.449 55.9227 181.449 56.584C181.449 57.256 181.583 57.8427 181.849 58.344C182.116 58.8347 182.473 59.2133 182.921 59.48C183.369 59.736 183.865 59.864 184.409 59.864C184.953 59.864 185.449 59.736 185.897 59.48C186.356 59.2133 186.719 58.8347 186.985 58.344C187.252 57.8427 187.385 57.2613 187.385 56.6ZM195.142 61.144C194.321 61.144 193.574 60.9573 192.902 60.584C192.241 60.2107 191.718 59.6827 191.334 59C190.961 58.3067 190.774 57.5067 190.774 56.6C190.774 55.704 190.966 54.9147 191.35 54.232C191.745 53.5387 192.278 53.0107 192.95 52.648C193.622 52.2747 194.374 52.088 195.206 52.088C196.038 52.088 196.79 52.2747 197.462 52.648C198.134 53.0107 198.662 53.5333 199.046 54.216C199.441 54.8987 199.638 55.6933 199.638 56.6C199.638 57.5067 199.435 58.3067 199.03 59C198.635 59.6827 198.097 60.2107 197.414 60.584C196.731 60.9573 195.974 61.144 195.142 61.144ZM195.142 59.864C195.665 59.864 196.155 59.7413 196.614 59.496C197.073 59.2507 197.441 58.8827 197.718 58.392C198.006 57.9013 198.15 57.304 198.15 56.6C198.15 55.896 198.011 55.2987 197.734 54.808C197.457 54.3173 197.094 53.9547 196.646 53.72C196.198 53.4747 195.713 53.352 195.19 53.352C194.657 53.352 194.166 53.4747 193.718 53.72C193.281 53.9547 192.929 54.3173 192.662 54.808C192.395 55.2987 192.262 55.896 192.262 56.6C192.262 57.3147 192.39 57.9173 192.646 58.408C192.913 58.8987 193.265 59.2667 193.702 59.512C194.139 59.7467 194.619 59.864 195.142 59.864ZM203.008 49.16V61H201.552V49.16H203.008ZM209.314 61.144C208.492 61.144 207.746 60.9573 207.074 60.584C206.412 60.2107 205.89 59.6827 205.506 59C205.132 58.3067 204.946 57.5067 204.946 56.6C204.946 55.704 205.138 54.9147 205.522 54.232C205.916 53.5387 206.45 53.0107 207.122 52.648C207.794 52.2747 208.546 52.088 209.378 52.088C210.21 52.088 210.962 52.2747 211.634 52.648C212.306 53.0107 212.834 53.5333 213.218 54.216C213.612 54.8987 213.81 55.6933 213.81 56.6C213.81 57.5067 213.607 58.3067 213.202 59C212.807 59.6827 212.268 60.2107 211.586 60.584C210.903 60.9573 210.146 61.144 209.314 61.144ZM209.314 59.864C209.836 59.864 210.327 59.7413 210.786 59.496C211.244 59.2507 211.612 58.8827 211.89 58.392C212.178 57.9013 212.322 57.304 212.322 56.6C212.322 55.896 212.183 55.2987 211.906 54.808C211.628 54.3173 211.266 53.9547 210.818 53.72C210.37 53.4747 209.884 53.352 209.362 53.352C208.828 53.352 208.338 53.4747 207.89 53.72C207.452 53.9547 207.1 54.3173 206.834 54.808C206.567 55.2987 206.434 55.896 206.434 56.6C206.434 57.3147 206.562 57.9173 206.818 58.408C207.084 58.8987 207.436 59.2667 207.874 59.512C208.311 59.7467 208.791 59.864 209.314 59.864ZM217.18 53.656C217.436 53.1547 217.799 52.7653 218.268 52.488C218.748 52.2107 219.33 52.072 220.012 52.072V53.576H219.628C217.996 53.576 217.18 54.4613 217.18 56.232V61H215.724V52.232H217.18V53.656ZM229.693 56.28C229.693 56.5573 229.677 56.8507 229.645 57.16H222.637C222.69 58.024 222.984 58.7013 223.517 59.192C224.061 59.672 224.717 59.912 225.485 59.912C226.114 59.912 226.637 59.768 227.053 59.48C227.48 59.1813 227.778 58.7867 227.949 58.296H229.517C229.282 59.1387 228.813 59.8267 228.109 60.36C227.405 60.8827 226.53 61.144 225.485 61.144C224.653 61.144 223.906 60.9573 223.245 60.584C222.594 60.2107 222.082 59.6827 221.709 59C221.336 58.3067 221.149 57.5067 221.149 56.6C221.149 55.6933 221.33 54.8987 221.693 54.216C222.056 53.5333 222.562 53.0107 223.213 52.648C223.874 52.2747 224.632 52.088 225.485 52.088C226.317 52.088 227.053 52.2693 227.693 52.632C228.333 52.9947 228.824 53.496 229.165 54.136C229.517 54.7653 229.693 55.48 229.693 56.28ZM228.189 55.976C228.189 55.4213 228.066 54.9467 227.821 54.552C227.576 54.1467 227.24 53.8427 226.813 53.64C226.397 53.4267 225.933 53.32 225.421 53.32C224.685 53.32 224.056 53.5547 223.533 54.024C223.021 54.4933 222.728 55.144 222.653 55.976H228.189ZM246.424 52.072C247.107 52.072 247.715 52.216 248.248 52.504C248.782 52.7813 249.203 53.2027 249.512 53.768C249.822 54.3333 249.976 55.0213 249.976 55.832V61H248.536V56.04C248.536 55.1653 248.318 54.4987 247.88 54.04C247.454 53.5707 246.872 53.336 246.136 53.336C245.379 53.336 244.776 53.5813 244.328 54.072C243.88 54.552 243.656 55.2507 243.656 56.168V61H242.216V56.04C242.216 55.1653 241.998 54.4987 241.56 54.04C241.134 53.5707 240.552 53.336 239.816 53.336C239.059 53.336 238.456 53.5813 238.008 54.072C237.56 54.552 237.336 55.2507 237.336 56.168V61H235.88V52.232H237.336V53.496C237.624 53.0373 238.008 52.6853 238.488 52.44C238.979 52.1947 239.518 52.072 240.104 52.072C240.84 52.072 241.491 52.2373 242.056 52.568C242.622 52.8987 243.043 53.384 243.32 54.024C243.566 53.4053 243.971 52.9253 244.536 52.584C245.102 52.2427 245.731 52.072 246.424 52.072ZM251.821 56.584C251.821 55.688 252.002 54.904 252.365 54.232C252.727 53.5493 253.223 53.0213 253.853 52.648C254.493 52.2747 255.202 52.088 255.981 52.088C256.749 52.088 257.415 52.2533 257.981 52.584C258.546 52.9147 258.967 53.3307 259.245 53.832V52.232H260.717V61H259.245V59.368C258.957 59.88 258.525 60.3067 257.949 60.648C257.383 60.9787 256.722 61.144 255.965 61.144C255.186 61.144 254.482 60.952 253.853 60.568C253.223 60.184 252.727 59.6453 252.365 58.952C252.002 58.2587 251.821 57.4693 251.821 56.584ZM259.245 56.6C259.245 55.9387 259.111 55.3627 258.845 54.872C258.578 54.3813 258.215 54.008 257.757 53.752C257.309 53.4853 256.813 53.352 256.269 53.352C255.725 53.352 255.229 53.48 254.781 53.736C254.333 53.992 253.975 54.3653 253.709 54.856C253.442 55.3467 253.309 55.9227 253.309 56.584C253.309 57.256 253.442 57.8427 253.709 58.344C253.975 58.8347 254.333 59.2133 254.781 59.48C255.229 59.736 255.725 59.864 256.269 59.864C256.813 59.864 257.309 59.736 257.757 59.48C258.215 59.2133 258.578 58.8347 258.845 58.344C259.111 57.8427 259.245 57.2613 259.245 56.6ZM266.793 52.088C267.551 52.088 268.212 52.2533 268.777 52.584C269.353 52.9147 269.78 53.3307 270.057 53.832V52.232H271.529V61.192C271.529 61.992 271.359 62.7013 271.017 63.32C270.676 63.9493 270.185 64.44 269.545 64.792C268.916 65.144 268.18 65.32 267.337 65.32C266.185 65.32 265.225 65.048 264.457 64.504C263.689 63.96 263.236 63.2187 263.097 62.28H264.537C264.697 62.8133 265.028 63.24 265.529 63.56C266.031 63.8907 266.633 64.056 267.337 64.056C268.137 64.056 268.788 63.8053 269.289 63.304C269.801 62.8027 270.057 62.0987 270.057 61.192V59.352C269.769 59.864 269.343 60.2907 268.777 60.632C268.212 60.9733 267.551 61.144 266.793 61.144C266.015 61.144 265.305 60.952 264.665 60.568C264.036 60.184 263.54 59.6453 263.177 58.952C262.815 58.2587 262.633 57.4693 262.633 56.584C262.633 55.688 262.815 54.904 263.177 54.232C263.54 53.5493 264.036 53.0213 264.665 52.648C265.305 52.2747 266.015 52.088 266.793 52.088ZM270.057 56.6C270.057 55.9387 269.924 55.3627 269.657 54.872C269.391 54.3813 269.028 54.008 268.569 53.752C268.121 53.4853 267.625 53.352 267.081 53.352C266.537 53.352 266.041 53.48 265.593 53.736C265.145 53.992 264.788 54.3653 264.521 54.856C264.255 55.3467 264.121 55.9227 264.121 56.584C264.121 57.256 264.255 57.8427 264.521 58.344C264.788 58.8347 265.145 59.2133 265.593 59.48C266.041 59.736 266.537 59.864 267.081 59.864C267.625 59.864 268.121 59.736 268.569 59.48C269.028 59.2133 269.391 58.8347 269.657 58.344C269.924 57.8427 270.057 57.2613 270.057 56.6ZM278.262 52.072C279.328 52.072 280.192 52.3973 280.854 53.048C281.515 53.688 281.846 54.616 281.846 55.832V61H280.406V56.04C280.406 55.1653 280.187 54.4987 279.75 54.04C279.312 53.5707 278.715 53.336 277.958 53.336C277.19 53.336 276.576 53.576 276.118 54.056C275.67 54.536 275.446 55.2347 275.446 56.152V61H273.99V52.232H275.446V53.48C275.734 53.032 276.123 52.6853 276.614 52.44C277.115 52.1947 277.664 52.072 278.262 52.072ZM283.68 56.584C283.68 55.688 283.862 54.904 284.224 54.232C284.587 53.5493 285.083 53.0213 285.712 52.648C286.352 52.2747 287.062 52.088 287.84 52.088C288.608 52.088 289.275 52.2533 289.84 52.584C290.406 52.9147 290.827 53.3307 291.104 53.832V52.232H292.576V61H291.104V59.368C290.816 59.88 290.384 60.3067 289.808 60.648C289.243 60.9787 288.582 61.144 287.824 61.144C287.046 61.144 286.342 60.952 285.712 60.568C285.083 60.184 284.587 59.6453 284.224 58.952C283.862 58.2587 283.68 57.4693 283.68 56.584ZM291.104 56.6C291.104 55.9387 290.971 55.3627 290.704 54.872C290.438 54.3813 290.075 54.008 289.616 53.752C289.168 53.4853 288.672 53.352 288.128 53.352C287.584 53.352 287.088 53.48 286.64 53.736C286.192 53.992 285.835 54.3653 285.568 54.856C285.302 55.3467 285.168 55.9227 285.168 56.584C285.168 57.256 285.302 57.8427 285.568 58.344C285.835 58.8347 286.192 59.2133 286.64 59.48C287.088 59.736 287.584 59.864 288.128 59.864C288.672 59.864 289.168 59.736 289.616 59.48C290.075 59.2133 290.438 58.8347 290.704 58.344C290.971 57.8427 291.104 57.2613 291.104 56.6ZM298.758 56.584C298.758 55.688 298.94 54.904 299.302 54.232C299.665 53.5493 300.161 53.0213 300.79 52.648C301.43 52.2747 302.14 52.088 302.918 52.088C303.686 52.088 304.353 52.2533 304.918 52.584C305.484 52.9147 305.905 53.3307 306.182 53.832V52.232H307.654V61H306.182V59.368C305.894 59.88 305.462 60.3067 304.886 60.648C304.321 60.9787 303.66 61.144 302.902 61.144C302.124 61.144 301.42 60.952 300.79 60.568C300.161 60.184 299.665 59.6453 299.302 58.952C298.94 58.2587 298.758 57.4693 298.758 56.584ZM306.182 56.6C306.182 55.9387 306.049 55.3627 305.782 54.872C305.516 54.3813 305.153 54.008 304.694 53.752C304.246 53.4853 303.75 53.352 303.206 53.352C302.662 53.352 302.166 53.48 301.718 53.736C301.27 53.992 300.913 54.3653 300.646 54.856C300.38 55.3467 300.246 55.9227 300.246 56.584C300.246 57.256 300.38 57.8427 300.646 58.344C300.913 58.8347 301.27 59.2133 301.718 59.48C302.166 59.736 302.662 59.864 303.206 59.864C303.75 59.864 304.246 59.736 304.694 59.48C305.153 59.2133 305.516 58.8347 305.782 58.344C306.049 57.8427 306.182 57.2613 306.182 56.6ZM311.571 49.16V61H310.115V49.16H311.571ZM314.804 50.808C314.527 50.808 314.292 50.712 314.1 50.52C313.908 50.328 313.812 50.0933 313.812 49.816C313.812 49.5387 313.908 49.304 314.1 49.112C314.292 48.92 314.527 48.824 314.804 48.824C315.071 48.824 315.295 48.92 315.476 49.112C315.668 49.304 315.764 49.5387 315.764 49.816C315.764 50.0933 315.668 50.328 315.476 50.52C315.295 50.712 315.071 50.808 314.804 50.808ZM315.508 52.232V61H314.052V52.232H315.508ZM317.446 56.584C317.446 55.688 317.627 54.904 317.99 54.232C318.352 53.5493 318.848 53.0213 319.478 52.648C320.118 52.2747 320.832 52.088 321.622 52.088C322.379 52.088 323.04 52.2587 323.606 52.6C324.182 52.9307 324.603 53.3413 324.87 53.832V52.232H326.342V65.16H324.87V59.384C324.592 59.8747 324.166 60.2907 323.59 60.632C323.014 60.9733 322.342 61.144 321.574 61.144C320.806 61.144 320.107 60.952 319.478 60.568C318.848 60.184 318.352 59.6453 317.99 58.952C317.627 58.2587 317.446 57.4693 317.446 56.584ZM324.87 56.6C324.87 55.9387 324.736 55.3627 324.47 54.872C324.203 54.3813 323.84 54.008 323.382 53.752C322.934 53.4853 322.438 53.352 321.894 53.352C321.35 53.352 320.854 53.48 320.406 53.736C319.958 53.992 319.6 54.3653 319.334 54.856C319.067 55.3467 318.934 55.9227 318.934 56.584C318.934 57.256 319.067 57.8427 319.334 58.344C319.6 58.8347 319.958 59.2133 320.406 59.48C320.854 59.736 321.35 59.864 321.894 59.864C322.438 59.864 322.934 59.736 323.382 59.48C323.84 59.2133 324.203 58.8347 324.47 58.344C324.736 57.8427 324.87 57.2613 324.87 56.6ZM336.578 52.232V61H335.122V59.704C334.845 60.152 334.456 60.504 333.954 60.76C333.464 61.0053 332.92 61.128 332.322 61.128C331.64 61.128 331.026 60.9893 330.482 60.712C329.938 60.424 329.506 59.9973 329.186 59.432C328.877 58.8667 328.722 58.1787 328.722 57.368V52.232H330.162V57.176C330.162 58.04 330.381 58.7067 330.818 59.176C331.256 59.6347 331.853 59.864 332.61 59.864C333.389 59.864 334.002 59.624 334.45 59.144C334.898 58.664 335.122 57.9653 335.122 57.048V52.232H336.578ZM338.493 56.584C338.493 55.688 338.674 54.904 339.037 54.232C339.399 53.5493 339.895 53.0213 340.525 52.648C341.165 52.2747 341.874 52.088 342.653 52.088C343.421 52.088 344.087 52.2533 344.653 52.584C345.218 52.9147 345.639 53.3307 345.917 53.832V52.232H347.389V61H345.917V59.368C345.629 59.88 345.197 60.3067 344.621 60.648C344.055 60.9787 343.394 61.144 342.637 61.144C341.858 61.144 341.154 60.952 340.525 60.568C339.895 60.184 339.399 59.6453 339.037 58.952C338.674 58.2587 338.493 57.4693 338.493 56.584ZM345.917 56.6C345.917 55.9387 345.783 55.3627 345.517 54.872C345.25 54.3813 344.887 54.008 344.429 53.752C343.981 53.4853 343.485 53.352 342.941 53.352C342.397 53.352 341.901 53.48 341.453 53.736C341.005 53.992 340.647 54.3653 340.381 54.856C340.114 55.3467 339.981 55.9227 339.981 56.584C339.981 57.256 340.114 57.8427 340.381 58.344C340.647 58.8347 341.005 59.2133 341.453 59.48C341.901 59.736 342.397 59.864 342.941 59.864C343.485 59.864 343.981 59.736 344.429 59.48C344.887 59.2133 345.25 58.8347 345.517 58.344C345.783 57.8427 345.917 57.2613 345.917 56.6ZM350.313 61.096C350.036 61.096 349.801 61 349.609 60.808C349.417 60.616 349.321 60.3813 349.321 60.104C349.321 59.8267 349.417 59.592 349.609 59.4C349.801 59.208 350.036 59.112 350.313 59.112C350.58 59.112 350.804 59.208 350.985 59.4C351.177 59.592 351.273 59.8267 351.273 60.104C351.273 60.3813 351.177 60.616 350.985 60.808C350.804 61 350.58 61.096 350.313 61.096ZM27.7658 76.232V85H26.3098V83.704C26.0325 84.152 25.6431 84.504 25.1418 84.76C24.6511 85.0053 24.1071 85.128 23.5098 85.128C22.8271 85.128 22.2138 84.9893 21.6698 84.712C21.1258 84.424 20.6938 83.9973 20.3738 83.432C20.0645 82.8667 19.9098 82.1787 19.9098 81.368V76.232H21.3498V81.176C21.3498 82.04 21.5685 82.7067 22.0058 83.176C22.4431 83.6347 23.0405 83.864 23.7978 83.864C24.5765 83.864 25.1898 83.624 25.6378 83.144C26.0858 82.664 26.3098 81.9653 26.3098 81.048V76.232H27.7658ZM32.0002 77.432V82.6C32.0002 83.0267 32.0909 83.3307 32.2722 83.512C32.4535 83.6827 32.7682 83.768 33.2162 83.768H34.2882V85H32.9762C32.1655 85 31.5575 84.8133 31.1522 84.44C30.7469 84.0667 30.5442 83.4533 30.5442 82.6V77.432H29.4082V76.232H30.5442V74.024H32.0002V76.232H34.2882V77.432H32.0002ZM48.3179 80.28C48.3179 80.5573 48.3019 80.8507 48.2699 81.16H41.2619C41.3153 82.024 41.6086 82.7013 42.1419 83.192C42.6859 83.672 43.3419 83.912 44.1099 83.912C44.7393 83.912 45.2619 83.768 45.6779 83.48C46.1046 83.1813 46.4033 82.7867 46.5739 82.296H48.1419C47.9073 83.1387 47.4379 83.8267 46.7339 84.36C46.0299 84.8827 45.1553 85.144 44.1099 85.144C43.2779 85.144 42.5313 84.9573 41.8699 84.584C41.2193 84.2107 40.7073 83.6827 40.3339 83C39.9606 82.3067 39.7739 81.5067 39.7739 80.6C39.7739 79.6933 39.9553 78.8987 40.3179 78.216C40.6806 77.5333 41.1873 77.0107 41.8379 76.648C42.4993 76.2747 43.2566 76.088 44.1099 76.088C44.9419 76.088 45.6779 76.2693 46.3179 76.632C46.9579 76.9947 47.4486 77.496 47.7899 78.136C48.1419 78.7653 48.3179 79.48 48.3179 80.28ZM46.8139 79.976C46.8139 79.4213 46.6913 78.9467 46.4459 78.552C46.2006 78.1467 45.8646 77.8427 45.4379 77.64C45.0219 77.4267 44.5579 77.32 44.0459 77.32C43.3099 77.32 42.6806 77.5547 42.1579 78.024C41.6459 78.4933 41.3526 79.144 41.2779 79.976H46.8139ZM54.5118 76.072C55.5785 76.072 56.4425 76.3973 57.1038 77.048C57.7651 77.688 58.0958 78.616 58.0958 79.832V85H56.6558V80.04C56.6558 79.1653 56.4371 78.4987 55.9998 78.04C55.5625 77.5707 54.9651 77.336 54.2078 77.336C53.4398 77.336 52.8265 77.576 52.3678 78.056C51.9198 78.536 51.6958 79.2347 51.6958 80.152V85H50.2398V76.232H51.6958V77.48C51.9838 77.032 52.3731 76.6853 52.8638 76.44C53.3651 76.1947 53.9145 76.072 54.5118 76.072ZM61.2262 74.808C60.9489 74.808 60.7142 74.712 60.5222 74.52C60.3302 74.328 60.2342 74.0933 60.2342 73.816C60.2342 73.5387 60.3302 73.304 60.5222 73.112C60.7142 72.92 60.9489 72.824 61.2262 72.824C61.4929 72.824 61.7169 72.92 61.8982 73.112C62.0902 73.304 62.1862 73.5387 62.1862 73.816C62.1862 74.0933 62.0902 74.328 61.8982 74.52C61.7169 74.712 61.4929 74.808 61.2262 74.808ZM61.9302 76.232V85H60.4742V76.232H61.9302ZM74.9557 76.072C75.6384 76.072 76.2464 76.216 76.7797 76.504C77.313 76.7813 77.7344 77.2027 78.0437 77.768C78.353 78.3333 78.5077 79.0213 78.5077 79.832V85H77.0677V80.04C77.0677 79.1653 76.849 78.4987 76.4117 78.04C75.985 77.5707 75.4037 77.336 74.6677 77.336C73.9104 77.336 73.3077 77.5813 72.8597 78.072C72.4117 78.552 72.1877 79.2507 72.1877 80.168V85H70.7477V80.04C70.7477 79.1653 70.529 78.4987 70.0917 78.04C69.665 77.5707 69.0837 77.336 68.3477 77.336C67.5904 77.336 66.9877 77.5813 66.5397 78.072C66.0917 78.552 65.8677 79.2507 65.8677 80.168V85H64.4117V76.232H65.8677V77.496C66.1557 77.0373 66.5397 76.6853 67.0197 76.44C67.5104 76.1947 68.049 76.072 68.6357 76.072C69.3717 76.072 70.0224 76.2373 70.5877 76.568C71.153 76.8987 71.5744 77.384 71.8517 78.024C72.097 77.4053 72.5024 76.9253 73.0677 76.584C73.633 76.2427 74.2624 76.072 74.9557 76.072ZM84.6177 80.584C84.6177 79.688 84.799 78.904 85.1617 78.232C85.5244 77.5493 86.0204 77.0213 86.6497 76.648C87.2897 76.2747 87.999 76.088 88.7777 76.088C89.5457 76.088 90.2124 76.2533 90.7777 76.584C91.343 76.9147 91.7644 77.3307 92.0417 77.832V76.232H93.5137V85H92.0417V83.368C91.7537 83.88 91.3217 84.3067 90.7457 84.648C90.1804 84.9787 89.519 85.144 88.7617 85.144C87.983 85.144 87.279 84.952 86.6497 84.568C86.0204 84.184 85.5244 83.6453 85.1617 82.952C84.799 82.2587 84.6177 81.4693 84.6177 80.584ZM92.0417 80.6C92.0417 79.9387 91.9084 79.3627 91.6417 78.872C91.375 78.3813 91.0124 78.008 90.5537 77.752C90.1057 77.4853 89.6097 77.352 89.0657 77.352C88.5217 77.352 88.0257 77.48 87.5777 77.736C87.1297 77.992 86.7724 78.3653 86.5057 78.856C86.239 79.3467 86.1057 79.9227 86.1057 80.584C86.1057 81.256 86.239 81.8427 86.5057 82.344C86.7724 82.8347 87.1297 83.2133 87.5777 83.48C88.0257 83.736 88.5217 83.864 89.0657 83.864C89.6097 83.864 90.1057 83.736 90.5537 83.48C91.0124 83.2133 91.375 82.8347 91.6417 82.344C91.9084 81.8427 92.0417 81.2613 92.0417 80.6ZM95.4302 80.584C95.4302 79.688 95.6115 78.904 95.9742 78.232C96.3369 77.5493 96.8329 77.0213 97.4622 76.648C98.1022 76.2747 98.8169 76.088 99.6062 76.088C100.289 76.088 100.924 76.248 101.51 76.568C102.097 76.8773 102.545 77.288 102.854 77.8V73.16H104.326V85H102.854V83.352C102.566 83.8747 102.14 84.3067 101.574 84.648C101.009 84.9787 100.348 85.144 99.5902 85.144C98.8115 85.144 98.1022 84.952 97.4622 84.568C96.8329 84.184 96.3369 83.6453 95.9742 82.952C95.6115 82.2587 95.4302 81.4693 95.4302 80.584ZM102.854 80.6C102.854 79.9387 102.721 79.3627 102.454 78.872C102.188 78.3813 101.825 78.008 101.366 77.752C100.918 77.4853 100.422 77.352 99.8782 77.352C99.3342 77.352 98.8382 77.48 98.3902 77.736C97.9422 77.992 97.5849 78.3653 97.3182 78.856C97.0515 79.3467 96.9182 79.9227 96.9182 80.584C96.9182 81.256 97.0515 81.8427 97.3182 82.344C97.5849 82.8347 97.9422 83.2133 98.3902 83.48C98.8382 83.736 99.3342 83.864 99.8782 83.864C100.422 83.864 100.918 83.736 101.366 83.48C101.825 83.2133 102.188 82.8347 102.454 82.344C102.721 81.8427 102.854 81.2613 102.854 80.6ZM121.596 76.072C122.279 76.072 122.887 76.216 123.42 76.504C123.954 76.7813 124.375 77.2027 124.684 77.768C124.994 78.3333 125.148 79.0213 125.148 79.832V85H123.708V80.04C123.708 79.1653 123.49 78.4987 123.052 78.04C122.626 77.5707 122.044 77.336 121.308 77.336C120.551 77.336 119.948 77.5813 119.5 78.072C119.052 78.552 118.828 79.2507 118.828 80.168V85H117.388V80.04C117.388 79.1653 117.17 78.4987 116.732 78.04C116.306 77.5707 115.724 77.336 114.988 77.336C114.231 77.336 113.628 77.5813 113.18 78.072C112.732 78.552 112.508 79.2507 112.508 80.168V85H111.052V76.232H112.508V77.496C112.796 77.0373 113.18 76.6853 113.66 76.44C114.151 76.1947 114.69 76.072 115.276 76.072C116.012 76.072 116.663 76.2373 117.228 76.568C117.794 76.8987 118.215 77.384 118.492 78.024C118.738 77.4053 119.143 76.9253 119.708 76.584C120.274 76.2427 120.903 76.072 121.596 76.072ZM128.289 74.808C128.011 74.808 127.777 74.712 127.585 74.52C127.393 74.328 127.297 74.0933 127.297 73.816C127.297 73.5387 127.393 73.304 127.585 73.112C127.777 72.92 128.011 72.824 128.289 72.824C128.555 72.824 128.779 72.92 128.961 73.112C129.153 73.304 129.249 73.5387 129.249 73.816C129.249 74.0933 129.153 74.328 128.961 74.52C128.779 74.712 128.555 74.808 128.289 74.808ZM128.993 76.232V85H127.537V76.232H128.993ZM135.746 76.072C136.813 76.072 137.677 76.3973 138.338 77.048C139 77.688 139.33 78.616 139.33 79.832V85H137.89V80.04C137.89 79.1653 137.672 78.4987 137.234 78.04C136.797 77.5707 136.2 77.336 135.442 77.336C134.674 77.336 134.061 77.576 133.602 78.056C133.154 78.536 132.93 79.2347 132.93 80.152V85H131.474V76.232H132.93V77.48C133.218 77.032 133.608 76.6853 134.098 76.44C134.6 76.1947 135.149 76.072 135.746 76.072ZM142.461 74.808C142.183 74.808 141.949 74.712 141.757 74.52C141.565 74.328 141.469 74.0933 141.469 73.816C141.469 73.5387 141.565 73.304 141.757 73.112C141.949 72.92 142.183 72.824 142.461 72.824C142.727 72.824 142.951 72.92 143.133 73.112C143.325 73.304 143.421 73.5387 143.421 73.816C143.421 74.0933 143.325 74.328 143.133 74.52C142.951 74.712 142.727 74.808 142.461 74.808ZM143.165 76.232V85H141.709V76.232H143.165ZM156.19 76.072C156.873 76.072 157.481 76.216 158.014 76.504C158.547 76.7813 158.969 77.2027 159.278 77.768C159.587 78.3333 159.742 79.0213 159.742 79.832V85H158.302V80.04C158.302 79.1653 158.083 78.4987 157.646 78.04C157.219 77.5707 156.638 77.336 155.902 77.336C155.145 77.336 154.542 77.5813 154.094 78.072C153.646 78.552 153.422 79.2507 153.422 80.168V85H151.982V80.04C151.982 79.1653 151.763 78.4987 151.326 78.04C150.899 77.5707 150.318 77.336 149.582 77.336C148.825 77.336 148.222 77.5813 147.774 78.072C147.326 78.552 147.102 79.2507 147.102 80.168V85H145.646V76.232H147.102V77.496C147.39 77.0373 147.774 76.6853 148.254 76.44C148.745 76.1947 149.283 76.072 149.87 76.072C150.606 76.072 151.257 76.2373 151.822 76.568C152.387 76.8987 152.809 77.384 153.086 78.024C153.331 77.4053 153.737 76.9253 154.302 76.584C154.867 76.2427 155.497 76.072 156.19 76.072ZM169.66 83.656L172.38 76.232H173.932L170.492 85H168.796L165.356 76.232H166.924L169.66 83.656ZM183.365 80.28C183.365 80.5573 183.349 80.8507 183.317 81.16H176.309C176.362 82.024 176.655 82.7013 177.189 83.192C177.733 83.672 178.389 83.912 179.157 83.912C179.786 83.912 180.309 83.768 180.725 83.48C181.151 83.1813 181.45 82.7867 181.621 82.296H183.189C182.954 83.1387 182.485 83.8267 181.781 84.36C181.077 84.8827 180.202 85.144 179.157 85.144C178.325 85.144 177.578 84.9573 176.917 84.584C176.266 84.2107 175.754 83.6827 175.381 83C175.007 82.3067 174.821 81.5067 174.821 80.6C174.821 79.6933 175.002 78.8987 175.365 78.216C175.727 77.5333 176.234 77.0107 176.885 76.648C177.546 76.2747 178.303 76.088 179.157 76.088C179.989 76.088 180.725 76.2693 181.365 76.632C182.005 76.9947 182.495 77.496 182.837 78.136C183.189 78.7653 183.365 79.48 183.365 80.28ZM181.861 79.976C181.861 79.4213 181.738 78.9467 181.493 78.552C181.247 78.1467 180.911 77.8427 180.485 77.64C180.069 77.4267 179.605 77.32 179.093 77.32C178.357 77.32 177.727 77.5547 177.205 78.024C176.693 78.4933 176.399 79.144 176.325 79.976H181.861ZM189.559 76.072C190.625 76.072 191.489 76.3973 192.151 77.048C192.812 77.688 193.143 78.616 193.143 79.832V85H191.703V80.04C191.703 79.1653 191.484 78.4987 191.047 78.04C190.609 77.5707 190.012 77.336 189.255 77.336C188.487 77.336 187.873 77.576 187.415 78.056C186.967 78.536 186.743 79.2347 186.743 80.152V85H185.287V76.232H186.743V77.48C187.031 77.032 187.42 76.6853 187.911 76.44C188.412 76.1947 188.961 76.072 189.559 76.072ZM196.273 74.808C195.996 74.808 195.761 74.712 195.569 74.52C195.377 74.328 195.281 74.0933 195.281 73.816C195.281 73.5387 195.377 73.304 195.569 73.112C195.761 72.92 195.996 72.824 196.273 72.824C196.54 72.824 196.764 72.92 196.945 73.112C197.137 73.304 197.233 73.5387 197.233 73.816C197.233 74.0933 197.137 74.328 196.945 74.52C196.764 74.712 196.54 74.808 196.273 74.808ZM196.977 76.232V85H195.521V76.232H196.977ZM198.915 80.584C198.915 79.688 199.096 78.904 199.459 78.232C199.821 77.5493 200.317 77.0213 200.947 76.648C201.587 76.2747 202.296 76.088 203.075 76.088C203.843 76.088 204.509 76.2533 205.075 76.584C205.64 76.9147 206.061 77.3307 206.339 77.832V76.232H207.811V85H206.339V83.368C206.051 83.88 205.619 84.3067 205.043 84.648C204.477 84.9787 203.816 85.144 203.059 85.144C202.28 85.144 201.576 84.952 200.947 84.568C200.317 84.184 199.821 83.6453 199.459 82.952C199.096 82.2587 198.915 81.4693 198.915 80.584ZM206.339 80.6C206.339 79.9387 206.205 79.3627 205.939 78.872C205.672 78.3813 205.309 78.008 204.851 77.752C204.403 77.4853 203.907 77.352 203.363 77.352C202.819 77.352 202.323 77.48 201.875 77.736C201.427 77.992 201.069 78.3653 200.803 78.856C200.536 79.3467 200.403 79.9227 200.403 80.584C200.403 81.256 200.536 81.8427 200.803 82.344C201.069 82.8347 201.427 83.2133 201.875 83.48C202.323 83.736 202.819 83.864 203.363 83.864C203.907 83.864 204.403 83.736 204.851 83.48C205.309 83.2133 205.672 82.8347 205.939 82.344C206.205 81.8427 206.339 81.2613 206.339 80.6ZM220.815 76.072C221.498 76.072 222.106 76.216 222.639 76.504C223.172 76.7813 223.594 77.2027 223.903 77.768C224.212 78.3333 224.367 79.0213 224.367 79.832V85H222.927V80.04C222.927 79.1653 222.708 78.4987 222.271 78.04C221.844 77.5707 221.263 77.336 220.527 77.336C219.77 77.336 219.167 77.5813 218.719 78.072C218.271 78.552 218.047 79.2507 218.047 80.168V85H216.607V80.04C216.607 79.1653 216.388 78.4987 215.951 78.04C215.524 77.5707 214.943 77.336 214.207 77.336C213.45 77.336 212.847 77.5813 212.399 78.072C211.951 78.552 211.727 79.2507 211.727 80.168V85H210.271V76.232H211.727V77.496C212.015 77.0373 212.399 76.6853 212.879 76.44C213.37 76.1947 213.908 76.072 214.495 76.072C215.231 76.072 215.882 76.2373 216.447 76.568C217.012 76.8987 217.434 77.384 217.711 78.024C217.956 77.4053 218.362 76.9253 218.927 76.584C219.492 76.2427 220.122 76.072 220.815 76.072ZM228.259 82.984L226.467 87.288H225.491L226.659 82.984H228.259ZM233.649 80.584C233.649 79.688 233.83 78.904 234.193 78.232C234.556 77.5493 235.052 77.0213 235.681 76.648C236.321 76.2747 237.036 76.088 237.825 76.088C238.582 76.088 239.244 76.2587 239.809 76.6C240.385 76.9307 240.806 77.3413 241.073 77.832V76.232H242.545V89.16H241.073V83.384C240.796 83.8747 240.369 84.2907 239.793 84.632C239.217 84.9733 238.545 85.144 237.777 85.144C237.009 85.144 236.31 84.952 235.681 84.568C235.052 84.184 234.556 83.6453 234.193 82.952C233.83 82.2587 233.649 81.4693 233.649 80.584ZM241.073 80.6C241.073 79.9387 240.94 79.3627 240.673 78.872C240.406 78.3813 240.044 78.008 239.585 77.752C239.137 77.4853 238.641 77.352 238.097 77.352C237.553 77.352 237.057 77.48 236.609 77.736C236.161 77.992 235.804 78.3653 235.537 78.856C235.27 79.3467 235.137 79.9227 235.137 80.584C235.137 81.256 235.27 81.8427 235.537 82.344C235.804 82.8347 236.161 83.2133 236.609 83.48C237.057 83.736 237.553 83.864 238.097 83.864C238.641 83.864 239.137 83.736 239.585 83.48C240.044 83.2133 240.406 82.8347 240.673 82.344C240.94 81.8427 241.073 81.2613 241.073 80.6ZM252.781 76.232V85H251.325V83.704C251.048 84.152 250.659 84.504 250.157 84.76C249.667 85.0053 249.123 85.128 248.525 85.128C247.843 85.128 247.229 84.9893 246.685 84.712C246.141 84.424 245.709 83.9973 245.389 83.432C245.08 82.8667 244.925 82.1787 244.925 81.368V76.232H246.365V81.176C246.365 82.04 246.584 82.7067 247.021 83.176C247.459 83.6347 248.056 83.864 248.813 83.864C249.592 83.864 250.205 83.624 250.653 83.144C251.101 82.664 251.325 81.9653 251.325 81.048V76.232H252.781ZM255.992 74.808C255.714 74.808 255.48 74.712 255.288 74.52C255.096 74.328 255 74.0933 255 73.816C255 73.5387 255.096 73.304 255.288 73.112C255.48 72.92 255.714 72.824 255.992 72.824C256.258 72.824 256.482 72.92 256.664 73.112C256.856 73.304 256.952 73.5387 256.952 73.816C256.952 74.0933 256.856 74.328 256.664 74.52C256.482 74.712 256.258 74.808 255.992 74.808ZM256.696 76.232V85H255.24V76.232H256.696ZM262.281 85.144C261.609 85.144 261.007 85.032 260.473 84.808C259.94 84.5733 259.519 84.2533 259.209 83.848C258.9 83.432 258.729 82.9573 258.697 82.424H260.201C260.244 82.8613 260.447 83.2187 260.809 83.496C261.183 83.7733 261.668 83.912 262.265 83.912C262.82 83.912 263.257 83.7893 263.577 83.544C263.897 83.2987 264.057 82.9893 264.057 82.616C264.057 82.232 263.887 81.9493 263.545 81.768C263.204 81.576 262.676 81.3893 261.961 81.208C261.311 81.0373 260.777 80.8667 260.361 80.696C259.956 80.5147 259.604 80.2533 259.305 79.912C259.017 79.56 258.873 79.1013 258.873 78.536C258.873 78.088 259.007 77.6773 259.273 77.304C259.54 76.9307 259.919 76.6373 260.409 76.424C260.9 76.2 261.46 76.088 262.089 76.088C263.06 76.088 263.844 76.3333 264.441 76.824C265.039 77.3147 265.359 77.9867 265.401 78.84H263.945C263.913 78.3813 263.727 78.0133 263.385 77.736C263.055 77.4587 262.607 77.32 262.041 77.32C261.519 77.32 261.103 77.432 260.793 77.656C260.484 77.88 260.329 78.1733 260.329 78.536C260.329 78.824 260.42 79.064 260.601 79.256C260.793 79.4373 261.028 79.5867 261.305 79.704C261.593 79.8107 261.988 79.9333 262.489 80.072C263.119 80.2427 263.631 80.4133 264.025 80.584C264.42 80.744 264.756 80.9893 265.033 81.32C265.321 81.6507 265.471 82.0827 265.481 82.616C265.481 83.096 265.348 83.528 265.081 83.912C264.815 84.296 264.436 84.6 263.945 84.824C263.465 85.0373 262.911 85.144 262.281 85.144ZM276.074 76.072C277.141 76.072 278.005 76.3973 278.666 77.048C279.328 77.688 279.658 78.616 279.658 79.832V85H278.218V80.04C278.218 79.1653 278 78.4987 277.562 78.04C277.125 77.5707 276.528 77.336 275.77 77.336C275.002 77.336 274.389 77.576 273.93 78.056C273.482 78.536 273.258 79.2347 273.258 80.152V85H271.802V76.232H273.258V77.48C273.546 77.032 273.936 76.6853 274.426 76.44C274.928 76.1947 275.477 76.072 276.074 76.072ZM285.861 85.144C285.039 85.144 284.293 84.9573 283.621 84.584C282.959 84.2107 282.437 83.6827 282.053 83C281.679 82.3067 281.493 81.5067 281.493 80.6C281.493 79.704 281.685 78.9147 282.069 78.232C282.463 77.5387 282.997 77.0107 283.669 76.648C284.341 76.2747 285.093 76.088 285.925 76.088C286.757 76.088 287.509 76.2747 288.181 76.648C288.853 77.0107 289.381 77.5333 289.765 78.216C290.159 78.8987 290.357 79.6933 290.357 80.6C290.357 81.5067 290.154 82.3067 289.749 83C289.354 83.6827 288.815 84.2107 288.133 84.584C287.45 84.9573 286.693 85.144 285.861 85.144ZM285.861 83.864C286.383 83.864 286.874 83.7413 287.333 83.496C287.791 83.2507 288.159 82.8827 288.437 82.392C288.725 81.9013 288.869 81.304 288.869 80.6C288.869 79.896 288.73 79.2987 288.453 78.808C288.175 78.3173 287.813 77.9547 287.365 77.72C286.917 77.4747 286.431 77.352 285.909 77.352C285.375 77.352 284.885 77.4747 284.437 77.72C283.999 77.9547 283.647 78.3173 283.381 78.808C283.114 79.2987 282.981 79.896 282.981 80.6C282.981 81.3147 283.109 81.9173 283.365 82.408C283.631 82.8987 283.983 83.2667 284.421 83.512C284.858 83.7467 285.338 83.864 285.861 83.864ZM295.375 85.144C294.703 85.144 294.1 85.032 293.567 84.808C293.034 84.5733 292.612 84.2533 292.303 83.848C291.994 83.432 291.823 82.9573 291.791 82.424H293.295C293.338 82.8613 293.54 83.2187 293.903 83.496C294.276 83.7733 294.762 83.912 295.359 83.912C295.914 83.912 296.351 83.7893 296.671 83.544C296.991 83.2987 297.151 82.9893 297.151 82.616C297.151 82.232 296.98 81.9493 296.639 81.768C296.298 81.576 295.77 81.3893 295.055 81.208C294.404 81.0373 293.871 80.8667 293.455 80.696C293.05 80.5147 292.698 80.2533 292.399 79.912C292.111 79.56 291.967 79.1013 291.967 78.536C291.967 78.088 292.1 77.6773 292.367 77.304C292.634 76.9307 293.012 76.6373 293.503 76.424C293.994 76.2 294.554 76.088 295.183 76.088C296.154 76.088 296.938 76.3333 297.535 76.824C298.132 77.3147 298.452 77.9867 298.495 78.84H297.039C297.007 78.3813 296.82 78.0133 296.479 77.736C296.148 77.4587 295.7 77.32 295.135 77.32C294.612 77.32 294.196 77.432 293.887 77.656C293.578 77.88 293.423 78.1733 293.423 78.536C293.423 78.824 293.514 79.064 293.695 79.256C293.887 79.4373 294.122 79.5867 294.399 79.704C294.687 79.8107 295.082 79.9333 295.583 80.072C296.212 80.2427 296.724 80.4133 297.119 80.584C297.514 80.744 297.85 80.9893 298.127 81.32C298.415 81.6507 298.564 82.0827 298.575 82.616C298.575 83.096 298.442 83.528 298.175 83.912C297.908 84.296 297.53 84.6 297.039 84.824C296.559 85.0373 296.004 85.144 295.375 85.144ZM302.406 77.432V82.6C302.406 83.0267 302.497 83.3307 302.678 83.512C302.86 83.6827 303.174 83.768 303.622 83.768H304.694V85H303.382C302.572 85 301.964 84.8133 301.558 84.44C301.153 84.0667 300.95 83.4533 300.95 82.6V77.432H299.814V76.232H300.95V74.024H302.406V76.232H304.694V77.432H302.406ZM307.915 77.656C308.171 77.1547 308.533 76.7653 309.003 76.488C309.483 76.2107 310.064 76.072 310.747 76.072V77.576H310.363C308.731 77.576 307.915 78.4613 307.915 80.232V85H306.459V76.232H307.915V77.656ZM320.203 76.232V85H318.747V83.704C318.47 84.152 318.081 84.504 317.579 84.76C317.089 85.0053 316.545 85.128 315.947 85.128C315.265 85.128 314.651 84.9893 314.107 84.712C313.563 84.424 313.131 83.9973 312.811 83.432C312.502 82.8667 312.347 82.1787 312.347 81.368V76.232H313.787V81.176C313.787 82.04 314.006 82.7067 314.443 83.176C314.881 83.6347 315.478 83.864 316.235 83.864C317.014 83.864 317.627 83.624 318.075 83.144C318.523 82.664 318.747 81.9653 318.747 81.048V76.232H320.203ZM322.118 80.584C322.118 79.688 322.299 78.904 322.662 78.232C323.024 77.5493 323.52 77.0213 324.15 76.648C324.79 76.2747 325.504 76.088 326.294 76.088C326.976 76.088 327.611 76.248 328.198 76.568C328.784 76.8773 329.232 77.288 329.542 77.8V73.16H331.014V85H329.542V83.352C329.254 83.8747 328.827 84.3067 328.262 84.648C327.696 84.9787 327.035 85.144 326.278 85.144C325.499 85.144 324.79 84.952 324.15 84.568C323.52 84.184 323.024 83.6453 322.662 82.952C322.299 82.2587 322.118 81.4693 322.118 80.584ZM329.542 80.6C329.542 79.9387 329.408 79.3627 329.142 78.872C328.875 78.3813 328.512 78.008 328.054 77.752C327.606 77.4853 327.11 77.352 326.566 77.352C326.022 77.352 325.526 77.48 325.078 77.736C324.63 77.992 324.272 78.3653 324.006 78.856C323.739 79.3467 323.606 79.9227 323.606 80.584C323.606 81.256 323.739 81.8427 324.006 82.344C324.272 82.8347 324.63 83.2133 325.078 83.48C325.526 83.736 326.022 83.864 326.566 83.864C327.11 83.864 327.606 83.736 328.054 83.48C328.512 83.2133 328.875 82.8347 329.142 82.344C329.408 81.8427 329.542 81.2613 329.542 80.6Z" fill="#CDCDCD"/>
</svg>
