<svg width="241" height="91" viewBox="0 0 241 91" fill="none" xmlns="http://www.w3.org/2000/svg">
<path d="M1.20155 9.112H4.12955V10H0.109547V1.636H1.20155V9.112ZM8.15723 10.108C7.54123 10.108 6.98123 9.968 6.47723 9.688C5.98123 9.408 5.58923 9.012 5.30123 8.5C5.02123 7.98 4.88123 7.38 4.88123 6.7C4.88123 6.028 5.02523 5.436 5.31323 4.924C5.60923 4.404 6.00923 4.008 6.51323 3.736C7.01723 3.456 7.58123 3.316 8.20523 3.316C8.82923 3.316 9.39323 3.456 9.89723 3.736C10.4012 4.008 10.7972 4.4 11.0852 4.912C11.3812 5.424 11.5292 6.02 11.5292 6.7C11.5292 7.38 11.3772 7.98 11.0732 8.5C10.7772 9.012 10.3732 9.408 9.86123 9.688C9.34923 9.968 8.78123 10.108 8.15723 10.108ZM8.15723 9.148C8.54923 9.148 8.91723 9.056 9.26123 8.872C9.60523 8.688 9.88123 8.412 10.0892 8.044C10.3052 7.676 10.4132 7.228 10.4132 6.7C10.4132 6.172 10.3092 5.724 10.1012 5.356C9.89323 4.988 9.62123 4.716 9.28523 4.54C8.94923 4.356 8.58523 4.264 8.19323 4.264C7.79323 4.264 7.42523 4.356 7.08923 4.54C6.76123 4.716 6.49723 4.988 6.29723 5.356C6.09723 5.724 5.99723 6.172 5.99723 6.7C5.99723 7.236 6.09323 7.688 6.28523 8.056C6.48523 8.424 6.74923 8.7 7.07723 8.884C7.40523 9.06 7.76523 9.148 8.15723 9.148ZM14.057 4.492C14.249 4.116 14.521 3.824 14.873 3.616C15.233 3.408 15.669 3.304 16.181 3.304V4.432H15.893C14.669 4.432 14.057 5.096 14.057 6.424V10H12.965V3.424H14.057V4.492ZM23.4416 6.46C23.4416 6.668 23.4296 6.888 23.4056 7.12H18.1496C18.1896 7.768 18.4096 8.276 18.8096 8.644C19.2176 9.004 19.7096 9.184 20.2856 9.184C20.7576 9.184 21.1496 9.076 21.4616 8.86C21.7816 8.636 22.0056 8.34 22.1336 7.972H23.3096C23.1336 8.604 22.7816 9.12 22.2536 9.52C21.7256 9.912 21.0696 10.108 20.2856 10.108C19.6616 10.108 19.1016 9.968 18.6056 9.688C18.1176 9.408 17.7336 9.012 17.4536 8.5C17.1736 7.98 17.0336 7.38 17.0336 6.7C17.0336 6.02 17.1696 5.424 17.4416 4.912C17.7136 4.4 18.0936 4.008 18.5816 3.736C19.0776 3.456 19.6456 3.316 20.2856 3.316C20.9096 3.316 21.4616 3.452 21.9416 3.724C22.4216 3.996 22.7896 4.372 23.0456 4.852C23.3096 5.324 23.4416 5.86 23.4416 6.46ZM22.3136 6.232C22.3136 5.816 22.2216 5.46 22.0376 5.164C21.8536 4.86 21.6016 4.632 21.2816 4.48C20.9696 4.32 20.6216 4.24 20.2376 4.24C19.6856 4.24 19.2136 4.416 18.8216 4.768C18.4376 5.12 18.2176 5.608 18.1616 6.232H22.3136ZM32.791 3.304C33.303 3.304 33.759 3.412 34.159 3.628C34.559 3.836 34.875 4.152 35.107 4.576C35.339 5 35.455 5.516 35.455 6.124V10H34.375V6.28C34.375 5.624 34.211 5.124 33.883 4.78C33.563 4.428 33.127 4.252 32.575 4.252C32.007 4.252 31.555 4.436 31.219 4.804C30.883 5.164 30.715 5.688 30.715 6.376V10H29.635V6.28C29.635 5.624 29.471 5.124 29.143 4.78C28.823 4.428 28.387 4.252 27.835 4.252C27.267 4.252 26.815 4.436 26.479 4.804C26.143 5.164 25.975 5.688 25.975 6.376V10H24.883V3.424H25.975V4.372C26.191 4.028 26.479 3.764 26.839 3.58C27.207 3.396 27.611 3.304 28.051 3.304C28.603 3.304 29.091 3.428 29.515 3.676C29.939 3.924 30.255 4.288 30.463 4.768C30.647 4.304 30.951 3.944 31.375 3.688C31.799 3.432 32.271 3.304 32.791 3.304ZM41.0095 2.356C40.8015 2.356 40.6255 2.284 40.4815 2.14C40.3375 1.996 40.2655 1.82 40.2655 1.612C40.2655 1.404 40.3375 1.228 40.4815 1.084C40.6255 0.94 40.8015 0.868 41.0095 0.868C41.2095 0.868 41.3775 0.94 41.5135 1.084C41.6575 1.228 41.7295 1.404 41.7295 1.612C41.7295 1.82 41.6575 1.996 41.5135 2.14C41.3775 2.284 41.2095 2.356 41.0095 2.356ZM41.5375 3.424V10H40.4455V3.424H41.5375ZM44.4906 4.636C44.7066 4.26 45.0266 3.948 45.4506 3.7C45.8826 3.444 46.3826 3.316 46.9506 3.316C47.5346 3.316 48.0626 3.456 48.5346 3.736C49.0146 4.016 49.3906 4.412 49.6626 4.924C49.9346 5.428 50.0706 6.016 50.0706 6.688C50.0706 7.352 49.9346 7.944 49.6626 8.464C49.3906 8.984 49.0146 9.388 48.5346 9.676C48.0626 9.964 47.5346 10.108 46.9506 10.108C46.3906 10.108 45.8946 9.984 45.4626 9.736C45.0386 9.48 44.7146 9.164 44.4906 8.788V13.12H43.3986V3.424H44.4906V4.636ZM48.9546 6.688C48.9546 6.192 48.8546 5.76 48.6546 5.392C48.4546 5.024 48.1826 4.744 47.8386 4.552C47.5026 4.36 47.1306 4.264 46.7226 4.264C46.3226 4.264 45.9506 4.364 45.6066 4.564C45.2706 4.756 44.9986 5.04 44.7906 5.416C44.5906 5.784 44.4906 6.212 44.4906 6.7C44.4906 7.196 44.5906 7.632 44.7906 8.008C44.9986 8.376 45.2706 8.66 45.6066 8.86C45.9506 9.052 46.3226 9.148 46.7226 9.148C47.1306 9.148 47.5026 9.052 47.8386 8.86C48.1826 8.66 48.4546 8.376 48.6546 8.008C48.8546 7.632 48.9546 7.192 48.9546 6.688ZM53.836 10.108C53.332 10.108 52.88 10.024 52.48 9.856C52.08 9.68 51.764 9.44 51.532 9.136C51.3 8.824 51.172 8.468 51.148 8.068H52.276C52.308 8.396 52.46 8.664 52.732 8.872C53.012 9.08 53.376 9.184 53.824 9.184C54.24 9.184 54.568 9.092 54.808 8.908C55.048 8.724 55.168 8.492 55.168 8.212C55.168 7.924 55.04 7.712 54.784 7.576C54.528 7.432 54.132 7.292 53.596 7.156C53.108 7.028 52.708 6.9 52.396 6.772C52.092 6.636 51.828 6.44 51.604 6.184C51.388 5.92 51.28 5.576 51.28 5.152C51.28 4.816 51.38 4.508 51.58 4.228C51.78 3.948 52.064 3.728 52.432 3.568C52.8 3.4 53.22 3.316 53.692 3.316C54.42 3.316 55.008 3.5 55.456 3.868C55.904 4.236 56.144 4.74 56.176 5.38H55.084C55.06 5.036 54.92 4.76 54.664 4.552C54.416 4.344 54.08 4.24 53.656 4.24C53.264 4.24 52.952 4.324 52.72 4.492C52.488 4.66 52.372 4.88 52.372 5.152C52.372 5.368 52.44 5.548 52.576 5.692C52.72 5.828 52.896 5.94 53.104 6.028C53.32 6.108 53.616 6.2 53.992 6.304C54.464 6.432 54.848 6.56 55.144 6.688C55.44 6.808 55.692 6.992 55.9 7.24C56.116 7.488 56.228 7.812 56.236 8.212C56.236 8.572 56.136 8.896 55.936 9.184C55.736 9.472 55.452 9.7 55.084 9.868C54.724 10.028 54.308 10.108 53.836 10.108ZM63.6095 3.424V10H62.5175V9.028C62.3095 9.364 62.0175 9.628 61.6415 9.82C61.2735 10.004 60.8655 10.096 60.4175 10.096C59.9055 10.096 59.4455 9.992 59.0375 9.784C58.6295 9.568 58.3055 9.248 58.0655 8.824C57.8335 8.4 57.7175 7.884 57.7175 7.276V3.424H58.7975V7.132C58.7975 7.78 58.9615 8.28 59.2895 8.632C59.6175 8.976 60.0655 9.148 60.6335 9.148C61.2175 9.148 61.6775 8.968 62.0135 8.608C62.3495 8.248 62.5175 7.724 62.5175 7.036V3.424H63.6095ZM73.3613 3.304C73.8733 3.304 74.3293 3.412 74.7293 3.628C75.1293 3.836 75.4453 4.152 75.6773 4.576C75.9093 5 76.0253 5.516 76.0253 6.124V10H74.9453V6.28C74.9453 5.624 74.7813 5.124 74.4533 4.78C74.1333 4.428 73.6973 4.252 73.1453 4.252C72.5773 4.252 72.1253 4.436 71.7893 4.804C71.4533 5.164 71.2853 5.688 71.2853 6.376V10H70.2053V6.28C70.2053 5.624 70.0413 5.124 69.7133 4.78C69.3933 4.428 68.9573 4.252 68.4053 4.252C67.8373 4.252 67.3853 4.436 67.0493 4.804C66.7133 5.164 66.5453 5.688 66.5453 6.376V10H65.4533V3.424H66.5453V4.372C66.7613 4.028 67.0493 3.764 67.4093 3.58C67.7773 3.396 68.1813 3.304 68.6213 3.304C69.1733 3.304 69.6613 3.428 70.0853 3.676C70.5093 3.924 70.8253 4.288 71.0333 4.768C71.2173 4.304 71.5213 3.944 71.9453 3.688C72.3693 3.432 72.8413 3.304 73.3613 3.304ZM80.6078 6.688C80.6078 6.016 80.7438 5.428 81.0158 4.924C81.2878 4.412 81.6598 4.016 82.1318 3.736C82.6118 3.456 83.1478 3.316 83.7398 3.316C84.2518 3.316 84.7278 3.436 85.1678 3.676C85.6078 3.908 85.9438 4.216 86.1758 4.6V1.12H87.2798V10H86.1758V8.764C85.9598 9.156 85.6398 9.48 85.2158 9.736C84.7918 9.984 84.2958 10.108 83.7278 10.108C83.1438 10.108 82.6118 9.964 82.1318 9.676C81.6598 9.388 81.2878 8.984 81.0158 8.464C80.7438 7.944 80.6078 7.352 80.6078 6.688ZM86.1758 6.7C86.1758 6.204 86.0758 5.772 85.8758 5.404C85.6758 5.036 85.4038 4.756 85.0598 4.564C84.7238 4.364 84.3518 4.264 83.9438 4.264C83.5358 4.264 83.1638 4.36 82.8278 4.552C82.4918 4.744 82.2238 5.024 82.0238 5.392C81.8238 5.76 81.7238 6.192 81.7238 6.688C81.7238 7.192 81.8238 7.632 82.0238 8.008C82.2238 8.376 82.4918 8.66 82.8278 8.86C83.1638 9.052 83.5358 9.148 83.9438 9.148C84.3518 9.148 84.7238 9.052 85.0598 8.86C85.4038 8.66 85.6758 8.376 85.8758 8.008C86.0758 7.632 86.1758 7.196 86.1758 6.7ZM91.9932 10.108C91.3772 10.108 90.8172 9.968 90.3132 9.688C89.8172 9.408 89.4252 9.012 89.1372 8.5C88.8572 7.98 88.7172 7.38 88.7172 6.7C88.7172 6.028 88.8612 5.436 89.1492 4.924C89.4452 4.404 89.8452 4.008 90.3492 3.736C90.8532 3.456 91.4172 3.316 92.0412 3.316C92.6652 3.316 93.2292 3.456 93.7332 3.736C94.2372 4.008 94.6332 4.4 94.9212 4.912C95.2172 5.424 95.3652 6.02 95.3652 6.7C95.3652 7.38 95.2132 7.98 94.9092 8.5C94.6132 9.012 94.2092 9.408 93.6972 9.688C93.1852 9.968 92.6172 10.108 91.9932 10.108ZM91.9932 9.148C92.3852 9.148 92.7532 9.056 93.0972 8.872C93.4412 8.688 93.7172 8.412 93.9252 8.044C94.1412 7.676 94.2492 7.228 94.2492 6.7C94.2492 6.172 94.1452 5.724 93.9372 5.356C93.7292 4.988 93.4572 4.716 93.1212 4.54C92.7852 4.356 92.4212 4.264 92.0292 4.264C91.6292 4.264 91.2612 4.356 90.9252 4.54C90.5972 4.716 90.3332 4.988 90.1332 5.356C89.9332 5.724 89.8332 6.172 89.8332 6.7C89.8332 7.236 89.9292 7.688 90.1212 8.056C90.3212 8.424 90.5852 8.7 90.9132 8.884C91.2412 9.06 91.6012 9.148 91.9932 9.148ZM97.893 1.12V10H96.801V1.12H97.893ZM102.622 10.108C102.006 10.108 101.446 9.968 100.942 9.688C100.446 9.408 100.054 9.012 99.7661 8.5C99.4861 7.98 99.3461 7.38 99.3461 6.7C99.3461 6.028 99.4901 5.436 99.7781 4.924C100.074 4.404 100.474 4.008 100.978 3.736C101.482 3.456 102.046 3.316 102.67 3.316C103.294 3.316 103.858 3.456 104.362 3.736C104.866 4.008 105.262 4.4 105.55 4.912C105.846 5.424 105.994 6.02 105.994 6.7C105.994 7.38 105.842 7.98 105.538 8.5C105.242 9.012 104.838 9.408 104.326 9.688C103.814 9.968 103.246 10.108 102.622 10.108ZM102.622 9.148C103.014 9.148 103.382 9.056 103.726 8.872C104.07 8.688 104.346 8.412 104.554 8.044C104.77 7.676 104.878 7.228 104.878 6.7C104.878 6.172 104.774 5.724 104.566 5.356C104.358 4.988 104.086 4.716 103.75 4.54C103.414 4.356 103.05 4.264 102.658 4.264C102.258 4.264 101.89 4.356 101.554 4.54C101.226 4.716 100.962 4.988 100.762 5.356C100.562 5.724 100.462 6.172 100.462 6.7C100.462 7.236 100.558 7.688 100.75 8.056C100.95 8.424 101.214 8.7 101.542 8.884C101.87 9.06 102.23 9.148 102.622 9.148ZM108.522 4.492C108.714 4.116 108.986 3.824 109.338 3.616C109.698 3.408 110.134 3.304 110.646 3.304V4.432H110.358C109.134 4.432 108.522 5.096 108.522 6.424V10H107.43V3.424H108.522V4.492ZM117.434 10.108C116.93 10.108 116.478 10.024 116.078 9.856C115.678 9.68 115.362 9.44 115.13 9.136C114.898 8.824 114.77 8.468 114.746 8.068H115.874C115.906 8.396 116.058 8.664 116.33 8.872C116.61 9.08 116.974 9.184 117.422 9.184C117.838 9.184 118.166 9.092 118.406 8.908C118.646 8.724 118.766 8.492 118.766 8.212C118.766 7.924 118.638 7.712 118.382 7.576C118.126 7.432 117.73 7.292 117.194 7.156C116.706 7.028 116.306 6.9 115.994 6.772C115.69 6.636 115.426 6.44 115.202 6.184C114.986 5.92 114.878 5.576 114.878 5.152C114.878 4.816 114.978 4.508 115.178 4.228C115.378 3.948 115.662 3.728 116.03 3.568C116.398 3.4 116.818 3.316 117.29 3.316C118.018 3.316 118.606 3.5 119.054 3.868C119.502 4.236 119.742 4.74 119.774 5.38H118.682C118.658 5.036 118.518 4.76 118.262 4.552C118.014 4.344 117.678 4.24 117.254 4.24C116.862 4.24 116.55 4.324 116.318 4.492C116.086 4.66 115.97 4.88 115.97 5.152C115.97 5.368 116.038 5.548 116.174 5.692C116.318 5.828 116.494 5.94 116.702 6.028C116.918 6.108 117.214 6.2 117.59 6.304C118.062 6.432 118.446 6.56 118.742 6.688C119.038 6.808 119.29 6.992 119.498 7.24C119.714 7.488 119.826 7.812 119.834 8.212C119.834 8.572 119.734 8.896 119.534 9.184C119.334 9.472 119.05 9.7 118.682 9.868C118.322 10.028 117.906 10.108 117.434 10.108ZM121.939 2.356C121.731 2.356 121.555 2.284 121.411 2.14C121.267 1.996 121.195 1.82 121.195 1.612C121.195 1.404 121.267 1.228 121.411 1.084C121.555 0.94 121.731 0.868 121.939 0.868C122.139 0.868 122.307 0.94 122.443 1.084C122.587 1.228 122.659 1.404 122.659 1.612C122.659 1.82 122.587 1.996 122.443 2.14C122.307 2.284 122.139 2.356 121.939 2.356ZM122.467 3.424V10H121.375V3.424H122.467ZM125.66 4.324V8.2C125.66 8.52 125.728 8.748 125.864 8.884C126 9.012 126.236 9.076 126.572 9.076H127.376V10H126.392C125.784 10 125.328 9.86 125.024 9.58C124.72 9.3 124.568 8.84 124.568 8.2V4.324H123.716V3.424H124.568V1.768H125.66V3.424H127.376V4.324H125.66ZM131.491 6.688C131.491 6.016 131.627 5.428 131.899 4.924C132.171 4.412 132.543 4.016 133.015 3.736C133.495 3.456 134.027 3.316 134.611 3.316C135.187 3.316 135.687 3.44 136.111 3.688C136.535 3.936 136.851 4.248 137.059 4.624V3.424H138.163V10H137.059V8.776C136.843 9.16 136.519 9.48 136.087 9.736C135.663 9.984 135.167 10.108 134.599 10.108C134.015 10.108 133.487 9.964 133.015 9.676C132.543 9.388 132.171 8.984 131.899 8.464C131.627 7.944 131.491 7.352 131.491 6.688ZM137.059 6.7C137.059 6.204 136.959 5.772 136.759 5.404C136.559 5.036 136.287 4.756 135.943 4.564C135.607 4.364 135.235 4.264 134.827 4.264C134.419 4.264 134.047 4.36 133.711 4.552C133.375 4.744 133.107 5.024 132.907 5.392C132.707 5.76 132.607 6.192 132.607 6.688C132.607 7.192 132.707 7.632 132.907 8.008C133.107 8.376 133.375 8.66 133.711 8.86C134.047 9.052 134.419 9.148 134.827 9.148C135.235 9.148 135.607 9.052 135.943 8.86C136.287 8.66 136.559 8.376 136.759 8.008C136.959 7.632 137.059 7.196 137.059 6.7ZM147.916 3.304C148.428 3.304 148.884 3.412 149.284 3.628C149.684 3.836 150 4.152 150.232 4.576C150.464 5 150.58 5.516 150.58 6.124V10H149.5V6.28C149.5 5.624 149.336 5.124 149.008 4.78C148.688 4.428 148.252 4.252 147.7 4.252C147.132 4.252 146.68 4.436 146.344 4.804C146.008 5.164 145.84 5.688 145.84 6.376V10H144.76V6.28C144.76 5.624 144.596 5.124 144.268 4.78C143.948 4.428 143.512 4.252 142.96 4.252C142.392 4.252 141.94 4.436 141.604 4.804C141.268 5.164 141.1 5.688 141.1 6.376V10H140.008V3.424H141.1V4.372C141.316 4.028 141.604 3.764 141.964 3.58C142.332 3.396 142.736 3.304 143.176 3.304C143.728 3.304 144.216 3.428 144.64 3.676C145.064 3.924 145.38 4.288 145.588 4.768C145.772 4.304 146.076 3.944 146.5 3.688C146.924 3.432 147.396 3.304 147.916 3.304ZM158.371 6.46C158.371 6.668 158.359 6.888 158.335 7.12H153.079C153.119 7.768 153.339 8.276 153.739 8.644C154.147 9.004 154.639 9.184 155.215 9.184C155.687 9.184 156.079 9.076 156.391 8.86C156.711 8.636 156.935 8.34 157.063 7.972H158.239C158.063 8.604 157.711 9.12 157.183 9.52C156.655 9.912 155.999 10.108 155.215 10.108C154.591 10.108 154.031 9.968 153.535 9.688C153.047 9.408 152.663 9.012 152.383 8.5C152.103 7.98 151.963 7.38 151.963 6.7C151.963 6.02 152.099 5.424 152.371 4.912C152.643 4.4 153.023 4.008 153.511 3.736C154.007 3.456 154.575 3.316 155.215 3.316C155.839 3.316 156.391 3.452 156.871 3.724C157.351 3.996 157.719 4.372 157.975 4.852C158.239 5.324 158.371 5.86 158.371 6.46ZM157.243 6.232C157.243 5.816 157.151 5.46 156.967 5.164C156.783 4.86 156.531 4.632 156.211 4.48C155.899 4.32 155.551 4.24 155.167 4.24C154.615 4.24 154.143 4.416 153.751 4.768C153.367 5.12 153.147 5.608 153.091 6.232H157.243ZM161.145 4.324V8.2C161.145 8.52 161.213 8.748 161.349 8.884C161.485 9.012 161.721 9.076 162.057 9.076H162.861V10H161.877C161.269 10 160.813 9.86 160.509 9.58C160.205 9.3 160.053 8.84 160.053 8.2V4.324H159.201V3.424H160.053V1.768H161.145V3.424H162.861V4.324H161.145ZM165.312 8.488L163.968 11.716H163.236L164.112 8.488H165.312ZM169.354 6.7C169.354 6.02 169.49 5.428 169.762 4.924C170.034 4.412 170.41 4.016 170.89 3.736C171.378 3.456 171.934 3.316 172.558 3.316C173.366 3.316 174.03 3.512 174.55 3.904C175.078 4.296 175.426 4.84 175.594 5.536H174.418C174.306 5.136 174.086 4.82 173.758 4.588C173.438 4.356 173.038 4.24 172.558 4.24C171.934 4.24 171.43 4.456 171.046 4.888C170.662 5.312 170.47 5.916 170.47 6.7C170.47 7.492 170.662 8.104 171.046 8.536C171.43 8.968 171.934 9.184 172.558 9.184C173.038 9.184 173.438 9.072 173.758 8.848C174.078 8.624 174.298 8.304 174.418 7.888H175.594C175.418 8.56 175.066 9.1 174.538 9.508C174.01 9.908 173.35 10.108 172.558 10.108C171.934 10.108 171.378 9.968 170.89 9.688C170.41 9.408 170.034 9.012 169.762 8.5C169.49 7.988 169.354 7.388 169.354 6.7ZM179.919 10.108C179.303 10.108 178.743 9.968 178.239 9.688C177.743 9.408 177.351 9.012 177.063 8.5C176.783 7.98 176.643 7.38 176.643 6.7C176.643 6.028 176.787 5.436 177.075 4.924C177.371 4.404 177.771 4.008 178.275 3.736C178.779 3.456 179.343 3.316 179.967 3.316C180.591 3.316 181.155 3.456 181.659 3.736C182.163 4.008 182.559 4.4 182.847 4.912C183.143 5.424 183.291 6.02 183.291 6.7C183.291 7.38 183.139 7.98 182.835 8.5C182.539 9.012 182.135 9.408 181.623 9.688C181.111 9.968 180.543 10.108 179.919 10.108ZM179.919 9.148C180.311 9.148 180.679 9.056 181.023 8.872C181.367 8.688 181.643 8.412 181.851 8.044C182.067 7.676 182.175 7.228 182.175 6.7C182.175 6.172 182.071 5.724 181.863 5.356C181.655 4.988 181.383 4.716 181.047 4.54C180.711 4.356 180.347 4.264 179.955 4.264C179.555 4.264 179.187 4.356 178.851 4.54C178.523 4.716 178.259 4.988 178.059 5.356C177.859 5.724 177.759 6.172 177.759 6.7C177.759 7.236 177.855 7.688 178.047 8.056C178.247 8.424 178.511 8.7 178.839 8.884C179.167 9.06 179.527 9.148 179.919 9.148ZM187.931 3.304C188.731 3.304 189.379 3.548 189.875 4.036C190.371 4.516 190.619 5.212 190.619 6.124V10H189.539V6.28C189.539 5.624 189.375 5.124 189.047 4.78C188.719 4.428 188.271 4.252 187.703 4.252C187.127 4.252 186.667 4.432 186.323 4.792C185.987 5.152 185.819 5.676 185.819 6.364V10H184.727V3.424H185.819V4.36C186.035 4.024 186.327 3.764 186.695 3.58C187.071 3.396 187.483 3.304 187.931 3.304ZM194.731 10.108C194.227 10.108 193.775 10.024 193.375 9.856C192.975 9.68 192.659 9.44 192.427 9.136C192.195 8.824 192.067 8.468 192.043 8.068H193.171C193.203 8.396 193.355 8.664 193.627 8.872C193.907 9.08 194.271 9.184 194.719 9.184C195.135 9.184 195.463 9.092 195.703 8.908C195.943 8.724 196.063 8.492 196.063 8.212C196.063 7.924 195.935 7.712 195.679 7.576C195.423 7.432 195.027 7.292 194.491 7.156C194.003 7.028 193.603 6.9 193.291 6.772C192.987 6.636 192.723 6.44 192.499 6.184C192.283 5.92 192.175 5.576 192.175 5.152C192.175 4.816 192.275 4.508 192.475 4.228C192.675 3.948 192.959 3.728 193.327 3.568C193.695 3.4 194.115 3.316 194.587 3.316C195.315 3.316 195.903 3.5 196.351 3.868C196.799 4.236 197.039 4.74 197.071 5.38H195.979C195.955 5.036 195.815 4.76 195.559 4.552C195.311 4.344 194.975 4.24 194.551 4.24C194.159 4.24 193.847 4.324 193.615 4.492C193.383 4.66 193.267 4.88 193.267 5.152C193.267 5.368 193.335 5.548 193.471 5.692C193.615 5.828 193.791 5.94 193.999 6.028C194.215 6.108 194.511 6.2 194.887 6.304C195.359 6.432 195.743 6.56 196.039 6.688C196.335 6.808 196.587 6.992 196.795 7.24C197.011 7.488 197.123 7.812 197.131 8.212C197.131 8.572 197.031 8.896 196.831 9.184C196.631 9.472 196.347 9.7 195.979 9.868C195.619 10.028 195.203 10.108 194.731 10.108ZM204.672 6.46C204.672 6.668 204.66 6.888 204.636 7.12H199.38C199.42 7.768 199.64 8.276 200.04 8.644C200.448 9.004 200.94 9.184 201.516 9.184C201.988 9.184 202.38 9.076 202.692 8.86C203.012 8.636 203.236 8.34 203.364 7.972H204.54C204.364 8.604 204.012 9.12 203.484 9.52C202.956 9.912 202.3 10.108 201.516 10.108C200.892 10.108 200.332 9.968 199.836 9.688C199.348 9.408 198.964 9.012 198.684 8.5C198.404 7.98 198.264 7.38 198.264 6.7C198.264 6.02 198.4 5.424 198.672 4.912C198.944 4.4 199.324 4.008 199.812 3.736C200.308 3.456 200.876 3.316 201.516 3.316C202.14 3.316 202.692 3.452 203.172 3.724C203.652 3.996 204.02 4.372 204.276 4.852C204.54 5.324 204.672 5.86 204.672 6.46ZM203.544 6.232C203.544 5.816 203.452 5.46 203.268 5.164C203.084 4.86 202.832 4.632 202.512 4.48C202.2 4.32 201.852 4.24 201.468 4.24C200.916 4.24 200.444 4.416 200.052 4.768C199.668 5.12 199.448 5.608 199.392 6.232H203.544ZM205.705 6.7C205.705 6.02 205.841 5.428 206.113 4.924C206.385 4.412 206.761 4.016 207.241 3.736C207.729 3.456 208.285 3.316 208.909 3.316C209.717 3.316 210.381 3.512 210.901 3.904C211.429 4.296 211.777 4.84 211.945 5.536H210.769C210.657 5.136 210.437 4.82 210.109 4.588C209.789 4.356 209.389 4.24 208.909 4.24C208.285 4.24 207.781 4.456 207.397 4.888C207.013 5.312 206.821 5.916 206.821 6.7C206.821 7.492 207.013 8.104 207.397 8.536C207.781 8.968 208.285 9.184 208.909 9.184C209.389 9.184 209.789 9.072 210.109 8.848C210.429 8.624 210.649 8.304 210.769 7.888H211.945C211.769 8.56 211.417 9.1 210.889 9.508C210.361 9.908 209.701 10.108 208.909 10.108C208.285 10.108 207.729 9.968 207.241 9.688C206.761 9.408 206.385 9.012 206.113 8.5C205.841 7.988 205.705 7.388 205.705 6.7ZM214.735 4.324V8.2C214.735 8.52 214.803 8.748 214.939 8.884C215.075 9.012 215.311 9.076 215.647 9.076H216.451V10H215.467C214.859 10 214.403 9.86 214.099 9.58C213.795 9.3 213.643 8.84 213.643 8.2V4.324H212.791V3.424H213.643V1.768H214.735V3.424H216.451V4.324H214.735ZM223.774 6.46C223.774 6.668 223.762 6.888 223.738 7.12H218.482C218.522 7.768 218.742 8.276 219.142 8.644C219.55 9.004 220.042 9.184 220.618 9.184C221.09 9.184 221.482 9.076 221.794 8.86C222.114 8.636 222.338 8.34 222.466 7.972H223.642C223.466 8.604 223.114 9.12 222.586 9.52C222.058 9.912 221.402 10.108 220.618 10.108C219.994 10.108 219.434 9.968 218.938 9.688C218.45 9.408 218.066 9.012 217.786 8.5C217.506 7.98 217.366 7.38 217.366 6.7C217.366 6.02 217.502 5.424 217.774 4.912C218.046 4.4 218.426 4.008 218.914 3.736C219.41 3.456 219.978 3.316 220.618 3.316C221.242 3.316 221.794 3.452 222.274 3.724C222.754 3.996 223.122 4.372 223.378 4.852C223.642 5.324 223.774 5.86 223.774 6.46ZM222.646 6.232C222.646 5.816 222.554 5.46 222.37 5.164C222.186 4.86 221.934 4.632 221.614 4.48C221.302 4.32 220.954 4.24 220.57 4.24C220.018 4.24 219.546 4.416 219.154 4.768C218.77 5.12 218.55 5.608 218.494 6.232H222.646ZM226.547 4.324V8.2C226.547 8.52 226.615 8.748 226.751 8.884C226.887 9.012 227.123 9.076 227.459 9.076H228.263V10H227.279C226.671 10 226.215 9.86 225.911 9.58C225.607 9.3 225.455 8.84 225.455 8.2V4.324H224.603V3.424H225.455V1.768H226.547V3.424H228.263V4.324H226.547ZM235.418 3.424V10H234.326V9.028C234.118 9.364 233.826 9.628 233.45 9.82C233.082 10.004 232.674 10.096 232.226 10.096C231.714 10.096 231.254 9.992 230.846 9.784C230.438 9.568 230.114 9.248 229.874 8.824C229.642 8.4 229.526 7.884 229.526 7.276V3.424H230.606V7.132C230.606 7.78 230.77 8.28 231.098 8.632C231.426 8.976 231.874 9.148 232.442 9.148C233.026 9.148 233.486 8.968 233.822 8.608C234.158 8.248 234.326 7.724 234.326 7.036V3.424H235.418ZM238.354 4.492C238.546 4.116 238.818 3.824 239.17 3.616C239.53 3.408 239.966 3.304 240.478 3.304V4.432H240.19C238.966 4.432 238.354 5.096 238.354 6.424V10H237.262V3.424H238.354V4.492ZM3.93788 26.688C3.93788 26.016 4.07388 25.428 4.34588 24.924C4.61788 24.412 4.98988 24.016 5.46188 23.736C5.94188 23.456 6.47388 23.316 7.05788 23.316C7.63388 23.316 8.13388 23.44 8.55788 23.688C8.98188 23.936 9.29788 24.248 9.50588 24.624V23.424H10.6099V30H9.50588V28.776C9.28988 29.16 8.96588 29.48 8.53388 29.736C8.10988 29.984 7.61388 30.108 7.04588 30.108C6.46188 30.108 5.93388 29.964 5.46188 29.676C4.98988 29.388 4.61788 28.984 4.34588 28.464C4.07388 27.944 3.93788 27.352 3.93788 26.688ZM9.50588 26.7C9.50588 26.204 9.40588 25.772 9.20588 25.404C9.00588 25.036 8.73388 24.756 8.38988 24.564C8.05388 24.364 7.68188 24.264 7.27388 24.264C6.86588 24.264 6.49388 24.36 6.15788 24.552C5.82188 24.744 5.55388 25.024 5.35388 25.392C5.15388 25.76 5.05388 26.192 5.05388 26.688C5.05388 27.192 5.15388 27.632 5.35388 28.008C5.55388 28.376 5.82188 28.66 6.15788 28.86C6.49388 29.052 6.86588 29.148 7.27388 29.148C7.68188 29.148 8.05388 29.052 8.38988 28.86C8.73388 28.66 9.00588 28.376 9.20588 28.008C9.40588 27.632 9.50588 27.196 9.50588 26.7ZM12.0473 26.688C12.0473 26.016 12.1833 25.428 12.4553 24.924C12.7273 24.412 13.0993 24.016 13.5713 23.736C14.0513 23.456 14.5873 23.316 15.1793 23.316C15.6913 23.316 16.1673 23.436 16.6073 23.676C17.0473 23.908 17.3833 24.216 17.6153 24.6V21.12H18.7193V30H17.6153V28.764C17.3993 29.156 17.0793 29.48 16.6553 29.736C16.2313 29.984 15.7353 30.108 15.1673 30.108C14.5833 30.108 14.0513 29.964 13.5713 29.676C13.0993 29.388 12.7273 28.984 12.4553 28.464C12.1833 27.944 12.0473 27.352 12.0473 26.688ZM17.6153 26.7C17.6153 26.204 17.5153 25.772 17.3153 25.404C17.1153 25.036 16.8433 24.756 16.4993 24.564C16.1633 24.364 15.7913 24.264 15.3833 24.264C14.9753 24.264 14.6033 24.36 14.2673 24.552C13.9313 24.744 13.6633 25.024 13.4633 25.392C13.2633 25.76 13.1633 26.192 13.1633 26.688C13.1633 27.192 13.2633 27.632 13.4633 28.008C13.6633 28.376 13.9313 28.66 14.2673 28.86C14.6033 29.052 14.9753 29.148 15.3833 29.148C15.7913 29.148 16.1633 29.052 16.4993 28.86C16.8433 28.66 17.1153 28.376 17.3153 28.008C17.5153 27.632 17.6153 27.196 17.6153 26.7ZM21.1286 22.356C20.9206 22.356 20.7446 22.284 20.6006 22.14C20.4566 21.996 20.3846 21.82 20.3846 21.612C20.3846 21.404 20.4566 21.228 20.6006 21.084C20.7446 20.94 20.9206 20.868 21.1286 20.868C21.3286 20.868 21.4966 20.94 21.6326 21.084C21.7766 21.228 21.8486 21.404 21.8486 21.612C21.8486 21.82 21.7766 21.996 21.6326 22.14C21.4966 22.284 21.3286 22.356 21.1286 22.356ZM21.6566 23.424V30H20.5646V23.424H21.6566ZM24.6098 24.636C24.8258 24.26 25.1458 23.948 25.5698 23.7C26.0018 23.444 26.5018 23.316 27.0698 23.316C27.6538 23.316 28.1818 23.456 28.6537 23.736C29.1337 24.016 29.5098 24.412 29.7818 24.924C30.0538 25.428 30.1898 26.016 30.1898 26.688C30.1898 27.352 30.0538 27.944 29.7818 28.464C29.5098 28.984 29.1337 29.388 28.6537 29.676C28.1818 29.964 27.6538 30.108 27.0698 30.108C26.5098 30.108 26.0138 29.984 25.5818 29.736C25.1578 29.48 24.8338 29.164 24.6098 28.788V33.12H23.5178V23.424H24.6098V24.636ZM29.0738 26.688C29.0738 26.192 28.9738 25.76 28.7738 25.392C28.5738 25.024 28.3018 24.744 27.9578 24.552C27.6218 24.36 27.2498 24.264 26.8418 24.264C26.4418 24.264 26.0698 24.364 25.7258 24.564C25.3898 24.756 25.1178 25.04 24.9098 25.416C24.7098 25.784 24.6098 26.212 24.6098 26.7C24.6098 27.196 24.7098 27.632 24.9098 28.008C25.1178 28.376 25.3898 28.66 25.7258 28.86C26.0698 29.052 26.4418 29.148 26.8418 29.148C27.2498 29.148 27.6218 29.052 27.9578 28.86C28.3018 28.66 28.5738 28.376 28.7738 28.008C28.9738 27.632 29.0738 27.192 29.0738 26.688ZM32.1911 22.356C31.9831 22.356 31.8071 22.284 31.6631 22.14C31.5191 21.996 31.4471 21.82 31.4471 21.612C31.4471 21.404 31.5191 21.228 31.6631 21.084C31.8071 20.94 31.9831 20.868 32.1911 20.868C32.3911 20.868 32.5591 20.94 32.6951 21.084C32.8391 21.228 32.9111 21.404 32.9111 21.612C32.9111 21.82 32.8391 21.996 32.6951 22.14C32.5591 22.284 32.3911 22.356 32.1911 22.356ZM32.7191 23.424V30H31.6271V23.424H32.7191ZM36.9083 30.108C36.4043 30.108 35.9523 30.024 35.5523 29.856C35.1523 29.68 34.8363 29.44 34.6043 29.136C34.3723 28.824 34.2443 28.468 34.2203 28.068H35.3483C35.3803 28.396 35.5323 28.664 35.8043 28.872C36.0843 29.08 36.4483 29.184 36.8963 29.184C37.3123 29.184 37.6403 29.092 37.8803 28.908C38.1203 28.724 38.2403 28.492 38.2403 28.212C38.2403 27.924 38.1123 27.712 37.8563 27.576C37.6003 27.432 37.2043 27.292 36.6683 27.156C36.1803 27.028 35.7803 26.9 35.4683 26.772C35.1643 26.636 34.9003 26.44 34.6763 26.184C34.4603 25.92 34.3523 25.576 34.3523 25.152C34.3523 24.816 34.4523 24.508 34.6523 24.228C34.8523 23.948 35.1363 23.728 35.5043 23.568C35.8723 23.4 36.2923 23.316 36.7643 23.316C37.4923 23.316 38.0803 23.5 38.5283 23.868C38.9763 24.236 39.2163 24.74 39.2483 25.38H38.1563C38.1323 25.036 37.9923 24.76 37.7363 24.552C37.4883 24.344 37.1523 24.24 36.7283 24.24C36.3363 24.24 36.0243 24.324 35.7923 24.492C35.5603 24.66 35.4443 24.88 35.4443 25.152C35.4443 25.368 35.5123 25.548 35.6483 25.692C35.7923 25.828 35.9683 25.94 36.1763 26.028C36.3923 26.108 36.6883 26.2 37.0643 26.304C37.5363 26.432 37.9203 26.56 38.2163 26.688C38.5123 26.808 38.7643 26.992 38.9723 27.24C39.1883 27.488 39.3003 27.812 39.3083 28.212C39.3083 28.572 39.2083 28.896 39.0083 29.184C38.8083 29.472 38.5243 29.7 38.1563 29.868C37.7963 30.028 37.3803 30.108 36.9083 30.108ZM40.4418 26.7C40.4418 26.02 40.5778 25.428 40.8498 24.924C41.1218 24.412 41.4978 24.016 41.9778 23.736C42.4658 23.456 43.0218 23.316 43.6458 23.316C44.4538 23.316 45.1178 23.512 45.6378 23.904C46.1658 24.296 46.5138 24.84 46.6818 25.536H45.5058C45.3938 25.136 45.1738 24.82 44.8458 24.588C44.5258 24.356 44.1258 24.24 43.6458 24.24C43.0218 24.24 42.5178 24.456 42.1338 24.888C41.7498 25.312 41.5578 25.916 41.5578 26.7C41.5578 27.492 41.7498 28.104 42.1338 28.536C42.5178 28.968 43.0218 29.184 43.6458 29.184C44.1258 29.184 44.5258 29.072 44.8458 28.848C45.1658 28.624 45.3858 28.304 45.5058 27.888H46.6818C46.5058 28.56 46.1538 29.1 45.6258 29.508C45.0978 29.908 44.4378 30.108 43.6458 30.108C43.0218 30.108 42.4658 29.968 41.9778 29.688C41.4978 29.408 41.1218 29.012 40.8498 28.5C40.5778 27.988 40.4418 27.388 40.4418 26.7ZM48.7028 22.356C48.4948 22.356 48.3188 22.284 48.1748 22.14C48.0308 21.996 47.9588 21.82 47.9588 21.612C47.9588 21.404 48.0308 21.228 48.1748 21.084C48.3188 20.94 48.4948 20.868 48.7028 20.868C48.9028 20.868 49.0708 20.94 49.2068 21.084C49.3508 21.228 49.4228 21.404 49.4228 21.612C49.4228 21.82 49.3508 21.996 49.2068 22.14C49.0708 22.284 48.9028 22.356 48.7028 22.356ZM49.2308 23.424V30H48.1388V23.424H49.2308ZM54.296 23.304C55.096 23.304 55.744 23.548 56.24 24.036C56.736 24.516 56.984 25.212 56.984 26.124V30H55.904V26.28C55.904 25.624 55.74 25.124 55.412 24.78C55.084 24.428 54.636 24.252 54.068 24.252C53.492 24.252 53.032 24.432 52.688 24.792C52.352 25.152 52.184 25.676 52.184 26.364V30H51.092V23.424H52.184V24.36C52.4 24.024 52.692 23.764 53.06 23.58C53.436 23.396 53.848 23.304 54.296 23.304ZM61.4798 23.316C62.0478 23.316 62.5438 23.44 62.9678 23.688C63.3998 23.936 63.7198 24.248 63.9278 24.624V23.424H65.0318V30.144C65.0318 30.744 64.9038 31.276 64.6478 31.74C64.3918 32.212 64.0238 32.58 63.5438 32.844C63.0718 33.108 62.5198 33.24 61.8878 33.24C61.0238 33.24 60.3038 33.036 59.7278 32.628C59.1518 32.22 58.8118 31.664 58.7078 30.96H59.7878C59.9078 31.36 60.1558 31.68 60.5318 31.92C60.9078 32.168 61.3598 32.292 61.8878 32.292C62.4878 32.292 62.9758 32.104 63.3518 31.728C63.7358 31.352 63.9278 30.824 63.9278 30.144V28.764C63.7118 29.148 63.3918 29.468 62.9678 29.724C62.5438 29.98 62.0478 30.108 61.4798 30.108C60.8958 30.108 60.3638 29.964 59.8838 29.676C59.4118 29.388 59.0398 28.984 58.7678 28.464C58.4958 27.944 58.3598 27.352 58.3598 26.688C58.3598 26.016 58.4958 25.428 58.7678 24.924C59.0398 24.412 59.4118 24.016 59.8838 23.736C60.3638 23.456 60.8958 23.316 61.4798 23.316ZM63.9278 26.7C63.9278 26.204 63.8278 25.772 63.6278 25.404C63.4278 25.036 63.1558 24.756 62.8118 24.564C62.4758 24.364 62.1038 24.264 61.6958 24.264C61.2878 24.264 60.9158 24.36 60.5798 24.552C60.2438 24.744 59.9758 25.024 59.7758 25.392C59.5758 25.76 59.4758 26.192 59.4758 26.688C59.4758 27.192 59.5758 27.632 59.7758 28.008C59.9758 28.376 60.2438 28.66 60.5798 28.86C60.9158 29.052 61.2878 29.148 61.6958 29.148C62.1038 29.148 62.4758 29.052 62.8118 28.86C63.1558 28.66 63.4278 28.376 63.6278 28.008C63.8278 27.632 63.9278 27.196 63.9278 26.7ZM76.0763 26.46C76.0763 26.668 76.0643 26.888 76.0403 27.12H70.7843C70.8243 27.768 71.0443 28.276 71.4443 28.644C71.8523 29.004 72.3443 29.184 72.9203 29.184C73.3923 29.184 73.7843 29.076 74.0963 28.86C74.4163 28.636 74.6403 28.34 74.7683 27.972H75.9443C75.7683 28.604 75.4163 29.12 74.8883 29.52C74.3603 29.912 73.7043 30.108 72.9203 30.108C72.2963 30.108 71.7363 29.968 71.2403 29.688C70.7523 29.408 70.3683 29.012 70.0883 28.5C69.8083 27.98 69.6683 27.38 69.6683 26.7C69.6683 26.02 69.8043 25.424 70.0763 24.912C70.3483 24.4 70.7283 24.008 71.2163 23.736C71.7123 23.456 72.2803 23.316 72.9203 23.316C73.5443 23.316 74.0963 23.452 74.5763 23.724C75.0563 23.996 75.4243 24.372 75.6803 24.852C75.9443 25.324 76.0763 25.86 76.0763 26.46ZM74.9483 26.232C74.9483 25.816 74.8563 25.46 74.6723 25.164C74.4883 24.86 74.2363 24.632 73.9163 24.48C73.6043 24.32 73.2563 24.24 72.8723 24.24C72.3203 24.24 71.8483 24.416 71.4563 24.768C71.0723 25.12 70.8523 25.608 70.7963 26.232H74.9483ZM78.6098 21.12V30H77.5178V21.12H78.6098ZM81.0349 22.356C80.8269 22.356 80.6509 22.284 80.5069 22.14C80.3629 21.996 80.2909 21.82 80.2909 21.612C80.2909 21.404 80.3629 21.228 80.5069 21.084C80.6509 20.94 80.8269 20.868 81.0349 20.868C81.2349 20.868 81.4029 20.94 81.5389 21.084C81.6829 21.228 81.7549 21.404 81.7549 21.612C81.7549 21.82 81.6829 21.996 81.5389 22.14C81.4029 22.284 81.2349 22.356 81.0349 22.356ZM81.5629 23.424V30H80.4709V23.424H81.5629ZM84.756 24.324V28.2C84.756 28.52 84.824 28.748 84.96 28.884C85.096 29.012 85.332 29.076 85.668 29.076H86.472V30H85.488C84.88 30 84.424 29.86 84.12 29.58C83.816 29.3 83.664 28.84 83.664 28.2V24.324H82.812V23.424H83.664V21.768H84.756V23.424H86.472V24.324H84.756ZM88.9231 28.488L87.5791 31.716H86.8471L87.7231 28.488H88.9231ZM95.7012 30.108C95.1972 30.108 94.7452 30.024 94.3452 29.856C93.9452 29.68 93.6292 29.44 93.3972 29.136C93.1652 28.824 93.0372 28.468 93.0132 28.068H94.1412C94.1732 28.396 94.3252 28.664 94.5972 28.872C94.8772 29.08 95.2412 29.184 95.6892 29.184C96.1052 29.184 96.4332 29.092 96.6732 28.908C96.9132 28.724 97.0332 28.492 97.0332 28.212C97.0332 27.924 96.9052 27.712 96.6492 27.576C96.3932 27.432 95.9972 27.292 95.4612 27.156C94.9732 27.028 94.5732 26.9 94.2612 26.772C93.9572 26.636 93.6932 26.44 93.4692 26.184C93.2532 25.92 93.1452 25.576 93.1452 25.152C93.1452 24.816 93.2452 24.508 93.4452 24.228C93.6452 23.948 93.9292 23.728 94.2972 23.568C94.6652 23.4 95.0852 23.316 95.5572 23.316C96.2852 23.316 96.8732 23.5 97.3212 23.868C97.7692 24.236 98.0092 24.74 98.0412 25.38H96.9492C96.9252 25.036 96.7852 24.76 96.5292 24.552C96.2812 24.344 95.9452 24.24 95.5212 24.24C95.1292 24.24 94.8172 24.324 94.5852 24.492C94.3532 24.66 94.2372 24.88 94.2372 25.152C94.2372 25.368 94.3052 25.548 94.4412 25.692C94.5852 25.828 94.7612 25.94 94.9692 26.028C95.1852 26.108 95.4812 26.2 95.8572 26.304C96.3292 26.432 96.7132 26.56 97.0092 26.688C97.3052 26.808 97.5572 26.992 97.7652 27.24C97.9812 27.488 98.0932 27.812 98.1012 28.212C98.1012 28.572 98.0012 28.896 97.8012 29.184C97.6012 29.472 97.3172 29.7 96.9492 29.868C96.5892 30.028 96.1732 30.108 95.7012 30.108ZM105.643 26.46C105.643 26.668 105.631 26.888 105.607 27.12H100.351C100.391 27.768 100.611 28.276 101.011 28.644C101.419 29.004 101.911 29.184 102.487 29.184C102.959 29.184 103.351 29.076 103.663 28.86C103.983 28.636 104.207 28.34 104.335 27.972H105.511C105.335 28.604 104.983 29.12 104.455 29.52C103.927 29.912 103.271 30.108 102.487 30.108C101.863 30.108 101.303 29.968 100.807 29.688C100.319 29.408 99.9348 29.012 99.6548 28.5C99.3748 27.98 99.2348 27.38 99.2348 26.7C99.2348 26.02 99.3708 25.424 99.6428 24.912C99.9148 24.4 100.295 24.008 100.783 23.736C101.279 23.456 101.847 23.316 102.487 23.316C103.111 23.316 103.663 23.452 104.143 23.724C104.623 23.996 104.991 24.372 105.247 24.852C105.511 25.324 105.643 25.86 105.643 26.46ZM104.515 26.232C104.515 25.816 104.423 25.46 104.239 25.164C104.055 24.86 103.803 24.632 103.483 24.48C103.171 24.32 102.823 24.24 102.439 24.24C101.887 24.24 101.415 24.416 101.023 24.768C100.639 25.12 100.419 25.608 100.363 26.232H104.515ZM106.676 26.688C106.676 26.016 106.812 25.428 107.084 24.924C107.356 24.412 107.728 24.016 108.2 23.736C108.68 23.456 109.216 23.316 109.808 23.316C110.32 23.316 110.796 23.436 111.236 23.676C111.676 23.908 112.012 24.216 112.244 24.6V21.12H113.348V30H112.244V28.764C112.028 29.156 111.708 29.48 111.284 29.736C110.86 29.984 110.364 30.108 109.796 30.108C109.212 30.108 108.68 29.964 108.2 29.676C107.728 29.388 107.356 28.984 107.084 28.464C106.812 27.944 106.676 27.352 106.676 26.688ZM112.244 26.7C112.244 26.204 112.144 25.772 111.944 25.404C111.744 25.036 111.472 24.756 111.128 24.564C110.792 24.364 110.42 24.264 110.012 24.264C109.604 24.264 109.232 24.36 108.896 24.552C108.56 24.744 108.292 25.024 108.092 25.392C107.892 25.76 107.792 26.192 107.792 26.688C107.792 27.192 107.892 27.632 108.092 28.008C108.292 28.376 108.56 28.66 108.896 28.86C109.232 29.052 109.604 29.148 110.012 29.148C110.42 29.148 110.792 29.052 111.128 28.86C111.472 28.66 111.744 28.376 111.944 28.008C112.144 27.632 112.244 27.196 112.244 26.7ZM117.985 26.688C117.985 26.016 118.121 25.428 118.393 24.924C118.665 24.412 119.037 24.016 119.509 23.736C119.989 23.456 120.525 23.316 121.117 23.316C121.629 23.316 122.105 23.436 122.545 23.676C122.985 23.908 123.321 24.216 123.553 24.6V21.12H124.657V30H123.553V28.764C123.337 29.156 123.017 29.48 122.593 29.736C122.169 29.984 121.673 30.108 121.105 30.108C120.521 30.108 119.989 29.964 119.509 29.676C119.037 29.388 118.665 28.984 118.393 28.464C118.121 27.944 117.985 27.352 117.985 26.688ZM123.553 26.7C123.553 26.204 123.453 25.772 123.253 25.404C123.053 25.036 122.781 24.756 122.437 24.564C122.101 24.364 121.729 24.264 121.321 24.264C120.913 24.264 120.541 24.36 120.205 24.552C119.869 24.744 119.601 25.024 119.401 25.392C119.201 25.76 119.101 26.192 119.101 26.688C119.101 27.192 119.201 27.632 119.401 28.008C119.601 28.376 119.869 28.66 120.205 28.86C120.541 29.052 120.913 29.148 121.321 29.148C121.729 29.148 122.101 29.052 122.437 28.86C122.781 28.66 123.053 28.376 123.253 28.008C123.453 27.632 123.553 27.196 123.553 26.7ZM129.37 30.108C128.754 30.108 128.194 29.968 127.69 29.688C127.194 29.408 126.802 29.012 126.514 28.5C126.234 27.98 126.094 27.38 126.094 26.7C126.094 26.028 126.238 25.436 126.526 24.924C126.822 24.404 127.222 24.008 127.726 23.736C128.23 23.456 128.794 23.316 129.418 23.316C130.042 23.316 130.606 23.456 131.11 23.736C131.614 24.008 132.01 24.4 132.298 24.912C132.594 25.424 132.742 26.02 132.742 26.7C132.742 27.38 132.59 27.98 132.286 28.5C131.99 29.012 131.586 29.408 131.074 29.688C130.562 29.968 129.994 30.108 129.37 30.108ZM129.37 29.148C129.762 29.148 130.13 29.056 130.474 28.872C130.818 28.688 131.094 28.412 131.302 28.044C131.518 27.676 131.626 27.228 131.626 26.7C131.626 26.172 131.522 25.724 131.314 25.356C131.106 24.988 130.834 24.716 130.498 24.54C130.162 24.356 129.798 24.264 129.406 24.264C129.006 24.264 128.638 24.356 128.302 24.54C127.974 24.716 127.71 24.988 127.51 25.356C127.31 25.724 127.21 26.172 127.21 26.7C127.21 27.236 127.306 27.688 127.498 28.056C127.698 28.424 127.962 28.7 128.29 28.884C128.618 29.06 128.978 29.148 129.37 29.148ZM143.377 26.46C143.377 26.668 143.365 26.888 143.341 27.12H138.085C138.125 27.768 138.345 28.276 138.745 28.644C139.153 29.004 139.645 29.184 140.221 29.184C140.693 29.184 141.085 29.076 141.397 28.86C141.717 28.636 141.941 28.34 142.069 27.972H143.245C143.069 28.604 142.717 29.12 142.189 29.52C141.661 29.912 141.005 30.108 140.221 30.108C139.597 30.108 139.037 29.968 138.541 29.688C138.053 29.408 137.669 29.012 137.389 28.5C137.109 27.98 136.969 27.38 136.969 26.7C136.969 26.02 137.105 25.424 137.377 24.912C137.649 24.4 138.029 24.008 138.517 23.736C139.013 23.456 139.581 23.316 140.221 23.316C140.845 23.316 141.397 23.452 141.877 23.724C142.357 23.996 142.725 24.372 142.981 24.852C143.245 25.324 143.377 25.86 143.377 26.46ZM142.249 26.232C142.249 25.816 142.157 25.46 141.973 25.164C141.789 24.86 141.537 24.632 141.217 24.48C140.905 24.32 140.557 24.24 140.173 24.24C139.621 24.24 139.149 24.416 138.757 24.768C138.373 25.12 138.153 25.608 138.097 26.232H142.249ZM145.383 22.356C145.175 22.356 144.999 22.284 144.855 22.14C144.711 21.996 144.639 21.82 144.639 21.612C144.639 21.404 144.711 21.228 144.855 21.084C144.999 20.94 145.175 20.868 145.383 20.868C145.583 20.868 145.751 20.94 145.887 21.084C146.031 21.228 146.103 21.404 146.103 21.612C146.103 21.82 146.031 21.996 145.887 22.14C145.751 22.284 145.583 22.356 145.383 22.356ZM145.911 23.424V30H144.819V23.424H145.911ZM153.604 23.424V30H152.512V29.028C152.304 29.364 152.012 29.628 151.636 29.82C151.268 30.004 150.86 30.096 150.412 30.096C149.9 30.096 149.44 29.992 149.032 29.784C148.624 29.568 148.3 29.248 148.06 28.824C147.828 28.4 147.712 27.884 147.712 27.276V23.424H148.792V27.132C148.792 27.78 148.956 28.28 149.284 28.632C149.612 28.976 150.06 29.148 150.628 29.148C151.212 29.148 151.672 28.968 152.008 28.608C152.344 28.248 152.512 27.724 152.512 27.036V23.424H153.604ZM157.775 30.108C157.271 30.108 156.819 30.024 156.419 29.856C156.019 29.68 155.703 29.44 155.471 29.136C155.239 28.824 155.111 28.468 155.087 28.068H156.215C156.247 28.396 156.399 28.664 156.671 28.872C156.951 29.08 157.315 29.184 157.763 29.184C158.179 29.184 158.507 29.092 158.747 28.908C158.987 28.724 159.107 28.492 159.107 28.212C159.107 27.924 158.979 27.712 158.723 27.576C158.467 27.432 158.071 27.292 157.535 27.156C157.047 27.028 156.647 26.9 156.335 26.772C156.031 26.636 155.767 26.44 155.543 26.184C155.327 25.92 155.219 25.576 155.219 25.152C155.219 24.816 155.319 24.508 155.519 24.228C155.719 23.948 156.003 23.728 156.371 23.568C156.739 23.4 157.159 23.316 157.631 23.316C158.359 23.316 158.947 23.5 159.395 23.868C159.843 24.236 160.083 24.74 160.115 25.38H159.023C158.999 25.036 158.859 24.76 158.603 24.552C158.355 24.344 158.019 24.24 157.595 24.24C157.203 24.24 156.891 24.324 156.659 24.492C156.427 24.66 156.311 24.88 156.311 25.152C156.311 25.368 156.379 25.548 156.515 25.692C156.659 25.828 156.835 25.94 157.043 26.028C157.259 26.108 157.555 26.2 157.931 26.304C158.403 26.432 158.787 26.56 159.083 26.688C159.379 26.808 159.631 26.992 159.839 27.24C160.055 27.488 160.167 27.812 160.175 28.212C160.175 28.572 160.075 28.896 159.875 29.184C159.675 29.472 159.391 29.7 159.023 29.868C158.663 30.028 158.247 30.108 157.775 30.108ZM169.625 23.304C170.137 23.304 170.593 23.412 170.993 23.628C171.393 23.836 171.709 24.152 171.941 24.576C172.173 25 172.289 25.516 172.289 26.124V30H171.209V26.28C171.209 25.624 171.045 25.124 170.717 24.78C170.397 24.428 169.961 24.252 169.409 24.252C168.841 24.252 168.389 24.436 168.053 24.804C167.717 25.164 167.549 25.688 167.549 26.376V30H166.469V26.28C166.469 25.624 166.305 25.124 165.977 24.78C165.657 24.428 165.221 24.252 164.669 24.252C164.101 24.252 163.649 24.436 163.313 24.804C162.977 25.164 162.809 25.688 162.809 26.376V30H161.717V23.424H162.809V24.372C163.025 24.028 163.313 23.764 163.673 23.58C164.041 23.396 164.445 23.304 164.885 23.304C165.437 23.304 165.925 23.428 166.349 23.676C166.773 23.924 167.089 24.288 167.297 24.768C167.481 24.304 167.785 23.944 168.209 23.688C168.633 23.432 169.105 23.304 169.625 23.304ZM176.948 30.108C176.332 30.108 175.772 29.968 175.268 29.688C174.772 29.408 174.38 29.012 174.092 28.5C173.812 27.98 173.672 27.38 173.672 26.7C173.672 26.028 173.816 25.436 174.104 24.924C174.4 24.404 174.8 24.008 175.304 23.736C175.808 23.456 176.372 23.316 176.996 23.316C177.62 23.316 178.184 23.456 178.688 23.736C179.192 24.008 179.588 24.4 179.876 24.912C180.172 25.424 180.32 26.02 180.32 26.7C180.32 27.38 180.168 27.98 179.864 28.5C179.568 29.012 179.164 29.408 178.652 29.688C178.14 29.968 177.572 30.108 176.948 30.108ZM176.948 29.148C177.34 29.148 177.708 29.056 178.052 28.872C178.396 28.688 178.672 28.412 178.88 28.044C179.096 27.676 179.204 27.228 179.204 26.7C179.204 26.172 179.1 25.724 178.892 25.356C178.684 24.988 178.412 24.716 178.076 24.54C177.74 24.356 177.376 24.264 176.984 24.264C176.584 24.264 176.216 24.356 175.88 24.54C175.552 24.716 175.288 24.988 175.088 25.356C174.888 25.724 174.788 26.172 174.788 26.7C174.788 27.236 174.884 27.688 175.076 28.056C175.276 28.424 175.54 28.7 175.868 28.884C176.196 29.06 176.556 29.148 176.948 29.148ZM181.348 26.688C181.348 26.016 181.484 25.428 181.756 24.924C182.028 24.412 182.4 24.016 182.872 23.736C183.352 23.456 183.888 23.316 184.48 23.316C184.992 23.316 185.468 23.436 185.908 23.676C186.348 23.908 186.684 24.216 186.916 24.6V21.12H188.02V30H186.916V28.764C186.7 29.156 186.38 29.48 185.956 29.736C185.532 29.984 185.036 30.108 184.468 30.108C183.884 30.108 183.352 29.964 182.872 29.676C182.4 29.388 182.028 28.984 181.756 28.464C181.484 27.944 181.348 27.352 181.348 26.688ZM186.916 26.7C186.916 26.204 186.816 25.772 186.616 25.404C186.416 25.036 186.144 24.756 185.8 24.564C185.464 24.364 185.092 24.264 184.684 24.264C184.276 24.264 183.904 24.36 183.568 24.552C183.232 24.744 182.964 25.024 182.764 25.392C182.564 25.76 182.464 26.192 182.464 26.688C182.464 27.192 182.564 27.632 182.764 28.008C182.964 28.376 183.232 28.66 183.568 28.86C183.904 29.052 184.276 29.148 184.684 29.148C185.092 29.148 185.464 29.052 185.8 28.86C186.144 28.66 186.416 28.376 186.616 28.008C186.816 27.632 186.916 27.196 186.916 26.7ZM194.397 24.324V28.2C194.397 28.52 194.465 28.748 194.601 28.884C194.737 29.012 194.973 29.076 195.309 29.076H196.113V30H195.129C194.521 30 194.065 29.86 193.761 29.58C193.457 29.3 193.305 28.84 193.305 28.2V24.324H192.453V23.424H193.305V21.768H194.397V23.424H196.113V24.324H194.397ZM203.436 26.46C203.436 26.668 203.424 26.888 203.4 27.12H198.144C198.184 27.768 198.404 28.276 198.804 28.644C199.212 29.004 199.704 29.184 200.28 29.184C200.752 29.184 201.144 29.076 201.456 28.86C201.776 28.636 202 28.34 202.128 27.972H203.304C203.128 28.604 202.776 29.12 202.248 29.52C201.72 29.912 201.064 30.108 200.28 30.108C199.656 30.108 199.096 29.968 198.6 29.688C198.112 29.408 197.728 29.012 197.448 28.5C197.168 27.98 197.028 27.38 197.028 26.7C197.028 26.02 197.164 25.424 197.436 24.912C197.708 24.4 198.088 24.008 198.576 23.736C199.072 23.456 199.64 23.316 200.28 23.316C200.904 23.316 201.456 23.452 201.936 23.724C202.416 23.996 202.784 24.372 203.04 24.852C203.304 25.324 203.436 25.86 203.436 26.46ZM202.308 26.232C202.308 25.816 202.216 25.46 202.032 25.164C201.848 24.86 201.596 24.632 201.276 24.48C200.964 24.32 200.616 24.24 200.232 24.24C199.68 24.24 199.208 24.416 198.816 24.768C198.432 25.12 198.212 25.608 198.156 26.232H202.308ZM212.785 23.304C213.297 23.304 213.753 23.412 214.153 23.628C214.553 23.836 214.869 24.152 215.101 24.576C215.333 25 215.449 25.516 215.449 26.124V30H214.369V26.28C214.369 25.624 214.205 25.124 213.877 24.78C213.557 24.428 213.121 24.252 212.569 24.252C212.001 24.252 211.549 24.436 211.213 24.804C210.877 25.164 210.709 25.688 210.709 26.376V30H209.629V26.28C209.629 25.624 209.465 25.124 209.137 24.78C208.817 24.428 208.381 24.252 207.829 24.252C207.261 24.252 206.809 24.436 206.473 24.804C206.137 25.164 205.969 25.688 205.969 26.376V30H204.877V23.424H205.969V24.372C206.185 24.028 206.473 23.764 206.833 23.58C207.201 23.396 207.605 23.304 208.045 23.304C208.597 23.304 209.085 23.428 209.509 23.676C209.933 23.924 210.249 24.288 210.457 24.768C210.641 24.304 210.945 23.944 211.369 23.688C211.793 23.432 212.265 23.304 212.785 23.304ZM218.332 24.636C218.548 24.26 218.868 23.948 219.292 23.7C219.724 23.444 220.224 23.316 220.792 23.316C221.376 23.316 221.904 23.456 222.376 23.736C222.856 24.016 223.232 24.412 223.504 24.924C223.776 25.428 223.912 26.016 223.912 26.688C223.912 27.352 223.776 27.944 223.504 28.464C223.232 28.984 222.856 29.388 222.376 29.676C221.904 29.964 221.376 30.108 220.792 30.108C220.232 30.108 219.736 29.984 219.304 29.736C218.88 29.48 218.556 29.164 218.332 28.788V33.12H217.24V23.424H218.332V24.636ZM222.796 26.688C222.796 26.192 222.696 25.76 222.496 25.392C222.296 25.024 222.024 24.744 221.68 24.552C221.344 24.36 220.972 24.264 220.564 24.264C220.164 24.264 219.792 24.364 219.448 24.564C219.112 24.756 218.84 25.04 218.632 25.416C218.432 25.784 218.332 26.212 218.332 26.7C218.332 27.196 218.432 27.632 218.632 28.008C218.84 28.376 219.112 28.66 219.448 28.86C219.792 29.052 220.164 29.148 220.564 29.148C220.972 29.148 221.344 29.052 221.68 28.86C222.024 28.66 222.296 28.376 222.496 28.008C222.696 27.632 222.796 27.192 222.796 26.688ZM228.218 30.108C227.602 30.108 227.042 29.968 226.538 29.688C226.042 29.408 225.65 29.012 225.362 28.5C225.082 27.98 224.942 27.38 224.942 26.7C224.942 26.028 225.086 25.436 225.374 24.924C225.67 24.404 226.07 24.008 226.574 23.736C227.078 23.456 227.642 23.316 228.266 23.316C228.89 23.316 229.454 23.456 229.958 23.736C230.462 24.008 230.858 24.4 231.146 24.912C231.442 25.424 231.59 26.02 231.59 26.7C231.59 27.38 231.438 27.98 231.134 28.5C230.838 29.012 230.434 29.408 229.922 29.688C229.41 29.968 228.842 30.108 228.218 30.108ZM228.218 29.148C228.61 29.148 228.978 29.056 229.322 28.872C229.666 28.688 229.942 28.412 230.15 28.044C230.366 27.676 230.474 27.228 230.474 26.7C230.474 26.172 230.37 25.724 230.162 25.356C229.954 24.988 229.682 24.716 229.346 24.54C229.01 24.356 228.646 24.264 228.254 24.264C227.854 24.264 227.486 24.356 227.15 24.54C226.822 24.716 226.558 24.988 226.358 25.356C226.158 25.724 226.058 26.172 226.058 26.7C226.058 27.236 226.154 27.688 226.346 28.056C226.546 28.424 226.81 28.7 227.138 28.884C227.466 29.06 227.826 29.148 228.218 29.148ZM234.118 24.492C234.31 24.116 234.582 23.824 234.934 23.616C235.294 23.408 235.73 23.304 236.242 23.304V24.432H235.954C234.73 24.432 234.118 25.096 234.118 26.424V30H233.026V23.424H234.118V24.492ZM10.945 42.356C10.737 42.356 10.561 42.284 10.417 42.14C10.273 41.996 10.201 41.82 10.201 41.612C10.201 41.404 10.273 41.228 10.417 41.084C10.561 40.94 10.737 40.868 10.945 40.868C11.145 40.868 11.313 40.94 11.449 41.084C11.593 41.228 11.665 41.404 11.665 41.612C11.665 41.82 11.593 41.996 11.449 42.14C11.313 42.284 11.145 42.356 10.945 42.356ZM11.473 43.424V50H10.381V43.424H11.473ZM16.5382 43.304C17.3382 43.304 17.9862 43.548 18.4822 44.036C18.9782 44.516 19.2262 45.212 19.2262 46.124V50H18.1462V46.28C18.1462 45.624 17.9822 45.124 17.6542 44.78C17.3262 44.428 16.8782 44.252 16.3102 44.252C15.7342 44.252 15.2742 44.432 14.9302 44.792C14.5942 45.152 14.4262 45.676 14.4262 46.364V50H13.3342V43.424H14.4262V44.36C14.6422 44.024 14.9342 43.764 15.3022 43.58C15.6782 43.396 16.0902 43.304 16.5382 43.304ZM20.6019 46.7C20.6019 46.02 20.7379 45.428 21.0099 44.924C21.2819 44.412 21.6579 44.016 22.1379 43.736C22.6259 43.456 23.1819 43.316 23.8059 43.316C24.6139 43.316 25.2779 43.512 25.7979 43.904C26.3259 44.296 26.6739 44.84 26.8419 45.536H25.6659C25.5539 45.136 25.3339 44.82 25.0059 44.588C24.6859 44.356 24.2859 44.24 23.8059 44.24C23.1819 44.24 22.6779 44.456 22.2939 44.888C21.9099 45.312 21.7179 45.916 21.7179 46.7C21.7179 47.492 21.9099 48.104 22.2939 48.536C22.6779 48.968 23.1819 49.184 23.8059 49.184C24.2859 49.184 24.6859 49.072 25.0059 48.848C25.3259 48.624 25.5459 48.304 25.6659 47.888H26.8419C26.6659 48.56 26.3139 49.1 25.7859 49.508C25.2579 49.908 24.5979 50.108 23.8059 50.108C23.1819 50.108 22.6259 49.968 22.1379 49.688C21.6579 49.408 21.2819 49.012 21.0099 48.5C20.7379 47.988 20.6019 47.388 20.6019 46.7ZM28.863 42.356C28.655 42.356 28.479 42.284 28.335 42.14C28.191 41.996 28.119 41.82 28.119 41.612C28.119 41.404 28.191 41.228 28.335 41.084C28.479 40.94 28.655 40.868 28.863 40.868C29.063 40.868 29.231 40.94 29.367 41.084C29.511 41.228 29.583 41.404 29.583 41.612C29.583 41.82 29.511 41.996 29.367 42.14C29.231 42.284 29.063 42.356 28.863 42.356ZM29.391 43.424V50H28.299V43.424H29.391ZM30.8441 46.688C30.8441 46.016 30.9801 45.428 31.2521 44.924C31.5241 44.412 31.8961 44.016 32.3681 43.736C32.8481 43.456 33.3841 43.316 33.9761 43.316C34.4881 43.316 34.9641 43.436 35.4041 43.676C35.8441 43.908 36.1801 44.216 36.4121 44.6V41.12H37.5161V50H36.4121V48.764C36.1961 49.156 35.8761 49.48 35.4521 49.736C35.0281 49.984 34.5321 50.108 33.9641 50.108C33.3801 50.108 32.8481 49.964 32.3681 49.676C31.8961 49.388 31.5241 48.984 31.2521 48.464C30.9801 47.944 30.8441 47.352 30.8441 46.688ZM36.4121 46.7C36.4121 46.204 36.3121 45.772 36.1121 45.404C35.9121 45.036 35.6401 44.756 35.2961 44.564C34.9601 44.364 34.5881 44.264 34.1801 44.264C33.7721 44.264 33.4001 44.36 33.0641 44.552C32.7281 44.744 32.4601 45.024 32.2601 45.392C32.0601 45.76 31.9601 46.192 31.9601 46.688C31.9601 47.192 32.0601 47.632 32.2601 48.008C32.4601 48.376 32.7281 48.66 33.0641 48.86C33.4001 49.052 33.7721 49.148 34.1801 49.148C34.5881 49.148 34.9601 49.052 35.2961 48.86C35.6401 48.66 35.9121 48.376 36.1121 48.008C36.3121 47.632 36.4121 47.196 36.4121 46.7ZM39.9255 42.356C39.7175 42.356 39.5415 42.284 39.3975 42.14C39.2535 41.996 39.1815 41.82 39.1815 41.612C39.1815 41.404 39.2535 41.228 39.3975 41.084C39.5415 40.94 39.7175 40.868 39.9255 40.868C40.1255 40.868 40.2935 40.94 40.4295 41.084C40.5735 41.228 40.6455 41.404 40.6455 41.612C40.6455 41.82 40.5735 41.996 40.4295 42.14C40.2935 42.284 40.1255 42.356 39.9255 42.356ZM40.4535 43.424V50H39.3615V43.424H40.4535ZM41.9066 46.688C41.9066 46.016 42.0426 45.428 42.3146 44.924C42.5866 44.412 42.9586 44.016 43.4306 43.736C43.9106 43.456 44.4466 43.316 45.0386 43.316C45.5506 43.316 46.0266 43.436 46.4666 43.676C46.9066 43.908 47.2426 44.216 47.4746 44.6V41.12H48.5786V50H47.4746V48.764C47.2586 49.156 46.9386 49.48 46.5146 49.736C46.0906 49.984 45.5946 50.108 45.0266 50.108C44.4426 50.108 43.9106 49.964 43.4306 49.676C42.9586 49.388 42.5866 48.984 42.3146 48.464C42.0426 47.944 41.9066 47.352 41.9066 46.688ZM47.4746 46.7C47.4746 46.204 47.3746 45.772 47.1746 45.404C46.9746 45.036 46.7026 44.756 46.3586 44.564C46.0226 44.364 45.6506 44.264 45.2426 44.264C44.8346 44.264 44.4626 44.36 44.1266 44.552C43.7906 44.744 43.5226 45.024 43.3226 45.392C43.1226 45.76 43.0226 46.192 43.0226 46.688C43.0226 47.192 43.1226 47.632 43.3226 48.008C43.5226 48.376 43.7906 48.66 44.1266 48.86C44.4626 49.052 44.8346 49.148 45.2426 49.148C45.6506 49.148 46.0226 49.052 46.3586 48.86C46.7026 48.66 46.9746 48.376 47.1746 48.008C47.3746 47.632 47.4746 47.196 47.4746 46.7ZM56.256 43.424V50H55.164V49.028C54.956 49.364 54.664 49.628 54.288 49.82C53.92 50.004 53.512 50.096 53.064 50.096C52.552 50.096 52.092 49.992 51.684 49.784C51.276 49.568 50.952 49.248 50.712 48.824C50.48 48.4 50.364 47.884 50.364 47.276V43.424H51.444V47.132C51.444 47.78 51.608 48.28 51.936 48.632C52.264 48.976 52.712 49.148 53.28 49.148C53.864 49.148 54.324 48.968 54.66 48.608C54.996 48.248 55.164 47.724 55.164 47.036V43.424H56.256ZM61.3038 43.304C62.1038 43.304 62.7518 43.548 63.2478 44.036C63.7438 44.516 63.9918 45.212 63.9918 46.124V50H62.9118V46.28C62.9118 45.624 62.7478 45.124 62.4198 44.78C62.0918 44.428 61.6438 44.252 61.0758 44.252C60.4998 44.252 60.0398 44.432 59.6958 44.792C59.3598 45.152 59.1918 45.676 59.1918 46.364V50H58.0998V43.424H59.1918V44.36C59.4078 44.024 59.6998 43.764 60.0678 43.58C60.4438 43.396 60.8558 43.304 61.3038 43.304ZM67.1076 44.324V48.2C67.1076 48.52 67.1756 48.748 67.3116 48.884C67.4476 49.012 67.6836 49.076 68.0196 49.076H68.8236V50H67.8396C67.2316 50 66.7756 49.86 66.4716 49.58C66.1676 49.3 66.0156 48.84 66.0156 48.2V44.324H65.1636V43.424H66.0156V41.768H67.1076V43.424H68.8236V44.324H67.1076ZM79.1779 43.424V50H78.0859V49.028C77.8779 49.364 77.5859 49.628 77.2099 49.82C76.8419 50.004 76.4339 50.096 75.9859 50.096C75.4739 50.096 75.0139 49.992 74.6059 49.784C74.1979 49.568 73.8739 49.248 73.6339 48.824C73.4019 48.4 73.2859 47.884 73.2859 47.276V43.424H74.3659V47.132C74.3659 47.78 74.5299 48.28 74.8579 48.632C75.1859 48.976 75.6339 49.148 76.2019 49.148C76.7859 49.148 77.2459 48.968 77.5819 48.608C77.9179 48.248 78.0859 47.724 78.0859 47.036V43.424H79.1779ZM82.3537 44.324V48.2C82.3537 48.52 82.4217 48.748 82.5577 48.884C82.6937 49.012 82.9297 49.076 83.2657 49.076H84.0697V50H83.0857C82.4777 50 82.0217 49.86 81.7177 49.58C81.4137 49.3 81.2617 48.84 81.2617 48.2V44.324H80.4097V43.424H81.2617V41.768H82.3537V43.424H84.0697V44.324H82.3537ZM89.684 41.12V50H88.592V41.12H89.684ZM91.1371 46.688C91.1371 46.016 91.2731 45.428 91.5451 44.924C91.8171 44.412 92.1891 44.016 92.6611 43.736C93.1411 43.456 93.6731 43.316 94.2571 43.316C94.8331 43.316 95.3331 43.44 95.7571 43.688C96.1811 43.936 96.4971 44.248 96.7051 44.624V43.424H97.8091V50H96.7051V48.776C96.4891 49.16 96.1651 49.48 95.7331 49.736C95.3091 49.984 94.8131 50.108 94.2451 50.108C93.6611 50.108 93.1331 49.964 92.6611 49.676C92.1891 49.388 91.8171 48.984 91.5451 48.464C91.2731 47.944 91.1371 47.352 91.1371 46.688ZM96.7051 46.7C96.7051 46.204 96.6051 45.772 96.4051 45.404C96.2051 45.036 95.9331 44.756 95.5891 44.564C95.2531 44.364 94.8811 44.264 94.4731 44.264C94.0651 44.264 93.6931 44.36 93.3571 44.552C93.0211 44.744 92.7531 45.024 92.5531 45.392C92.3531 45.76 92.2531 46.192 92.2531 46.688C92.2531 47.192 92.3531 47.632 92.5531 48.008C92.7531 48.376 93.0211 48.66 93.3571 48.86C93.6931 49.052 94.0651 49.148 94.4731 49.148C94.8811 49.148 95.2531 49.052 95.5891 48.86C95.9331 48.66 96.2051 48.376 96.4051 48.008C96.6051 47.632 96.7051 47.196 96.7051 46.7ZM100.746 44.648C100.97 44.256 101.298 43.936 101.73 43.688C102.162 43.44 102.654 43.316 103.206 43.316C103.798 43.316 104.33 43.456 104.802 43.736C105.274 44.016 105.646 44.412 105.918 44.924C106.19 45.428 106.326 46.016 106.326 46.688C106.326 47.352 106.19 47.944 105.918 48.464C105.646 48.984 105.27 49.388 104.79 49.676C104.318 49.964 103.79 50.108 103.206 50.108C102.638 50.108 102.138 49.984 101.706 49.736C101.282 49.488 100.962 49.172 100.746 48.788V50H99.6545V41.12H100.746V44.648ZM105.21 46.688C105.21 46.192 105.11 45.76 104.91 45.392C104.71 45.024 104.438 44.744 104.094 44.552C103.758 44.36 103.386 44.264 102.978 44.264C102.578 44.264 102.206 44.364 101.862 44.564C101.526 44.756 101.254 45.04 101.046 45.416C100.846 45.784 100.746 46.212 100.746 46.7C100.746 47.196 100.846 47.632 101.046 48.008C101.254 48.376 101.526 48.66 101.862 48.86C102.206 49.052 102.578 49.148 102.978 49.148C103.386 49.148 103.758 49.052 104.094 48.86C104.438 48.66 104.71 48.376 104.91 48.008C105.11 47.632 105.21 47.192 105.21 46.688ZM110.632 50.108C110.016 50.108 109.456 49.968 108.952 49.688C108.456 49.408 108.064 49.012 107.776 48.5C107.496 47.98 107.356 47.38 107.356 46.7C107.356 46.028 107.5 45.436 107.788 44.924C108.084 44.404 108.484 44.008 108.988 43.736C109.492 43.456 110.056 43.316 110.68 43.316C111.304 43.316 111.868 43.456 112.372 43.736C112.876 44.008 113.272 44.4 113.56 44.912C113.856 45.424 114.004 46.02 114.004 46.7C114.004 47.38 113.852 47.98 113.548 48.5C113.252 49.012 112.848 49.408 112.336 49.688C111.824 49.968 111.256 50.108 110.632 50.108ZM110.632 49.148C111.024 49.148 111.392 49.056 111.736 48.872C112.08 48.688 112.356 48.412 112.564 48.044C112.78 47.676 112.888 47.228 112.888 46.7C112.888 46.172 112.784 45.724 112.576 45.356C112.368 44.988 112.096 44.716 111.76 44.54C111.424 44.356 111.06 44.264 110.668 44.264C110.268 44.264 109.9 44.356 109.564 44.54C109.236 44.716 108.972 44.988 108.772 45.356C108.572 45.724 108.472 46.172 108.472 46.7C108.472 47.236 108.568 47.688 108.76 48.056C108.96 48.424 109.224 48.7 109.552 48.884C109.88 49.06 110.24 49.148 110.632 49.148ZM116.532 44.492C116.724 44.116 116.996 43.824 117.348 43.616C117.708 43.408 118.144 43.304 118.656 43.304V44.432H118.368C117.144 44.432 116.532 45.096 116.532 46.424V50H115.44V43.424H116.532V44.492ZM125.916 46.46C125.916 46.668 125.904 46.888 125.88 47.12H120.624C120.664 47.768 120.884 48.276 121.284 48.644C121.692 49.004 122.184 49.184 122.76 49.184C123.232 49.184 123.624 49.076 123.936 48.86C124.256 48.636 124.48 48.34 124.608 47.972H125.784C125.608 48.604 125.256 49.12 124.728 49.52C124.2 49.912 123.544 50.108 122.76 50.108C122.136 50.108 121.576 49.968 121.08 49.688C120.592 49.408 120.208 49.012 119.928 48.5C119.648 47.98 119.508 47.38 119.508 46.7C119.508 46.02 119.644 45.424 119.916 44.912C120.188 44.4 120.568 44.008 121.056 43.736C121.552 43.456 122.12 43.316 122.76 43.316C123.384 43.316 123.936 43.452 124.416 43.724C124.896 43.996 125.264 44.372 125.52 44.852C125.784 45.324 125.916 45.86 125.916 46.46ZM124.788 46.232C124.788 45.816 124.696 45.46 124.512 45.164C124.328 44.86 124.076 44.632 123.756 44.48C123.444 44.32 123.096 44.24 122.712 44.24C122.16 44.24 121.688 44.416 121.296 44.768C120.912 45.12 120.692 45.608 120.636 46.232H124.788ZM136.557 46.46C136.557 46.668 136.545 46.888 136.521 47.12H131.265C131.305 47.768 131.525 48.276 131.925 48.644C132.333 49.004 132.825 49.184 133.401 49.184C133.873 49.184 134.265 49.076 134.577 48.86C134.897 48.636 135.121 48.34 135.249 47.972H136.425C136.249 48.604 135.897 49.12 135.369 49.52C134.841 49.912 134.185 50.108 133.401 50.108C132.777 50.108 132.217 49.968 131.721 49.688C131.233 49.408 130.849 49.012 130.569 48.5C130.289 47.98 130.149 47.38 130.149 46.7C130.149 46.02 130.285 45.424 130.557 44.912C130.829 44.4 131.209 44.008 131.697 43.736C132.193 43.456 132.761 43.316 133.401 43.316C134.025 43.316 134.577 43.452 135.057 43.724C135.537 43.996 135.905 44.372 136.161 44.852C136.425 45.324 136.557 45.86 136.557 46.46ZM135.429 46.232C135.429 45.816 135.337 45.46 135.153 45.164C134.969 44.86 134.717 44.632 134.397 44.48C134.085 44.32 133.737 44.24 133.353 44.24C132.801 44.24 132.329 44.416 131.937 44.768C131.553 45.12 131.333 45.608 131.277 46.232H135.429ZM139.33 44.324V48.2C139.33 48.52 139.398 48.748 139.534 48.884C139.67 49.012 139.906 49.076 140.242 49.076H141.046V50H140.062C139.454 50 138.998 49.86 138.694 49.58C138.39 49.3 138.238 48.84 138.238 48.2V44.324H137.386V43.424H138.238V41.768H139.33V43.424H141.046V44.324H139.33ZM145.161 46.688C145.161 46.016 145.297 45.428 145.569 44.924C145.841 44.412 146.213 44.016 146.685 43.736C147.165 43.456 147.701 43.316 148.293 43.316C148.805 43.316 149.281 43.436 149.721 43.676C150.161 43.908 150.497 44.216 150.729 44.6V41.12H151.833V50H150.729V48.764C150.513 49.156 150.193 49.48 149.769 49.736C149.345 49.984 148.849 50.108 148.281 50.108C147.697 50.108 147.165 49.964 146.685 49.676C146.213 49.388 145.841 48.984 145.569 48.464C145.297 47.944 145.161 47.352 145.161 46.688ZM150.729 46.7C150.729 46.204 150.629 45.772 150.429 45.404C150.229 45.036 149.957 44.756 149.613 44.564C149.277 44.364 148.905 44.264 148.497 44.264C148.089 44.264 147.717 44.36 147.381 44.552C147.045 44.744 146.777 45.024 146.577 45.392C146.377 45.76 146.277 46.192 146.277 46.688C146.277 47.192 146.377 47.632 146.577 48.008C146.777 48.376 147.045 48.66 147.381 48.86C147.717 49.052 148.089 49.148 148.497 49.148C148.905 49.148 149.277 49.052 149.613 48.86C149.957 48.66 150.229 48.376 150.429 48.008C150.629 47.632 150.729 47.196 150.729 46.7ZM156.546 50.108C155.93 50.108 155.37 49.968 154.866 49.688C154.37 49.408 153.978 49.012 153.69 48.5C153.41 47.98 153.27 47.38 153.27 46.7C153.27 46.028 153.414 45.436 153.702 44.924C153.998 44.404 154.398 44.008 154.902 43.736C155.406 43.456 155.97 43.316 156.594 43.316C157.218 43.316 157.782 43.456 158.286 43.736C158.79 44.008 159.186 44.4 159.474 44.912C159.77 45.424 159.918 46.02 159.918 46.7C159.918 47.38 159.766 47.98 159.462 48.5C159.166 49.012 158.762 49.408 158.25 49.688C157.738 49.968 157.17 50.108 156.546 50.108ZM156.546 49.148C156.938 49.148 157.306 49.056 157.65 48.872C157.994 48.688 158.27 48.412 158.478 48.044C158.694 47.676 158.802 47.228 158.802 46.7C158.802 46.172 158.698 45.724 158.49 45.356C158.282 44.988 158.01 44.716 157.674 44.54C157.338 44.356 156.974 44.264 156.582 44.264C156.182 44.264 155.814 44.356 155.478 44.54C155.15 44.716 154.886 44.988 154.686 45.356C154.486 45.724 154.386 46.172 154.386 46.7C154.386 47.236 154.482 47.688 154.674 48.056C154.874 48.424 155.138 48.7 155.466 48.884C155.794 49.06 156.154 49.148 156.546 49.148ZM162.446 41.12V50H161.354V41.12H162.446ZM167.175 50.108C166.559 50.108 165.999 49.968 165.495 49.688C164.999 49.408 164.607 49.012 164.319 48.5C164.039 47.98 163.899 47.38 163.899 46.7C163.899 46.028 164.043 45.436 164.331 44.924C164.627 44.404 165.027 44.008 165.531 43.736C166.035 43.456 166.599 43.316 167.223 43.316C167.847 43.316 168.411 43.456 168.915 43.736C169.419 44.008 169.815 44.4 170.103 44.912C170.399 45.424 170.547 46.02 170.547 46.7C170.547 47.38 170.395 47.98 170.091 48.5C169.795 49.012 169.391 49.408 168.879 49.688C168.367 49.968 167.799 50.108 167.175 50.108ZM167.175 49.148C167.567 49.148 167.935 49.056 168.279 48.872C168.623 48.688 168.899 48.412 169.107 48.044C169.323 47.676 169.431 47.228 169.431 46.7C169.431 46.172 169.327 45.724 169.119 45.356C168.911 44.988 168.639 44.716 168.303 44.54C167.967 44.356 167.603 44.264 167.211 44.264C166.811 44.264 166.443 44.356 166.107 44.54C165.779 44.716 165.515 44.988 165.315 45.356C165.115 45.724 165.015 46.172 165.015 46.7C165.015 47.236 165.111 47.688 165.303 48.056C165.503 48.424 165.767 48.7 166.095 48.884C166.423 49.06 166.783 49.148 167.175 49.148ZM173.075 44.492C173.267 44.116 173.539 43.824 173.891 43.616C174.251 43.408 174.687 43.304 175.199 43.304V44.432H174.911C173.687 44.432 173.075 45.096 173.075 46.424V50H171.983V43.424H173.075V44.492ZM182.459 46.46C182.459 46.668 182.447 46.888 182.423 47.12H177.167C177.207 47.768 177.427 48.276 177.827 48.644C178.235 49.004 178.727 49.184 179.303 49.184C179.775 49.184 180.167 49.076 180.479 48.86C180.799 48.636 181.023 48.34 181.151 47.972H182.327C182.151 48.604 181.799 49.12 181.271 49.52C180.743 49.912 180.087 50.108 179.303 50.108C178.679 50.108 178.119 49.968 177.623 49.688C177.135 49.408 176.751 49.012 176.471 48.5C176.191 47.98 176.051 47.38 176.051 46.7C176.051 46.02 176.187 45.424 176.459 44.912C176.731 44.4 177.111 44.008 177.599 43.736C178.095 43.456 178.663 43.316 179.303 43.316C179.927 43.316 180.479 43.452 180.959 43.724C181.439 43.996 181.807 44.372 182.063 44.852C182.327 45.324 182.459 45.86 182.459 46.46ZM181.331 46.232C181.331 45.816 181.239 45.46 181.055 45.164C180.871 44.86 180.619 44.632 180.299 44.48C179.987 44.32 179.639 44.24 179.255 44.24C178.703 44.24 178.231 44.416 177.839 44.768C177.455 45.12 177.235 45.608 177.179 46.232H181.331ZM195.008 43.304C195.52 43.304 195.976 43.412 196.376 43.628C196.776 43.836 197.092 44.152 197.324 44.576C197.556 45 197.672 45.516 197.672 46.124V50H196.592V46.28C196.592 45.624 196.428 45.124 196.1 44.78C195.78 44.428 195.344 44.252 194.792 44.252C194.224 44.252 193.772 44.436 193.436 44.804C193.1 45.164 192.932 45.688 192.932 46.376V50H191.852V46.28C191.852 45.624 191.688 45.124 191.36 44.78C191.04 44.428 190.604 44.252 190.052 44.252C189.484 44.252 189.032 44.436 188.696 44.804C188.36 45.164 188.192 45.688 188.192 46.376V50H187.1V43.424H188.192V44.372C188.408 44.028 188.696 43.764 189.056 43.58C189.424 43.396 189.828 43.304 190.268 43.304C190.82 43.304 191.308 43.428 191.732 43.676C192.156 43.924 192.472 44.288 192.68 44.768C192.864 44.304 193.168 43.944 193.592 43.688C194.016 43.432 194.488 43.304 195.008 43.304ZM199.055 46.688C199.055 46.016 199.191 45.428 199.463 44.924C199.735 44.412 200.107 44.016 200.579 43.736C201.059 43.456 201.591 43.316 202.175 43.316C202.751 43.316 203.251 43.44 203.675 43.688C204.099 43.936 204.415 44.248 204.623 44.624V43.424H205.727V50H204.623V48.776C204.407 49.16 204.083 49.48 203.651 49.736C203.227 49.984 202.731 50.108 202.163 50.108C201.579 50.108 201.051 49.964 200.579 49.676C200.107 49.388 199.735 48.984 199.463 48.464C199.191 47.944 199.055 47.352 199.055 46.688ZM204.623 46.7C204.623 46.204 204.523 45.772 204.323 45.404C204.123 45.036 203.851 44.756 203.507 44.564C203.171 44.364 202.799 44.264 202.391 44.264C201.983 44.264 201.611 44.36 201.275 44.552C200.939 44.744 200.671 45.024 200.471 45.392C200.271 45.76 200.171 46.192 200.171 46.688C200.171 47.192 200.271 47.632 200.471 48.008C200.671 48.376 200.939 48.66 201.275 48.86C201.611 49.052 201.983 49.148 202.391 49.148C202.799 49.148 203.171 49.052 203.507 48.86C203.851 48.66 204.123 48.376 204.323 48.008C204.523 47.632 204.623 47.196 204.623 46.7ZM210.284 43.316C210.852 43.316 211.348 43.44 211.772 43.688C212.204 43.936 212.524 44.248 212.732 44.624V43.424H213.836V50.144C213.836 50.744 213.708 51.276 213.452 51.74C213.196 52.212 212.828 52.58 212.348 52.844C211.876 53.108 211.324 53.24 210.692 53.24C209.828 53.24 209.108 53.036 208.532 52.628C207.956 52.22 207.616 51.664 207.512 50.96H208.592C208.712 51.36 208.96 51.68 209.336 51.92C209.712 52.168 210.164 52.292 210.692 52.292C211.292 52.292 211.78 52.104 212.156 51.728C212.54 51.352 212.732 50.824 212.732 50.144V48.764C212.516 49.148 212.196 49.468 211.772 49.724C211.348 49.98 210.852 50.108 210.284 50.108C209.7 50.108 209.168 49.964 208.688 49.676C208.216 49.388 207.844 48.984 207.572 48.464C207.3 47.944 207.164 47.352 207.164 46.688C207.164 46.016 207.3 45.428 207.572 44.924C207.844 44.412 208.216 44.016 208.688 43.736C209.168 43.456 209.7 43.316 210.284 43.316ZM212.732 46.7C212.732 46.204 212.632 45.772 212.432 45.404C212.232 45.036 211.96 44.756 211.616 44.564C211.28 44.364 210.908 44.264 210.5 44.264C210.092 44.264 209.72 44.36 209.384 44.552C209.048 44.744 208.78 45.024 208.58 45.392C208.38 45.76 208.28 46.192 208.28 46.688C208.28 47.192 208.38 47.632 208.58 48.008C208.78 48.376 209.048 48.66 209.384 48.86C209.72 49.052 210.092 49.148 210.5 49.148C210.908 49.148 211.28 49.052 211.616 48.86C211.96 48.66 212.232 48.376 212.432 48.008C212.632 47.632 212.732 47.196 212.732 46.7ZM218.886 43.304C219.686 43.304 220.334 43.548 220.83 44.036C221.326 44.516 221.574 45.212 221.574 46.124V50H220.494V46.28C220.494 45.624 220.33 45.124 220.002 44.78C219.674 44.428 219.226 44.252 218.658 44.252C218.082 44.252 217.622 44.432 217.278 44.792C216.942 45.152 216.774 45.676 216.774 46.364V50H215.682V43.424H216.774V44.36C216.99 44.024 217.282 43.764 217.65 43.58C218.026 43.396 218.438 43.304 218.886 43.304ZM222.95 46.688C222.95 46.016 223.086 45.428 223.358 44.924C223.63 44.412 224.002 44.016 224.474 43.736C224.954 43.456 225.486 43.316 226.07 43.316C226.646 43.316 227.146 43.44 227.57 43.688C227.994 43.936 228.31 44.248 228.518 44.624V43.424H229.622V50H228.518V48.776C228.302 49.16 227.978 49.48 227.546 49.736C227.122 49.984 226.626 50.108 226.058 50.108C225.474 50.108 224.946 49.964 224.474 49.676C224.002 49.388 223.63 48.984 223.358 48.464C223.086 47.944 222.95 47.352 222.95 46.688ZM228.518 46.7C228.518 46.204 228.418 45.772 228.218 45.404C228.018 45.036 227.746 44.756 227.402 44.564C227.066 44.364 226.694 44.264 226.286 44.264C225.878 44.264 225.506 44.36 225.17 44.552C224.834 44.744 224.566 45.024 224.366 45.392C224.166 45.76 224.066 46.192 224.066 46.688C224.066 47.192 224.166 47.632 224.366 48.008C224.566 48.376 224.834 48.66 225.17 48.86C225.506 49.052 225.878 49.148 226.286 49.148C226.694 49.148 227.066 49.052 227.402 48.86C227.746 48.66 228.018 48.376 228.218 48.008C228.418 47.632 228.518 47.196 228.518 46.7ZM5.87147 66.688C5.87147 66.016 6.00747 65.428 6.27947 64.924C6.55147 64.412 6.92347 64.016 7.39547 63.736C7.87547 63.456 8.40747 63.316 8.99147 63.316C9.56747 63.316 10.0675 63.44 10.4915 63.688C10.9155 63.936 11.2315 64.248 11.4395 64.624V63.424H12.5435V70H11.4395V68.776C11.2235 69.16 10.8995 69.48 10.4675 69.736C10.0435 69.984 9.54747 70.108 8.97947 70.108C8.39547 70.108 7.86747 69.964 7.39547 69.676C6.92347 69.388 6.55147 68.984 6.27947 68.464C6.00747 67.944 5.87147 67.352 5.87147 66.688ZM11.4395 66.7C11.4395 66.204 11.3395 65.772 11.1395 65.404C10.9395 65.036 10.6675 64.756 10.3235 64.564C9.98747 64.364 9.61547 64.264 9.20747 64.264C8.79947 64.264 8.42747 64.36 8.09147 64.552C7.75547 64.744 7.48747 65.024 7.28747 65.392C7.08747 65.76 6.98747 66.192 6.98747 66.688C6.98747 67.192 7.08747 67.632 7.28747 68.008C7.48747 68.376 7.75547 68.66 8.09147 68.86C8.42747 69.052 8.79947 69.148 9.20747 69.148C9.61547 69.148 9.98747 69.052 10.3235 68.86C10.6675 68.66 10.9395 68.376 11.1395 68.008C11.3395 67.632 11.4395 67.196 11.4395 66.7ZM15.4808 61.12V70H14.3888V61.12H15.4808ZM17.906 62.356C17.698 62.356 17.522 62.284 17.378 62.14C17.234 61.996 17.162 61.82 17.162 61.612C17.162 61.404 17.234 61.228 17.378 61.084C17.522 60.94 17.698 60.868 17.906 60.868C18.106 60.868 18.274 60.94 18.41 61.084C18.554 61.228 18.626 61.404 18.626 61.612C18.626 61.82 18.554 61.996 18.41 62.14C18.274 62.284 18.106 62.356 17.906 62.356ZM18.434 63.424V70H17.342V63.424H18.434ZM19.8871 66.688C19.8871 66.016 20.0231 65.428 20.2951 64.924C20.5671 64.412 20.9391 64.016 21.4111 63.736C21.8911 63.456 22.4271 63.316 23.0191 63.316C23.5871 63.316 24.0831 63.444 24.5071 63.7C24.9391 63.948 25.2551 64.256 25.4551 64.624V63.424H26.5591V73.12H25.4551V68.788C25.2471 69.156 24.9271 69.468 24.4951 69.724C24.0631 69.98 23.5591 70.108 22.9831 70.108C22.4071 70.108 21.8831 69.964 21.4111 69.676C20.9391 69.388 20.5671 68.984 20.2951 68.464C20.0231 67.944 19.8871 67.352 19.8871 66.688ZM25.4551 66.7C25.4551 66.204 25.3551 65.772 25.1551 65.404C24.9551 65.036 24.6831 64.756 24.3391 64.564C24.0031 64.364 23.6311 64.264 23.2231 64.264C22.8151 64.264 22.4431 64.36 22.1071 64.552C21.7711 64.744 21.5031 65.024 21.3031 65.392C21.1031 65.76 21.0031 66.192 21.0031 66.688C21.0031 67.192 21.1031 67.632 21.3031 68.008C21.5031 68.376 21.7711 68.66 22.1071 68.86C22.4431 69.052 22.8151 69.148 23.2231 69.148C23.6311 69.148 24.0031 69.052 24.3391 68.86C24.6831 68.66 24.9551 68.376 25.1551 68.008C25.3551 67.632 25.4551 67.196 25.4551 66.7ZM34.2365 63.424V70H33.1445V69.028C32.9365 69.364 32.6445 69.628 32.2685 69.82C31.9005 70.004 31.4925 70.096 31.0445 70.096C30.5325 70.096 30.0725 69.992 29.6645 69.784C29.2565 69.568 28.9325 69.248 28.6925 68.824C28.4605 68.4 28.3445 67.884 28.3445 67.276V63.424H29.4245V67.132C29.4245 67.78 29.5885 68.28 29.9165 68.632C30.2445 68.976 30.6925 69.148 31.2605 69.148C31.8445 69.148 32.3045 68.968 32.6405 68.608C32.9765 68.248 33.1445 67.724 33.1445 67.036V63.424H34.2365ZM35.6723 66.688C35.6723 66.016 35.8083 65.428 36.0803 64.924C36.3523 64.412 36.7243 64.016 37.1963 63.736C37.6763 63.456 38.2083 63.316 38.7923 63.316C39.3683 63.316 39.8683 63.44 40.2923 63.688C40.7163 63.936 41.0323 64.248 41.2403 64.624V63.424H42.3443V70H41.2403V68.776C41.0243 69.16 40.7003 69.48 40.2683 69.736C39.8443 69.984 39.3483 70.108 38.7803 70.108C38.1963 70.108 37.6683 69.964 37.1963 69.676C36.7243 69.388 36.3523 68.984 36.0803 68.464C35.8083 67.944 35.6723 67.352 35.6723 66.688ZM41.2403 66.7C41.2403 66.204 41.1403 65.772 40.9403 65.404C40.7403 65.036 40.4683 64.756 40.1243 64.564C39.7883 64.364 39.4163 64.264 39.0083 64.264C38.6003 64.264 38.2283 64.36 37.8923 64.552C37.5563 64.744 37.2883 65.024 37.0883 65.392C36.8883 65.76 36.7883 66.192 36.7883 66.688C36.7883 67.192 36.8883 67.632 37.0883 68.008C37.2883 68.376 37.5563 68.66 37.8923 68.86C38.2283 69.052 38.6003 69.148 39.0083 69.148C39.4163 69.148 39.7883 69.052 40.1243 68.86C40.4683 68.66 40.7403 68.376 40.9403 68.008C41.1403 67.632 41.2403 67.196 41.2403 66.7ZM44.5376 70.072C44.3296 70.072 44.1536 70 44.0096 69.856C43.8656 69.712 43.7936 69.536 43.7936 69.328C43.7936 69.12 43.8656 68.944 44.0096 68.8C44.1536 68.656 44.3296 68.584 44.5376 68.584C44.7376 68.584 44.9056 68.656 45.0416 68.8C45.1856 68.944 45.2576 69.12 45.2576 69.328C45.2576 69.536 45.1856 69.712 45.0416 69.856C44.9056 70 44.7376 70.072 44.5376 70.072ZM55.7404 63.424V70H54.6484V69.028C54.4404 69.364 54.1484 69.628 53.7724 69.82C53.4044 70.004 52.9964 70.096 52.5484 70.096C52.0364 70.096 51.5764 69.992 51.1684 69.784C50.7604 69.568 50.4364 69.248 50.1964 68.824C49.9644 68.4 49.8484 67.884 49.8484 67.276V63.424H50.9284V67.132C50.9284 67.78 51.0924 68.28 51.4204 68.632C51.7484 68.976 52.1964 69.148 52.7644 69.148C53.3484 69.148 53.8084 68.968 54.1444 68.608C54.4804 68.248 54.6484 67.724 54.6484 67.036V63.424H55.7404ZM58.9162 64.324V68.2C58.9162 68.52 58.9842 68.748 59.1202 68.884C59.2562 69.012 59.4922 69.076 59.8282 69.076H60.6322V70H59.6482C59.0402 70 58.5842 69.86 58.2802 69.58C57.9762 69.3 57.8242 68.84 57.8242 68.2V64.324H56.9722V63.424H57.8242V61.768H58.9162V63.424H60.6322V64.324H58.9162ZM71.1545 66.46C71.1545 66.668 71.1425 66.888 71.1185 67.12H65.8625C65.9025 67.768 66.1225 68.276 66.5225 68.644C66.9305 69.004 67.4225 69.184 67.9985 69.184C68.4705 69.184 68.8625 69.076 69.1745 68.86C69.4945 68.636 69.7185 68.34 69.8465 67.972H71.0225C70.8465 68.604 70.4945 69.12 69.9665 69.52C69.4385 69.912 68.7825 70.108 67.9985 70.108C67.3745 70.108 66.8145 69.968 66.3185 69.688C65.8305 69.408 65.4465 69.012 65.1665 68.5C64.8865 67.98 64.7465 67.38 64.7465 66.7C64.7465 66.02 64.8825 65.424 65.1545 64.912C65.4265 64.4 65.8065 64.008 66.2945 63.736C66.7905 63.456 67.3585 63.316 67.9985 63.316C68.6225 63.316 69.1745 63.452 69.6545 63.724C70.1345 63.996 70.5025 64.372 70.7585 64.852C71.0225 65.324 71.1545 65.86 71.1545 66.46ZM70.0265 66.232C70.0265 65.816 69.9345 65.46 69.7505 65.164C69.5665 64.86 69.3145 64.632 68.9945 64.48C68.6825 64.32 68.3345 64.24 67.9505 64.24C67.3985 64.24 66.9265 64.416 66.5345 64.768C66.1505 65.12 65.9305 65.608 65.8745 66.232H70.0265ZM75.7999 63.304C76.5999 63.304 77.2479 63.548 77.7439 64.036C78.2399 64.516 78.4879 65.212 78.4879 66.124V70H77.4079V66.28C77.4079 65.624 77.2439 65.124 76.9159 64.78C76.5879 64.428 76.1399 64.252 75.5719 64.252C74.9959 64.252 74.5359 64.432 74.1919 64.792C73.8559 65.152 73.6879 65.676 73.6879 66.364V70H72.5959V63.424H73.6879V64.36C73.9039 64.024 74.1959 63.764 74.5639 63.58C74.9399 63.396 75.3519 63.304 75.7999 63.304ZM80.8357 62.356C80.6277 62.356 80.4517 62.284 80.3077 62.14C80.1637 61.996 80.0917 61.82 80.0917 61.612C80.0917 61.404 80.1637 61.228 80.3077 61.084C80.4517 60.94 80.6277 60.868 80.8357 60.868C81.0357 60.868 81.2037 60.94 81.3397 61.084C81.4837 61.228 81.5557 61.404 81.5557 61.612C81.5557 61.82 81.4837 61.996 81.3397 62.14C81.2037 62.284 81.0357 62.356 80.8357 62.356ZM81.3637 63.424V70H80.2717V63.424H81.3637ZM91.1328 63.304C91.6448 63.304 92.1008 63.412 92.5008 63.628C92.9008 63.836 93.2168 64.152 93.4488 64.576C93.6808 65 93.7968 65.516 93.7968 66.124V70H92.7168V66.28C92.7168 65.624 92.5528 65.124 92.2248 64.78C91.9048 64.428 91.4688 64.252 90.9168 64.252C90.3488 64.252 89.8968 64.436 89.5608 64.804C89.2248 65.164 89.0568 65.688 89.0568 66.376V70H87.9768V66.28C87.9768 65.624 87.8128 65.124 87.4848 64.78C87.1648 64.428 86.7288 64.252 86.1768 64.252C85.6088 64.252 85.1568 64.436 84.8208 64.804C84.4848 65.164 84.3168 65.688 84.3168 66.376V70H83.2248V63.424H84.3168V64.372C84.5328 64.028 84.8208 63.764 85.1808 63.58C85.5488 63.396 85.9528 63.304 86.3928 63.304C86.9448 63.304 87.4328 63.428 87.8568 63.676C88.2808 63.924 88.5968 64.288 88.8048 64.768C88.9888 64.304 89.2928 63.944 89.7168 63.688C90.1408 63.432 90.6128 63.304 91.1328 63.304ZM98.3793 66.688C98.3793 66.016 98.5153 65.428 98.7873 64.924C99.0593 64.412 99.4313 64.016 99.9033 63.736C100.383 63.456 100.915 63.316 101.499 63.316C102.075 63.316 102.575 63.44 102.999 63.688C103.423 63.936 103.739 64.248 103.947 64.624V63.424H105.051V70H103.947V68.776C103.731 69.16 103.407 69.48 102.975 69.736C102.551 69.984 102.055 70.108 101.487 70.108C100.903 70.108 100.375 69.964 99.9033 69.676C99.4313 69.388 99.0593 68.984 98.7873 68.464C98.5153 67.944 98.3793 67.352 98.3793 66.688ZM103.947 66.7C103.947 66.204 103.847 65.772 103.647 65.404C103.447 65.036 103.175 64.756 102.831 64.564C102.495 64.364 102.123 64.264 101.715 64.264C101.307 64.264 100.935 64.36 100.599 64.552C100.263 64.744 99.9953 65.024 99.7953 65.392C99.5953 65.76 99.4953 66.192 99.4953 66.688C99.4953 67.192 99.5953 67.632 99.7953 68.008C99.9953 68.376 100.263 68.66 100.599 68.86C100.935 69.052 101.307 69.148 101.715 69.148C102.123 69.148 102.495 69.052 102.831 68.86C103.175 68.66 103.447 68.376 103.647 68.008C103.847 67.632 103.947 67.196 103.947 66.7ZM106.489 66.688C106.489 66.016 106.625 65.428 106.897 64.924C107.169 64.412 107.541 64.016 108.013 63.736C108.493 63.456 109.029 63.316 109.621 63.316C110.133 63.316 110.609 63.436 111.049 63.676C111.489 63.908 111.825 64.216 112.057 64.6V61.12H113.161V70H112.057V68.764C111.841 69.156 111.521 69.48 111.097 69.736C110.673 69.984 110.177 70.108 109.609 70.108C109.025 70.108 108.493 69.964 108.013 69.676C107.541 69.388 107.169 68.984 106.897 68.464C106.625 67.944 106.489 67.352 106.489 66.688ZM112.057 66.7C112.057 66.204 111.957 65.772 111.757 65.404C111.557 65.036 111.285 64.756 110.941 64.564C110.605 64.364 110.233 64.264 109.825 64.264C109.417 64.264 109.045 64.36 108.709 64.552C108.373 64.744 108.105 65.024 107.905 65.392C107.705 65.76 107.605 66.192 107.605 66.688C107.605 67.192 107.705 67.632 107.905 68.008C108.105 68.376 108.373 68.66 108.709 68.86C109.045 69.052 109.417 69.148 109.825 69.148C110.233 69.148 110.605 69.052 110.941 68.86C111.285 68.66 111.557 68.376 111.757 68.008C111.957 67.632 112.057 67.196 112.057 66.7ZM126.113 63.304C126.625 63.304 127.081 63.412 127.481 63.628C127.881 63.836 128.197 64.152 128.429 64.576C128.661 65 128.777 65.516 128.777 66.124V70H127.697V66.28C127.697 65.624 127.533 65.124 127.205 64.78C126.885 64.428 126.449 64.252 125.897 64.252C125.329 64.252 124.877 64.436 124.541 64.804C124.205 65.164 124.037 65.688 124.037 66.376V70H122.957V66.28C122.957 65.624 122.793 65.124 122.465 64.78C122.145 64.428 121.709 64.252 121.157 64.252C120.589 64.252 120.137 64.436 119.801 64.804C119.465 65.164 119.297 65.688 119.297 66.376V70H118.205V63.424H119.297V64.372C119.513 64.028 119.801 63.764 120.161 63.58C120.529 63.396 120.933 63.304 121.373 63.304C121.925 63.304 122.413 63.428 122.837 63.676C123.261 63.924 123.577 64.288 123.785 64.768C123.969 64.304 124.273 63.944 124.697 63.688C125.121 63.432 125.593 63.304 126.113 63.304ZM131.133 62.356C130.925 62.356 130.749 62.284 130.605 62.14C130.461 61.996 130.389 61.82 130.389 61.612C130.389 61.404 130.461 61.228 130.605 61.084C130.749 60.94 130.925 60.868 131.133 60.868C131.333 60.868 131.501 60.94 131.637 61.084C131.781 61.228 131.853 61.404 131.853 61.612C131.853 61.82 131.781 61.996 131.637 62.14C131.501 62.284 131.333 62.356 131.133 62.356ZM131.661 63.424V70H130.569V63.424H131.661ZM136.726 63.304C137.526 63.304 138.174 63.548 138.67 64.036C139.166 64.516 139.414 65.212 139.414 66.124V70H138.334V66.28C138.334 65.624 138.17 65.124 137.842 64.78C137.514 64.428 137.066 64.252 136.498 64.252C135.922 64.252 135.462 64.432 135.118 64.792C134.782 65.152 134.614 65.676 134.614 66.364V70H133.522V63.424H134.614V64.36C134.83 64.024 135.122 63.764 135.49 63.58C135.866 63.396 136.278 63.304 136.726 63.304ZM141.761 62.356C141.553 62.356 141.377 62.284 141.233 62.14C141.089 61.996 141.017 61.82 141.017 61.612C141.017 61.404 141.089 61.228 141.233 61.084C141.377 60.94 141.553 60.868 141.761 60.868C141.961 60.868 142.129 60.94 142.265 61.084C142.409 61.228 142.481 61.404 142.481 61.612C142.481 61.82 142.409 61.996 142.265 62.14C142.129 62.284 141.961 62.356 141.761 62.356ZM142.289 63.424V70H141.197V63.424H142.289ZM152.059 63.304C152.571 63.304 153.027 63.412 153.427 63.628C153.827 63.836 154.143 64.152 154.375 64.576C154.607 65 154.723 65.516 154.723 66.124V70H153.643V66.28C153.643 65.624 153.479 65.124 153.151 64.78C152.831 64.428 152.395 64.252 151.843 64.252C151.275 64.252 150.823 64.436 150.487 64.804C150.151 65.164 149.983 65.688 149.983 66.376V70H148.903V66.28C148.903 65.624 148.739 65.124 148.411 64.78C148.091 64.428 147.655 64.252 147.103 64.252C146.535 64.252 146.083 64.436 145.747 64.804C145.411 65.164 145.243 65.688 145.243 66.376V70H144.151V63.424H145.243V64.372C145.459 64.028 145.747 63.764 146.107 63.58C146.475 63.396 146.879 63.304 147.319 63.304C147.871 63.304 148.359 63.428 148.783 63.676C149.207 63.924 149.523 64.288 149.731 64.768C149.915 64.304 150.219 63.944 150.643 63.688C151.067 63.432 151.539 63.304 152.059 63.304ZM162.161 68.992L164.201 63.424H165.365L162.785 70H161.513L158.933 63.424H160.109L162.161 68.992ZM172.44 66.46C172.44 66.668 172.428 66.888 172.404 67.12H167.148C167.188 67.768 167.408 68.276 167.808 68.644C168.216 69.004 168.708 69.184 169.284 69.184C169.756 69.184 170.148 69.076 170.46 68.86C170.78 68.636 171.004 68.34 171.132 67.972H172.308C172.132 68.604 171.78 69.12 171.252 69.52C170.724 69.912 170.068 70.108 169.284 70.108C168.66 70.108 168.1 69.968 167.604 69.688C167.116 69.408 166.732 69.012 166.452 68.5C166.172 67.98 166.032 67.38 166.032 66.7C166.032 66.02 166.168 65.424 166.44 64.912C166.712 64.4 167.092 64.008 167.58 63.736C168.076 63.456 168.644 63.316 169.284 63.316C169.908 63.316 170.46 63.452 170.94 63.724C171.42 63.996 171.788 64.372 172.044 64.852C172.308 65.324 172.44 65.86 172.44 66.46ZM171.312 66.232C171.312 65.816 171.22 65.46 171.036 65.164C170.852 64.86 170.6 64.632 170.28 64.48C169.968 64.32 169.62 64.24 169.236 64.24C168.684 64.24 168.212 64.416 167.82 64.768C167.436 65.12 167.216 65.608 167.16 66.232H171.312ZM177.085 63.304C177.885 63.304 178.533 63.548 179.029 64.036C179.525 64.516 179.773 65.212 179.773 66.124V70H178.693V66.28C178.693 65.624 178.529 65.124 178.201 64.78C177.873 64.428 177.425 64.252 176.857 64.252C176.281 64.252 175.821 64.432 175.477 64.792C175.141 65.152 174.973 65.676 174.973 66.364V70H173.881V63.424H174.973V64.36C175.189 64.024 175.481 63.764 175.849 63.58C176.225 63.396 176.637 63.304 177.085 63.304ZM182.121 62.356C181.913 62.356 181.737 62.284 181.593 62.14C181.449 61.996 181.377 61.82 181.377 61.612C181.377 61.404 181.449 61.228 181.593 61.084C181.737 60.94 181.913 60.868 182.121 60.868C182.321 60.868 182.489 60.94 182.625 61.084C182.769 61.228 182.841 61.404 182.841 61.612C182.841 61.82 182.769 61.996 182.625 62.14C182.489 62.284 182.321 62.356 182.121 62.356ZM182.649 63.424V70H181.557V63.424H182.649ZM184.102 66.688C184.102 66.016 184.238 65.428 184.51 64.924C184.782 64.412 185.154 64.016 185.626 63.736C186.106 63.456 186.638 63.316 187.222 63.316C187.798 63.316 188.298 63.44 188.722 63.688C189.146 63.936 189.462 64.248 189.67 64.624V63.424H190.774V70H189.67V68.776C189.454 69.16 189.13 69.48 188.698 69.736C188.274 69.984 187.778 70.108 187.21 70.108C186.626 70.108 186.098 69.964 185.626 69.676C185.154 69.388 184.782 68.984 184.51 68.464C184.238 67.944 184.102 67.352 184.102 66.688ZM189.67 66.7C189.67 66.204 189.57 65.772 189.37 65.404C189.17 65.036 188.898 64.756 188.554 64.564C188.218 64.364 187.846 64.264 187.438 64.264C187.03 64.264 186.658 64.36 186.322 64.552C185.986 64.744 185.718 65.024 185.518 65.392C185.318 65.76 185.218 66.192 185.218 66.688C185.218 67.192 185.318 67.632 185.518 68.008C185.718 68.376 185.986 68.66 186.322 68.86C186.658 69.052 187.03 69.148 187.438 69.148C187.846 69.148 188.218 69.052 188.554 68.86C188.898 68.66 189.17 68.376 189.37 68.008C189.57 67.632 189.67 67.196 189.67 66.7ZM200.527 63.304C201.039 63.304 201.495 63.412 201.895 63.628C202.295 63.836 202.611 64.152 202.843 64.576C203.075 65 203.191 65.516 203.191 66.124V70H202.111V66.28C202.111 65.624 201.947 65.124 201.619 64.78C201.299 64.428 200.863 64.252 200.311 64.252C199.743 64.252 199.291 64.436 198.955 64.804C198.619 65.164 198.451 65.688 198.451 66.376V70H197.371V66.28C197.371 65.624 197.207 65.124 196.879 64.78C196.559 64.428 196.123 64.252 195.571 64.252C195.003 64.252 194.551 64.436 194.215 64.804C193.879 65.164 193.711 65.688 193.711 66.376V70H192.619V63.424H193.711V64.372C193.927 64.028 194.215 63.764 194.575 63.58C194.943 63.396 195.347 63.304 195.787 63.304C196.339 63.304 196.827 63.428 197.251 63.676C197.675 63.924 197.991 64.288 198.199 64.768C198.383 64.304 198.687 63.944 199.111 63.688C199.535 63.432 200.007 63.304 200.527 63.304ZM206.111 68.488L204.767 71.716H204.035L204.911 68.488H206.111ZM210.153 66.688C210.153 66.016 210.289 65.428 210.561 64.924C210.833 64.412 211.205 64.016 211.677 63.736C212.157 63.456 212.693 63.316 213.285 63.316C213.853 63.316 214.349 63.444 214.773 63.7C215.205 63.948 215.521 64.256 215.721 64.624V63.424H216.825V73.12H215.721V68.788C215.513 69.156 215.193 69.468 214.761 69.724C214.329 69.98 213.825 70.108 213.249 70.108C212.673 70.108 212.149 69.964 211.677 69.676C211.205 69.388 210.833 68.984 210.561 68.464C210.289 67.944 210.153 67.352 210.153 66.688ZM215.721 66.7C215.721 66.204 215.621 65.772 215.421 65.404C215.221 65.036 214.949 64.756 214.605 64.564C214.269 64.364 213.897 64.264 213.489 64.264C213.081 64.264 212.709 64.36 212.373 64.552C212.037 64.744 211.769 65.024 211.569 65.392C211.369 65.76 211.269 66.192 211.269 66.688C211.269 67.192 211.369 67.632 211.569 68.008C211.769 68.376 212.037 68.66 212.373 68.86C212.709 69.052 213.081 69.148 213.489 69.148C213.897 69.148 214.269 69.052 214.605 68.86C214.949 68.66 215.221 68.376 215.421 68.008C215.621 67.632 215.721 67.196 215.721 66.7ZM224.502 63.424V70H223.41V69.028C223.202 69.364 222.91 69.628 222.534 69.82C222.166 70.004 221.758 70.096 221.31 70.096C220.798 70.096 220.338 69.992 219.93 69.784C219.522 69.568 219.198 69.248 218.958 68.824C218.726 68.4 218.61 67.884 218.61 67.276V63.424H219.69V67.132C219.69 67.78 219.854 68.28 220.182 68.632C220.51 68.976 220.958 69.148 221.526 69.148C222.11 69.148 222.57 68.968 222.906 68.608C223.242 68.248 223.41 67.724 223.41 67.036V63.424H224.502ZM226.91 62.356C226.702 62.356 226.526 62.284 226.382 62.14C226.238 61.996 226.166 61.82 226.166 61.612C226.166 61.404 226.238 61.228 226.382 61.084C226.526 60.94 226.702 60.868 226.91 60.868C227.11 60.868 227.278 60.94 227.414 61.084C227.558 61.228 227.63 61.404 227.63 61.612C227.63 61.82 227.558 61.996 227.414 62.14C227.278 62.284 227.11 62.356 226.91 62.356ZM227.438 63.424V70H226.346V63.424H227.438ZM231.627 70.108C231.123 70.108 230.671 70.024 230.271 69.856C229.871 69.68 229.555 69.44 229.323 69.136C229.091 68.824 228.963 68.468 228.939 68.068H230.067C230.099 68.396 230.251 68.664 230.523 68.872C230.803 69.08 231.167 69.184 231.615 69.184C232.031 69.184 232.359 69.092 232.599 68.908C232.839 68.724 232.959 68.492 232.959 68.212C232.959 67.924 232.831 67.712 232.575 67.576C232.319 67.432 231.923 67.292 231.387 67.156C230.899 67.028 230.499 66.9 230.187 66.772C229.883 66.636 229.619 66.44 229.395 66.184C229.179 65.92 229.071 65.576 229.071 65.152C229.071 64.816 229.171 64.508 229.371 64.228C229.571 63.948 229.855 63.728 230.223 63.568C230.591 63.4 231.011 63.316 231.483 63.316C232.211 63.316 232.799 63.5 233.247 63.868C233.695 64.236 233.935 64.74 233.967 65.38H232.875C232.851 65.036 232.711 64.76 232.455 64.552C232.207 64.344 231.871 64.24 231.447 64.24C231.055 64.24 230.743 64.324 230.511 64.492C230.279 64.66 230.163 64.88 230.163 65.152C230.163 65.368 230.231 65.548 230.367 65.692C230.511 65.828 230.687 65.94 230.895 66.028C231.111 66.108 231.407 66.2 231.783 66.304C232.255 66.432 232.639 66.56 232.935 66.688C233.231 66.808 233.483 66.992 233.691 67.24C233.907 67.488 234.019 67.812 234.027 68.212C234.027 68.572 233.927 68.896 233.727 69.184C233.527 69.472 233.243 69.7 232.875 69.868C232.515 70.028 232.099 70.108 231.627 70.108ZM101.001 83.304C101.801 83.304 102.449 83.548 102.945 84.036C103.441 84.516 103.689 85.212 103.689 86.124V90H102.609V86.28C102.609 85.624 102.445 85.124 102.117 84.78C101.789 84.428 101.341 84.252 100.773 84.252C100.197 84.252 99.737 84.432 99.393 84.792C99.057 85.152 98.889 85.676 98.889 86.364V90H97.797V83.424H98.889V84.36C99.105 84.024 99.397 83.764 99.765 83.58C100.141 83.396 100.553 83.304 101.001 83.304ZM108.341 90.108C107.725 90.108 107.165 89.968 106.661 89.688C106.165 89.408 105.773 89.012 105.485 88.5C105.205 87.98 105.065 87.38 105.065 86.7C105.065 86.028 105.209 85.436 105.497 84.924C105.793 84.404 106.193 84.008 106.697 83.736C107.201 83.456 107.765 83.316 108.389 83.316C109.013 83.316 109.577 83.456 110.081 83.736C110.585 84.008 110.981 84.4 111.269 84.912C111.565 85.424 111.713 86.02 111.713 86.7C111.713 87.38 111.561 87.98 111.257 88.5C110.961 89.012 110.557 89.408 110.045 89.688C109.533 89.968 108.965 90.108 108.341 90.108ZM108.341 89.148C108.733 89.148 109.101 89.056 109.445 88.872C109.789 88.688 110.065 88.412 110.273 88.044C110.489 87.676 110.597 87.228 110.597 86.7C110.597 86.172 110.493 85.724 110.285 85.356C110.077 84.988 109.805 84.716 109.469 84.54C109.133 84.356 108.769 84.264 108.377 84.264C107.977 84.264 107.609 84.356 107.273 84.54C106.945 84.716 106.681 84.988 106.481 85.356C106.281 85.724 106.181 86.172 106.181 86.7C106.181 87.236 106.277 87.688 106.469 88.056C106.669 88.424 106.933 88.7 107.261 88.884C107.589 89.06 107.949 89.148 108.341 89.148ZM115.477 90.108C114.973 90.108 114.521 90.024 114.121 89.856C113.721 89.68 113.405 89.44 113.173 89.136C112.941 88.824 112.813 88.468 112.789 88.068H113.917C113.949 88.396 114.101 88.664 114.373 88.872C114.653 89.08 115.017 89.184 115.465 89.184C115.881 89.184 116.209 89.092 116.449 88.908C116.689 88.724 116.809 88.492 116.809 88.212C116.809 87.924 116.681 87.712 116.425 87.576C116.169 87.432 115.773 87.292 115.237 87.156C114.749 87.028 114.349 86.9 114.037 86.772C113.733 86.636 113.469 86.44 113.245 86.184C113.029 85.92 112.921 85.576 112.921 85.152C112.921 84.816 113.021 84.508 113.221 84.228C113.421 83.948 113.705 83.728 114.073 83.568C114.441 83.4 114.861 83.316 115.333 83.316C116.061 83.316 116.649 83.5 117.097 83.868C117.545 84.236 117.785 84.74 117.817 85.38H116.725C116.701 85.036 116.561 84.76 116.305 84.552C116.057 84.344 115.721 84.24 115.297 84.24C114.905 84.24 114.593 84.324 114.361 84.492C114.129 84.66 114.013 84.88 114.013 85.152C114.013 85.368 114.081 85.548 114.217 85.692C114.361 85.828 114.537 85.94 114.745 86.028C114.961 86.108 115.257 86.2 115.633 86.304C116.105 86.432 116.489 86.56 116.785 86.688C117.081 86.808 117.333 86.992 117.541 87.24C117.757 87.488 117.869 87.812 117.877 88.212C117.877 88.572 117.777 88.896 117.577 89.184C117.377 89.472 117.093 89.7 116.725 89.868C116.365 90.028 115.949 90.108 115.477 90.108ZM120.75 84.324V88.2C120.75 88.52 120.818 88.748 120.954 88.884C121.09 89.012 121.326 89.076 121.662 89.076H122.466V90H121.482C120.874 90 120.418 89.86 120.114 89.58C119.81 89.3 119.658 88.84 119.658 88.2V84.324H118.806V83.424H119.658V81.768H120.75V83.424H122.466V84.324H120.75ZM124.881 84.492C125.073 84.116 125.345 83.824 125.697 83.616C126.057 83.408 126.493 83.304 127.005 83.304V84.432H126.717C125.493 84.432 124.881 85.096 124.881 86.424V90H123.789V83.424H124.881V84.492ZM134.098 83.424V90H133.006V89.028C132.798 89.364 132.506 89.628 132.13 89.82C131.762 90.004 131.354 90.096 130.906 90.096C130.394 90.096 129.934 89.992 129.526 89.784C129.118 89.568 128.794 89.248 128.554 88.824C128.322 88.4 128.206 87.884 128.206 87.276V83.424H129.286V87.132C129.286 87.78 129.45 88.28 129.778 88.632C130.106 88.976 130.554 89.148 131.122 89.148C131.706 89.148 132.166 88.968 132.502 88.608C132.838 88.248 133.006 87.724 133.006 87.036V83.424H134.098ZM135.534 86.688C135.534 86.016 135.67 85.428 135.942 84.924C136.214 84.412 136.586 84.016 137.058 83.736C137.538 83.456 138.074 83.316 138.666 83.316C139.178 83.316 139.654 83.436 140.094 83.676C140.534 83.908 140.87 84.216 141.102 84.6V81.12H142.206V90H141.102V88.764C140.886 89.156 140.566 89.48 140.142 89.736C139.718 89.984 139.222 90.108 138.654 90.108C138.07 90.108 137.538 89.964 137.058 89.676C136.586 89.388 136.214 88.984 135.942 88.464C135.67 87.944 135.534 87.352 135.534 86.688ZM141.102 86.7C141.102 86.204 141.002 85.772 140.802 85.404C140.602 85.036 140.33 84.756 139.986 84.564C139.65 84.364 139.278 84.264 138.87 84.264C138.462 84.264 138.09 84.36 137.754 84.552C137.418 84.744 137.15 85.024 136.95 85.392C136.75 85.76 136.65 86.192 136.65 86.688C136.65 87.192 136.75 87.632 136.95 88.008C137.15 88.376 137.418 88.66 137.754 88.86C138.09 89.052 138.462 89.148 138.87 89.148C139.278 89.148 139.65 89.052 139.986 88.86C140.33 88.66 140.602 88.376 140.802 88.008C141.002 87.632 141.102 87.196 141.102 86.7Z" fill="#CDCDCD"/>
</svg>
