<svg width="138" height="49" viewBox="0 0 138 49" fill="none" xmlns="http://www.w3.org/2000/svg">
<path d="M60.9583 27.36C60.9583 28.42 60.7083 29.42 60.2083 30.36C59.7083 31.3 58.9083 32.07 57.8083 32.67C56.7083 33.25 55.2983 33.54 53.5783 33.54H49.7983V42H46.3783V21.15H53.5783C55.1783 21.15 56.5283 21.43 57.6283 21.99C58.7483 22.53 59.5783 23.27 60.1183 24.21C60.6783 25.15 60.9583 26.2 60.9583 27.36ZM53.5783 30.75C54.8783 30.75 55.8483 30.46 56.4883 29.88C57.1283 29.28 57.4483 28.44 57.4483 27.36C57.4483 25.08 56.1583 23.94 53.5783 23.94H49.7983V30.75H53.5783ZM67.64 19.8V42H64.22V19.8H67.64ZM70.9902 33.66C70.9902 32 71.3302 30.53 72.0102 29.25C72.7102 27.97 73.6502 26.98 74.8302 26.28C76.0302 25.56 77.3502 25.2 78.7902 25.2C80.0902 25.2 81.2202 25.46 82.1802 25.98C83.1602 26.48 83.9402 27.11 84.5202 27.87V25.47H87.9702V42H84.5202V39.54C83.9402 40.32 83.1502 40.97 82.1502 41.49C81.1502 42.01 80.0102 42.27 78.7302 42.27C77.3102 42.27 76.0102 41.91 74.8302 41.19C73.6502 40.45 72.7102 39.43 72.0102 38.13C71.3302 36.81 70.9902 35.32 70.9902 33.66ZM84.5202 33.72C84.5202 32.58 84.2802 31.59 83.8002 30.75C83.3402 29.91 82.7302 29.27 81.9702 28.83C81.2102 28.39 80.3902 28.17 79.5102 28.17C78.6302 28.17 77.8102 28.39 77.0502 28.83C76.2902 29.25 75.6702 29.88 75.1902 30.72C74.7302 31.54 74.5002 32.52 74.5002 33.66C74.5002 34.8 74.7302 35.8 75.1902 36.66C75.6702 37.52 76.2902 38.18 77.0502 38.64C77.8302 39.08 78.6502 39.3 79.5102 39.3C80.3902 39.3 81.2102 39.08 81.9702 38.64C82.7302 38.2 83.3402 37.56 83.8002 36.72C84.2802 35.86 84.5202 34.86 84.5202 33.72ZM100.802 25.2C102.102 25.2 103.262 25.47 104.282 26.01C105.322 26.55 106.132 27.35 106.712 28.41C107.292 29.47 107.582 30.75 107.582 32.25V42H104.192V32.76C104.192 31.28 103.822 30.15 103.082 29.37C102.342 28.57 101.332 28.17 100.052 28.17C98.7722 28.17 97.7522 28.57 96.9922 29.37C96.2522 30.15 95.8822 31.28 95.8822 32.76V42H92.4622V25.47H95.8822V27.36C96.4422 26.68 97.1522 26.15 98.0122 25.77C98.8922 25.39 99.8222 25.2 100.802 25.2ZM115.935 28.26V37.41C115.935 38.03 116.075 38.48 116.355 38.76C116.655 39.02 117.155 39.15 117.855 39.15H119.955V42H117.255C115.715 42 114.535 41.64 113.715 40.92C112.895 40.2 112.485 39.03 112.485 37.41V28.26H110.535V25.47H112.485V21.36H115.935V25.47H119.955V28.26H115.935ZM129.107 42.27C127.807 42.27 126.637 42.04 125.597 41.58C124.577 41.1 123.767 40.46 123.167 39.66C122.567 38.84 122.247 37.93 122.207 36.93H125.747C125.807 37.63 126.137 38.22 126.737 38.7C127.357 39.16 128.127 39.39 129.047 39.39C130.007 39.39 130.747 39.21 131.267 38.85C131.807 38.47 132.077 37.99 132.077 37.41C132.077 36.79 131.777 36.33 131.177 36.03C130.597 35.73 129.667 35.4 128.387 35.04C127.147 34.7 126.137 34.37 125.357 34.05C124.577 33.73 123.897 33.24 123.317 32.58C122.757 31.92 122.477 31.05 122.477 29.97C122.477 29.09 122.737 28.29 123.257 27.57C123.777 26.83 124.517 26.25 125.477 25.83C126.457 25.41 127.577 25.2 128.837 25.2C130.717 25.2 132.227 25.68 133.367 26.64C134.527 27.58 135.147 28.87 135.227 30.51H131.807C131.747 29.77 131.447 29.18 130.907 28.74C130.367 28.3 129.637 28.08 128.717 28.08C127.817 28.08 127.127 28.25 126.647 28.59C126.167 28.93 125.927 29.38 125.927 29.94C125.927 30.38 126.087 30.75 126.407 31.05C126.727 31.35 127.117 31.59 127.577 31.77C128.037 31.93 128.717 32.14 129.617 32.4C130.817 32.72 131.797 33.05 132.557 33.39C133.337 33.71 134.007 34.19 134.567 34.83C135.127 35.47 135.417 36.32 135.437 37.38C135.437 38.32 135.177 39.16 134.657 39.9C134.137 40.64 133.397 41.22 132.437 41.64C131.497 42.06 130.387 42.27 129.107 42.27Z" fill="white"/>
<path d="M0.823602 26.7153C1.39853 27.4804 2.25331 28.1199 3.29707 28.566C4.34083 29.0121 5.53454 29.2481 6.75126 29.2488H13.8055V29.9055C13.8055 30.4279 14.0965 30.929 14.6143 31.2985C15.1322 31.6679 15.8345 31.8755 16.5669 31.8755C17.2992 31.8755 18.0016 31.6679 18.5194 31.2985C19.0373 30.929 19.3282 30.4279 19.3282 29.9055V29.2488H26.3825C27.5994 29.2479 28.7932 29.0118 29.837 28.5655C30.8808 28.1191 31.7355 27.4793 32.3102 26.714C32.8951 25.9399 33.1755 25.0672 33.1217 24.1886C33.0679 23.31 32.6819 22.4581 32.0046 21.7233L29.9336 19.4775C30.2505 19.246 30.5201 18.9838 30.7344 18.6987C31.155 18.1434 31.357 17.5171 31.3187 16.8865C31.2805 16.2559 31.0035 15.6445 30.5171 15.1172L27.3306 11.6578C27.4754 11.5225 27.6053 11.3794 27.719 11.2297C28.1417 10.6806 28.3498 10.0606 28.3217 9.43444C28.2935 8.80832 28.03 8.1991 27.5588 7.67049C27.4906 7.59639 27.4168 7.52492 27.3379 7.45642L20.3444 1.55686C20.3002 1.5214 20.2487 1.48594 20.21 1.45311C19.2374 0.772426 17.9293 0.391113 16.5669 0.391113C15.2044 0.391113 13.8964 0.772426 12.9238 1.45311C12.8796 1.48463 12.8354 1.51878 12.7949 1.55292L5.77007 7.44722C5.69161 7.51475 5.61847 7.58534 5.551 7.65867C5.07592 8.18661 4.80896 8.79611 4.77819 9.42311C4.74742 10.0501 4.95396 10.6714 5.37612 11.2218C5.49647 11.38 5.63437 11.5311 5.78848 11.6736L2.61663 15.1132C2.12913 15.64 1.85082 16.2512 1.81128 16.8819C1.77173 17.5125 1.97243 18.139 2.39204 18.6947C2.60634 18.9799 2.87592 19.2421 3.19283 19.4735L1.12183 21.7194C0.44423 22.4552 0.0586972 23.3083 0.00618774 24.188C-0.0463217 25.0676 0.236153 25.941 0.823602 26.7153ZM5.74246 23.8838L9.66539 19.6285C9.9161 19.3564 10.0683 19.0441 10.1085 18.7197C10.1486 18.3953 10.0754 18.0689 9.8954 17.7696C9.71538 17.4703 9.43419 17.2076 9.07697 17.0048C8.71975 16.8021 8.29764 16.6657 7.84843 16.6078L11.9647 12.1411C12.1778 11.9052 12.3181 11.6396 12.3763 11.3621C12.4345 11.0845 12.4092 10.8012 12.3021 10.5312C12.195 10.2611 12.0086 10.0104 11.7552 9.79568C11.5018 9.58098 11.1873 9.4072 10.8325 9.28591L16.5669 4.47249L22.2736 9.28591C21.9196 9.40804 21.6063 9.58271 21.3545 9.79822C21.1027 10.0137 20.9184 10.2651 20.8138 10.5356C20.7093 10.806 20.6869 11.0893 20.7481 11.3664C20.8094 11.6435 20.9529 11.9081 21.1691 12.1424L25.2872 16.6078C24.838 16.6657 24.4159 16.8021 24.0586 17.0048C23.7014 17.2076 23.4202 17.4703 23.2402 17.7696C23.0602 18.0689 22.987 18.3953 23.0271 18.7197C23.0673 19.0441 23.2195 19.3564 23.4702 19.6285L27.395 23.8838C27.528 24.0246 27.6038 24.189 27.6139 24.3587C27.624 24.5284 27.5679 24.6968 27.4521 24.8451C27.3532 24.986 27.2009 25.1043 27.0124 25.1865C26.824 25.2687 26.607 25.3115 26.3862 25.3101H6.75126C6.53042 25.3115 6.31344 25.2687 6.12501 25.1865C5.93658 25.1043 5.78427 24.986 5.68539 24.8451C5.56949 24.6968 5.51347 24.5284 5.52355 24.3587C5.53362 24.189 5.60939 24.0246 5.74246 23.8838Z" fill="#54C352"/>
<path d="M15.6464 22.682C17.1715 22.682 18.4078 21.8 18.4078 20.712C18.4078 19.624 17.1715 18.7419 15.6464 18.7419C14.1214 18.7419 12.8851 19.624 12.8851 20.712C12.8851 21.8 14.1214 22.682 15.6464 22.682Z" fill="#54C352"/>
<path d="M17.4873 16.1153C19.0124 16.1153 20.2487 15.2333 20.2487 14.1453C20.2487 13.0573 19.0124 12.1753 17.4873 12.1753C15.9623 12.1753 14.726 13.0573 14.726 14.1453C14.726 15.2333 15.9623 16.1153 17.4873 16.1153Z" fill="#54C352"/>
</svg>
