    <svg width="402" height="137" viewBox="0 0 402 137" fill="none" xmlns="http://www.w3.org/2000/svg">
<path d="M2.50258 14.52H7.38258V16H0.682578V2.06H2.50258V14.52ZM14.0954 16.18C13.0687 16.18 12.1354 15.9467 11.2954 15.48C10.4687 15.0133 9.81539 14.3533 9.33539 13.5C8.86872 12.6333 8.63539 11.6333 8.63539 10.5C8.63539 9.38 8.87539 8.39333 9.35539 7.54C9.84872 6.67333 10.5154 6.01333 11.3554 5.56C12.1954 5.09333 13.1354 4.86 14.1754 4.86C15.2154 4.86 16.1554 5.09333 16.9954 5.56C17.8354 6.01333 18.4954 6.66667 18.9754 7.52C19.4687 8.37333 19.7154 9.36667 19.7154 10.5C19.7154 11.6333 19.4621 12.6333 18.9554 13.5C18.4621 14.3533 17.7887 15.0133 16.9354 15.48C16.0821 15.9467 15.1354 16.18 14.0954 16.18ZM14.0954 14.58C14.7487 14.58 15.3621 14.4267 15.9354 14.12C16.5087 13.8133 16.9687 13.3533 17.3154 12.74C17.6754 12.1267 17.8554 11.38 17.8554 10.5C17.8554 9.62 17.6821 8.87333 17.3354 8.26C16.9887 7.64667 16.5354 7.19333 15.9754 6.9C15.4154 6.59333 14.8087 6.44 14.1554 6.44C13.4887 6.44 12.8754 6.59333 12.3154 6.9C11.7687 7.19333 11.3287 7.64667 10.9954 8.26C10.6621 8.87333 10.4954 9.62 10.4954 10.5C10.4954 11.3933 10.6554 12.1467 10.9754 12.76C11.3087 13.3733 11.7487 13.8333 12.2954 14.14C12.8421 14.4333 13.4421 14.58 14.0954 14.58ZM23.9284 6.82C24.2484 6.19333 24.7017 5.70667 25.2884 5.36C25.8884 5.01333 26.615 4.84 27.4684 4.84V6.72H26.9884C24.9484 6.72 23.9284 7.82667 23.9284 10.04V16H22.1084V5.04H23.9284V6.82ZM39.5693 10.1C39.5693 10.4467 39.5493 10.8133 39.5093 11.2H30.7493C30.816 12.28 31.1826 13.1267 31.8493 13.74C32.5293 14.34 33.3493 14.64 34.3093 14.64C35.096 14.64 35.7493 14.46 36.2693 14.1C36.8026 13.7267 37.176 13.2333 37.3893 12.62H39.3493C39.056 13.6733 38.4693 14.5333 37.5893 15.2C36.7093 15.8533 35.616 16.18 34.3093 16.18C33.2693 16.18 32.336 15.9467 31.5093 15.48C30.696 15.0133 30.056 14.3533 29.5893 13.5C29.1226 12.6333 28.8893 11.6333 28.8893 10.5C28.8893 9.36667 29.116 8.37333 29.5693 7.52C30.0226 6.66667 30.656 6.01333 31.4693 5.56C32.296 5.09333 33.2426 4.86 34.3093 4.86C35.3493 4.86 36.2693 5.08667 37.0693 5.54C37.8693 5.99333 38.4826 6.62 38.9093 7.42C39.3493 8.20667 39.5693 9.1 39.5693 10.1ZM37.6893 9.72C37.6893 9.02667 37.536 8.43333 37.2293 7.94C36.9226 7.43333 36.5026 7.05333 35.9693 6.8C35.4493 6.53333 34.8693 6.4 34.2293 6.4C33.3093 6.4 32.5226 6.69333 31.8693 7.28C31.2293 7.86667 30.8626 8.68 30.7693 9.72H37.6893ZM55.1516 4.84C56.005 4.84 56.765 5.02 57.4316 5.38C58.0983 5.72667 58.625 6.25333 59.0116 6.96C59.3983 7.66667 59.5916 8.52667 59.5916 9.54V16H57.7916V9.8C57.7916 8.70667 57.5183 7.87333 56.9716 7.3C56.4383 6.71333 55.7116 6.42 54.7916 6.42C53.845 6.42 53.0916 6.72667 52.5316 7.34C51.9716 7.94 51.6916 8.81333 51.6916 9.96V16H49.8916V9.8C49.8916 8.70667 49.6183 7.87333 49.0716 7.3C48.5383 6.71333 47.8116 6.42 46.8916 6.42C45.945 6.42 45.1916 6.72667 44.6316 7.34C44.0716 7.94 43.7916 8.81333 43.7916 9.96V16H41.9716V5.04H43.7916V6.62C44.1516 6.04667 44.6316 5.60667 45.2316 5.3C45.845 4.99333 46.5183 4.84 47.2516 4.84C48.1716 4.84 48.985 5.04667 49.6916 5.46C50.3983 5.87333 50.925 6.48 51.2716 7.28C51.5783 6.50667 52.085 5.90667 52.7916 5.48C53.4983 5.05333 54.285 4.84 55.1516 4.84ZM68.8491 3.26C68.5025 3.26 68.2091 3.14 67.9691 2.9C67.7291 2.66 67.6091 2.36667 67.6091 2.02C67.6091 1.67333 67.7291 1.38 67.9691 1.14C68.2091 0.899999 68.5025 0.779999 68.8491 0.779999C69.1825 0.779999 69.4625 0.899999 69.6891 1.14C69.9291 1.38 70.0491 1.67333 70.0491 2.02C70.0491 2.36667 69.9291 2.66 69.6891 2.9C69.4625 3.14 69.1825 3.26 68.8491 3.26ZM69.7291 5.04V16H67.9091V5.04H69.7291ZM74.651 7.06C75.011 6.43333 75.5443 5.91333 76.251 5.5C76.971 5.07333 77.8043 4.86 78.751 4.86C79.7243 4.86 80.6043 5.09333 81.391 5.56C82.191 6.02667 82.8177 6.68667 83.271 7.54C83.7243 8.38 83.951 9.36 83.951 10.48C83.951 11.5867 83.7243 12.5733 83.271 13.44C82.8177 14.3067 82.191 14.98 81.391 15.46C80.6043 15.94 79.7243 16.18 78.751 16.18C77.8177 16.18 76.991 15.9733 76.271 15.56C75.5643 15.1333 75.0243 14.6067 74.651 13.98V21.2H72.831V5.04H74.651V7.06ZM82.091 10.48C82.091 9.65333 81.9243 8.93333 81.591 8.32C81.2577 7.70667 80.8043 7.24 80.231 6.92C79.671 6.6 79.051 6.44 78.371 6.44C77.7043 6.44 77.0843 6.60667 76.511 6.94C75.951 7.26 75.4977 7.73333 75.151 8.36C74.8177 8.97333 74.651 9.68667 74.651 10.5C74.651 11.3267 74.8177 12.0533 75.151 12.68C75.4977 13.2933 75.951 13.7667 76.511 14.1C77.0843 14.42 77.7043 14.58 78.371 14.58C79.051 14.58 79.671 14.42 80.231 14.1C80.8043 13.7667 81.2577 13.2933 81.591 12.68C81.9243 12.0533 82.091 11.32 82.091 10.48ZM90.2266 16.18C89.3866 16.18 88.6333 16.04 87.9666 15.76C87.3 15.4667 86.7733 15.0667 86.3866 14.56C86 14.04 85.7866 13.4467 85.7466 12.78H87.6266C87.68 13.3267 87.9333 13.7733 88.3866 14.12C88.8533 14.4667 89.46 14.64 90.2066 14.64C90.9 14.64 91.4466 14.4867 91.8466 14.18C92.2466 13.8733 92.4466 13.4867 92.4466 13.02C92.4466 12.54 92.2333 12.1867 91.8066 11.96C91.38 11.72 90.72 11.4867 89.8266 11.26C89.0133 11.0467 88.3466 10.8333 87.8266 10.62C87.32 10.3933 86.88 10.0667 86.5066 9.64C86.1466 9.2 85.9666 8.62667 85.9666 7.92C85.9666 7.36 86.1333 6.84667 86.4666 6.38C86.8 5.91333 87.2733 5.54667 87.8866 5.28C88.5 5 89.2 4.86 89.9866 4.86C91.2 4.86 92.18 5.16667 92.9266 5.78C93.6733 6.39333 94.0733 7.23333 94.1266 8.3H92.3066C92.2666 7.72667 92.0333 7.26667 91.6066 6.92C91.1933 6.57333 90.6333 6.4 89.9266 6.4C89.2733 6.4 88.7533 6.54 88.3666 6.82C87.98 7.1 87.7866 7.46667 87.7866 7.92C87.7866 8.28 87.9 8.58 88.1266 8.82C88.3666 9.04667 88.66 9.23333 89.0066 9.38C89.3666 9.51333 89.86 9.66667 90.4866 9.84C91.2733 10.0533 91.9133 10.2667 92.4066 10.48C92.9 10.68 93.32 10.9867 93.6666 11.4C94.0266 11.8133 94.2133 12.3533 94.2266 13.02C94.2266 13.62 94.06 14.16 93.7266 14.64C93.3933 15.12 92.92 15.5 92.3066 15.78C91.7066 16.0467 91.0133 16.18 90.2266 16.18ZM106.516 5.04V16H104.696V14.38C104.349 14.94 103.863 15.38 103.236 15.7C102.623 16.0067 101.943 16.16 101.196 16.16C100.343 16.16 99.5759 15.9867 98.8959 15.64C98.2159 15.28 97.6759 14.7467 97.2759 14.04C96.8892 13.3333 96.6959 12.4733 96.6959 11.46V5.04H98.4959V11.22C98.4959 12.3 98.7692 13.1333 99.3159 13.72C99.8625 14.2933 100.609 14.58 101.556 14.58C102.529 14.58 103.296 14.28 103.856 13.68C104.416 13.08 104.696 12.2067 104.696 11.06V5.04H106.516ZM122.769 4.84C123.622 4.84 124.382 5.02 125.049 5.38C125.715 5.72667 126.242 6.25333 126.629 6.96C127.015 7.66667 127.209 8.52667 127.209 9.54V16H125.409V9.8C125.409 8.70667 125.135 7.87333 124.589 7.3C124.055 6.71333 123.329 6.42 122.409 6.42C121.462 6.42 120.709 6.72667 120.149 7.34C119.589 7.94 119.309 8.81333 119.309 9.96V16H117.509V9.8C117.509 8.70667 117.235 7.87333 116.689 7.3C116.155 6.71333 115.429 6.42 114.509 6.42C113.562 6.42 112.809 6.72667 112.249 7.34C111.689 7.94 111.409 8.81333 111.409 9.96V16H109.589V5.04H111.409V6.62C111.769 6.04667 112.249 5.60667 112.849 5.3C113.462 4.99333 114.135 4.84 114.869 4.84C115.789 4.84 116.602 5.04667 117.309 5.46C118.015 5.87333 118.542 6.48 118.889 7.28C119.195 6.50667 119.702 5.90667 120.409 5.48C121.115 5.05333 121.902 4.84 122.769 4.84ZM134.846 10.48C134.846 9.36 135.073 8.38 135.526 7.54C135.98 6.68667 136.6 6.02667 137.386 5.56C138.186 5.09333 139.08 4.86 140.066 4.86C140.92 4.86 141.713 5.06 142.446 5.46C143.18 5.84667 143.74 6.36 144.126 7V1.2H145.966V16H144.126V13.94C143.766 14.5933 143.233 15.1333 142.526 15.56C141.82 15.9733 140.993 16.18 140.046 16.18C139.073 16.18 138.186 15.94 137.386 15.46C136.6 14.98 135.98 14.3067 135.526 13.44C135.073 12.5733 134.846 11.5867 134.846 10.48ZM144.126 10.5C144.126 9.67333 143.96 8.95333 143.626 8.34C143.293 7.72667 142.84 7.26 142.266 6.94C141.706 6.60667 141.086 6.44 140.406 6.44C139.726 6.44 139.106 6.6 138.546 6.92C137.986 7.24 137.54 7.70667 137.206 8.32C136.873 8.93333 136.706 9.65333 136.706 10.48C136.706 11.32 136.873 12.0533 137.206 12.68C137.54 13.2933 137.986 13.7667 138.546 14.1C139.106 14.42 139.726 14.58 140.406 14.58C141.086 14.58 141.706 14.42 142.266 14.1C142.84 13.7667 143.293 13.2933 143.626 12.68C143.96 12.0533 144.126 11.3267 144.126 10.5ZM153.822 16.18C152.795 16.18 151.862 15.9467 151.022 15.48C150.195 15.0133 149.542 14.3533 149.062 13.5C148.595 12.6333 148.362 11.6333 148.362 10.5C148.362 9.38 148.602 8.39333 149.082 7.54C149.575 6.67333 150.242 6.01333 151.082 5.56C151.922 5.09333 152.862 4.86 153.902 4.86C154.942 4.86 155.882 5.09333 156.722 5.56C157.562 6.01333 158.222 6.66667 158.702 7.52C159.195 8.37333 159.442 9.36667 159.442 10.5C159.442 11.6333 159.189 12.6333 158.682 13.5C158.189 14.3533 157.515 15.0133 156.662 15.48C155.809 15.9467 154.862 16.18 153.822 16.18ZM153.822 14.58C154.475 14.58 155.089 14.4267 155.662 14.12C156.235 13.8133 156.695 13.3533 157.042 12.74C157.402 12.1267 157.582 11.38 157.582 10.5C157.582 9.62 157.409 8.87333 157.062 8.26C156.715 7.64667 156.262 7.19333 155.702 6.9C155.142 6.59333 154.535 6.44 153.882 6.44C153.215 6.44 152.602 6.59333 152.042 6.9C151.495 7.19333 151.055 7.64667 150.722 8.26C150.389 8.87333 150.222 9.62 150.222 10.5C150.222 11.3933 150.382 12.1467 150.702 12.76C151.035 13.3733 151.475 13.8333 152.022 14.14C152.569 14.4333 153.169 14.58 153.822 14.58ZM163.655 1.2V16H161.835V1.2H163.655ZM171.537 16.18C170.51 16.18 169.577 15.9467 168.737 15.48C167.91 15.0133 167.257 14.3533 166.777 13.5C166.31 12.6333 166.077 11.6333 166.077 10.5C166.077 9.38 166.317 8.39333 166.797 7.54C167.29 6.67333 167.957 6.01333 168.797 5.56C169.637 5.09333 170.577 4.86 171.617 4.86C172.657 4.86 173.597 5.09333 174.437 5.56C175.277 6.01333 175.937 6.66667 176.417 7.52C176.91 8.37333 177.157 9.36667 177.157 10.5C177.157 11.6333 176.903 12.6333 176.397 13.5C175.903 14.3533 175.23 15.0133 174.377 15.48C173.523 15.9467 172.577 16.18 171.537 16.18ZM171.537 14.58C172.19 14.58 172.803 14.4267 173.377 14.12C173.95 13.8133 174.41 13.3533 174.757 12.74C175.117 12.1267 175.297 11.38 175.297 10.5C175.297 9.62 175.123 8.87333 174.777 8.26C174.43 7.64667 173.977 7.19333 173.417 6.9C172.857 6.59333 172.25 6.44 171.597 6.44C170.93 6.44 170.317 6.59333 169.757 6.9C169.21 7.19333 168.77 7.64667 168.437 8.26C168.103 8.87333 167.937 9.62 167.937 10.5C167.937 11.3933 168.097 12.1467 168.417 12.76C168.75 13.3733 169.19 13.8333 169.737 14.14C170.283 14.4333 170.883 14.58 171.537 14.58ZM181.37 6.82C181.69 6.19333 182.143 5.70667 182.73 5.36C183.33 5.01333 184.056 4.84 184.91 4.84V6.72H184.43C182.39 6.72 181.37 7.82667 181.37 10.04V16H179.55V5.04H181.37V6.82ZM196.223 16.18C195.383 16.18 194.629 16.04 193.963 15.76C193.296 15.4667 192.769 15.0667 192.383 14.56C191.996 14.04 191.783 13.4467 191.743 12.78H193.623C193.676 13.3267 193.929 13.7733 194.383 14.12C194.849 14.4667 195.456 14.64 196.203 14.64C196.896 14.64 197.443 14.4867 197.843 14.18C198.243 13.8733 198.443 13.4867 198.443 13.02C198.443 12.54 198.229 12.1867 197.803 11.96C197.376 11.72 196.716 11.4867 195.823 11.26C195.009 11.0467 194.343 10.8333 193.823 10.62C193.316 10.3933 192.876 10.0667 192.503 9.64C192.143 9.2 191.963 8.62667 191.963 7.92C191.963 7.36 192.129 6.84667 192.463 6.38C192.796 5.91333 193.269 5.54667 193.883 5.28C194.496 5 195.196 4.86 195.983 4.86C197.196 4.86 198.176 5.16667 198.923 5.78C199.669 6.39333 200.069 7.23333 200.123 8.3H198.303C198.263 7.72667 198.029 7.26667 197.603 6.92C197.189 6.57333 196.629 6.4 195.923 6.4C195.269 6.4 194.749 6.54 194.363 6.82C193.976 7.1 193.783 7.46667 193.783 7.92C193.783 8.28 193.896 8.58 194.123 8.82C194.363 9.04667 194.656 9.23333 195.003 9.38C195.363 9.51333 195.856 9.66667 196.483 9.84C197.269 10.0533 197.909 10.2667 198.403 10.48C198.896 10.68 199.316 10.9867 199.663 11.4C200.023 11.8133 200.209 12.3533 200.223 13.02C200.223 13.62 200.056 14.16 199.723 14.64C199.389 15.12 198.916 15.5 198.303 15.78C197.703 16.0467 197.009 16.18 196.223 16.18ZM203.732 3.26C203.385 3.26 203.092 3.14 202.852 2.9C202.612 2.66 202.492 2.36667 202.492 2.02C202.492 1.67333 202.612 1.38 202.852 1.14C203.092 0.899999 203.385 0.779999 203.732 0.779999C204.065 0.779999 204.345 0.899999 204.572 1.14C204.812 1.38 204.932 1.67333 204.932 2.02C204.932 2.36667 204.812 2.66 204.572 2.9C204.345 3.14 204.065 3.26 203.732 3.26ZM204.612 5.04V16H202.792V5.04H204.612ZM209.934 6.54V13C209.934 13.5333 210.047 13.9133 210.274 14.14C210.5 14.3533 210.894 14.46 211.454 14.46H212.794V16H211.154C210.14 16 209.38 15.7667 208.874 15.3C208.367 14.8333 208.114 14.0667 208.114 13V6.54H206.694V5.04H208.114V2.28H209.934V5.04H212.794V6.54H209.934ZM219.651 10.48C219.651 9.36 219.878 8.38 220.331 7.54C220.784 6.68667 221.404 6.02667 222.191 5.56C222.991 5.09333 223.878 4.86 224.851 4.86C225.811 4.86 226.644 5.06667 227.351 5.48C228.058 5.89333 228.584 6.41333 228.931 7.04V5.04H230.771V16H228.931V13.96C228.571 14.6 228.031 15.1333 227.311 15.56C226.604 15.9733 225.778 16.18 224.831 16.18C223.858 16.18 222.978 15.94 222.191 15.46C221.404 14.98 220.784 14.3067 220.331 13.44C219.878 12.5733 219.651 11.5867 219.651 10.48ZM228.931 10.5C228.931 9.67333 228.764 8.95333 228.431 8.34C228.098 7.72667 227.644 7.26 227.071 6.94C226.511 6.60667 225.891 6.44 225.211 6.44C224.531 6.44 223.911 6.6 223.351 6.92C222.791 7.24 222.344 7.70667 222.011 8.32C221.678 8.93333 221.511 9.65333 221.511 10.48C221.511 11.32 221.678 12.0533 222.011 12.68C222.344 13.2933 222.791 13.7667 223.351 14.1C223.911 14.42 224.531 14.58 225.211 14.58C225.891 14.58 226.511 14.42 227.071 14.1C227.644 13.7667 228.098 13.2933 228.431 12.68C228.764 12.0533 228.931 11.3267 228.931 10.5ZM247.027 4.84C247.88 4.84 248.64 5.02 249.307 5.38C249.973 5.72667 250.5 6.25333 250.887 6.96C251.273 7.66667 251.467 8.52667 251.467 9.54V16H249.667V9.8C249.667 8.70667 249.393 7.87333 248.847 7.3C248.313 6.71333 247.587 6.42 246.667 6.42C245.72 6.42 244.967 6.72667 244.407 7.34C243.847 7.94 243.567 8.81333 243.567 9.96V16H241.767V9.8C241.767 8.70667 241.493 7.87333 240.947 7.3C240.413 6.71333 239.687 6.42 238.767 6.42C237.82 6.42 237.067 6.72667 236.507 7.34C235.947 7.94 235.667 8.81333 235.667 9.96V16H233.847V5.04H235.667V6.62C236.027 6.04667 236.507 5.60667 237.107 5.3C237.72 4.99333 238.393 4.84 239.127 4.84C240.047 4.84 240.86 5.04667 241.567 5.46C242.273 5.87333 242.8 6.48 243.147 7.28C243.453 6.50667 243.96 5.90667 244.667 5.48C245.373 5.05333 246.16 4.84 247.027 4.84ZM264.452 10.1C264.452 10.4467 264.432 10.8133 264.392 11.2H255.632C255.699 12.28 256.065 13.1267 256.732 13.74C257.412 14.34 258.232 14.64 259.192 14.64C259.979 14.64 260.632 14.46 261.152 14.1C261.685 13.7267 262.059 13.2333 262.272 12.62H264.232C263.939 13.6733 263.352 14.5333 262.472 15.2C261.592 15.8533 260.499 16.18 259.192 16.18C258.152 16.18 257.219 15.9467 256.392 15.48C255.579 15.0133 254.939 14.3533 254.472 13.5C254.005 12.6333 253.772 11.6333 253.772 10.5C253.772 9.36667 253.999 8.37333 254.452 7.52C254.905 6.66667 255.539 6.01333 256.352 5.56C257.179 5.09333 258.125 4.86 259.192 4.86C260.232 4.86 261.152 5.08667 261.952 5.54C262.752 5.99333 263.365 6.62 263.792 7.42C264.232 8.20667 264.452 9.1 264.452 10.1ZM262.572 9.72C262.572 9.02667 262.419 8.43333 262.112 7.94C261.805 7.43333 261.385 7.05333 260.852 6.8C260.332 6.53333 259.752 6.4 259.112 6.4C258.192 6.4 257.405 6.69333 256.752 7.28C256.112 7.86667 255.745 8.68 255.652 9.72H262.572ZM269.074 6.54V13C269.074 13.5333 269.188 13.9133 269.414 14.14C269.641 14.3533 270.034 14.46 270.594 14.46H271.934V16H270.294C269.281 16 268.521 15.7667 268.014 15.3C267.508 14.8333 267.254 14.0667 267.254 13V6.54H265.834V5.04H267.254V2.28H269.074V5.04H271.934V6.54H269.074ZM276.02 13.48L273.78 18.86H272.56L274.02 13.48H276.02ZM282.756 10.5C282.756 9.36667 282.983 8.38 283.436 7.54C283.89 6.68667 284.516 6.02667 285.316 5.56C286.13 5.09333 287.056 4.86 288.096 4.86C289.443 4.86 290.55 5.18667 291.416 5.84C292.296 6.49333 292.876 7.4 293.156 8.56H291.196C291.01 7.89333 290.643 7.36667 290.096 6.98C289.563 6.59333 288.896 6.4 288.096 6.4C287.056 6.4 286.216 6.76 285.576 7.48C284.936 8.18667 284.616 9.19333 284.616 10.5C284.616 11.82 284.936 12.84 285.576 13.56C286.216 14.28 287.056 14.64 288.096 14.64C288.896 14.64 289.563 14.4533 290.096 14.08C290.63 13.7067 290.996 13.1733 291.196 12.48H293.156C292.863 13.6 292.276 14.5 291.396 15.18C290.516 15.8467 289.416 16.18 288.096 16.18C287.056 16.18 286.13 15.9467 285.316 15.48C284.516 15.0133 283.89 14.3533 283.436 13.5C282.983 12.6467 282.756 11.6467 282.756 10.5ZM300.365 16.18C299.338 16.18 298.405 15.9467 297.565 15.48C296.738 15.0133 296.085 14.3533 295.605 13.5C295.138 12.6333 294.905 11.6333 294.905 10.5C294.905 9.38 295.145 8.39333 295.625 7.54C296.118 6.67333 296.785 6.01333 297.625 5.56C298.465 5.09333 299.405 4.86 300.445 4.86C301.485 4.86 302.425 5.09333 303.265 5.56C304.105 6.01333 304.765 6.66667 305.245 7.52C305.738 8.37333 305.985 9.36667 305.985 10.5C305.985 11.6333 305.732 12.6333 305.225 13.5C304.732 14.3533 304.058 15.0133 303.205 15.48C302.352 15.9467 301.405 16.18 300.365 16.18ZM300.365 14.58C301.018 14.58 301.632 14.4267 302.205 14.12C302.778 13.8133 303.238 13.3533 303.585 12.74C303.945 12.1267 304.125 11.38 304.125 10.5C304.125 9.62 303.952 8.87333 303.605 8.26C303.258 7.64667 302.805 7.19333 302.245 6.9C301.685 6.59333 301.078 6.44 300.425 6.44C299.758 6.44 299.145 6.59333 298.585 6.9C298.038 7.19333 297.598 7.64667 297.265 8.26C296.932 8.87333 296.765 9.62 296.765 10.5C296.765 11.3933 296.925 12.1467 297.245 12.76C297.578 13.3733 298.018 13.8333 298.565 14.14C299.112 14.4333 299.712 14.58 300.365 14.58ZM313.718 4.84C315.051 4.84 316.131 5.24667 316.958 6.06C317.785 6.86 318.198 8.02 318.198 9.54V16H316.398V9.8C316.398 8.70667 316.125 7.87333 315.578 7.3C315.031 6.71333 314.285 6.42 313.338 6.42C312.378 6.42 311.611 6.72 311.038 7.32C310.478 7.92 310.198 8.79333 310.198 9.94V16H308.378V5.04H310.198V6.6C310.558 6.04 311.045 5.60667 311.658 5.3C312.285 4.99333 312.971 4.84 313.718 4.84ZM325.051 16.18C324.211 16.18 323.458 16.04 322.791 15.76C322.124 15.4667 321.598 15.0667 321.211 14.56C320.824 14.04 320.611 13.4467 320.571 12.78H322.451C322.504 13.3267 322.758 13.7733 323.211 14.12C323.678 14.4667 324.284 14.64 325.031 14.64C325.724 14.64 326.271 14.4867 326.671 14.18C327.071 13.8733 327.271 13.4867 327.271 13.02C327.271 12.54 327.058 12.1867 326.631 11.96C326.204 11.72 325.544 11.4867 324.651 11.26C323.838 11.0467 323.171 10.8333 322.651 10.62C322.144 10.3933 321.704 10.0667 321.331 9.64C320.971 9.2 320.791 8.62667 320.791 7.92C320.791 7.36 320.958 6.84667 321.291 6.38C321.624 5.91333 322.098 5.54667 322.711 5.28C323.324 5 324.024 4.86 324.811 4.86C326.024 4.86 327.004 5.16667 327.751 5.78C328.498 6.39333 328.898 7.23333 328.951 8.3H327.131C327.091 7.72667 326.858 7.26667 326.431 6.92C326.018 6.57333 325.458 6.4 324.751 6.4C324.098 6.4 323.578 6.54 323.191 6.82C322.804 7.1 322.611 7.46667 322.611 7.92C322.611 8.28 322.724 8.58 322.951 8.82C323.191 9.04667 323.484 9.23333 323.831 9.38C324.191 9.51333 324.684 9.66667 325.311 9.84C326.098 10.0533 326.738 10.2667 327.231 10.48C327.724 10.68 328.144 10.9867 328.491 11.4C328.851 11.8133 329.038 12.3533 329.051 13.02C329.051 13.62 328.884 14.16 328.551 14.64C328.218 15.12 327.744 15.5 327.131 15.78C326.531 16.0467 325.838 16.18 325.051 16.18ZM341.62 10.1C341.62 10.4467 341.6 10.8133 341.56 11.2H332.8C332.867 12.28 333.233 13.1267 333.9 13.74C334.58 14.34 335.4 14.64 336.36 14.64C337.147 14.64 337.8 14.46 338.32 14.1C338.853 13.7267 339.227 13.2333 339.44 12.62H341.4C341.107 13.6733 340.52 14.5333 339.64 15.2C338.76 15.8533 337.667 16.18 336.36 16.18C335.32 16.18 334.387 15.9467 333.56 15.48C332.747 15.0133 332.107 14.3533 331.64 13.5C331.173 12.6333 330.94 11.6333 330.94 10.5C330.94 9.36667 331.167 8.37333 331.62 7.52C332.073 6.66667 332.707 6.01333 333.52 5.56C334.347 5.09333 335.293 4.86 336.36 4.86C337.4 4.86 338.32 5.08667 339.12 5.54C339.92 5.99333 340.533 6.62 340.96 7.42C341.4 8.20667 341.62 9.1 341.62 10.1ZM339.74 9.72C339.74 9.02667 339.587 8.43333 339.28 7.94C338.973 7.43333 338.553 7.05333 338.02 6.8C337.5 6.53333 336.92 6.4 336.28 6.4C335.36 6.4 334.573 6.69333 333.92 7.28C333.28 7.86667 332.913 8.68 332.82 9.72H339.74ZM343.342 10.5C343.342 9.36667 343.569 8.38 344.022 7.54C344.476 6.68667 345.102 6.02667 345.902 5.56C346.716 5.09333 347.642 4.86 348.682 4.86C350.029 4.86 351.136 5.18667 352.002 5.84C352.882 6.49333 353.462 7.4 353.742 8.56H351.782C351.596 7.89333 351.229 7.36667 350.682 6.98C350.149 6.59333 349.482 6.4 348.682 6.4C347.642 6.4 346.802 6.76 346.162 7.48C345.522 8.18667 345.202 9.19333 345.202 10.5C345.202 11.82 345.522 12.84 346.162 13.56C346.802 14.28 347.642 14.64 348.682 14.64C349.482 14.64 350.149 14.4533 350.682 14.08C351.216 13.7067 351.582 13.1733 351.782 12.48H353.742C353.449 13.6 352.862 14.5 351.982 15.18C351.102 15.8467 350.002 16.18 348.682 16.18C347.642 16.18 346.716 15.9467 345.902 15.48C345.102 15.0133 344.476 14.3533 344.022 13.5C343.569 12.6467 343.342 11.6467 343.342 10.5ZM358.391 6.54V13C358.391 13.5333 358.504 13.9133 358.731 14.14C358.958 14.3533 359.351 14.46 359.911 14.46H361.251V16H359.611C358.598 16 357.838 15.7667 357.331 15.3C356.824 14.8333 356.571 14.0667 356.571 13V6.54H355.151V5.04H356.571V2.28H358.391V5.04H361.251V6.54H358.391ZM373.456 10.1C373.456 10.4467 373.436 10.8133 373.396 11.2H364.636C364.703 12.28 365.069 13.1267 365.736 13.74C366.416 14.34 367.236 14.64 368.196 14.64C368.983 14.64 369.636 14.46 370.156 14.1C370.689 13.7267 371.063 13.2333 371.276 12.62H373.236C372.943 13.6733 372.356 14.5333 371.476 15.2C370.596 15.8533 369.503 16.18 368.196 16.18C367.156 16.18 366.223 15.9467 365.396 15.48C364.583 15.0133 363.943 14.3533 363.476 13.5C363.009 12.6333 362.776 11.6333 362.776 10.5C362.776 9.36667 363.003 8.37333 363.456 7.52C363.909 6.66667 364.543 6.01333 365.356 5.56C366.183 5.09333 367.129 4.86 368.196 4.86C369.236 4.86 370.156 5.08667 370.956 5.54C371.756 5.99333 372.369 6.62 372.796 7.42C373.236 8.20667 373.456 9.1 373.456 10.1ZM371.576 9.72C371.576 9.02667 371.423 8.43333 371.116 7.94C370.809 7.43333 370.389 7.05333 369.856 6.8C369.336 6.53333 368.756 6.4 368.116 6.4C367.196 6.4 366.409 6.69333 365.756 7.28C365.116 7.86667 364.749 8.68 364.656 9.72H371.576ZM378.078 6.54V13C378.078 13.5333 378.192 13.9133 378.418 14.14C378.645 14.3533 379.038 14.46 379.598 14.46H380.938V16H379.298C378.285 16 377.525 15.7667 377.018 15.3C376.512 14.8333 376.258 14.0667 376.258 13V6.54H374.838V5.04H376.258V2.28H378.078V5.04H380.938V6.54H378.078ZM392.864 5.04V16H391.044V14.38C390.697 14.94 390.21 15.38 389.584 15.7C388.97 16.0067 388.29 16.16 387.544 16.16C386.69 16.16 385.924 15.9867 385.244 15.64C384.564 15.28 384.024 14.7467 383.624 14.04C383.237 13.3333 383.044 12.4733 383.044 11.46V5.04H384.844V11.22C384.844 12.3 385.117 13.1333 385.664 13.72C386.21 14.2933 386.957 14.58 387.904 14.58C388.877 14.58 389.644 14.28 390.204 13.68C390.764 13.08 391.044 12.2067 391.044 11.06V5.04H392.864ZM397.756 6.82C398.076 6.19333 398.53 5.70667 399.116 5.36C399.716 5.01333 400.443 4.84 401.296 4.84V6.72H400.816C398.776 6.72 397.756 7.82667 397.756 10.04V16H395.936V5.04H397.756V6.82ZM7.06313 40.48C7.06313 39.36 7.28979 38.38 7.74313 37.54C8.19646 36.6867 8.81646 36.0267 9.60313 35.56C10.4031 35.0933 11.2898 34.86 12.2631 34.86C13.2231 34.86 14.0565 35.0667 14.7631 35.48C15.4698 35.8933 15.9965 36.4133 16.3431 37.04V35.04H18.1831V46H16.3431V43.96C15.9831 44.6 15.4431 45.1333 14.7231 45.56C14.0165 45.9733 13.1898 46.18 12.2431 46.18C11.2698 46.18 10.3898 45.94 9.60313 45.46C8.81646 44.98 8.19646 44.3067 7.74313 43.44C7.28979 42.5733 7.06313 41.5867 7.06313 40.48ZM16.3431 40.5C16.3431 39.6733 16.1765 38.9533 15.8431 38.34C15.5098 37.7267 15.0565 37.26 14.4831 36.94C13.9231 36.6067 13.3031 36.44 12.6231 36.44C11.9431 36.44 11.3231 36.6 10.7631 36.92C10.2031 37.24 9.75646 37.7067 9.42313 38.32C9.08979 38.9333 8.92313 39.6533 8.92313 40.48C8.92313 41.32 9.08979 42.0533 9.42313 42.68C9.75646 43.2933 10.2031 43.7667 10.7631 44.1C11.3231 44.42 11.9431 44.58 12.6231 44.58C13.3031 44.58 13.9231 44.42 14.4831 44.1C15.0565 43.7667 15.5098 43.2933 15.8431 42.68C16.1765 42.0533 16.3431 41.3267 16.3431 40.5ZM20.5788 40.48C20.5788 39.36 20.8054 38.38 21.2588 37.54C21.7121 36.6867 22.3321 36.0267 23.1188 35.56C23.9188 35.0933 24.8121 34.86 25.7988 34.86C26.6521 34.86 27.4454 35.06 28.1788 35.46C28.9121 35.8467 29.4721 36.36 29.8588 37V31.2H31.6988V46H29.8588V43.94C29.4988 44.5933 28.9654 45.1333 28.2588 45.56C27.5521 45.9733 26.7254 46.18 25.7788 46.18C24.8054 46.18 23.9188 45.94 23.1188 45.46C22.3321 44.98 21.7121 44.3067 21.2588 43.44C20.8054 42.5733 20.5788 41.5867 20.5788 40.48ZM29.8588 40.5C29.8588 39.6733 29.6921 38.9533 29.3588 38.34C29.0254 37.7267 28.5721 37.26 27.9988 36.94C27.4388 36.6067 26.8188 36.44 26.1388 36.44C25.4588 36.44 24.8388 36.6 24.2788 36.92C23.7188 37.24 23.2721 37.7067 22.9388 38.32C22.6054 38.9333 22.4388 39.6533 22.4388 40.48C22.4388 41.32 22.6054 42.0533 22.9388 42.68C23.2721 43.2933 23.7188 43.7667 24.2788 44.1C24.8388 44.42 25.4588 44.58 26.1388 44.58C26.8188 44.58 27.4388 44.42 27.9988 44.1C28.5721 43.7667 29.0254 43.2933 29.3588 42.68C29.6921 42.0533 29.8588 41.3267 29.8588 40.5ZM35.7144 33.26C35.3677 33.26 35.0744 33.14 34.8344 32.9C34.5944 32.66 34.4744 32.3667 34.4744 32.02C34.4744 31.6733 34.5944 31.38 34.8344 31.14C35.0744 30.9 35.3677 30.78 35.7144 30.78C36.0477 30.78 36.3277 30.9 36.5544 31.14C36.7944 31.38 36.9144 31.6733 36.9144 32.02C36.9144 32.3667 36.7944 32.66 36.5544 32.9C36.3277 33.14 36.0477 33.26 35.7144 33.26ZM36.5944 35.04V46H34.7744V35.04H36.5944ZM41.5163 37.06C41.8763 36.4333 42.4096 35.9133 43.1163 35.5C43.8363 35.0733 44.6696 34.86 45.6163 34.86C46.5896 34.86 47.4696 35.0933 48.2562 35.56C49.0562 36.0267 49.6829 36.6867 50.1363 37.54C50.5896 38.38 50.8163 39.36 50.8163 40.48C50.8163 41.5867 50.5896 42.5733 50.1363 43.44C49.6829 44.3067 49.0562 44.98 48.2562 45.46C47.4696 45.94 46.5896 46.18 45.6163 46.18C44.6829 46.18 43.8563 45.9733 43.1363 45.56C42.4296 45.1333 41.8896 44.6067 41.5163 43.98V51.2H39.6963V35.04H41.5163V37.06ZM48.9563 40.48C48.9563 39.6533 48.7896 38.9333 48.4563 38.32C48.1229 37.7067 47.6696 37.24 47.0963 36.92C46.5363 36.6 45.9163 36.44 45.2363 36.44C44.5696 36.44 43.9496 36.6067 43.3763 36.94C42.8163 37.26 42.3629 37.7333 42.0163 38.36C41.6829 38.9733 41.5163 39.6867 41.5163 40.5C41.5163 41.3267 41.6829 42.0533 42.0163 42.68C42.3629 43.2933 42.8163 43.7667 43.3763 44.1C43.9496 44.42 44.5696 44.58 45.2363 44.58C45.9163 44.58 46.5363 44.42 47.0963 44.1C47.6696 43.7667 48.1229 43.2933 48.4563 42.68C48.7896 42.0533 48.9563 41.32 48.9563 40.48ZM54.1519 33.26C53.8052 33.26 53.5119 33.14 53.2719 32.9C53.0319 32.66 52.9119 32.3667 52.9119 32.02C52.9119 31.6733 53.0319 31.38 53.2719 31.14C53.5119 30.9 53.8052 30.78 54.1519 30.78C54.4852 30.78 54.7652 30.9 54.9919 31.14C55.2319 31.38 55.3519 31.6733 55.3519 32.02C55.3519 32.3667 55.2319 32.66 54.9919 32.9C54.7652 33.14 54.4852 33.26 54.1519 33.26ZM55.0319 35.04V46H53.2119V35.04H55.0319ZM62.0138 46.18C61.1738 46.18 60.4204 46.04 59.7538 45.76C59.0871 45.4667 58.5604 45.0667 58.1738 44.56C57.7871 44.04 57.5738 43.4467 57.5338 42.78H59.4138C59.4671 43.3267 59.7204 43.7733 60.1738 44.12C60.6404 44.4667 61.2471 44.64 61.9938 44.64C62.6871 44.64 63.2338 44.4867 63.6338 44.18C64.0338 43.8733 64.2338 43.4867 64.2338 43.02C64.2338 42.54 64.0204 42.1867 63.5938 41.96C63.1671 41.72 62.5071 41.4867 61.6138 41.26C60.8004 41.0467 60.1338 40.8333 59.6138 40.62C59.1071 40.3933 58.6671 40.0667 58.2938 39.64C57.9338 39.2 57.7538 38.6267 57.7538 37.92C57.7538 37.36 57.9204 36.8467 58.2538 36.38C58.5871 35.9133 59.0604 35.5467 59.6738 35.28C60.2871 35 60.9871 34.86 61.7738 34.86C62.9871 34.86 63.9671 35.1667 64.7138 35.78C65.4604 36.3933 65.8604 37.2333 65.9138 38.3H64.0938C64.0538 37.7267 63.8204 37.2667 63.3938 36.92C62.9804 36.5733 62.4204 36.4 61.7138 36.4C61.0604 36.4 60.5404 36.54 60.1538 36.82C59.7671 37.1 59.5738 37.4667 59.5738 37.92C59.5738 38.28 59.6871 38.58 59.9138 38.82C60.1538 39.0467 60.4471 39.2333 60.7938 39.38C61.1538 39.5133 61.6471 39.6667 62.2738 39.84C63.0604 40.0533 63.7004 40.2667 64.1938 40.48C64.6871 40.68 65.1071 40.9867 65.4538 41.4C65.8138 41.8133 66.0004 42.3533 66.0138 43.02C66.0138 43.62 65.8471 44.16 65.5138 44.64C65.1804 45.12 64.7071 45.5 64.0938 45.78C63.4938 46.0467 62.8004 46.18 62.0138 46.18ZM67.903 40.5C67.903 39.3667 68.1296 38.38 68.583 37.54C69.0363 36.6867 69.663 36.0267 70.463 35.56C71.2763 35.0933 72.203 34.86 73.243 34.86C74.5896 34.86 75.6963 35.1867 76.563 35.84C77.443 36.4933 78.023 37.4 78.303 38.56H76.343C76.1563 37.8933 75.7896 37.3667 75.243 36.98C74.7096 36.5933 74.043 36.4 73.243 36.4C72.203 36.4 71.363 36.76 70.723 37.48C70.083 38.1867 69.763 39.1933 69.763 40.5C69.763 41.82 70.083 42.84 70.723 43.56C71.363 44.28 72.203 44.64 73.243 44.64C74.043 44.64 74.7096 44.4533 75.243 44.08C75.7763 43.7067 76.143 43.1733 76.343 42.48H78.303C78.0096 43.6 77.423 44.5 76.543 45.18C75.663 45.8467 74.563 46.18 73.243 46.18C72.203 46.18 71.2763 45.9467 70.463 45.48C69.663 45.0133 69.0363 44.3533 68.583 43.5C68.1296 42.6467 67.903 41.6467 67.903 40.5ZM81.6714 33.26C81.3247 33.26 81.0314 33.14 80.7914 32.9C80.5514 32.66 80.4314 32.3667 80.4314 32.02C80.4314 31.6733 80.5514 31.38 80.7914 31.14C81.0314 30.9 81.3247 30.78 81.6714 30.78C82.0047 30.78 82.2847 30.9 82.5114 31.14C82.7514 31.38 82.8714 31.6733 82.8714 32.02C82.8714 32.3667 82.7514 32.66 82.5114 32.9C82.2847 33.14 82.0047 33.26 81.6714 33.26ZM82.5514 35.04V46H80.7314V35.04H82.5514ZM90.9933 34.84C92.3266 34.84 93.4066 35.2467 94.2333 36.06C95.0599 36.86 95.4733 38.02 95.4733 39.54V46H93.6733V39.8C93.6733 38.7067 93.3999 37.8733 92.8533 37.3C92.3066 36.7133 91.5599 36.42 90.6133 36.42C89.6533 36.42 88.8866 36.72 88.3133 37.32C87.7533 37.92 87.4733 38.7933 87.4733 39.94V46H85.6533V35.04H87.4733V36.6C87.8333 36.04 88.3199 35.6067 88.9333 35.3C89.5599 34.9933 90.2466 34.84 90.9933 34.84ZM102.966 34.86C103.913 34.86 104.74 35.0667 105.446 35.48C106.166 35.8933 106.7 36.4133 107.046 37.04V35.04H108.886V46.24C108.886 47.24 108.673 48.1267 108.246 48.9C107.82 49.6867 107.206 50.3 106.406 50.74C105.62 51.18 104.7 51.4 103.646 51.4C102.206 51.4 101.006 51.06 100.046 50.38C99.0863 49.7 98.5196 48.7733 98.3463 47.6H100.146C100.346 48.2667 100.76 48.8 101.386 49.2C102.013 49.6133 102.766 49.82 103.646 49.82C104.646 49.82 105.46 49.5067 106.086 48.88C106.726 48.2533 107.046 47.3733 107.046 46.24V43.94C106.686 44.58 106.153 45.1133 105.446 45.54C104.74 45.9667 103.913 46.18 102.966 46.18C101.993 46.18 101.106 45.94 100.306 45.46C99.5196 44.98 98.8996 44.3067 98.4463 43.44C97.9929 42.5733 97.7663 41.5867 97.7663 40.48C97.7663 39.36 97.9929 38.38 98.4463 37.54C98.8996 36.6867 99.5196 36.0267 100.306 35.56C101.106 35.0933 101.993 34.86 102.966 34.86ZM107.046 40.5C107.046 39.6733 106.88 38.9533 106.546 38.34C106.213 37.7267 105.76 37.26 105.186 36.94C104.626 36.6067 104.006 36.44 103.326 36.44C102.646 36.44 102.026 36.6 101.466 36.92C100.906 37.24 100.46 37.7067 100.126 38.32C99.7929 38.9333 99.6263 39.6533 99.6263 40.48C99.6263 41.32 99.7929 42.0533 100.126 42.68C100.46 43.2933 100.906 43.7667 101.466 44.1C102.026 44.42 102.646 44.58 103.326 44.58C104.006 44.58 104.626 44.42 105.186 44.1C105.76 43.7667 106.213 43.2933 106.546 42.68C106.88 42.0533 107.046 41.3267 107.046 40.5ZM127.294 40.1C127.294 40.4467 127.274 40.8133 127.234 41.2H118.474C118.541 42.28 118.907 43.1267 119.574 43.74C120.254 44.34 121.074 44.64 122.034 44.64C122.821 44.64 123.474 44.46 123.994 44.1C124.527 43.7267 124.901 43.2333 125.114 42.62H127.074C126.781 43.6733 126.194 44.5333 125.314 45.2C124.434 45.8533 123.341 46.18 122.034 46.18C120.994 46.18 120.061 45.9467 119.234 45.48C118.421 45.0133 117.781 44.3533 117.314 43.5C116.847 42.6333 116.614 41.6333 116.614 40.5C116.614 39.3667 116.841 38.3733 117.294 37.52C117.747 36.6667 118.381 36.0133 119.194 35.56C120.021 35.0933 120.967 34.86 122.034 34.86C123.074 34.86 123.994 35.0867 124.794 35.54C125.594 35.9933 126.207 36.62 126.634 37.42C127.074 38.2067 127.294 39.1 127.294 40.1ZM125.414 39.72C125.414 39.0267 125.261 38.4333 124.954 37.94C124.647 37.4333 124.227 37.0533 123.694 36.8C123.174 36.5333 122.594 36.4 121.954 36.4C121.034 36.4 120.247 36.6933 119.594 37.28C118.954 37.8667 118.587 38.68 118.494 39.72H125.414ZM131.516 31.2V46H129.696V31.2H131.516ZM135.558 33.26C135.211 33.26 134.918 33.14 134.678 32.9C134.438 32.66 134.318 32.3667 134.318 32.02C134.318 31.6733 134.438 31.38 134.678 31.14C134.918 30.9 135.211 30.78 135.558 30.78C135.891 30.78 136.171 30.9 136.398 31.14C136.638 31.38 136.758 31.6733 136.758 32.02C136.758 32.3667 136.638 32.66 136.398 32.9C136.171 33.14 135.891 33.26 135.558 33.26ZM136.438 35.04V46H134.618V35.04H136.438ZM141.76 36.54V43C141.76 43.5333 141.873 43.9133 142.1 44.14C142.327 44.3533 142.72 44.46 143.28 44.46H144.62V46H142.98C141.967 46 141.207 45.7667 140.7 45.3C140.193 44.8333 139.94 44.0667 139.94 43V36.54H138.52V35.04H139.94V32.28H141.76V35.04H144.62V36.54H141.76ZM148.705 43.48L146.465 48.86H145.245L146.705 43.48H148.705ZM160.002 46.18C159.162 46.18 158.409 46.04 157.742 45.76C157.075 45.4667 156.549 45.0667 156.162 44.56C155.775 44.04 155.562 43.4467 155.522 42.78H157.402C157.455 43.3267 157.709 43.7733 158.162 44.12C158.629 44.4667 159.235 44.64 159.982 44.64C160.675 44.64 161.222 44.4867 161.622 44.18C162.022 43.8733 162.222 43.4867 162.222 43.02C162.222 42.54 162.009 42.1867 161.582 41.96C161.155 41.72 160.495 41.4867 159.602 41.26C158.789 41.0467 158.122 40.8333 157.602 40.62C157.095 40.3933 156.655 40.0667 156.282 39.64C155.922 39.2 155.742 38.6267 155.742 37.92C155.742 37.36 155.909 36.8467 156.242 36.38C156.575 35.9133 157.049 35.5467 157.662 35.28C158.275 35 158.975 34.86 159.762 34.86C160.975 34.86 161.955 35.1667 162.702 35.78C163.449 36.3933 163.849 37.2333 163.902 38.3H162.082C162.042 37.7267 161.809 37.2667 161.382 36.92C160.969 36.5733 160.409 36.4 159.702 36.4C159.049 36.4 158.529 36.54 158.142 36.82C157.755 37.1 157.562 37.4667 157.562 37.92C157.562 38.28 157.675 38.58 157.902 38.82C158.142 39.0467 158.435 39.2333 158.782 39.38C159.142 39.5133 159.635 39.6667 160.262 39.84C161.049 40.0533 161.689 40.2667 162.182 40.48C162.675 40.68 163.095 40.9867 163.442 41.4C163.802 41.8133 163.989 42.3533 164.002 43.02C164.002 43.62 163.835 44.16 163.502 44.64C163.169 45.12 162.695 45.5 162.082 45.78C161.482 46.0467 160.789 46.18 160.002 46.18ZM176.571 40.1C176.571 40.4467 176.551 40.8133 176.511 41.2H167.751C167.818 42.28 168.185 43.1267 168.851 43.74C169.531 44.34 170.351 44.64 171.311 44.64C172.098 44.64 172.751 44.46 173.271 44.1C173.805 43.7267 174.178 43.2333 174.391 42.62H176.351C176.058 43.6733 175.471 44.5333 174.591 45.2C173.711 45.8533 172.618 46.18 171.311 46.18C170.271 46.18 169.338 45.9467 168.511 45.48C167.698 45.0133 167.058 44.3533 166.591 43.5C166.125 42.6333 165.891 41.6333 165.891 40.5C165.891 39.3667 166.118 38.3733 166.571 37.52C167.025 36.6667 167.658 36.0133 168.471 35.56C169.298 35.0933 170.245 34.86 171.311 34.86C172.351 34.86 173.271 35.0867 174.071 35.54C174.871 35.9933 175.485 36.62 175.911 37.42C176.351 38.2067 176.571 39.1 176.571 40.1ZM174.691 39.72C174.691 39.0267 174.538 38.4333 174.231 37.94C173.925 37.4333 173.505 37.0533 172.971 36.8C172.451 36.5333 171.871 36.4 171.231 36.4C170.311 36.4 169.525 36.6933 168.871 37.28C168.231 37.8667 167.865 38.68 167.771 39.72H174.691ZM178.294 40.48C178.294 39.36 178.52 38.38 178.974 37.54C179.427 36.6867 180.047 36.0267 180.834 35.56C181.634 35.0933 182.527 34.86 183.514 34.86C184.367 34.86 185.16 35.06 185.894 35.46C186.627 35.8467 187.187 36.36 187.574 37V31.2H189.414V46H187.574V43.94C187.214 44.5933 186.68 45.1333 185.974 45.56C185.267 45.9733 184.44 46.18 183.494 46.18C182.52 46.18 181.634 45.94 180.834 45.46C180.047 44.98 179.427 44.3067 178.974 43.44C178.52 42.5733 178.294 41.5867 178.294 40.48ZM187.574 40.5C187.574 39.6733 187.407 38.9533 187.074 38.34C186.74 37.7267 186.287 37.26 185.714 36.94C185.154 36.6067 184.534 36.44 183.854 36.44C183.174 36.44 182.554 36.6 181.994 36.92C181.434 37.24 180.987 37.7067 180.654 38.32C180.32 38.9333 180.154 39.6533 180.154 40.48C180.154 41.32 180.32 42.0533 180.654 42.68C180.987 43.2933 181.434 43.7667 181.994 44.1C182.554 44.42 183.174 44.58 183.854 44.58C184.534 44.58 185.154 44.42 185.714 44.1C186.287 43.7667 186.74 43.2933 187.074 42.68C187.407 42.0533 187.574 41.3267 187.574 40.5ZM197.141 40.48C197.141 39.36 197.368 38.38 197.821 37.54C198.275 36.6867 198.895 36.0267 199.681 35.56C200.481 35.0933 201.375 34.86 202.361 34.86C203.215 34.86 204.008 35.06 204.741 35.46C205.475 35.8467 206.035 36.36 206.421 37V31.2H208.261V46H206.421V43.94C206.061 44.5933 205.528 45.1333 204.821 45.56C204.115 45.9733 203.288 46.18 202.341 46.18C201.368 46.18 200.481 45.94 199.681 45.46C198.895 44.98 198.275 44.3067 197.821 43.44C197.368 42.5733 197.141 41.5867 197.141 40.48ZM206.421 40.5C206.421 39.6733 206.255 38.9533 205.921 38.34C205.588 37.7267 205.135 37.26 204.561 36.94C204.001 36.6067 203.381 36.44 202.701 36.44C202.021 36.44 201.401 36.6 200.841 36.92C200.281 37.24 199.835 37.7067 199.501 38.32C199.168 38.9333 199.001 39.6533 199.001 40.48C199.001 41.32 199.168 42.0533 199.501 42.68C199.835 43.2933 200.281 43.7667 200.841 44.1C201.401 44.42 202.021 44.58 202.701 44.58C203.381 44.58 204.001 44.42 204.561 44.1C205.135 43.7667 205.588 43.2933 205.921 42.68C206.255 42.0533 206.421 41.3267 206.421 40.5ZM216.117 46.18C215.09 46.18 214.157 45.9467 213.317 45.48C212.49 45.0133 211.837 44.3533 211.357 43.5C210.89 42.6333 210.657 41.6333 210.657 40.5C210.657 39.38 210.897 38.3933 211.377 37.54C211.87 36.6733 212.537 36.0133 213.377 35.56C214.217 35.0933 215.157 34.86 216.197 34.86C217.237 34.86 218.177 35.0933 219.017 35.56C219.857 36.0133 220.517 36.6667 220.997 37.52C221.49 38.3733 221.737 39.3667 221.737 40.5C221.737 41.6333 221.484 42.6333 220.977 43.5C220.484 44.3533 219.81 45.0133 218.957 45.48C218.104 45.9467 217.157 46.18 216.117 46.18ZM216.117 44.58C216.77 44.58 217.384 44.4267 217.957 44.12C218.53 43.8133 218.99 43.3533 219.337 42.74C219.697 42.1267 219.877 41.38 219.877 40.5C219.877 39.62 219.704 38.8733 219.357 38.26C219.01 37.6467 218.557 37.1933 217.997 36.9C217.437 36.5933 216.83 36.44 216.177 36.44C215.51 36.44 214.897 36.5933 214.337 36.9C213.79 37.1933 213.35 37.6467 213.017 38.26C212.684 38.8733 212.517 39.62 212.517 40.5C212.517 41.3933 212.677 42.1467 212.997 42.76C213.33 43.3733 213.77 43.8333 214.317 44.14C214.864 44.4333 215.464 44.58 216.117 44.58ZM239.462 40.1C239.462 40.4467 239.442 40.8133 239.402 41.2H230.642C230.709 42.28 231.075 43.1267 231.742 43.74C232.422 44.34 233.242 44.64 234.202 44.64C234.989 44.64 235.642 44.46 236.162 44.1C236.695 43.7267 237.069 43.2333 237.282 42.62H239.242C238.949 43.6733 238.362 44.5333 237.482 45.2C236.602 45.8533 235.509 46.18 234.202 46.18C233.162 46.18 232.229 45.9467 231.402 45.48C230.589 45.0133 229.949 44.3533 229.482 43.5C229.015 42.6333 228.782 41.6333 228.782 40.5C228.782 39.3667 229.009 38.3733 229.462 37.52C229.915 36.6667 230.549 36.0133 231.362 35.56C232.189 35.0933 233.135 34.86 234.202 34.86C235.242 34.86 236.162 35.0867 236.962 35.54C237.762 35.9933 238.375 36.62 238.802 37.42C239.242 38.2067 239.462 39.1 239.462 40.1ZM237.582 39.72C237.582 39.0267 237.429 38.4333 237.122 37.94C236.815 37.4333 236.395 37.0533 235.862 36.8C235.342 36.5333 234.762 36.4 234.122 36.4C233.202 36.4 232.415 36.6933 231.762 37.28C231.122 37.8667 230.755 38.68 230.662 39.72H237.582ZM242.804 33.26C242.458 33.26 242.164 33.14 241.924 32.9C241.684 32.66 241.564 32.3667 241.564 32.02C241.564 31.6733 241.684 31.38 241.924 31.14C242.164 30.9 242.458 30.78 242.804 30.78C243.138 30.78 243.418 30.9 243.644 31.14C243.884 31.38 244.004 31.6733 244.004 32.02C244.004 32.3667 243.884 32.66 243.644 32.9C243.418 33.14 243.138 33.26 242.804 33.26ZM243.684 35.04V46H241.864V35.04H243.684ZM256.506 35.04V46H254.686V44.38C254.339 44.94 253.853 45.38 253.226 45.7C252.613 46.0067 251.933 46.16 251.186 46.16C250.333 46.16 249.566 45.9867 248.886 45.64C248.206 45.28 247.666 44.7467 247.266 44.04C246.879 43.3333 246.686 42.4733 246.686 41.46V35.04H248.486V41.22C248.486 42.3 248.759 43.1333 249.306 43.72C249.853 44.2933 250.599 44.58 251.546 44.58C252.519 44.58 253.286 44.28 253.846 43.68C254.406 43.08 254.686 42.2067 254.686 41.06V35.04H256.506ZM263.459 46.18C262.619 46.18 261.866 46.04 261.199 45.76C260.532 45.4667 260.006 45.0667 259.619 44.56C259.232 44.04 259.019 43.4467 258.979 42.78H260.859C260.912 43.3267 261.166 43.7733 261.619 44.12C262.086 44.4667 262.692 44.64 263.439 44.64C264.132 44.64 264.679 44.4867 265.079 44.18C265.479 43.8733 265.679 43.4867 265.679 43.02C265.679 42.54 265.466 42.1867 265.039 41.96C264.612 41.72 263.952 41.4867 263.059 41.26C262.246 41.0467 261.579 40.8333 261.059 40.62C260.552 40.3933 260.112 40.0667 259.739 39.64C259.379 39.2 259.199 38.6267 259.199 37.92C259.199 37.36 259.366 36.8467 259.699 36.38C260.032 35.9133 260.506 35.5467 261.119 35.28C261.732 35 262.432 34.86 263.219 34.86C264.432 34.86 265.412 35.1667 266.159 35.78C266.906 36.3933 267.306 37.2333 267.359 38.3H265.539C265.499 37.7267 265.266 37.2667 264.839 36.92C264.426 36.5733 263.866 36.4 263.159 36.4C262.506 36.4 261.986 36.54 261.599 36.82C261.212 37.1 261.019 37.4667 261.019 37.92C261.019 38.28 261.132 38.58 261.359 38.82C261.599 39.0467 261.892 39.2333 262.239 39.38C262.599 39.5133 263.092 39.6667 263.719 39.84C264.506 40.0533 265.146 40.2667 265.639 40.48C266.132 40.68 266.552 40.9867 266.899 41.4C267.259 41.8133 267.446 42.3533 267.459 43.02C267.459 43.62 267.292 44.16 266.959 44.64C266.626 45.12 266.152 45.5 265.539 45.78C264.939 46.0467 264.246 46.18 263.459 46.18ZM283.208 34.84C284.062 34.84 284.822 35.02 285.488 35.38C286.155 35.7267 286.682 36.2533 287.068 36.96C287.455 37.6667 287.648 38.5267 287.648 39.54V46H285.848V39.8C285.848 38.7067 285.575 37.8733 285.028 37.3C284.495 36.7133 283.768 36.42 282.848 36.42C281.902 36.42 281.148 36.7267 280.588 37.34C280.028 37.94 279.748 38.8133 279.748 39.96V46H277.948V39.8C277.948 38.7067 277.675 37.8733 277.128 37.3C276.595 36.7133 275.868 36.42 274.948 36.42C274.002 36.42 273.248 36.7267 272.688 37.34C272.128 37.94 271.848 38.8133 271.848 39.96V46H270.028V35.04H271.848V36.62C272.208 36.0467 272.688 35.6067 273.288 35.3C273.902 34.9933 274.575 34.84 275.308 34.84C276.228 34.84 277.042 35.0467 277.748 35.46C278.455 35.8733 278.982 36.48 279.328 37.28C279.635 36.5067 280.142 35.9067 280.848 35.48C281.555 35.0533 282.342 34.84 283.208 34.84ZM295.414 46.18C294.387 46.18 293.454 45.9467 292.614 45.48C291.787 45.0133 291.134 44.3533 290.654 43.5C290.187 42.6333 289.954 41.6333 289.954 40.5C289.954 39.38 290.194 38.3933 290.674 37.54C291.167 36.6733 291.834 36.0133 292.674 35.56C293.514 35.0933 294.454 34.86 295.494 34.86C296.534 34.86 297.474 35.0933 298.314 35.56C299.154 36.0133 299.814 36.6667 300.294 37.52C300.787 38.3733 301.034 39.3667 301.034 40.5C301.034 41.6333 300.78 42.6333 300.274 43.5C299.78 44.3533 299.107 45.0133 298.254 45.48C297.4 45.9467 296.454 46.18 295.414 46.18ZM295.414 44.58C296.067 44.58 296.68 44.4267 297.254 44.12C297.827 43.8133 298.287 43.3533 298.634 42.74C298.994 42.1267 299.174 41.38 299.174 40.5C299.174 39.62 299 38.8733 298.654 38.26C298.307 37.6467 297.854 37.1933 297.294 36.9C296.734 36.5933 296.127 36.44 295.474 36.44C294.807 36.44 294.194 36.5933 293.634 36.9C293.087 37.1933 292.647 37.6467 292.314 38.26C291.98 38.8733 291.814 39.62 291.814 40.5C291.814 41.3933 291.974 42.1467 292.294 42.76C292.627 43.3733 293.067 43.8333 293.614 44.14C294.16 44.4333 294.76 44.58 295.414 44.58ZM302.747 40.48C302.747 39.36 302.973 38.38 303.427 37.54C303.88 36.6867 304.5 36.0267 305.287 35.56C306.087 35.0933 306.98 34.86 307.967 34.86C308.82 34.86 309.613 35.06 310.347 35.46C311.08 35.8467 311.64 36.36 312.027 37V31.2H313.867V46H312.027V43.94C311.667 44.5933 311.133 45.1333 310.427 45.56C309.72 45.9733 308.893 46.18 307.947 46.18C306.973 46.18 306.087 45.94 305.287 45.46C304.5 44.98 303.88 44.3067 303.427 43.44C302.973 42.5733 302.747 41.5867 302.747 40.48ZM312.027 40.5C312.027 39.6733 311.86 38.9533 311.527 38.34C311.193 37.7267 310.74 37.26 310.167 36.94C309.607 36.6067 308.987 36.44 308.307 36.44C307.627 36.44 307.007 36.6 306.447 36.92C305.887 37.24 305.44 37.7067 305.107 38.32C304.773 38.9333 304.607 39.6533 304.607 40.48C304.607 41.32 304.773 42.0533 305.107 42.68C305.44 43.2933 305.887 43.7667 306.447 44.1C307.007 44.42 307.627 44.58 308.307 44.58C308.987 44.58 309.607 44.42 310.167 44.1C310.74 43.7667 311.193 43.2933 311.527 42.68C311.86 42.0533 312.027 41.3267 312.027 40.5ZM324.494 36.54V43C324.494 43.5333 324.608 43.9133 324.834 44.14C325.061 44.3533 325.454 44.46 326.014 44.46H327.354V46H325.714C324.701 46 323.941 45.7667 323.434 45.3C322.928 44.8333 322.674 44.0667 322.674 43V36.54H321.254V35.04H322.674V32.28H324.494V35.04H327.354V36.54H324.494ZM339.56 40.1C339.56 40.4467 339.54 40.8133 339.5 41.2H330.74C330.806 42.28 331.173 43.1267 331.84 43.74C332.52 44.34 333.34 44.64 334.3 44.64C335.086 44.64 335.74 44.46 336.26 44.1C336.793 43.7267 337.166 43.2333 337.38 42.62H339.34C339.046 43.6733 338.46 44.5333 337.58 45.2C336.7 45.8533 335.606 46.18 334.3 46.18C333.26 46.18 332.326 45.9467 331.5 45.48C330.686 45.0133 330.046 44.3533 329.58 43.5C329.113 42.6333 328.88 41.6333 328.88 40.5C328.88 39.3667 329.106 38.3733 329.56 37.52C330.013 36.6667 330.646 36.0133 331.46 35.56C332.286 35.0933 333.233 34.86 334.3 34.86C335.34 34.86 336.26 35.0867 337.06 35.54C337.86 35.9933 338.473 36.62 338.9 37.42C339.34 38.2067 339.56 39.1 339.56 40.1ZM337.68 39.72C337.68 39.0267 337.526 38.4333 337.22 37.94C336.913 37.4333 336.493 37.0533 335.96 36.8C335.44 36.5333 334.86 36.4 334.22 36.4C333.3 36.4 332.513 36.6933 331.86 37.28C331.22 37.8667 330.853 38.68 330.76 39.72H337.68ZM355.142 34.84C355.995 34.84 356.755 35.02 357.422 35.38C358.089 35.7267 358.615 36.2533 359.002 36.96C359.389 37.6667 359.582 38.5267 359.582 39.54V46H357.782V39.8C357.782 38.7067 357.509 37.8733 356.962 37.3C356.429 36.7133 355.702 36.42 354.782 36.42C353.835 36.42 353.082 36.7267 352.522 37.34C351.962 37.94 351.682 38.8133 351.682 39.96V46H349.882V39.8C349.882 38.7067 349.609 37.8733 349.062 37.3C348.529 36.7133 347.802 36.42 346.882 36.42C345.935 36.42 345.182 36.7267 344.622 37.34C344.062 37.94 343.782 38.8133 343.782 39.96V46H341.962V35.04H343.782V36.62C344.142 36.0467 344.622 35.6067 345.222 35.3C345.835 34.9933 346.509 34.84 347.242 34.84C348.162 34.84 348.975 35.0467 349.682 35.46C350.389 35.8733 350.915 36.48 351.262 37.28C351.569 36.5067 352.075 35.9067 352.782 35.48C353.489 35.0533 354.275 34.84 355.142 34.84ZM364.387 37.06C364.747 36.4333 365.281 35.9133 365.987 35.5C366.707 35.0733 367.541 34.86 368.487 34.86C369.461 34.86 370.341 35.0933 371.127 35.56C371.927 36.0267 372.554 36.6867 373.007 37.54C373.461 38.38 373.687 39.36 373.687 40.48C373.687 41.5867 373.461 42.5733 373.007 43.44C372.554 44.3067 371.927 44.98 371.127 45.46C370.341 45.94 369.461 46.18 368.487 46.18C367.554 46.18 366.727 45.9733 366.007 45.56C365.301 45.1333 364.761 44.6067 364.387 43.98V51.2H362.567V35.04H364.387V37.06ZM371.827 40.48C371.827 39.6533 371.661 38.9333 371.327 38.32C370.994 37.7067 370.541 37.24 369.967 36.92C369.407 36.6 368.787 36.44 368.107 36.44C367.441 36.44 366.821 36.6067 366.247 36.94C365.687 37.26 365.234 37.7333 364.887 38.36C364.554 38.9733 364.387 39.6867 364.387 40.5C364.387 41.3267 364.554 42.0533 364.887 42.68C365.234 43.2933 365.687 43.7667 366.247 44.1C366.821 44.42 367.441 44.58 368.107 44.58C368.787 44.58 369.407 44.42 369.967 44.1C370.541 43.7667 370.994 43.2933 371.327 42.68C371.661 42.0533 371.827 41.32 371.827 40.48ZM380.863 46.18C379.836 46.18 378.903 45.9467 378.063 45.48C377.236 45.0133 376.583 44.3533 376.103 43.5C375.636 42.6333 375.403 41.6333 375.403 40.5C375.403 39.38 375.643 38.3933 376.123 37.54C376.616 36.6733 377.283 36.0133 378.123 35.56C378.963 35.0933 379.903 34.86 380.943 34.86C381.983 34.86 382.923 35.0933 383.763 35.56C384.603 36.0133 385.263 36.6667 385.743 37.52C386.236 38.3733 386.483 39.3667 386.483 40.5C386.483 41.6333 386.23 42.6333 385.723 43.5C385.23 44.3533 384.556 45.0133 383.703 45.48C382.85 45.9467 381.903 46.18 380.863 46.18ZM380.863 44.58C381.516 44.58 382.13 44.4267 382.703 44.12C383.276 43.8133 383.736 43.3533 384.083 42.74C384.443 42.1267 384.623 41.38 384.623 40.5C384.623 39.62 384.45 38.8733 384.103 38.26C383.756 37.6467 383.303 37.1933 382.743 36.9C382.183 36.5933 381.576 36.44 380.923 36.44C380.256 36.44 379.643 36.5933 379.083 36.9C378.536 37.1933 378.096 37.6467 377.763 38.26C377.43 38.8733 377.263 39.62 377.263 40.5C377.263 41.3933 377.423 42.1467 377.743 42.76C378.076 43.3733 378.516 43.8333 379.063 44.14C379.61 44.4333 380.21 44.58 380.863 44.58ZM390.696 36.82C391.016 36.1933 391.469 35.7067 392.056 35.36C392.656 35.0133 393.383 34.84 394.236 34.84V36.72H393.756C391.716 36.72 390.696 37.8267 390.696 40.04V46H388.876V35.04H390.696V36.82ZM18.7417 63.26C18.3951 63.26 18.1017 63.14 17.8617 62.9C17.6217 62.66 17.5017 62.3667 17.5017 62.02C17.5017 61.6733 17.6217 61.38 17.8617 61.14C18.1017 60.9 18.3951 60.78 18.7417 60.78C19.0751 60.78 19.3551 60.9 19.5817 61.14C19.8217 61.38 19.9417 61.6733 19.9417 62.02C19.9417 62.3667 19.8217 62.66 19.5817 62.9C19.3551 63.14 19.0751 63.26 18.7417 63.26ZM19.6217 65.04V76H17.8017V65.04H19.6217ZM28.0636 64.84C29.3969 64.84 30.4769 65.2467 31.3036 66.06C32.1303 66.86 32.5436 68.02 32.5436 69.54V76H30.7436V69.8C30.7436 68.7067 30.4703 67.8733 29.9236 67.3C29.3769 66.7133 28.6303 66.42 27.6836 66.42C26.7236 66.42 25.9569 66.72 25.3836 67.32C24.8236 67.92 24.5436 68.7933 24.5436 69.94V76H22.7236V65.04H24.5436V66.6C24.9036 66.04 25.3903 65.6067 26.0036 65.3C26.6303 64.9933 27.3169 64.84 28.0636 64.84ZM34.8366 70.5C34.8366 69.3667 35.0632 68.38 35.5166 67.54C35.9699 66.6867 36.5966 66.0267 37.3966 65.56C38.2099 65.0933 39.1366 64.86 40.1766 64.86C41.5232 64.86 42.6299 65.1867 43.4966 65.84C44.3766 66.4933 44.9566 67.4 45.2366 68.56H43.2766C43.0899 67.8933 42.7232 67.3667 42.1766 66.98C41.6432 66.5933 40.9766 66.4 40.1766 66.4C39.1366 66.4 38.2966 66.76 37.6566 67.48C37.0166 68.1867 36.6966 69.1933 36.6966 70.5C36.6966 71.82 37.0166 72.84 37.6566 73.56C38.2966 74.28 39.1366 74.64 40.1766 74.64C40.9766 74.64 41.6432 74.4533 42.1766 74.08C42.7099 73.7067 43.0766 73.1733 43.2766 72.48H45.2366C44.9432 73.6 44.3566 74.5 43.4766 75.18C42.5966 75.8467 41.4966 76.18 40.1766 76.18C39.1366 76.18 38.2099 75.9467 37.3966 75.48C36.5966 75.0133 35.9699 74.3533 35.5166 73.5C35.0632 72.6467 34.8366 71.6467 34.8366 70.5ZM48.605 63.26C48.2583 63.26 47.965 63.14 47.725 62.9C47.485 62.66 47.365 62.3667 47.365 62.02C47.365 61.6733 47.485 61.38 47.725 61.14C47.965 60.9 48.2583 60.78 48.605 60.78C48.9383 60.78 49.2183 60.9 49.445 61.14C49.685 61.38 49.805 61.6733 49.805 62.02C49.805 62.3667 49.685 62.66 49.445 62.9C49.2183 63.14 48.9383 63.26 48.605 63.26ZM49.485 65.04V76H47.665V65.04H49.485ZM51.9069 70.48C51.9069 69.36 52.1335 68.38 52.5869 67.54C53.0402 66.6867 53.6602 66.0267 54.4469 65.56C55.2469 65.0933 56.1402 64.86 57.1269 64.86C57.9802 64.86 58.7735 65.06 59.5069 65.46C60.2402 65.8467 60.8002 66.36 61.1869 67V61.2H63.0269V76H61.1869V73.94C60.8269 74.5933 60.2935 75.1333 59.5869 75.56C58.8802 75.9733 58.0535 76.18 57.1069 76.18C56.1335 76.18 55.2469 75.94 54.4469 75.46C53.6602 74.98 53.0402 74.3067 52.5869 73.44C52.1335 72.5733 51.9069 71.5867 51.9069 70.48ZM61.1869 70.5C61.1869 69.6733 61.0202 68.9533 60.6869 68.34C60.3535 67.7267 59.9002 67.26 59.3269 66.94C58.7669 66.6067 58.1469 66.44 57.4669 66.44C56.7869 66.44 56.1669 66.6 55.6069 66.92C55.0469 67.24 54.6002 67.7067 54.2669 68.32C53.9335 68.9333 53.7669 69.6533 53.7669 70.48C53.7669 71.32 53.9335 72.0533 54.2669 72.68C54.6002 73.2933 55.0469 73.7667 55.6069 74.1C56.1669 74.42 56.7869 74.58 57.4669 74.58C58.1469 74.58 58.7669 74.42 59.3269 74.1C59.9002 73.7667 60.3535 73.2933 60.6869 72.68C61.0202 72.0533 61.1869 71.3267 61.1869 70.5ZM67.0425 63.26C66.6958 63.26 66.4025 63.14 66.1625 62.9C65.9225 62.66 65.8025 62.3667 65.8025 62.02C65.8025 61.6733 65.9225 61.38 66.1625 61.14C66.4025 60.9 66.6958 60.78 67.0425 60.78C67.3758 60.78 67.6558 60.9 67.8825 61.14C68.1225 61.38 68.2425 61.6733 68.2425 62.02C68.2425 62.3667 68.1225 62.66 67.8825 62.9C67.6558 63.14 67.3758 63.26 67.0425 63.26ZM67.9225 65.04V76H66.1025V65.04H67.9225ZM70.3444 70.48C70.3444 69.36 70.571 68.38 71.0244 67.54C71.4777 66.6867 72.0977 66.0267 72.8844 65.56C73.6844 65.0933 74.5777 64.86 75.5644 64.86C76.4177 64.86 77.211 65.06 77.9444 65.46C78.6777 65.8467 79.2377 66.36 79.6244 67V61.2H81.4644V76H79.6244V73.94C79.2644 74.5933 78.731 75.1333 78.0244 75.56C77.3177 75.9733 76.491 76.18 75.5444 76.18C74.571 76.18 73.6844 75.94 72.8844 75.46C72.0977 74.98 71.4777 74.3067 71.0244 73.44C70.571 72.5733 70.3444 71.5867 70.3444 70.48ZM79.6244 70.5C79.6244 69.6733 79.4577 68.9533 79.1244 68.34C78.791 67.7267 78.3377 67.26 77.7644 66.94C77.2044 66.6067 76.5844 66.44 75.9044 66.44C75.2244 66.44 74.6044 66.6 74.0444 66.92C73.4844 67.24 73.0377 67.7067 72.7044 68.32C72.371 68.9333 72.2044 69.6533 72.2044 70.48C72.2044 71.32 72.371 72.0533 72.7044 72.68C73.0377 73.2933 73.4844 73.7667 74.0444 74.1C74.6044 74.42 75.2244 74.58 75.9044 74.58C76.5844 74.58 77.2044 74.42 77.7644 74.1C78.3377 73.7667 78.791 73.2933 79.1244 72.68C79.4577 72.0533 79.6244 71.3267 79.6244 70.5ZM94.26 65.04V76H92.44V74.38C92.0933 74.94 91.6067 75.38 90.98 75.7C90.3667 76.0067 89.6867 76.16 88.94 76.16C88.0867 76.16 87.32 75.9867 86.64 75.64C85.96 75.28 85.42 74.7467 85.02 74.04C84.6333 73.3333 84.44 72.4733 84.44 71.46V65.04H86.24V71.22C86.24 72.3 86.5133 73.1333 87.06 73.72C87.6067 74.2933 88.3533 74.58 89.3 74.58C90.2733 74.58 91.04 74.28 91.6 73.68C92.16 73.08 92.44 72.2067 92.44 71.06V65.04H94.26ZM102.673 64.84C104.006 64.84 105.086 65.2467 105.913 66.06C106.74 66.86 107.153 68.02 107.153 69.54V76H105.353V69.8C105.353 68.7067 105.08 67.8733 104.533 67.3C103.986 66.7133 103.24 66.42 102.293 66.42C101.333 66.42 100.566 66.72 99.993 67.32C99.433 67.92 99.153 68.7933 99.153 69.94V76H97.333V65.04H99.153V66.6C99.513 66.04 99.9996 65.6067 100.613 65.3C101.24 64.9933 101.926 64.84 102.673 64.84ZM112.346 66.54V73C112.346 73.5333 112.459 73.9133 112.686 74.14C112.913 74.3533 113.306 74.46 113.866 74.46H115.206V76H113.566C112.553 76 111.793 75.7667 111.286 75.3C110.779 74.8333 110.526 74.0667 110.526 73V66.54H109.106V65.04H110.526V62.28H112.346V65.04H115.206V66.54H112.346ZM132.463 65.04V76H130.643V74.38C130.296 74.94 129.81 75.38 129.183 75.7C128.57 76.0067 127.89 76.16 127.143 76.16C126.29 76.16 125.523 75.9867 124.843 75.64C124.163 75.28 123.623 74.7467 123.223 74.04C122.836 73.3333 122.643 72.4733 122.643 71.46V65.04H124.443V71.22C124.443 72.3 124.716 73.1333 125.263 73.72C125.81 74.2933 126.556 74.58 127.503 74.58C128.476 74.58 129.243 74.28 129.803 73.68C130.363 73.08 130.643 72.2067 130.643 71.06V65.04H132.463ZM137.756 66.54V73C137.756 73.5333 137.869 73.9133 138.096 74.14C138.323 74.3533 138.716 74.46 139.276 74.46H140.616V76H138.976C137.963 76 137.203 75.7667 136.696 75.3C136.189 74.8333 135.936 74.0667 135.936 73V66.54H134.516V65.04H135.936V62.28H137.756V65.04H140.616V66.54H137.756ZM149.973 61.2V76H148.153V61.2H149.973ZM152.395 70.48C152.395 69.36 152.622 68.38 153.075 67.54C153.528 66.6867 154.148 66.0267 154.935 65.56C155.735 65.0933 156.622 64.86 157.595 64.86C158.555 64.86 159.388 65.0667 160.095 65.48C160.802 65.8933 161.328 66.4133 161.675 67.04V65.04H163.515V76H161.675V73.96C161.315 74.6 160.775 75.1333 160.055 75.56C159.348 75.9733 158.522 76.18 157.575 76.18C156.602 76.18 155.722 75.94 154.935 75.46C154.148 74.98 153.528 74.3067 153.075 73.44C152.622 72.5733 152.395 71.5867 152.395 70.48ZM161.675 70.5C161.675 69.6733 161.508 68.9533 161.175 68.34C160.842 67.7267 160.388 67.26 159.815 66.94C159.255 66.6067 158.635 66.44 157.955 66.44C157.275 66.44 156.655 66.6 156.095 66.92C155.535 67.24 155.088 67.7067 154.755 68.32C154.422 68.9333 154.255 69.6533 154.255 70.48C154.255 71.32 154.422 72.0533 154.755 72.68C155.088 73.2933 155.535 73.7667 156.095 74.1C156.655 74.42 157.275 74.58 157.955 74.58C158.635 74.58 159.255 74.42 159.815 74.1C160.388 73.7667 160.842 73.2933 161.175 72.68C161.508 72.0533 161.675 71.3267 161.675 70.5ZM168.411 67.08C168.784 66.4267 169.331 65.8933 170.051 65.48C170.771 65.0667 171.591 64.86 172.511 64.86C173.497 64.86 174.384 65.0933 175.171 65.56C175.957 66.0267 176.577 66.6867 177.031 67.54C177.484 68.38 177.711 69.36 177.711 70.48C177.711 71.5867 177.484 72.5733 177.031 73.44C176.577 74.3067 175.951 74.98 175.151 75.46C174.364 75.94 173.484 76.18 172.511 76.18C171.564 76.18 170.731 75.9733 170.011 75.56C169.304 75.1467 168.771 74.62 168.411 73.98V76H166.591V61.2H168.411V67.08ZM175.851 70.48C175.851 69.6533 175.684 68.9333 175.351 68.32C175.017 67.7067 174.564 67.24 173.991 66.92C173.431 66.6 172.811 66.44 172.131 66.44C171.464 66.44 170.844 66.6067 170.271 66.94C169.711 67.26 169.257 67.7333 168.911 68.36C168.577 68.9733 168.411 69.6867 168.411 70.5C168.411 71.3267 168.577 72.0533 168.911 72.68C169.257 73.2933 169.711 73.7667 170.271 74.1C170.844 74.42 171.464 74.58 172.131 74.58C172.811 74.58 173.431 74.42 173.991 74.1C174.564 73.7667 175.017 73.2933 175.351 72.68C175.684 72.0533 175.851 71.32 175.851 70.48ZM184.886 76.18C183.86 76.18 182.926 75.9467 182.086 75.48C181.26 75.0133 180.606 74.3533 180.126 73.5C179.66 72.6333 179.426 71.6333 179.426 70.5C179.426 69.38 179.666 68.3933 180.146 67.54C180.64 66.6733 181.306 66.0133 182.146 65.56C182.986 65.0933 183.926 64.86 184.966 64.86C186.006 64.86 186.946 65.0933 187.786 65.56C188.626 66.0133 189.286 66.6667 189.766 67.52C190.26 68.3733 190.506 69.3667 190.506 70.5C190.506 71.6333 190.253 72.6333 189.746 73.5C189.253 74.3533 188.58 75.0133 187.726 75.48C186.873 75.9467 185.926 76.18 184.886 76.18ZM184.886 74.58C185.54 74.58 186.153 74.4267 186.726 74.12C187.3 73.8133 187.76 73.3533 188.106 72.74C188.466 72.1267 188.646 71.38 188.646 70.5C188.646 69.62 188.473 68.8733 188.126 68.26C187.78 67.6467 187.326 67.1933 186.766 66.9C186.206 66.5933 185.6 66.44 184.946 66.44C184.28 66.44 183.666 66.5933 183.106 66.9C182.56 67.1933 182.12 67.6467 181.786 68.26C181.453 68.8733 181.286 69.62 181.286 70.5C181.286 71.3933 181.446 72.1467 181.766 72.76C182.1 73.3733 182.54 73.8333 183.086 74.14C183.633 74.4333 184.233 74.58 184.886 74.58ZM194.719 66.82C195.039 66.1933 195.493 65.7067 196.079 65.36C196.679 65.0133 197.406 64.84 198.259 64.84V66.72H197.779C195.739 66.72 194.719 67.8267 194.719 70.04V76H192.899V65.04H194.719V66.82ZM210.36 70.1C210.36 70.4467 210.34 70.8133 210.3 71.2H201.54C201.607 72.28 201.974 73.1267 202.64 73.74C203.32 74.34 204.14 74.64 205.1 74.64C205.887 74.64 206.54 74.46 207.06 74.1C207.594 73.7267 207.967 73.2333 208.18 72.62H210.14C209.847 73.6733 209.26 74.5333 208.38 75.2C207.5 75.8533 206.407 76.18 205.1 76.18C204.06 76.18 203.127 75.9467 202.3 75.48C201.487 75.0133 200.847 74.3533 200.38 73.5C199.914 72.6333 199.68 71.6333 199.68 70.5C199.68 69.3667 199.907 68.3733 200.36 67.52C200.814 66.6667 201.447 66.0133 202.26 65.56C203.087 65.0933 204.034 64.86 205.1 64.86C206.14 64.86 207.06 65.0867 207.86 65.54C208.66 65.9933 209.274 66.62 209.7 67.42C210.14 68.2067 210.36 69.1 210.36 70.1ZM208.48 69.72C208.48 69.0267 208.327 68.4333 208.02 67.94C207.714 67.4333 207.294 67.0533 206.76 66.8C206.24 66.5333 205.66 66.4 205.02 66.4C204.1 66.4 203.314 66.6933 202.66 67.28C202.02 67.8667 201.654 68.68 201.56 69.72H208.48ZM228.095 70.1C228.095 70.4467 228.075 70.8133 228.035 71.2H219.275C219.341 72.28 219.708 73.1267 220.375 73.74C221.055 74.34 221.875 74.64 222.835 74.64C223.621 74.64 224.275 74.46 224.795 74.1C225.328 73.7267 225.701 73.2333 225.915 72.62H227.875C227.581 73.6733 226.995 74.5333 226.115 75.2C225.235 75.8533 224.141 76.18 222.835 76.18C221.795 76.18 220.861 75.9467 220.035 75.48C219.221 75.0133 218.581 74.3533 218.115 73.5C217.648 72.6333 217.415 71.6333 217.415 70.5C217.415 69.3667 217.641 68.3733 218.095 67.52C218.548 66.6667 219.181 66.0133 219.995 65.56C220.821 65.0933 221.768 64.86 222.835 64.86C223.875 64.86 224.795 65.0867 225.595 65.54C226.395 65.9933 227.008 66.62 227.435 67.42C227.875 68.2067 228.095 69.1 228.095 70.1ZM226.215 69.72C226.215 69.0267 226.061 68.4333 225.755 67.94C225.448 67.4333 225.028 67.0533 224.495 66.8C223.975 66.5333 223.395 66.4 222.755 66.4C221.835 66.4 221.048 66.6933 220.395 67.28C219.755 67.8667 219.388 68.68 219.295 69.72H226.215ZM232.717 66.54V73C232.717 73.5333 232.83 73.9133 233.057 74.14C233.284 74.3533 233.677 74.46 234.237 74.46H235.577V76H233.937C232.924 76 232.164 75.7667 231.657 75.3C231.15 74.8333 230.897 74.0667 230.897 73V66.54H229.477V65.04H230.897V62.28H232.717V65.04H235.577V66.54H232.717ZM242.434 70.48C242.434 69.36 242.661 68.38 243.114 67.54C243.568 66.6867 244.188 66.0267 244.974 65.56C245.774 65.0933 246.668 64.86 247.654 64.86C248.508 64.86 249.301 65.06 250.034 65.46C250.768 65.8467 251.328 66.36 251.714 67V61.2H253.554V76H251.714V73.94C251.354 74.5933 250.821 75.1333 250.114 75.56C249.408 75.9733 248.581 76.18 247.634 76.18C246.661 76.18 245.774 75.94 244.974 75.46C244.188 74.98 243.568 74.3067 243.114 73.44C242.661 72.5733 242.434 71.5867 242.434 70.48ZM251.714 70.5C251.714 69.6733 251.548 68.9533 251.214 68.34C250.881 67.7267 250.428 67.26 249.854 66.94C249.294 66.6067 248.674 66.44 247.994 66.44C247.314 66.44 246.694 66.6 246.134 66.92C245.574 67.24 245.128 67.7067 244.794 68.32C244.461 68.9333 244.294 69.6533 244.294 70.48C244.294 71.32 244.461 72.0533 244.794 72.68C245.128 73.2933 245.574 73.7667 246.134 74.1C246.694 74.42 247.314 74.58 247.994 74.58C248.674 74.58 249.294 74.42 249.854 74.1C250.428 73.7667 250.881 73.2933 251.214 72.68C251.548 72.0533 251.714 71.3267 251.714 70.5ZM261.41 76.18C260.383 76.18 259.45 75.9467 258.61 75.48C257.783 75.0133 257.13 74.3533 256.65 73.5C256.183 72.6333 255.95 71.6333 255.95 70.5C255.95 69.38 256.19 68.3933 256.67 67.54C257.163 66.6733 257.83 66.0133 258.67 65.56C259.51 65.0933 260.45 64.86 261.49 64.86C262.53 64.86 263.47 65.0933 264.31 65.56C265.15 66.0133 265.81 66.6667 266.29 67.52C266.783 68.3733 267.03 69.3667 267.03 70.5C267.03 71.6333 266.777 72.6333 266.27 73.5C265.777 74.3533 265.103 75.0133 264.25 75.48C263.397 75.9467 262.45 76.18 261.41 76.18ZM261.41 74.58C262.063 74.58 262.677 74.4267 263.25 74.12C263.823 73.8133 264.283 73.3533 264.63 72.74C264.99 72.1267 265.17 71.38 265.17 70.5C265.17 69.62 264.997 68.8733 264.65 68.26C264.303 67.6467 263.85 67.1933 263.29 66.9C262.73 66.5933 262.123 66.44 261.47 66.44C260.803 66.44 260.19 66.5933 259.63 66.9C259.083 67.1933 258.643 67.6467 258.31 68.26C257.977 68.8733 257.81 69.62 257.81 70.5C257.81 71.3933 257.97 72.1467 258.29 72.76C258.623 73.3733 259.063 73.8333 259.61 74.14C260.157 74.4333 260.757 74.58 261.41 74.58ZM271.243 61.2V76H269.423V61.2H271.243ZM279.125 76.18C278.098 76.18 277.165 75.9467 276.325 75.48C275.498 75.0133 274.845 74.3533 274.365 73.5C273.898 72.6333 273.665 71.6333 273.665 70.5C273.665 69.38 273.905 68.3933 274.385 67.54C274.878 66.6733 275.545 66.0133 276.385 65.56C277.225 65.0933 278.165 64.86 279.205 64.86C280.245 64.86 281.185 65.0933 282.025 65.56C282.865 66.0133 283.525 66.6667 284.005 67.52C284.498 68.3733 284.745 69.3667 284.745 70.5C284.745 71.6333 284.491 72.6333 283.985 73.5C283.491 74.3533 282.818 75.0133 281.965 75.48C281.111 75.9467 280.165 76.18 279.125 76.18ZM279.125 74.58C279.778 74.58 280.391 74.4267 280.965 74.12C281.538 73.8133 281.998 73.3533 282.345 72.74C282.705 72.1267 282.885 71.38 282.885 70.5C282.885 69.62 282.711 68.8733 282.365 68.26C282.018 67.6467 281.565 67.1933 281.005 66.9C280.445 66.5933 279.838 66.44 279.185 66.44C278.518 66.44 277.905 66.5933 277.345 66.9C276.798 67.1933 276.358 67.6467 276.025 68.26C275.691 68.8733 275.525 69.62 275.525 70.5C275.525 71.3933 275.685 72.1467 276.005 72.76C276.338 73.3733 276.778 73.8333 277.325 74.14C277.871 74.4333 278.471 74.58 279.125 74.58ZM288.958 66.82C289.278 66.1933 289.731 65.7067 290.318 65.36C290.918 65.0133 291.644 64.84 292.498 64.84V66.72H292.018C289.978 66.72 288.958 67.8267 288.958 70.04V76H287.138V65.04H288.958V66.82ZM304.599 70.1C304.599 70.4467 304.579 70.8133 304.539 71.2H295.779C295.845 72.28 296.212 73.1267 296.879 73.74C297.559 74.34 298.379 74.64 299.339 74.64C300.125 74.64 300.779 74.46 301.299 74.1C301.832 73.7267 302.205 73.2333 302.419 72.62H304.379C304.085 73.6733 303.499 74.5333 302.619 75.2C301.739 75.8533 300.645 76.18 299.339 76.18C298.299 76.18 297.365 75.9467 296.539 75.48C295.725 75.0133 295.085 74.3533 294.619 73.5C294.152 72.6333 293.919 71.6333 293.919 70.5C293.919 69.3667 294.145 68.3733 294.599 67.52C295.052 66.6667 295.685 66.0133 296.499 65.56C297.325 65.0933 298.272 64.86 299.339 64.86C300.379 64.86 301.299 65.0867 302.099 65.54C302.899 65.9933 303.512 66.62 303.939 67.42C304.379 68.2067 304.599 69.1 304.599 70.1ZM302.719 69.72C302.719 69.0267 302.565 68.4333 302.259 67.94C301.952 67.4333 301.532 67.0533 300.999 66.8C300.479 66.5333 299.899 66.4 299.259 66.4C298.339 66.4 297.552 66.6933 296.899 67.28C296.259 67.8667 295.892 68.68 295.799 69.72H302.719ZM325.513 64.84C326.366 64.84 327.126 65.02 327.793 65.38C328.46 65.7267 328.986 66.2533 329.373 66.96C329.76 67.6667 329.953 68.5267 329.953 69.54V76H328.153V69.8C328.153 68.7067 327.88 67.8733 327.333 67.3C326.8 66.7133 326.073 66.42 325.153 66.42C324.206 66.42 323.453 66.7267 322.893 67.34C322.333 67.94 322.053 68.8133 322.053 69.96V76H320.253V69.8C320.253 68.7067 319.98 67.8733 319.433 67.3C318.9 66.7133 318.173 66.42 317.253 66.42C316.306 66.42 315.553 66.7267 314.993 67.34C314.433 67.94 314.153 68.8133 314.153 69.96V76H312.333V65.04H314.153V66.62C314.513 66.0467 314.993 65.6067 315.593 65.3C316.206 64.9933 316.88 64.84 317.613 64.84C318.533 64.84 319.346 65.0467 320.053 65.46C320.76 65.8733 321.286 66.48 321.633 67.28C321.94 66.5067 322.446 65.9067 323.153 65.48C323.86 65.0533 324.646 64.84 325.513 64.84ZM332.258 70.48C332.258 69.36 332.485 68.38 332.938 67.54C333.392 66.6867 334.012 66.0267 334.798 65.56C335.598 65.0933 336.485 64.86 337.458 64.86C338.418 64.86 339.252 65.0667 339.958 65.48C340.665 65.8933 341.192 66.4133 341.538 67.04V65.04H343.378V76H341.538V73.96C341.178 74.6 340.638 75.1333 339.918 75.56C339.212 75.9733 338.385 76.18 337.438 76.18C336.465 76.18 335.585 75.94 334.798 75.46C334.012 74.98 333.392 74.3067 332.938 73.44C332.485 72.5733 332.258 71.5867 332.258 70.48ZM341.538 70.5C341.538 69.6733 341.372 68.9533 341.038 68.34C340.705 67.7267 340.252 67.26 339.678 66.94C339.118 66.6067 338.498 66.44 337.818 66.44C337.138 66.44 336.518 66.6 335.958 66.92C335.398 67.24 334.952 67.7067 334.618 68.32C334.285 68.9333 334.118 69.6533 334.118 70.48C334.118 71.32 334.285 72.0533 334.618 72.68C334.952 73.2933 335.398 73.7667 335.958 74.1C336.518 74.42 337.138 74.58 337.818 74.58C338.498 74.58 339.118 74.42 339.678 74.1C340.252 73.7667 340.705 73.2933 341.038 72.68C341.372 72.0533 341.538 71.3267 341.538 70.5ZM350.974 64.86C351.921 64.86 352.747 65.0667 353.454 65.48C354.174 65.8933 354.707 66.4133 355.054 67.04V65.04H356.894V76.24C356.894 77.24 356.681 78.1267 356.254 78.9C355.827 79.6867 355.214 80.3 354.414 80.74C353.627 81.18 352.707 81.4 351.654 81.4C350.214 81.4 349.014 81.06 348.054 80.38C347.094 79.7 346.527 78.7733 346.354 77.6H348.154C348.354 78.2667 348.767 78.8 349.394 79.2C350.021 79.6133 350.774 79.82 351.654 79.82C352.654 79.82 353.467 79.5067 354.094 78.88C354.734 78.2533 355.054 77.3733 355.054 76.24V73.94C354.694 74.58 354.161 75.1133 353.454 75.54C352.747 75.9667 351.921 76.18 350.974 76.18C350.001 76.18 349.114 75.94 348.314 75.46C347.527 74.98 346.907 74.3067 346.454 73.44C346.001 72.5733 345.774 71.5867 345.774 70.48C345.774 69.36 346.001 68.38 346.454 67.54C346.907 66.6867 347.527 66.0267 348.314 65.56C349.114 65.0933 350.001 64.86 350.974 64.86ZM355.054 70.5C355.054 69.6733 354.887 68.9533 354.554 68.34C354.221 67.7267 353.767 67.26 353.194 66.94C352.634 66.6067 352.014 66.44 351.334 66.44C350.654 66.44 350.034 66.6 349.474 66.92C348.914 67.24 348.467 67.7067 348.134 68.32C347.801 68.9333 347.634 69.6533 347.634 70.48C347.634 71.32 347.801 72.0533 348.134 72.68C348.467 73.2933 348.914 73.7667 349.474 74.1C350.034 74.42 350.654 74.58 351.334 74.58C352.014 74.58 352.634 74.42 353.194 74.1C353.767 73.7667 354.221 73.2933 354.554 72.68C354.887 72.0533 355.054 71.3267 355.054 70.5ZM365.31 64.84C366.643 64.84 367.723 65.2467 368.55 66.06C369.376 66.86 369.79 68.02 369.79 69.54V76H367.99V69.8C367.99 68.7067 367.716 67.8733 367.17 67.3C366.623 66.7133 365.876 66.42 364.93 66.42C363.97 66.42 363.203 66.72 362.63 67.32C362.07 67.92 361.79 68.7933 361.79 69.94V76H359.97V65.04H361.79V66.6C362.15 66.04 362.636 65.6067 363.25 65.3C363.876 64.9933 364.563 64.84 365.31 64.84ZM372.083 70.48C372.083 69.36 372.309 68.38 372.763 67.54C373.216 66.6867 373.836 66.0267 374.623 65.56C375.423 65.0933 376.309 64.86 377.283 64.86C378.243 64.86 379.076 65.0667 379.783 65.48C380.489 65.8933 381.016 66.4133 381.363 67.04V65.04H383.203V76H381.363V73.96C381.003 74.6 380.463 75.1333 379.743 75.56C379.036 75.9733 378.209 76.18 377.263 76.18C376.289 76.18 375.409 75.94 374.623 75.46C373.836 74.98 373.216 74.3067 372.763 73.44C372.309 72.5733 372.083 71.5867 372.083 70.48ZM381.363 70.5C381.363 69.6733 381.196 68.9533 380.863 68.34C380.529 67.7267 380.076 67.26 379.503 66.94C378.943 66.6067 378.323 66.44 377.643 66.44C376.963 66.44 376.343 66.6 375.783 66.92C375.223 67.24 374.776 67.7067 374.443 68.32C374.109 68.9333 373.943 69.6533 373.943 70.48C373.943 71.32 374.109 72.0533 374.443 72.68C374.776 73.2933 375.223 73.7667 375.783 74.1C376.343 74.42 376.963 74.58 377.643 74.58C378.323 74.58 378.943 74.42 379.503 74.1C380.076 73.7667 380.529 73.2933 380.863 72.68C381.196 72.0533 381.363 71.3267 381.363 70.5ZM10.2858 100.48C10.2858 99.36 10.5124 98.38 10.9658 97.54C11.4191 96.6867 12.0391 96.0267 12.8258 95.56C13.6258 95.0933 14.5124 94.86 15.4858 94.86C16.4458 94.86 17.2791 95.0667 17.9858 95.48C18.6924 95.8933 19.2191 96.4133 19.5658 97.04V95.04H21.4058V106H19.5658V103.96C19.2058 104.6 18.6658 105.133 17.9458 105.56C17.2391 105.973 16.4124 106.18 15.4658 106.18C14.4924 106.18 13.6124 105.94 12.8258 105.46C12.0391 104.98 11.4191 104.307 10.9658 103.44C10.5124 102.573 10.2858 101.587 10.2858 100.48ZM19.5658 100.5C19.5658 99.6733 19.3991 98.9533 19.0658 98.34C18.7324 97.7267 18.2791 97.26 17.7058 96.94C17.1458 96.6067 16.5258 96.44 15.8458 96.44C15.1658 96.44 14.5458 96.6 13.9858 96.92C13.4258 97.24 12.9791 97.7067 12.6458 98.32C12.3124 98.9333 12.1458 99.6533 12.1458 100.48C12.1458 101.32 12.3124 102.053 12.6458 102.68C12.9791 103.293 13.4258 103.767 13.9858 104.1C14.5458 104.42 15.1658 104.58 15.8458 104.58C16.5258 104.58 17.1458 104.42 17.7058 104.1C18.2791 103.767 18.7324 103.293 19.0658 102.68C19.3991 102.053 19.5658 101.327 19.5658 100.5ZM26.3014 91.2V106H24.4814V91.2H26.3014ZM30.3433 93.26C29.9966 93.26 29.7033 93.14 29.4633 92.9C29.2233 92.66 29.1033 92.3667 29.1033 92.02C29.1033 91.6733 29.2233 91.38 29.4633 91.14C29.7033 90.9 29.9966 90.78 30.3433 90.78C30.6766 90.78 30.9566 90.9 31.1833 91.14C31.4233 91.38 31.5433 91.6733 31.5433 92.02C31.5433 92.3667 31.4233 92.66 31.1833 92.9C30.9566 93.14 30.6766 93.26 30.3433 93.26ZM31.2233 95.04V106H29.4033V95.04H31.2233ZM33.6452 100.48C33.6452 99.36 33.8718 98.38 34.3252 97.54C34.7785 96.6867 35.3985 96.0267 36.1852 95.56C36.9852 95.0933 37.8785 94.86 38.8652 94.86C39.8118 94.86 40.6385 95.0733 41.3452 95.5C42.0652 95.9133 42.5918 96.4267 42.9252 97.04V95.04H44.7652V111.2H42.9252V103.98C42.5785 104.593 42.0452 105.113 41.3252 105.54C40.6052 105.967 39.7652 106.18 38.8052 106.18C37.8452 106.18 36.9718 105.94 36.1852 105.46C35.3985 104.98 34.7785 104.307 34.3252 103.44C33.8718 102.573 33.6452 101.587 33.6452 100.48ZM42.9252 100.5C42.9252 99.6733 42.7585 98.9533 42.4252 98.34C42.0918 97.7267 41.6385 97.26 41.0652 96.94C40.5052 96.6067 39.8852 96.44 39.2052 96.44C38.5252 96.44 37.9052 96.6 37.3452 96.92C36.7852 97.24 36.3385 97.7067 36.0052 98.32C35.6718 98.9333 35.5052 99.6533 35.5052 100.48C35.5052 101.32 35.6718 102.053 36.0052 102.68C36.3385 103.293 36.7852 103.767 37.3452 104.1C37.9052 104.42 38.5252 104.58 39.2052 104.58C39.8852 104.58 40.5052 104.42 41.0652 104.1C41.6385 103.767 42.0918 103.293 42.4252 102.68C42.7585 102.053 42.9252 101.327 42.9252 100.5ZM57.5608 95.04V106H55.7408V104.38C55.3941 104.94 54.9074 105.38 54.2808 105.7C53.6674 106.007 52.9874 106.16 52.2408 106.16C51.3874 106.16 50.6208 105.987 49.9408 105.64C49.2608 105.28 48.7208 104.747 48.3208 104.04C47.9341 103.333 47.7408 102.473 47.7408 101.46V95.04H49.5408V101.22C49.5408 102.3 49.8141 103.133 50.3608 103.72C50.9074 104.293 51.6541 104.58 52.6008 104.58C53.5741 104.58 54.3408 104.28 54.9008 103.68C55.4608 103.08 55.7408 102.207 55.7408 101.06V95.04H57.5608ZM59.9538 100.48C59.9538 99.36 60.1804 98.38 60.6338 97.54C61.0871 96.6867 61.7071 96.0267 62.4938 95.56C63.2938 95.0933 64.1804 94.86 65.1538 94.86C66.1138 94.86 66.9471 95.0667 67.6538 95.48C68.3604 95.8933 68.8871 96.4133 69.2338 97.04V95.04H71.0738V106H69.2338V103.96C68.8738 104.6 68.3338 105.133 67.6138 105.56C66.9071 105.973 66.0804 106.18 65.1338 106.18C64.1604 106.18 63.2804 105.94 62.4938 105.46C61.7071 104.98 61.0871 104.307 60.6338 103.44C60.1804 102.573 59.9538 101.587 59.9538 100.48ZM69.2338 100.5C69.2338 99.6733 69.0671 98.9533 68.7338 98.34C68.4004 97.7267 67.9471 97.26 67.3738 96.94C66.8138 96.6067 66.1938 96.44 65.5138 96.44C64.8338 96.44 64.2138 96.6 63.6538 96.92C63.0938 97.24 62.6471 97.7067 62.3138 98.32C61.9804 98.9333 61.8138 99.6533 61.8138 100.48C61.8138 101.32 61.9804 102.053 62.3138 102.68C62.6471 103.293 63.0938 103.767 63.6538 104.1C64.2138 104.42 64.8338 104.58 65.5138 104.58C66.1938 104.58 66.8138 104.42 67.3738 104.1C67.9471 103.767 68.4004 103.293 68.7338 102.68C69.0671 102.053 69.2338 101.327 69.2338 100.5ZM74.7294 106.12C74.3827 106.12 74.0894 106 73.8494 105.76C73.6094 105.52 73.4894 105.227 73.4894 104.88C73.4894 104.533 73.6094 104.24 73.8494 104C74.0894 103.76 74.3827 103.64 74.7294 103.64C75.0627 103.64 75.3427 103.76 75.5694 104C75.8094 104.24 75.9294 104.533 75.9294 104.88C75.9294 105.227 75.8094 105.52 75.5694 105.76C75.3427 106 75.0627 106.12 74.7294 106.12ZM93.4006 95.04V106H91.5806V104.38C91.234 104.94 90.7473 105.38 90.1206 105.7C89.5073 106.007 88.8273 106.16 88.0806 106.16C87.2273 106.16 86.4606 105.987 85.7806 105.64C85.1006 105.28 84.5606 104.747 84.1606 104.04C83.774 103.333 83.5806 102.473 83.5806 101.46V95.04H85.3806V101.22C85.3806 102.3 85.654 103.133 86.2006 103.72C86.7473 104.293 87.494 104.58 88.4406 104.58C89.414 104.58 90.1806 104.28 90.7406 103.68C91.3006 103.08 91.5806 102.207 91.5806 101.06V95.04H93.4006ZM98.6936 96.54V103C98.6936 103.533 98.8069 103.913 99.0336 104.14C99.2603 104.353 99.6536 104.46 100.214 104.46H101.554V106H99.9136C98.9003 106 98.1403 105.767 97.6336 105.3C97.1269 104.833 96.8736 104.067 96.8736 103V96.54H95.4536V95.04H96.8736V92.28H98.6936V95.04H101.554V96.54H98.6936ZM119.091 100.1C119.091 100.447 119.071 100.813 119.031 101.2H110.271C110.337 102.28 110.704 103.127 111.371 103.74C112.051 104.34 112.871 104.64 113.831 104.64C114.617 104.64 115.271 104.46 115.791 104.1C116.324 103.727 116.697 103.233 116.911 102.62H118.871C118.577 103.673 117.991 104.533 117.111 105.2C116.231 105.853 115.137 106.18 113.831 106.18C112.791 106.18 111.857 105.947 111.031 105.48C110.217 105.013 109.577 104.353 109.111 103.5C108.644 102.633 108.411 101.633 108.411 100.5C108.411 99.3667 108.637 98.3733 109.091 97.52C109.544 96.6667 110.177 96.0133 110.991 95.56C111.817 95.0933 112.764 94.86 113.831 94.86C114.871 94.86 115.791 95.0867 116.591 95.54C117.391 95.9933 118.004 96.62 118.431 97.42C118.871 98.2067 119.091 99.1 119.091 100.1ZM117.211 99.72C117.211 99.0267 117.057 98.4333 116.751 97.94C116.444 97.4333 116.024 97.0533 115.491 96.8C114.971 96.5333 114.391 96.4 113.751 96.4C112.831 96.4 112.044 96.6933 111.391 97.28C110.751 97.8667 110.384 98.68 110.291 99.72H117.211ZM126.833 94.84C128.166 94.84 129.246 95.2467 130.073 96.06C130.9 96.86 131.313 98.02 131.313 99.54V106H129.513V99.8C129.513 98.7067 129.24 97.8733 128.693 97.3C128.146 96.7133 127.4 96.42 126.453 96.42C125.493 96.42 124.726 96.72 124.153 97.32C123.593 97.92 123.313 98.7933 123.313 99.94V106H121.493V95.04H123.313V96.6C123.673 96.04 124.16 95.6067 124.773 95.3C125.4 94.9933 126.086 94.84 126.833 94.84ZM135.226 93.26C134.879 93.26 134.586 93.14 134.346 92.9C134.106 92.66 133.986 92.3667 133.986 92.02C133.986 91.6733 134.106 91.38 134.346 91.14C134.586 90.9 134.879 90.78 135.226 90.78C135.559 90.78 135.839 90.9 136.066 91.14C136.306 91.38 136.426 91.6733 136.426 92.02C136.426 92.3667 136.306 92.66 136.066 92.9C135.839 93.14 135.559 93.26 135.226 93.26ZM136.106 95.04V106H134.286V95.04H136.106ZM152.388 94.84C153.241 94.84 154.001 95.02 154.668 95.38C155.335 95.7267 155.861 96.2533 156.248 96.96C156.635 97.6667 156.828 98.5267 156.828 99.54V106H155.028V99.8C155.028 98.7067 154.755 97.8733 154.208 97.3C153.675 96.7133 152.948 96.42 152.028 96.42C151.081 96.42 150.328 96.7267 149.768 97.34C149.208 97.94 148.928 98.8133 148.928 99.96V106H147.128V99.8C147.128 98.7067 146.855 97.8733 146.308 97.3C145.775 96.7133 145.048 96.42 144.128 96.42C143.181 96.42 142.428 96.7267 141.868 97.34C141.308 97.94 141.028 98.8133 141.028 99.96V106H139.208V95.04H141.028V96.62C141.388 96.0467 141.868 95.6067 142.468 95.3C143.081 94.9933 143.755 94.84 144.488 94.84C145.408 94.84 146.221 95.0467 146.928 95.46C147.635 95.8733 148.161 96.48 148.508 97.28C148.815 96.5067 149.321 95.9067 150.028 95.48C150.735 95.0533 151.521 94.84 152.388 94.84ZM164.465 100.48C164.465 99.36 164.692 98.38 165.145 97.54C165.599 96.6867 166.219 96.0267 167.005 95.56C167.805 95.0933 168.692 94.86 169.665 94.86C170.625 94.86 171.459 95.0667 172.165 95.48C172.872 95.8933 173.399 96.4133 173.745 97.04V95.04H175.585V106H173.745V103.96C173.385 104.6 172.845 105.133 172.125 105.56C171.419 105.973 170.592 106.18 169.645 106.18C168.672 106.18 167.792 105.94 167.005 105.46C166.219 104.98 165.599 104.307 165.145 103.44C164.692 102.573 164.465 101.587 164.465 100.48ZM173.745 100.5C173.745 99.6733 173.579 98.9533 173.245 98.34C172.912 97.7267 172.459 97.26 171.885 96.94C171.325 96.6067 170.705 96.44 170.025 96.44C169.345 96.44 168.725 96.6 168.165 96.92C167.605 97.24 167.159 97.7067 166.825 98.32C166.492 98.9333 166.325 99.6533 166.325 100.48C166.325 101.32 166.492 102.053 166.825 102.68C167.159 103.293 167.605 103.767 168.165 104.1C168.725 104.42 169.345 104.58 170.025 104.58C170.705 104.58 171.325 104.42 171.885 104.1C172.459 103.767 172.912 103.293 173.245 102.68C173.579 102.053 173.745 101.327 173.745 100.5ZM177.981 100.48C177.981 99.36 178.208 98.38 178.661 97.54C179.114 96.6867 179.734 96.0267 180.521 95.56C181.321 95.0933 182.214 94.86 183.201 94.86C184.054 94.86 184.848 95.06 185.581 95.46C186.314 95.8467 186.874 96.36 187.261 97V91.2H189.101V106H187.261V103.94C186.901 104.593 186.368 105.133 185.661 105.56C184.954 105.973 184.128 106.18 183.181 106.18C182.208 106.18 181.321 105.94 180.521 105.46C179.734 104.98 179.114 104.307 178.661 103.44C178.208 102.573 177.981 101.587 177.981 100.48ZM187.261 100.5C187.261 99.6733 187.094 98.9533 186.761 98.34C186.428 97.7267 185.974 97.26 185.401 96.94C184.841 96.6067 184.221 96.44 183.541 96.44C182.861 96.44 182.241 96.6 181.681 96.92C181.121 97.24 180.674 97.7067 180.341 98.32C180.008 98.9333 179.841 99.6533 179.841 100.48C179.841 101.32 180.008 102.053 180.341 102.68C180.674 103.293 181.121 103.767 181.681 104.1C182.241 104.42 182.861 104.58 183.541 104.58C184.221 104.58 184.841 104.42 185.401 104.1C185.974 103.767 186.428 103.293 186.761 102.68C187.094 102.053 187.261 101.327 187.261 100.5ZM210.689 94.84C211.542 94.84 212.302 95.02 212.969 95.38C213.635 95.7267 214.162 96.2533 214.549 96.96C214.935 97.6667 215.129 98.5267 215.129 99.54V106H213.329V99.8C213.329 98.7067 213.055 97.8733 212.509 97.3C211.975 96.7133 211.249 96.42 210.329 96.42C209.382 96.42 208.629 96.7267 208.069 97.34C207.509 97.94 207.229 98.8133 207.229 99.96V106H205.429V99.8C205.429 98.7067 205.155 97.8733 204.609 97.3C204.075 96.7133 203.349 96.42 202.429 96.42C201.482 96.42 200.729 96.7267 200.169 97.34C199.609 97.94 199.329 98.8133 199.329 99.96V106H197.509V95.04H199.329V96.62C199.689 96.0467 200.169 95.6067 200.769 95.3C201.382 94.9933 202.055 94.84 202.789 94.84C203.709 94.84 204.522 95.0467 205.229 95.46C205.935 95.8733 206.462 96.48 206.809 97.28C207.115 96.5067 207.622 95.9067 208.329 95.48C209.035 95.0533 209.822 94.84 210.689 94.84ZM219.054 93.26C218.708 93.26 218.414 93.14 218.174 92.9C217.934 92.66 217.814 92.3667 217.814 92.02C217.814 91.6733 217.934 91.38 218.174 91.14C218.414 90.9 218.708 90.78 219.054 90.78C219.388 90.78 219.668 90.9 219.894 91.14C220.134 91.38 220.254 91.6733 220.254 92.02C220.254 92.3667 220.134 92.66 219.894 92.9C219.668 93.14 219.388 93.26 219.054 93.26ZM219.934 95.04V106H218.114V95.04H219.934ZM228.376 94.84C229.709 94.84 230.789 95.2467 231.616 96.06C232.443 96.86 232.856 98.02 232.856 99.54V106H231.056V99.8C231.056 98.7067 230.783 97.8733 230.236 97.3C229.689 96.7133 228.943 96.42 227.996 96.42C227.036 96.42 226.269 96.72 225.696 97.32C225.136 97.92 224.856 98.7933 224.856 99.94V106H223.036V95.04H224.856V96.6C225.216 96.04 225.703 95.6067 226.316 95.3C226.943 94.9933 227.629 94.84 228.376 94.84ZM236.769 93.26C236.422 93.26 236.129 93.14 235.889 92.9C235.649 92.66 235.529 92.3667 235.529 92.02C235.529 91.6733 235.649 91.38 235.889 91.14C236.129 90.9 236.422 90.78 236.769 90.78C237.102 90.78 237.382 90.9 237.609 91.14C237.849 91.38 237.969 91.6733 237.969 92.02C237.969 92.3667 237.849 92.66 237.609 92.9C237.382 93.14 237.102 93.26 236.769 93.26ZM237.649 95.04V106H235.829V95.04H237.649ZM253.931 94.84C254.784 94.84 255.544 95.02 256.211 95.38C256.878 95.7267 257.404 96.2533 257.791 96.96C258.178 97.6667 258.371 98.5267 258.371 99.54V106H256.571V99.8C256.571 98.7067 256.298 97.8733 255.751 97.3C255.218 96.7133 254.491 96.42 253.571 96.42C252.624 96.42 251.871 96.7267 251.311 97.34C250.751 97.94 250.471 98.8133 250.471 99.96V106H248.671V99.8C248.671 98.7067 248.398 97.8733 247.851 97.3C247.318 96.7133 246.591 96.42 245.671 96.42C244.724 96.42 243.971 96.7267 243.411 97.34C242.851 97.94 242.571 98.8133 242.571 99.96V106H240.751V95.04H242.571V96.62C242.931 96.0467 243.411 95.6067 244.011 95.3C244.624 94.9933 245.298 94.84 246.031 94.84C246.951 94.84 247.764 95.0467 248.471 95.46C249.178 95.8733 249.704 96.48 250.051 97.28C250.358 96.5067 250.864 95.9067 251.571 95.48C252.278 95.0533 253.064 94.84 253.931 94.84ZM270.768 104.32L274.168 95.04H276.108L271.808 106H269.688L265.388 95.04H267.348L270.768 104.32ZM287.899 100.1C287.899 100.447 287.879 100.813 287.839 101.2H279.079C279.146 102.28 279.513 103.127 280.179 103.74C280.859 104.34 281.679 104.64 282.639 104.64C283.426 104.64 284.079 104.46 284.599 104.1C285.133 103.727 285.506 103.233 285.719 102.62H287.679C287.386 103.673 286.799 104.533 285.919 105.2C285.039 105.853 283.946 106.18 282.639 106.18C281.599 106.18 280.666 105.947 279.839 105.48C279.026 105.013 278.386 104.353 277.919 103.5C277.453 102.633 277.219 101.633 277.219 100.5C277.219 99.3667 277.446 98.3733 277.899 97.52C278.353 96.6667 278.986 96.0133 279.799 95.56C280.626 95.0933 281.573 94.86 282.639 94.86C283.679 94.86 284.599 95.0867 285.399 95.54C286.199 95.9933 286.813 96.62 287.239 97.42C287.679 98.2067 287.899 99.1 287.899 100.1ZM286.019 99.72C286.019 99.0267 285.866 98.4333 285.559 97.94C285.253 97.4333 284.833 97.0533 284.299 96.8C283.779 96.5333 283.199 96.4 282.559 96.4C281.639 96.4 280.853 96.6933 280.199 97.28C279.559 97.8667 279.193 98.68 279.099 99.72H286.019ZM295.642 94.84C296.975 94.84 298.055 95.2467 298.882 96.06C299.708 96.86 300.122 98.02 300.122 99.54V106H298.322V99.8C298.322 98.7067 298.048 97.8733 297.502 97.3C296.955 96.7133 296.208 96.42 295.262 96.42C294.302 96.42 293.535 96.72 292.962 97.32C292.402 97.92 292.122 98.7933 292.122 99.94V106H290.302V95.04H292.122V96.6C292.482 96.04 292.968 95.6067 293.582 95.3C294.208 94.9933 294.895 94.84 295.642 94.84ZM304.035 93.26C303.688 93.26 303.395 93.14 303.155 92.9C302.915 92.66 302.795 92.3667 302.795 92.02C302.795 91.6733 302.915 91.38 303.155 91.14C303.395 90.9 303.688 90.78 304.035 90.78C304.368 90.78 304.648 90.9 304.875 91.14C305.115 91.38 305.235 91.6733 305.235 92.02C305.235 92.3667 305.115 92.66 304.875 92.9C304.648 93.14 304.368 93.26 304.035 93.26ZM304.915 95.04V106H303.095V95.04H304.915ZM307.337 100.48C307.337 99.36 307.563 98.38 308.017 97.54C308.47 96.6867 309.09 96.0267 309.877 95.56C310.677 95.0933 311.563 94.86 312.537 94.86C313.497 94.86 314.33 95.0667 315.037 95.48C315.743 95.8933 316.27 96.4133 316.617 97.04V95.04H318.457V106H316.617V103.96C316.257 104.6 315.717 105.133 314.997 105.56C314.29 105.973 313.463 106.18 312.517 106.18C311.543 106.18 310.663 105.94 309.877 105.46C309.09 104.98 308.47 104.307 308.017 103.44C307.563 102.573 307.337 101.587 307.337 100.48ZM316.617 100.5C316.617 99.6733 316.45 98.9533 316.117 98.34C315.783 97.7267 315.33 97.26 314.757 96.94C314.197 96.6067 313.577 96.44 312.897 96.44C312.217 96.44 311.597 96.6 311.037 96.92C310.477 97.24 310.03 97.7067 309.697 98.32C309.363 98.9333 309.197 99.6533 309.197 100.48C309.197 101.32 309.363 102.053 309.697 102.68C310.03 103.293 310.477 103.767 311.037 104.1C311.597 104.42 312.217 104.58 312.897 104.58C313.577 104.58 314.197 104.42 314.757 104.1C315.33 103.767 315.783 103.293 316.117 102.68C316.45 102.053 316.617 101.327 316.617 100.5ZM334.712 94.84C335.566 94.84 336.326 95.02 336.992 95.38C337.659 95.7267 338.186 96.2533 338.572 96.96C338.959 97.6667 339.152 98.5267 339.152 99.54V106H337.352V99.8C337.352 98.7067 337.079 97.8733 336.532 97.3C335.999 96.7133 335.272 96.42 334.352 96.42C333.406 96.42 332.652 96.7267 332.092 97.34C331.532 97.94 331.252 98.8133 331.252 99.96V106H329.452V99.8C329.452 98.7067 329.179 97.8733 328.632 97.3C328.099 96.7133 327.372 96.42 326.452 96.42C325.506 96.42 324.752 96.7267 324.192 97.34C323.632 97.94 323.352 98.8133 323.352 99.96V106H321.532V95.04H323.352V96.62C323.712 96.0467 324.192 95.6067 324.792 95.3C325.406 94.9933 326.079 94.84 326.812 94.84C327.732 94.84 328.546 95.0467 329.252 95.46C329.959 95.8733 330.486 96.48 330.832 97.28C331.139 96.5067 331.646 95.9067 332.352 95.48C333.059 95.0533 333.846 94.84 334.712 94.84ZM344.018 103.48L341.778 108.86H340.558L342.018 103.48H344.018ZM350.755 100.48C350.755 99.36 350.981 98.38 351.435 97.54C351.888 96.6867 352.508 96.0267 353.295 95.56C354.095 95.0933 354.988 94.86 355.975 94.86C356.921 94.86 357.748 95.0733 358.455 95.5C359.175 95.9133 359.701 96.4267 360.035 97.04V95.04H361.875V111.2H360.035V103.98C359.688 104.593 359.155 105.113 358.435 105.54C357.715 105.967 356.875 106.18 355.915 106.18C354.955 106.18 354.081 105.94 353.295 105.46C352.508 104.98 351.888 104.307 351.435 103.44C350.981 102.573 350.755 101.587 350.755 100.48ZM360.035 100.5C360.035 99.6733 359.868 98.9533 359.535 98.34C359.201 97.7267 358.748 97.26 358.175 96.94C357.615 96.6067 356.995 96.44 356.315 96.44C355.635 96.44 355.015 96.6 354.455 96.92C353.895 97.24 353.448 97.7067 353.115 98.32C352.781 98.9333 352.615 99.6533 352.615 100.48C352.615 101.32 352.781 102.053 353.115 102.68C353.448 103.293 353.895 103.767 354.455 104.1C355.015 104.42 355.635 104.58 356.315 104.58C356.995 104.58 357.615 104.42 358.175 104.1C358.748 103.767 359.201 103.293 359.535 102.68C359.868 102.053 360.035 101.327 360.035 100.5ZM374.67 95.04V106H372.85V104.38C372.503 104.94 372.017 105.38 371.39 105.7C370.777 106.007 370.097 106.16 369.35 106.16C368.497 106.16 367.73 105.987 367.05 105.64C366.37 105.28 365.83 104.747 365.43 104.04C365.043 103.333 364.85 102.473 364.85 101.46V95.04H366.65V101.22C366.65 102.3 366.923 103.133 367.47 103.72C368.017 104.293 368.763 104.58 369.71 104.58C370.683 104.58 371.45 104.28 372.01 103.68C372.57 103.08 372.85 102.207 372.85 101.06V95.04H374.67ZM378.683 93.26C378.336 93.26 378.043 93.14 377.803 92.9C377.563 92.66 377.443 92.3667 377.443 92.02C377.443 91.6733 377.563 91.38 377.803 91.14C378.043 90.9 378.336 90.78 378.683 90.78C379.016 90.78 379.296 90.9 379.523 91.14C379.763 91.38 379.883 91.6733 379.883 92.02C379.883 92.3667 379.763 92.66 379.523 92.9C379.296 93.14 379.016 93.26 378.683 93.26ZM379.563 95.04V106H377.743V95.04H379.563ZM386.545 106.18C385.705 106.18 384.952 106.04 384.285 105.76C383.618 105.467 383.092 105.067 382.705 104.56C382.318 104.04 382.105 103.447 382.065 102.78H383.945C383.998 103.327 384.252 103.773 384.705 104.12C385.172 104.467 385.778 104.64 386.525 104.64C387.218 104.64 387.765 104.487 388.165 104.18C388.565 103.873 388.765 103.487 388.765 103.02C388.765 102.54 388.552 102.187 388.125 101.96C387.698 101.72 387.038 101.487 386.145 101.26C385.332 101.047 384.665 100.833 384.145 100.62C383.638 100.393 383.198 100.067 382.825 99.64C382.465 99.2 382.285 98.6267 382.285 97.92C382.285 97.36 382.452 96.8467 382.785 96.38C383.118 95.9133 383.592 95.5467 384.205 95.28C384.818 95 385.518 94.86 386.305 94.86C387.518 94.86 388.498 95.1667 389.245 95.78C389.992 96.3933 390.392 97.2333 390.445 98.3H388.625C388.585 97.7267 388.352 97.2667 387.925 96.92C387.512 96.5733 386.952 96.4 386.245 96.4C385.592 96.4 385.072 96.54 384.685 96.82C384.298 97.1 384.105 97.4667 384.105 97.92C384.105 98.28 384.218 98.58 384.445 98.82C384.685 99.0467 384.978 99.2333 385.325 99.38C385.685 99.5133 386.178 99.6667 386.805 99.84C387.592 100.053 388.232 100.267 388.725 100.48C389.218 100.68 389.638 100.987 389.985 101.4C390.345 101.813 390.532 102.353 390.545 103.02C390.545 103.62 390.378 104.16 390.045 104.64C389.712 105.12 389.238 105.5 388.625 105.78C388.025 106.047 387.332 106.18 386.545 106.18ZM168.835 124.84C170.168 124.84 171.248 125.247 172.075 126.06C172.902 126.86 173.315 128.02 173.315 129.54V136H171.515V129.8C171.515 128.707 171.242 127.873 170.695 127.3C170.148 126.713 169.402 126.42 168.455 126.42C167.495 126.42 166.728 126.72 166.155 127.32C165.595 127.92 165.315 128.793 165.315 129.94V136H163.495V125.04H165.315V126.6C165.675 126.04 166.162 125.607 166.775 125.3C167.402 124.993 168.088 124.84 168.835 124.84ZM181.068 136.18C180.041 136.18 179.108 135.947 178.268 135.48C177.441 135.013 176.788 134.353 176.308 133.5C175.841 132.633 175.608 131.633 175.608 130.5C175.608 129.38 175.848 128.393 176.328 127.54C176.821 126.673 177.488 126.013 178.328 125.56C179.168 125.093 180.108 124.86 181.148 124.86C182.188 124.86 183.128 125.093 183.968 125.56C184.808 126.013 185.468 126.667 185.948 127.52C186.441 128.373 186.688 129.367 186.688 130.5C186.688 131.633 186.435 132.633 185.928 133.5C185.435 134.353 184.761 135.013 183.908 135.48C183.055 135.947 182.108 136.18 181.068 136.18ZM181.068 134.58C181.721 134.58 182.335 134.427 182.908 134.12C183.481 133.813 183.941 133.353 184.288 132.74C184.648 132.127 184.828 131.38 184.828 130.5C184.828 129.62 184.655 128.873 184.308 128.26C183.961 127.647 183.508 127.193 182.948 126.9C182.388 126.593 181.781 126.44 181.128 126.44C180.461 126.44 179.848 126.593 179.288 126.9C178.741 127.193 178.301 127.647 177.968 128.26C177.635 128.873 177.468 129.62 177.468 130.5C177.468 131.393 177.628 132.147 177.948 132.76C178.281 133.373 178.721 133.833 179.268 134.14C179.815 134.433 180.415 134.58 181.068 134.58ZM192.961 136.18C192.121 136.18 191.368 136.04 190.701 135.76C190.034 135.467 189.508 135.067 189.121 134.56C188.734 134.04 188.521 133.447 188.481 132.78H190.361C190.414 133.327 190.668 133.773 191.121 134.12C191.588 134.467 192.194 134.64 192.941 134.64C193.634 134.64 194.181 134.487 194.581 134.18C194.981 133.873 195.181 133.487 195.181 133.02C195.181 132.54 194.968 132.187 194.541 131.96C194.114 131.72 193.454 131.487 192.561 131.26C191.748 131.047 191.081 130.833 190.561 130.62C190.054 130.393 189.614 130.067 189.241 129.64C188.881 129.2 188.701 128.627 188.701 127.92C188.701 127.36 188.868 126.847 189.201 126.38C189.534 125.913 190.008 125.547 190.621 125.28C191.234 125 191.934 124.86 192.721 124.86C193.934 124.86 194.914 125.167 195.661 125.78C196.408 126.393 196.808 127.233 196.861 128.3H195.041C195.001 127.727 194.768 127.267 194.341 126.92C193.928 126.573 193.368 126.4 192.661 126.4C192.008 126.4 191.488 126.54 191.101 126.82C190.714 127.1 190.521 127.467 190.521 127.92C190.521 128.28 190.634 128.58 190.861 128.82C191.101 129.047 191.394 129.233 191.741 129.38C192.101 129.513 192.594 129.667 193.221 129.84C194.008 130.053 194.648 130.267 195.141 130.48C195.634 130.68 196.054 130.987 196.401 131.4C196.761 131.813 196.948 132.353 196.961 133.02C196.961 133.62 196.794 134.16 196.461 134.64C196.128 135.12 195.654 135.5 195.041 135.78C194.441 136.047 193.748 136.18 192.961 136.18ZM201.75 126.54V133C201.75 133.533 201.864 133.913 202.09 134.14C202.317 134.353 202.71 134.46 203.27 134.46H204.61V136H202.97C201.957 136 201.197 135.767 200.69 135.3C200.184 134.833 199.93 134.067 199.93 133V126.54H198.51V125.04H199.93V122.28H201.75V125.04H204.61V126.54H201.75ZM208.635 126.82C208.955 126.193 209.409 125.707 209.995 125.36C210.595 125.013 211.322 124.84 212.175 124.84V126.72H211.695C209.655 126.72 208.635 127.827 208.635 130.04V136H206.815V125.04H208.635V126.82ZM223.996 125.04V136H222.176V134.38C221.83 134.94 221.343 135.38 220.716 135.7C220.103 136.007 219.423 136.16 218.676 136.16C217.823 136.16 217.056 135.987 216.376 135.64C215.696 135.28 215.156 134.747 214.756 134.04C214.37 133.333 214.176 132.473 214.176 131.46V125.04H215.976V131.22C215.976 132.3 216.25 133.133 216.796 133.72C217.343 134.293 218.09 134.58 219.036 134.58C220.01 134.58 220.776 134.28 221.336 133.68C221.896 133.08 222.176 132.207 222.176 131.06V125.04H223.996ZM226.389 130.48C226.389 129.36 226.616 128.38 227.069 127.54C227.523 126.687 228.143 126.027 228.929 125.56C229.729 125.093 230.623 124.86 231.609 124.86C232.463 124.86 233.256 125.06 233.989 125.46C234.723 125.847 235.283 126.36 235.669 127V121.2H237.509V136H235.669V133.94C235.309 134.593 234.776 135.133 234.069 135.56C233.363 135.973 232.536 136.18 231.589 136.18C230.616 136.18 229.729 135.94 228.929 135.46C228.143 134.98 227.523 134.307 227.069 133.44C226.616 132.573 226.389 131.587 226.389 130.48ZM235.669 130.5C235.669 129.673 235.503 128.953 235.169 128.34C234.836 127.727 234.383 127.26 233.809 126.94C233.249 126.607 232.629 126.44 231.949 126.44C231.269 126.44 230.649 126.6 230.089 126.92C229.529 127.24 229.083 127.707 228.749 128.32C228.416 128.933 228.249 129.653 228.249 130.48C228.249 131.32 228.416 132.053 228.749 132.68C229.083 133.293 229.529 133.767 230.089 134.1C230.649 134.42 231.269 134.58 231.949 134.58C232.629 134.58 233.249 134.42 233.809 134.1C234.383 133.767 234.836 133.293 235.169 132.68C235.503 132.053 235.669 131.327 235.669 130.5Z" fill="#CDCDCD"/>
</svg>
